<?xml version="1.0" encoding="UTF-8" standalone="no"?>
<svg
   xmlns:dc="http://purl.org/dc/elements/1.1/"
   xmlns:cc="http://web.resource.org/cc/"
   xmlns:rdf="http://www.w3.org/1999/02/22-rdf-syntax-ns#"
   xmlns:svg="http://www.w3.org/2000/svg"
   xmlns="http://www.w3.org/2000/svg"
   xmlns:xlink="http://www.w3.org/1999/xlink"
   xmlns:sodipodi="http://sodipodi.sourceforge.net/DTD/sodipodi-0.dtd"
   xmlns:inkscape="http://www.inkscape.org/namespaces/inkscape"
   viewBox="0 0 16 8"
   width="1024"
   height="512"
   preserveAspectRatio="none"
   id="svg3401"
   sodipodi:version="0.32"
   inkscape:version="0.45.1"
   sodipodi:docname="HSLSphere_topath.svg"
   inkscape:output_extension="org.inkscape.output.svg.inkscape"
   sodipodi:docbase="C:\Working\SVG">
  <metadata
     id="metadata3578">
    <rdf:RDF>
      <cc:Work
         rdf:about="">
        <dc:format>image/svg+xml</dc:format>
        <dc:type
           rdf:resource="http://purl.org/dc/dcmitype/StillImage" />
      </cc:Work>
    </rdf:RDF>
  </metadata>
  <sodipodi:namedview
     inkscape:window-height="696"
     inkscape:window-width="1024"
     inkscape:pageshadow="2"
     inkscape:pageopacity="0.0"
     guidetolerance="10.0"
     gridtolerance="10.0"
     objecttolerance="10.0"
     borderopacity="1.0"
     bordercolor="#666666"
     pagecolor="#ffffff"
     id="base"
     inkscape:zoom="0.6484375"
     inkscape:cx="686.44858"
     inkscape:cy="401.07506"
     inkscape:window-x="-4"
     inkscape:window-y="-4"
     inkscape:current-layer="svg3491" />
  <title
     id="title3403">HSL Sphere</title>
  <desc
     id="desc3405" />
  <defs
     id="defs3407">
    <path
       id="arrow"
       d="M 0 0.15 L 0.2 0 L 0 -0.15 z"
       fill="black"
       stroke="none" />
  </defs>
  <svg
     x="-0.25"
     y="-0.25"
     viewBox="-4 -4 8 8"
     preserveAspectRatio="none"
     width="8.5"
     height="8.5"
     id="svg3410">
    <circle
       cx="0"
       cy="0"
       r="3"
       style="stroke:#000000;stroke-width:0.05px;"
       id="circle3514" />
    <g
       id="g3516">
<!--row1-->      <path
         d="    M -0.00 +0.00    L -0.00 +0.78    A  0.78  0.78 90 0,1 -0.20 +0.75    L -0.00 +0.00   "
         style="fill:#ffffff;stroke:#000000;stroke-width:0.01px;"
         id="path3518" />
      <path
         d="    M -0.00 +0.00    L -0.20 +0.75    A  0.78  0.78 90 0,1 -0.55 +0.55    L -0.00 +0.00   "
         style="fill:#ffffff;stroke:#000000;stroke-width:0.01px;"
         id="path3520" />
      <path
         d="    M -0.00 +0.00    L -0.55 +0.55    A  0.78  0.78 90 0,1 -0.75 +0.20    L -0.00 +0.00   "
         style="fill:#ffffff;stroke:#000000;stroke-width:0.01px;"
         id="path3522" />
      <path
         d="    M -0.00 +0.00    L -0.75 +0.20    A  0.78  0.78 90 0,1 -0.75 -0.20    L -0.00 +0.00   "
         style="fill:#ffffff;stroke:#000000;stroke-width:0.01px;"
         id="path3524" />
      <path
         d="    M -0.00 +0.00    L -0.75 -0.20    A  0.78  0.78 90 0,1 -0.55 -0.55    L -0.00 +0.00   "
         style="fill:#ffffff;stroke:#000000;stroke-width:0.01px;"
         id="path3526" />
      <path
         d="    M -0.00 +0.00    L -0.55 -0.55    A  0.78  0.78 90 0,1 -0.20 -0.75    L -0.00 +0.00   "
         style="fill:#ffffff;stroke:#000000;stroke-width:0.01px;"
         id="path3528" />
      <path
         d="    M -0.00 +0.00    L -0.20 -0.75    A  0.78  0.78 90 0,1 +0.20 -0.75    L -0.00 +0.00   "
         style="fill:#ffffff;stroke:#000000;stroke-width:0.01px;"
         id="path3530" />
      <path
         d="    M -0.00 +0.00    L +0.20 -0.75    A  0.78  0.78 90 0,1 +0.55 -0.55    L -0.00 +0.00   "
         style="fill:#ffffff;stroke:#000000;stroke-width:0.01px;"
         id="path3532" />
      <path
         d="    M -0.00 +0.00    L +0.55 -0.55    A  0.78  0.78 90 0,1 +0.75 -0.20    L -0.00 +0.00   "
         style="fill:#ffffff;stroke:#000000;stroke-width:0.01px;"
         id="path3534" />
      <path
         d="    M -0.00 +0.00    L +0.75 -0.20    A  0.78  0.78 90 0,1 +0.78 -0.00    L -0.00 +0.00   "
         style="fill:#ffffff;stroke:#000000;stroke-width:0.01px;"
         id="path3536" />
<!--row2-->      <path
         d="    M -0.00 +0.78    L -0.00 +2.12    A  2.12  2.12 90 0,1 -0.55 +2.05    L -0.20 +0.75    A  0.78  0.78 90 0,0 -0.00 +0.78   "
         style="fill:#ffaaaa;stroke:#000000;stroke-width:0.01px;"
         id="path3538" />
      <path
         d="    M -0.20 +0.75    L -0.55 +2.05    A  2.12  2.12 90 0,1 -1.50 +1.50    L -0.55 +0.55    A  0.78  0.78 90 0,0 -0.20 +0.75   "
         style="fill:#ffaad5;stroke:#000000;stroke-width:0.01px;"
         id="path3540" />
      <path
         d="    M -0.55 +0.55    L -1.50 +1.50    A  2.12  2.12 90 0,1 -2.05 +0.55    L -0.75 +0.20    A  0.78  0.78 90 0,0 -0.55 +0.55   "
         style="fill:#ffaaff;stroke:#000000;stroke-width:0.01px;"
         id="path3542" />
      <path
         d="    M -0.75 +0.20    L -2.05 +0.55    A  2.12  2.12 90 0,1 -2.05 -0.55    L -0.75 -0.20    A  0.78  0.78 90 0,0 -0.75 +0.20   "
         style="fill:#d5aaff;stroke:#000000;stroke-width:0.01px;"
         id="path3544" />
      <path
         d="    M -0.75 -0.20    L -2.05 -0.55    A  2.12  2.12 90 0,1 -1.50 -1.50    L -0.55 -0.55    A  0.78  0.78 90 0,0 -0.75 -0.20   "
         style="fill:#aaaaff;stroke:#000000;stroke-width:0.01px;"
         id="path3546" />
      <path
         d="    M -0.55 -0.55    L -1.50 -1.50    A  2.12  2.12 90 0,1 -0.55 -2.05    L -0.20 -0.75    A  0.78  0.78 90 0,0 -0.55 -0.55   "
         style="fill:#aad5ff;stroke:#000000;stroke-width:0.01px;"
         id="path3548" />
      <path
         d="    M -0.20 -0.75    L -0.55 -2.05    A  2.12  2.12 90 0,1 +0.55 -2.05    L +0.20 -0.75    A  0.78  0.78 90 0,0 -0.20 -0.75   "
         style="fill:#aaffff;stroke:#000000;stroke-width:0.01px;"
         id="path3550" />
      <path
         d="    M +0.20 -0.75    L +0.55 -2.05    A  2.12  2.12 90 0,1 +1.50 -1.50    L +0.55 -0.55    A  0.78  0.78 90 0,0 +0.20 -0.75   "
         style="fill:#aaffd5;stroke:#000000;stroke-width:0.01px;"
         id="path3552" />
      <path
         d="    M +0.55 -0.55    L +1.50 -1.50    A  2.12  2.12 90 0,1 +2.05 -0.55    L +0.75 -0.20    A  0.78  0.78 90 0,0 +0.55 -0.55   "
         style="fill:#aaffaa;stroke:#000000;stroke-width:0.01px;"
         id="path3554" />
      <path
         d="    M +0.75 -0.20    L +2.05 -0.55    A  2.12  2.12 90 0,1 +2.12 -0.00    L +0.78 -0.00    A  0.78  0.78 90 0,0 +0.75 -0.20   "
         style="fill:#d5ffaa;stroke:#000000;stroke-width:0.01px;"
         id="path3556" />
<!--row3-->      <path
         d="    M -0.00 +2.12    L -0.00 +2.90    A  2.90  2.90 90 0,1 -0.75 +2.80    L -0.55 +2.05    A  2.12  2.12 90 0,0 -0.00 +2.12   "
         style="fill:#ff5555;stroke:#000000;stroke-width:0.01px;"
         id="path3558" />
      <path
         d="    M -0.55 +2.05    L -0.75 +2.80    A  2.90  2.90 90 0,1 -2.05 +2.05    L -1.50 +1.50    A  2.12  2.12 90 0,0 -0.55 +2.05   "
         style="fill:#ff55aa;stroke:#000000;stroke-width:0.01px;"
         id="path3560" />
      <path
         d="    M -1.50 +1.50    L -2.05 +2.05    A  2.90  2.90 90 0,1 -2.80 +0.75    L -2.05 +0.55    A  2.12  2.12 90 0,0 -1.50 +1.50   "
         style="fill:#ff55ff;stroke:#000000;stroke-width:0.01px;"
         id="path3562" />
      <path
         d="    M -2.05 +0.55    L -2.80 +0.75    A  2.90  2.90 90 0,1 -2.80 -0.75    L -2.05 -0.55    A  2.12  2.12 90 0,0 -2.05 +0.55   "
         style="fill:#aa55ff;stroke:#000000;stroke-width:0.01px;"
         id="path3564" />
      <path
         d="    M -2.05 -0.55    L -2.80 -0.75    A  2.90  2.90 90 0,1 -2.05 -2.05    L -1.50 -1.50    A  2.12  2.12 90 0,0 -2.05 -0.55   "
         style="fill:#5555ff;stroke:#000000;stroke-width:0.01px;"
         id="path3566" />
      <path
         d="    M -1.50 -1.50    L -2.05 -2.05    A  2.90  2.90 90 0,1 -0.75 -2.80    L -0.55 -2.05    A  2.12  2.12 90 0,0 -1.50 -1.50   "
         style="fill:#55aaff;stroke:#000000;stroke-width:0.01px;"
         id="path3568" />
      <path
         d="    M -0.55 -2.05    L -0.75 -2.80    A  2.90  2.90 90 0,1 +0.75 -2.80    L +0.55 -2.05    A  2.12  2.12 90 0,0 -0.55 -2.05   "
         style="fill:#55ffff;stroke:#000000;stroke-width:0.01px;"
         id="path3570" />
      <path
         d="    M +0.55 -2.05    L +0.75 -2.80    A  2.90  2.90 90 0,1 +2.05 -2.05    L +1.50 -1.50    A  2.12  2.12 90 0,0 +0.55 -2.05   "
         style="fill:#55ffaa;stroke:#000000;stroke-width:0.01px;"
         id="path3572" />
      <path
         d="    M +1.50 -1.50    L +2.05 -2.05    A  2.90  2.90 90 0,1 +2.80 -0.75    L +2.05 -0.55    A  2.12  2.12 90 0,0 +1.50 -1.50   "
         style="fill:#55ff55;stroke:#000000;stroke-width:0.01px;"
         id="path3574" />
      <path
         d="    M +2.05 -0.55    L +2.80 -0.75    A  2.90  2.90 90 0,1 +2.90 -0.00    L +2.12 -0.00    A  2.12  2.12 90 0,0 +2.05 -0.55   "
         style="fill:#aaff55;stroke:#000000;stroke-width:0.01px;"
         id="path3576" />
<!--row4-->      <path
         d="    M -0.00 +2.90    L -0.00 +3.00    A  3.00  3.00 90 0,1 -0.78 +2.90    L -0.75 +2.80    A  2.90  2.90 90 0,0 -0.00 +2.90   "
         style="fill:#ff0000;stroke:#000000;stroke-width:0.01px;"
         id="path3578" />
      <path
         d="    M -0.75 +2.80    L -0.78 +2.90    A  3.00  3.00 90 0,1 -2.12 +2.12    L -2.05 +2.05    A  2.90  2.90 90 0,0 -0.75 +2.80   "
         style="fill:#ff0080;stroke:#000000;stroke-width:0.01px;"
         id="path3580" />
      <path
         d="    M -2.05 +2.05    L -2.12 +2.12    A  3.00  3.00 90 0,1 -2.90 +0.78    L -2.80 +0.75    A  2.90  2.90 90 0,0 -2.05 +2.05   "
         style="fill:#ff00ff;stroke:#000000;stroke-width:0.01px;"
         id="path3582" />
      <path
         d="    M -2.80 +0.75    L -2.90 +0.78    A  3.00  3.00 90 0,1 -2.90 -0.78    L -2.80 -0.75    A  2.90  2.90 90 0,0 -2.80 +0.75   "
         style="fill:#8000ff;stroke:#000000;stroke-width:0.01px;"
         id="path3584" />
      <path
         d="    M -2.80 -0.75    L -2.90 -0.78    A  3.00  3.00 90 0,1 -2.12 -2.12    L -2.05 -2.05    A  2.90  2.90 90 0,0 -2.80 -0.75   "
         style="fill:#0000ff;stroke:#000000;stroke-width:0.01px;"
         id="path3586" />
      <path
         d="    M -2.05 -2.05    L -2.12 -2.12    A  3.00  3.00 90 0,1 -0.78 -2.90    L -0.75 -2.80    A  2.90  2.90 90 0,0 -2.05 -2.05   "
         style="fill:#0080ff;stroke:#000000;stroke-width:0.01px;"
         id="path3588" />
      <path
         d="    M -0.75 -2.80    L -0.78 -2.90    A  3.00  3.00 90 0,1 +0.78 -2.90    L +0.75 -2.80    A  2.90  2.90 90 0,0 -0.75 -2.80   "
         style="fill:#00ffff;stroke:#000000;stroke-width:0.01px;"
         id="path3590" />
      <path
         d="    M +0.75 -2.80    L +0.78 -2.90    A  3.00  3.00 90 0,1 +2.12 -2.12    L +2.05 -2.05    A  2.90  2.90 90 0,0 +0.75 -2.80   "
         style="fill:#00ff80;stroke:#000000;stroke-width:0.01px;"
         id="path3592" />
      <path
         d="    M +2.05 -2.05    L +2.12 -2.12    A  3.00  3.00 90 0,1 +2.90 -0.78    L +2.80 -0.75    A  2.90  2.90 90 0,0 +2.05 -2.05   "
         style="fill:#00ff00;stroke:#000000;stroke-width:0.01px;"
         id="path3594" />
      <path
         d="    M +2.80 -0.75    L +2.90 -0.78    A  3.00  3.00 90 0,1 +3.00 -0.00    L +2.90 -0.00    A  2.90  2.90 90 0,0 +2.80 -0.75   "
         style="fill:#80ff00;stroke:#000000;stroke-width:0.01px;"
         id="path3596" />
<!--ring1-->      <path
         d="    M +0.00 +0.00    L +0.00 +0.25    A  0.25  0.25 0 0,0 +0.06 +0.24    L +0.00 +0.00   "
         style="fill:#808080;stroke:#000000;stroke-width:0.01px;"
         id="path3598" />
      <path
         d="    M +0.00 +0.00    L +0.06 +0.24    A  0.25  0.25 0 0,0 +0.18 +0.18    L +0.00 +0.00   "
         style="fill:#808080;stroke:#000000;stroke-width:0.01px;"
         id="path3600" />
      <path
         d="    M +0.00 +0.00    L +0.18 +0.18    A  0.25  0.25 0 0,0 +0.24 +0.06    L +0.00 +0.00   "
         style="fill:#808080;stroke:#000000;stroke-width:0.01px;"
         id="path3602" />
      <path
         d="    M +0.00 +0.00    L +0.24 +0.06    A  0.25  0.25 0 0,0 +0.25 +0.00    L +0.00 +0.00   "
         style="fill:#808080;stroke:#000000;stroke-width:0.01px;"
         id="path3604" />
<!--ring2-->      <path
         d="    M +0.00 +0.25    L +0.00 +0.75    A  0.75  0.75 0 0,0 +0.19 +0.72    L +0.06 +0.24    A  0.25  0.25 0 0,1 +0.00 +0.25   "
         style="fill:#956a6a;stroke:#000000;stroke-width:0.01px;"
         id="path3606" />
      <path
         d="    M +0.06 +0.24    L +0.19 +0.72    A  0.75  0.75 0 0,0 +0.53 +0.53    L +0.18 +0.18    A  0.25  0.25 0 0,1 +0.06 +0.24   "
         style="fill:#95806a;stroke:#000000;stroke-width:0.01px;"
         id="path3608" />
      <path
         d="    M +0.18 +0.18    L +0.53 +0.53    A  0.75  0.75 0 0,0 +0.72 +0.19    L +0.24 +0.06    A  0.25  0.25 0 0,1 +0.18 +0.18   "
         style="fill:#95956a;stroke:#000000;stroke-width:0.01px;"
         id="path3610" />
      <path
         d="    M +0.24 +0.06    L +0.72 +0.19    A  0.75  0.75 0 0,0 +0.75 +0.00    L +0.25 +0.00    A  0.25  0.25 0 0,1 +0.24 +0.06   "
         style="fill:#80956a;stroke:#000000;stroke-width:0.01px;"
         id="path3612" />
<!--ring3-->      <path
         d="    M +0.00 +0.75    L +0.00 +1.25    A  1.25  1.25 90 0,0 +0.32 +1.21    L +0.19 +0.72    A  0.75  0.75 90 0,1 +0.00 +0.75   "
         style="fill:#aa5555;stroke:#000000;stroke-width:0.01px;"
         id="path3614" />
      <path
         d="    M +0.19 +0.72    L +0.32 +1.21    A  1.25  1.25 90 0,0 +0.88 +0.88    L +0.53 +0.53    A  0.75  0.75 90 0,1 +0.19 +0.72   "
         style="fill:#aa8055;stroke:#000000;stroke-width:0.01px;"
         id="path3616" />
      <path
         d="    M +0.53 +0.53    L +0.88 +0.88    A  1.25  1.25 90 0,0 +1.21 +0.32    L +0.72 +0.19    A  0.75  0.75 90 0,1 +0.53 +0.53   "
         style="fill:#aaaa55;stroke:#000000;stroke-width:0.01px;"
         id="path3618" />
      <path
         d="    M +0.72 +0.19    L +1.21 +0.32    A  1.25  1.25 90 0,0 +1.25 +0.00    L +0.75 +0.00    A  0.75  0.75 90 0,1 +0.72 +0.19   "
         style="fill:#80aa55;stroke:#000000;stroke-width:0.01px;"
         id="path3620" />
<!--ring4-->      <path
         d="    M +0.00 +1.25    L +0.00 +1.75    A  1.75  1.75 90 0,0 +0.45 +1.69    L +0.32 +1.21    A  1.25  1.25 90 0,1 +0.00 +1.25   "
         style="fill:#bf4040;stroke:#000000;stroke-width:0.01px;"
         id="path3622" />
      <path
         d="    M +0.32 +1.21    L +0.45 +1.69    A  1.75  1.75 90 0,0 +1.24 +1.24    L +0.88 +0.88    A  1.25  1.25 90 0,1 +0.32 +1.21   "
         style="fill:#bf8040;stroke:#000000;stroke-width:0.01px;"
         id="path3624" />
      <path
         d="    M +0.88 +0.88    L +1.24 +1.24    A  1.75  1.75 90 0,0 +1.69 +0.45    L +1.21 +0.32    A  1.25  1.25 90 0,1 +0.88 +0.88   "
         style="fill:#bfbf40;stroke:#000000;stroke-width:0.01px;"
         id="path3626" />
      <path
         d="    M +1.21 +0.32    L +1.69 +0.45    A  1.75  1.75 90 0,0 +1.75 +0.00    L +1.25 +0.00    A  1.25  1.25 90 0,1 +1.21 +0.32   "
         style="fill:#80bf40;stroke:#000000;stroke-width:0.01px;"
         id="path3628" />
<!--ring5-->      <path
         d="    M +0.00 +1.75    L +0.00 +2.25    A  2.25  2.25 90 0,0 +0.58 +2.17    L +0.45 +1.69    A  1.75  1.75 90 0,1 +0.00 +1.75   "
         style="fill:#d52b2b;stroke:#000000;stroke-width:0.01px;"
         id="path3630" />
      <path
         d="    M +0.45 +1.69    L +0.58 +2.17    A  2.25  2.25 90 0,0 +1.59 +1.59    L +1.24 +1.24    A  1.75  1.75 90 0,1 +0.45 +1.69   "
         style="fill:#d5802b;stroke:#000000;stroke-width:0.01px;"
         id="path3632" />
      <path
         d="    M +1.24 +1.24    L +1.59 +1.59    A  2.25  2.25 90 0,0 +2.17 +0.58    L +1.69 +0.45    A  1.75  1.75 90 0,1 +1.24 +1.24   "
         style="fill:#d5d52b;stroke:#000000;stroke-width:0.01px;"
         id="path3634" />
      <path
         d="    M +1.69 +0.45    L +2.17 +0.58    A  2.25  2.25 90 0,0 +2.25 +0.00    L +1.75 +0.00    A  1.75  1.75 90 0,1 +1.69 +0.45   "
         style="fill:#80d52b;stroke:#000000;stroke-width:0.01px;"
         id="path3636" />
<!--ring6-->      <path
         d="    M +0.00 +2.25    L +0.00 +2.75    A  2.75  2.75 90 0,0 +0.71 +2.66    L +0.58 +2.17    A  2.25  2.25 90 0,1 +0.00 +2.25   "
         style="fill:#ea1515;stroke:#000000;stroke-width:0.01px;"
         id="path3638" />
      <path
         d="    M +0.58 +2.17    L +0.71 +2.66    A  2.75  2.75 90 0,0 +1.94 +1.94    L +1.59 +1.59    A  2.25  2.25 90 0,1 +0.58 +2.17   "
         style="fill:#ea8015;stroke:#000000;stroke-width:0.01px;"
         id="path3640" />
      <path
         d="    M +1.59 +1.59    L +1.94 +1.94    A  2.75  2.75 90 0,0 +2.66 +0.71    L +2.17 +0.58    A  2.25  2.25 90 0,1 +1.59 +1.59   "
         style="fill:#eaea15;stroke:#000000;stroke-width:0.01px;"
         id="path3642" />
      <path
         d="    M +2.17 +0.58    L +2.66 +0.71    A  2.75  2.75 90 0,0 +2.75 +0.00    L +2.25 +0.00    A  2.25  2.25 90 0,1 +2.17 +0.58   "
         style="fill:#80ea15;stroke:#000000;stroke-width:0.01px;"
         id="path3644" />
<!--ring7-->      <path
         d="    M +0.00 +2.75    L +0.00 +3.00    A  3.00  3.00 90 0,0 +0.78 +2.90    L +0.71 +2.66    A  2.75  2.75 90 0,1 +0.00 +2.75   "
         style="fill:#ff0000;stroke:#000000;stroke-width:0.01px;"
         id="path3646" />
      <path
         d="    M +0.71 +2.66    L +0.78 +2.90    A  3.00  3.00 90 0,0 +2.12 +2.12    L +1.94 +1.94    A  2.75  2.75 90 0,1 +0.71 +2.66   "
         style="fill:#ff8000;stroke:#000000;stroke-width:0.01px;"
         id="path3648" />
      <path
         d="    M +1.94 +1.94    L +2.12 +2.12    A  3.00  3.00 90 0,0 +2.90 +0.78    L +2.66 +0.71    A  2.75  2.75 90 0,1 +1.94 +1.94   "
         style="fill:#ffff00;stroke:#000000;stroke-width:0.01px;"
         id="path3650" />
      <path
         d="    M +2.66 +0.71    L +2.90 +0.78    A  3.00  3.00 90 0,0 +3.00 +0.00    L +2.75 +0.00    A  2.75  2.75 90 0,1 +2.66 +0.71   "
         style="fill:#80ff00;stroke:#000000;stroke-width:0.01px;"
         id="path3652" />
    </g>
    <line
       x1="+0.00"
       y1="+3.00"
       x2="+0.00"
       y2="+0.00"
       style="stroke:#000000;stroke-width:0.05px;fill:none;"
       id="line3654" />
    <line
       x1="+0.00"
       y1="+0.00"
       x2="+3.00"
       y2="+0.00"
       style="stroke:#000000;stroke-width:0.05px;fill:none;"
       id="line3656" />
    <path
       id="hue_path"
       d="M -3.14 -0.84 A 3.25 3.25 0 0,1 -0.84 -3.14"
       style="stroke:#000000;stroke-width:0.1;fill:none;" />
    <path
       id="sat_path"
       d="M +0.53 +0.53 L +1.94 +1.94"
       style="stroke:#000000;stroke-width:0.1;fill:none;" />
    <use
       xlink:href="#arrow"
       transform="translate(-3.14 -0.84) rotate(105)"
       id="use3660" />
    <use
       xlink:href="#arrow"
       transform="translate(+1.94 +1.94) rotate(45)"
       id="use3662" />
    <path
       transform="translate(+0.1 -0.1)"
       style="font-size:0.375px"
       d="M 0.85886677,0.48494264 L 0.83336017,0.51044924 C 0.82818087,0.49577542 0.8223545,0.48287108 0.81588103,0.47173617 C 0.809407,0.46060138 0.80207008,0.45093392 0.79387027,0.44273375 C 0.77962775,0.42849159 0.76588182,0.42026992 0.75263244,0.41806874 C 0.73938261,0.41586777 0.72766512,0.41985992 0.71747995,0.43004518 C 0.70893441,0.43859063 0.70505016,0.44761072 0.70582718,0.45710548 C 0.70660386,0.46660039 0.71281866,0.47985 0.7244716,0.49685435 L 0.73703069,0.51588719 C 0.75282643,0.53910638 0.76068124,0.56003817 0.76059516,0.57868262 C 0.76050861,0.59732697 0.75261063,0.61450399 0.73690121,0.63021372 C 0.71817029,0.64894433 0.69769166,0.65686389 0.67546526,0.6539724 C 0.65323858,0.65108067 0.62999782,0.63750737 0.60574291,0.61325247 C 0.59659327,0.60410282 0.58789687,0.59333482 0.57965368,0.58094843 C 0.57141039,0.56856194 0.56379294,0.55481601 0.55680132,0.53971061 L 0.58373215,0.51277978 C 0.58839319,0.5293526 0.59430588,0.54424222 0.60147024,0.5574487 C 0.60863445,0.57065512 0.61713664,0.58217839 0.62697683,0.59201856 C 0.64190952,0.60695128 0.65636756,0.61553978 0.670351,0.6177841 C 0.68433416,0.62002825 0.69676376,0.61571242 0.70763983,0.60483659 C 0.71713449,0.59534169 0.72164453,0.58500527 0.72116998,0.5738273 C 0.72069505,0.56264925 0.71514921,0.54907596 0.70453243,0.53310738 L 0.69171439,0.51407454 C 0.67609092,0.49068274 0.66806347,0.47048464 0.66763202,0.45348018 C 0.6672003,0.43647587 0.67436459,0.42059361 0.68912489,0.40583334 C 0.70621543,0.38874276 0.72570142,0.38129795 0.74758291,0.38349888 C 0.76946397,0.3857001 0.79097839,0.39737443 0.81212626,0.4185219 C 0.82118922,0.42758526 0.8296051,0.43764115 0.8373739,0.4486896 C 0.8451421,0.45973822 0.85230638,0.47182255 0.85886677,0.48494264 L 0.85886677,0.48494264 z M 0.86210367,0.71631469 C 0.84285489,0.69706606 0.82731789,0.68593121 0.81549263,0.68291011 C 0.80366713,0.67988904 0.79244596,0.68368698 0.7818291,0.69430392 C 0.77336998,0.70276296 0.76944257,0.71225779 0.77004686,0.72278845 C 0.77065101,0.73331905 0.77574369,0.74337494 0.78532493,0.75295615 C 0.79853129,0.76616254 0.81380934,0.77207523 0.83115912,0.77069424 C 0.84850863,0.7693131 0.86495196,0.76085407 0.88048914,0.74531712 L 0.88579762,0.74000864 L 0.86210367,0.71631469 z M 0.91946115,0.75399195 L 0.83672655,0.83672655 L 0.81290312,0.81290313 L 0.8349139,0.79089236 C 0.82067151,0.79425862 0.80740032,0.79397809 0.7951003,0.79005077 C 0.78280008,0.78612327 0.77078048,0.77829003 0.75904148,0.76655104 C 0.74419495,0.7517045 0.73655593,0.73573592 0.73612438,0.71864524 C 0.73569276,0.70155452 0.74246862,0.68601752 0.75645198,0.6720342 C 0.77276577,0.65572038 0.79052542,0.64887978 0.80973099,0.65151239 C 0.82893633,0.6541451 0.8493718,0.66629417 0.87103746,0.68795964 L 0.90444204,0.72136422 L 0.90677259,0.71903367 C 0.9177346,0.70807143 0.92261149,0.6959871 0.92140328,0.68278064 C 0.92019462,0.6695742 0.9130735,0.65645407 0.90003988,0.6434202 C 0.89175328,0.63513386 0.88269003,0.62805589 0.87285011,0.62218628 C 0.86300983,0.61631682 0.8524792,0.61174204 0.84125818,0.60846192 L 0.86326895,0.58645115 C 0.87535312,0.59180289 0.88633691,0.59773716 0.89622037,0.60425398 C 0.90610343,0.61077098 0.91492931,0.61791368 0.92269803,0.62568211 C 0.94367275,0.64665713 0.95390128,0.66776156 0.95338363,0.68899544 C 0.95286548,0.71022935 0.94155799,0.73189483 0.91946115,0.75399195 L 0.91946115,0.75399195 z M 1.0956768,0.72330638 L 1.0545037,0.76447947 L 1.1035748,0.81355054 L 1.0850599,0.83206548 L 1.0359888,0.78299441 L 0.95726792,0.86171528 C 0.94544244,0.87354066 0.93946501,0.88275497 0.93933561,0.88935822 C 0.93920606,0.89596142 0.94410453,0.90422624 0.95403104,0.91415271 L 0.97850184,0.9386235 L 0.95856267,0.95856267 L 0.93409187,0.93409187 C 0.91570635,0.91570635 0.90644889,0.89958672 0.90631946,0.88573292 C 0.90618994,0.87187907 0.91518845,0.85588891 0.93331502,0.83776239 L 1.0120359,0.75904151 L 0.99455675,0.74156237 L 1.0130717,0.72304743 L 1.0305508,0.74052657 L 1.0717239,0.69935349 L 1.0956768,0.72330638 z M 1.0447931,0.93033706 L 1.1325772,0.84255293 L 1.1564006,0.86637636 L 1.0695228,0.95325416 C 1.0557984,0.96697852 1.0481809,0.9799476 1.0466705,0.99216143 C 1.0451598,1.0043752 1.0497562,1.0158337 1.0604596,1.0265371 C 1.0733206,1.0393982 1.0875845,1.0454619 1.1032511,1.0447283 C 1.1189174,1.0439946 1.1338286,1.0365497 1.1479847,1.0223939 L 1.2302014,0.94017718 L 1.2540249,0.9640006 L 1.1090127,1.1090127 L 1.0851893,1.0851893 L 1.107459,1.0629196 C 1.0928714,1.0659406 1.0796218,1.0657679 1.0677102,1.0624017 C 1.0557984,1.0590352 1.044793,1.0523025 1.034694,1.0422036 C 1.0180348,1.0255444 1.0105684,1.00772 1.0122948,0.98873034 C 1.0140211,0.96974065 1.0248538,0.95027624 1.0447931,0.93033706 L 1.0447931,0.93033706 z M 1.3651145,1.1196297 C 1.3639922,1.1154002 1.3622227,1.1113433 1.3598061,1.107459 C 1.357389,1.1035748 1.3542816,1.0997337 1.3504838,1.0959358 C 1.3370182,1.0824704 1.3223012,1.0765146 1.3063328,1.0780682 C 1.2903641,1.079622 1.2741797,1.0885989 1.2577797,1.104999 L 1.1813893,1.1813893 L 1.1574364,1.1574364 L 1.3024486,1.0124243 L 1.3264015,1.0363772 L 1.3038728,1.0589059 C 1.3176833,1.055108 1.3307387,1.0550864 1.343039,1.0588411 C 1.3553389,1.062596 1.3672291,1.0702134 1.3787094,1.0816935 C 1.3803492,1.0833336 1.3820539,1.0852541 1.3838237,1.0874551 C 1.3855929,1.0896563 1.3874703,1.092181 1.3894559,1.0950294 L 1.3651145,1.1196297 z M 1.4064171,1.2606281 C 1.3871683,1.2413795 1.3716313,1.2302446 1.3598061,1.2272235 C 1.3479806,1.2242025 1.3367594,1.2280004 1.3261425,1.2386174 C 1.3176834,1.2470764 1.313756,1.2565712 1.3143603,1.2671019 C 1.3149644,1.2776325 1.3200571,1.2876884 1.3296384,1.2972696 C 1.3428447,1.310476 1.3581228,1.3163887 1.3754725,1.3150077 C 1.3928221,1.3136265 1.4092654,1.3051675 1.4248026,1.2896305 L 1.430111,1.2843221 L 1.4064171,1.2606281 z M 1.4637746,1.2983054 L 1.38104,1.38104 L 1.3572166,1.3572166 L 1.3792273,1.3352058 C 1.3649849,1.338572 1.3517138,1.3382915 1.3394137,1.3343642 C 1.3271135,1.3304367 1.3150939,1.3226035 1.3033549,1.3108645 C 1.2885084,1.2960179 1.2808694,1.2800494 1.2804378,1.2629587 C 1.2800062,1.245868 1.286782,1.230331 1.3007654,1.2163476 C 1.3170792,1.2000338 1.3348389,1.1931932 1.3540444,1.1958258 C 1.3732498,1.1984585 1.3936852,1.2106076 1.4153509,1.2322731 L 1.4487555,1.2656777 L 1.451086,1.2633471 C 1.462048,1.2523849 1.4669249,1.2403005 1.4657167,1.2270941 C 1.4645081,1.2138876 1.4573869,1.2007675 1.4443533,1.1877336 C 1.4360667,1.1794473 1.4270035,1.1723693 1.4171635,1.1664997 C 1.4073233,1.1606303 1.3967926,1.1560555 1.3855716,1.1527753 L 1.4075824,1.1307646 C 1.4196665,1.1361163 1.4306503,1.1420506 1.4405338,1.1485674 C 1.4504169,1.1550844 1.4592427,1.1622271 1.4670115,1.1699955 C 1.4879862,1.1909706 1.4982147,1.212075 1.4976971,1.2333089 C 1.4971789,1.2545428 1.4858714,1.2762083 1.4637746,1.2983054 L 1.4637746,1.2983054 z M 1.6399903,1.2676198 L 1.5988172,1.3087929 L 1.6478882,1.357864 L 1.6293733,1.3763789 L 1.5803022,1.3273078 L 1.5015813,1.4060287 C 1.4897559,1.4178541 1.4837784,1.4270684 1.483649,1.4336717 C 1.4835195,1.4402748 1.488418,1.4485397 1.4983445,1.4584661 L 1.5228153,1.4829369 L 1.5028761,1.5028761 L 1.4784053,1.4784053 C 1.4600198,1.4600198 1.4507623,1.4439001 1.4506329,1.4300463 C 1.4505034,1.4161925 1.4595019,1.4002023 1.4776285,1.3820758 L 1.5563493,1.3033549 L 1.5388702,1.2858758 L 1.5573851,1.2673609 L 1.5748643,1.28484 L 1.6160374,1.2436669 L 1.6399903,1.2676198 z M 1.6793507,1.3893264 L 1.7031741,1.4131498 L 1.5581619,1.5581619 L 1.5343385,1.5343385 L 1.6793507,1.3893264 z M 1.7358018,1.3328752 L 1.7596252,1.3566987 L 1.7294575,1.3868664 L 1.7056341,1.3630429 L 1.7358018,1.3328752 z M 1.7923824,1.5357628 C 1.7796074,1.5229879 1.7645235,1.5178737 1.7471309,1.52042 C 1.7297379,1.5229664 1.7123667,1.5329144 1.6950172,1.550264 C 1.6776674,1.5676137 1.6676978,1.5849633 1.6651084,1.602313 C 1.6625188,1.6196626 1.6676547,1.634768 1.6805159,1.6476293 C 1.6932044,1.6603177 1.7082666,1.6653673 1.7257028,1.6627779 C 1.7431386,1.6601883 1.7604882,1.6502619 1.7777518,1.6329986 C 1.7949286,1.6158215 1.8048334,1.5984934 1.8074663,1.5810143 C 1.8100987,1.5635352 1.8050708,1.5484514 1.7923824,1.5357628 L 1.7923824,1.5357628 z M 1.8125806,1.5155646 C 1.8332963,1.5362807 1.8428343,1.5592841 1.8411946,1.5845749 C 1.8395543,1.6098657 1.8268226,1.6344228 1.8029994,1.6582462 C 1.7792621,1.6819832 1.7547266,1.6946934 1.7293928,1.6963766 C 1.7040587,1.6980597 1.6810337,1.6885433 1.6603178,1.6678274 C 1.6395154,1.647025 1.6299774,1.6239784 1.6317038,1.5986877 C 1.6334301,1.5733969 1.6461618,1.5488829 1.669899,1.5251458 C 1.6937223,1.5013225 1.7182578,1.4885692 1.7435056,1.4868859 C 1.7687531,1.4852028 1.791778,1.4947624 1.8125806,1.5155646 L 1.8125806,1.5155646 z M 1.9780497,1.8029994 L 1.8905246,1.8905246 L 1.8667011,1.8667011 L 1.9534495,1.7799528 C 1.9671736,1.7662284 1.9747695,1.7532809 1.9762371,1.7411103 C 1.9777042,1.7289396 1.9730863,1.7175027 1.9623832,1.7067994 C 1.9495218,1.6939382 1.9352796,1.6878961 1.9196565,1.6886728 C 1.904033,1.6894498 1.8891433,1.6969161 1.8749875,1.711072 L 1.7930298,1.7930298 L 1.7690769,1.7690769 L 1.914089,1.6240648 L 1.9380419,1.6480177 L 1.9155133,1.6705463 C 1.929928,1.6675253 1.943156,1.6677195 1.9551974,1.671129 C 1.9672383,1.6745386 1.9783085,1.6812928 1.9884077,1.6913918 C 2.0050666,1.708051 2.0125114,1.7258106 2.0107422,1.7446708 C 2.0089724,1.763531 1.998075,1.7829739 1.9780497,1.8029994 L 1.9780497,1.8029994 z "
       id="text3664" />
    <path
       transform="scale(1.05)"
       style="font-size:0.375px"
       d="M -3.3926094,-0.95820645 L -3.3815158,-0.9934909 L -3.2746144,-0.95988054 L -3.2343039,-1.0880924 L -3.3412053,-1.1217027 L -3.3301117,-1.1569872 L -3.0693212,-1.0749933 L -3.0804148,-1.0397088 L -3.2046091,-1.0787561 L -3.2449195,-0.95054433 L -3.1207252,-0.911497 L -3.1318189,-0.87621255 L -3.3926094,-0.95820645 z M -3.120502,-1.1697709 L -3.2355769,-1.2163526 L -3.2229353,-1.2475824 L -3.1090484,-1.2014816 C -3.0910573,-1.1941988 -3.0761441,-1.1922445 -3.0643088,-1.1956186 C -3.0524735,-1.1989926 -3.043716,-1.207695 -3.0380364,-1.2217258 C -3.0312118,-1.2385853 -3.0311932,-1.2540845 -3.0379806,-1.2682235 C -3.044768,-1.2823622 -3.0574401,-1.2931875 -3.0759969,-1.3006994 L -3.1837737,-1.3443268 L -3.171132,-1.3755566 L -2.9810377,-1.2986074 L -2.9936793,-1.2673777 L -3.0228724,-1.2791949 C -3.0143998,-1.2669416 -3.0093897,-1.2546745 -3.0078423,-1.2423935 C -3.0062949,-1.2301123 -3.0082007,-1.2173524 -3.0135596,-1.2041137 C -3.0223996,-1.1822755 -3.0358988,-1.168447 -3.0540573,-1.1626283 C -3.0722157,-1.1568094 -3.0943639,-1.1591903 -3.120502,-1.1697709 L -3.120502,-1.1697709 z M -2.9745887,-1.568626 L -2.9597992,-1.5613565 L -3.0281327,-1.4223357 C -3.0066717,-1.413419 -2.9877313,-1.4118963 -2.9713115,-1.4177675 C -2.9548917,-1.4236386 -2.9417547,-1.4365981 -2.9319004,-1.4566461 C -2.9261925,-1.4682584 -2.9220838,-1.4802149 -2.9195742,-1.4925154 C -2.9170647,-1.5048157 -2.9160197,-1.517734 -2.9164392,-1.5312703 L -2.8878462,-1.5172159 C -2.8885761,-1.5041085 -2.8905361,-1.4912659 -2.8937261,-1.4786881 C -2.8969162,-1.4661099 -2.9013922,-1.4539599 -2.9071539,-1.442238 C -2.9215852,-1.4128781 -2.9415595,-1.393826 -2.9670768,-1.3850816 C -2.992594,-1.3763371 -3.019923,-1.3791266 -3.0490637,-1.3934503 C -3.0791903,-1.4082585 -3.0991017,-1.4281451 -3.1087979,-1.4531101 C -3.1184938,-1.4780748 -3.116557,-1.5043607 -3.1029874,-1.5319679 C -3.0908176,-1.5567263 -3.0732223,-1.5723911 -3.0502017,-1.5789625 C -3.0271808,-1.5855333 -3.0019765,-1.5820878 -2.9745887,-1.568626 L -2.9745887,-1.568626 z M -2.9983245,-1.5427515 C -3.0149744,-1.5506633 -3.0304504,-1.5525234 -3.0447526,-1.548332 C -3.0590546,-1.5441401 -3.0698673,-1.5345948 -3.0771908,-1.519696 C -3.0854833,-1.5028249 -3.0873546,-1.4869803 -3.0828047,-1.4721622 C -3.0782546,-1.4573437 -3.067702,-1.4449137 -3.0511468,-1.4348721 L -2.9983245,-1.5427515 z "
       id="text3668" />
    <path
       style="font-size:0.375px;text-anchor:middle"
       d="M -0.85803223,3.2266235 L -0.62677002,3.2266235 L -0.62677002,3.2577515 L -0.72381592,3.2577515 L -0.72381592,3.5 L -0.76098633,3.5 L -0.76098633,3.2577515 L -0.85803223,3.2577515 L -0.85803223,3.2266235 z M -0.51287842,3.3185425 C -0.53094492,3.3185427 -0.54522713,3.3255922 -0.5557251,3.3396912 C -0.56622321,3.3537904 -0.57147222,3.373108 -0.57147217,3.397644 C -0.57147222,3.4221803 -0.56625372,3.4414979 -0.55581665,3.4555969 C -0.54537972,3.4696961 -0.53106699,3.4767456 -0.51287842,3.4767456 C -0.49493421,3.4767456 -0.48071304,3.4696656 -0.47021484,3.4555054 C -0.45971696,3.4413453 -0.45446795,3.4220582 -0.45446777,3.397644 C -0.45446795,3.3733522 -0.45971696,3.3540956 -0.47021484,3.3398743 C -0.48071304,3.3256533 -0.49493421,3.3185427 -0.51287842,3.3185425 L -0.51287842,3.3185425 z M -0.51287842,3.289978 C -0.48358169,3.2899782 -0.46057146,3.2994997 -0.44384766,3.3185425 C -0.42712422,3.3375856 -0.41876242,3.3639528 -0.41876221,3.397644 C -0.41876242,3.4312134 -0.42712422,3.4575501 -0.44384766,3.4766541 C -0.46057146,3.4957581 -0.48358169,3.5053101 -0.51287842,3.5053101 C -0.54229745,3.5053101 -0.5653382,3.4957581 -0.58200073,3.4766541 C -0.59866336,3.4575501 -0.60699465,3.4312134 -0.60699463,3.397644 C -0.60699465,3.3639528 -0.59866336,3.3375856 -0.58200073,3.3185425 C -0.5653382,3.2994997 -0.54229745,3.2899782 -0.51287842,3.289978 L -0.51287842,3.289978 z M -0.33050537,3.4692383 L -0.33050537,3.5780029 L -0.36437988,3.5780029 L -0.36437988,3.2949219 L -0.33050537,3.2949219 L -0.33050537,3.3260498 C -0.32342537,3.313843 -0.31448373,3.3047792 -0.30368042,3.2988586 C -0.2928773,3.2929384 -0.27996838,3.2899782 -0.26495361,3.289978 C -0.24005143,3.2899782 -0.21981829,3.2998659 -0.20425415,3.3196411 C -0.1886904,3.3394167 -0.18090842,3.3654176 -0.1809082,3.397644 C -0.18090842,3.4298707 -0.1886904,3.4558716 -0.20425415,3.475647 C -0.21981829,3.4954224 -0.24005143,3.5053101 -0.26495361,3.5053101 C -0.27996838,3.5053101 -0.2928773,3.5023499 -0.30368042,3.4964294 C -0.31448373,3.490509 -0.32342537,3.4814453 -0.33050537,3.4692383 L -0.33050537,3.4692383 z M -0.21588135,3.397644 C -0.21588153,3.3728639 -0.22097796,3.3534242 -0.23117065,3.339325 C -0.24136368,3.325226 -0.25537124,3.3181765 -0.27319336,3.3181763 C -0.29101573,3.3181765 -0.30502329,3.325226 -0.31521606,3.339325 C -0.32540901,3.3534242 -0.33050544,3.3728639 -0.33050537,3.397644 C -0.33050544,3.4224244 -0.32540901,3.4418641 -0.31521606,3.4559631 C -0.30502329,3.4700623 -0.29101573,3.4771118 -0.27319336,3.4771118 C -0.25537124,3.4771118 -0.24136368,3.4700623 -0.23117065,3.4559631 C -0.22097796,3.4418641 -0.21588153,3.4224244 -0.21588135,3.397644 L -0.21588135,3.397644 z M 0.06628418,3.5 L -0.038085938,3.2266235 L 0.00054931641,3.2266235 L 0.087158203,3.4567871 L 0.1739502,3.2266235 L 0.21240234,3.2266235 L 0.10821533,3.5 L 0.06628418,3.5 z M 0.25067139,3.2949219 L 0.28436279,3.2949219 L 0.28436279,3.5 L 0.25067139,3.5 L 0.25067139,3.2949219 z M 0.25067139,3.2150879 L 0.28436279,3.2150879 L 0.28436279,3.2577515 L 0.25067139,3.2577515 L 0.25067139,3.2150879 z M 0.53009033,3.3890381 L 0.53009033,3.4055176 L 0.37518311,3.4055176 C 0.37664789,3.428711 0.38363641,3.4463807 0.39614868,3.4585266 C 0.4086608,3.4706726 0.42608632,3.4767456 0.44842529,3.4767456 C 0.4613646,3.4767456 0.47390732,3.4751587 0.48605347,3.4719849 C 0.49819928,3.4688111 0.51025372,3.4640503 0.5222168,3.4577026 L 0.5222168,3.489563 C 0.51013165,3.4946899 0.49774152,3.4985962 0.48504639,3.5012817 C 0.47235092,3.5039673 0.45947252,3.5053101 0.44641113,3.5053101 C 0.41369619,3.5053101 0.3877868,3.4957886 0.36868286,3.4767456 C 0.34957883,3.4577027 0.34002683,3.4319459 0.34002686,3.3994751 C 0.34002683,3.3659059 0.34909055,3.3392641 0.36721802,3.3195496 C 0.38534539,3.2998354 0.40978995,3.2899782 0.44055176,3.289978 C 0.4681395,3.2899782 0.48995955,3.2988588 0.50601196,3.3166199 C 0.52206401,3.3343813 0.53009012,3.3585206 0.53009033,3.3890381 L 0.53009033,3.3890381 z M 0.49639893,3.3791504 C 0.49615461,3.3607179 0.49099714,3.3460085 0.48092651,3.335022 C 0.47085556,3.3240358 0.45751939,3.3185427 0.44091797,3.3185425 C 0.42211904,3.3185427 0.40707389,3.3238527 0.39578247,3.3344727 C 0.3844909,3.3450929 0.37799066,3.3600465 0.37628174,3.3793335 L 0.49639893,3.3791504 z M 0.5657959,3.2949219 L 0.5994873,3.2949219 L 0.64160156,3.4549561 L 0.68353271,3.2949219 L 0.7232666,3.2949219 L 0.76538086,3.4549561 L 0.80731201,3.2949219 L 0.84100342,3.2949219 L 0.78735352,3.5 L 0.74761963,3.5 L 0.70349121,3.3319092 L 0.65917969,3.5 L 0.6194458,3.5 L 0.5657959,3.2949219 z "
       id="text3672" />
  </svg>
  <svg
     x="7.75"
     y="-0.25"
     viewBox="-4 -4 8 8"
     preserveAspectRatio="none"
     width="8.5"
     height="8.5"
     id="svg3491">
    <circle
       cx="0"
       cy="0"
       r="3"
       style="stroke:#000000;stroke-width:0.05px;"
       id="circle3141" />
    <g
       id="g3143">
<!--row1-->      <path
         d="    M -0.78 -2.90    A  3.00  3.00 90 0,1 +0.00 -3.00    A  3.00  2.90 90 0,0 -0.75 -2.90    L -0.78 -2.90   "
         style="fill:#ffffff;stroke:#000000;stroke-width:0.01px;"
         id="path3145" />
      <path
         d="    M -0.75 -2.90    A  3.00  2.90 90 0,1 +0.00 -3.00    A  3.00  2.12 90 0,0 -0.53 -2.90    L -0.75 -2.90   "
         style="fill:#ffffff;stroke:#000000;stroke-width:0.01px;"
         id="path3147" />
      <path
         d="    M -0.53 -2.90    A  3.00  2.12 90 0,1 +0.00 -3.00    A  3.00  0.78 90 0,0 -0.20 -2.90    L -0.53 -2.90   "
         style="fill:#ffffff;stroke:#000000;stroke-width:0.01px;"
         id="path3149" />
      <path
         d="    M -0.20 -2.90    A  3.00  0.78 90 0,1 +0.00 -3.00    L -0.00 -2.90    L -0.20 -2.90   "
         style="fill:#ffffff;stroke:#000000;stroke-width:0.01px;"
         id="path3151" />
<!--row2-->      <path
         d="    M -2.12 -2.12    A  3.00  3.00 90 0,1 -0.78 -2.90    L -0.75 -2.90    A  3.00  2.90 90 0,0 -2.05 -2.12    L -2.12 -2.12   "
         style="fill:#d5aaff;stroke:#000000;stroke-width:0.01px;"
         id="path3153" />
      <path
         d="    M -2.05 -2.12    A  3.00  2.90 90 0,1 -0.75 -2.90    L -0.53 -2.90    A  3.00  2.12 90 0,0 -1.51 -2.12    L -2.05 -2.12   "
         style="fill:#ffaaff;stroke:#000000;stroke-width:0.01px;"
         id="path3155" />
      <path
         d="    M -1.51 -2.12    A  3.00  2.12 90 0,1 -0.53 -2.90    L -0.20 -2.90    A  3.00  0.78 90 0,0 -0.55 -2.12    L -1.51 -2.12   "
         style="fill:#ffaad5;stroke:#000000;stroke-width:0.01px;"
         id="path3157" />
      <path
         d="    M -0.55 -2.12    A  3.00  0.78 90 0,1 -0.20 -2.90    L -0.00 -2.90    L -0.00 -2.12    L -0.55 -2.12   "
         style="fill:#ffaaaa;stroke:#000000;stroke-width:0.01px;"
         id="path3159" />
<!--row3-->      <path
         d="    M -2.90 -0.78    A  3.00  3.00 90 0,1 -2.12 -2.12    L -2.05 -2.12    A  3.00  2.90 90 0,0 -2.80 -0.78    L -2.90 -0.78   "
         style="fill:#aa55ff;stroke:#000000;stroke-width:0.01px;"
         id="path3161" />
      <path
         d="    M -2.80 -0.78    A  3.00  2.90 90 0,1 -2.05 -2.12    L -1.51 -2.12    A  3.00  2.12 90 0,0 -2.05 -0.78    L -2.80 -0.78   "
         style="fill:#ff55ff;stroke:#000000;stroke-width:0.01px;"
         id="path3163" />
      <path
         d="    M -2.05 -0.78    A  3.00  2.12 90 0,1 -1.51 -2.12    L -0.55 -2.12    A  3.00  0.78 90 0,0 -0.75 -0.78    L -2.05 -0.78   "
         style="fill:#ff55aa;stroke:#000000;stroke-width:0.01px;"
         id="path3165" />
      <path
         d="    M -0.75 -0.78    A  3.00  0.78 90 0,1 -0.55 -2.12    L -0.00 -2.12    L +0.00 -0.78    L -0.75 -0.78   "
         style="fill:#ff5555;stroke:#000000;stroke-width:0.01px;"
         id="path3167" />
<!--row4-->      <path
         d="    M -2.90 +0.78    A  3.00  3.00 90 0,1 -2.90 -0.78    L -2.80 -0.78    A  3.00  2.90 90 0,0 -2.80 +0.78    L -2.90 +0.78   "
         style="fill:#8000ff;stroke:#000000;stroke-width:0.01px;"
         id="path3169" />
      <path
         d="    M -2.80 +0.78    A  3.00  2.90 90 0,1 -2.80 -0.78    L -2.05 -0.78    A  3.00  2.12 90 0,0 -2.05 +0.78    L -2.80 +0.78   "
         style="fill:#ff00ff;stroke:#000000;stroke-width:0.01px;"
         id="path3171" />
      <path
         d="    M -2.05 +0.78    A  3.00  2.12 90 0,1 -2.05 -0.78    L -0.75 -0.78    A  3.00  0.78 90 0,0 -0.75 +0.78    L -2.05 +0.78   "
         style="fill:#ff0080;stroke:#000000;stroke-width:0.01px;"
         id="path3173" />
      <path
         d="    M -0.75 +0.78    A  3.00  0.78 90 0,1 -0.75 -0.78    L +0.00 -0.78    L +0.00 +0.00    L +0.78 +0.00    A  3.00  0.78 90 0,1 +0.75 +0.78    L -0.75 +0.78   "
         style="fill:#ff0000;stroke:#000000;stroke-width:0.01px;"
         id="path3175" />
      <path
         d="    M +0.75 +0.78    A  3.00  0.78 90 0,0 +0.78 +0.00    L +2.12 +0.0    A  3.00  2.12 90 0,1 +2.05 +0.78    L +0.75 +0.78   "
         style="fill:#ff8000;stroke:#000000;stroke-width:0.01px;"
         id="path3177" />
      <path
         d="    M +2.05 +0.78    A  3.00  2.12 90 0,0 +2.12 +0.00    L +2.90 +0.0    A  3.00  2.90 90 0,1 +2.80 +0.78    L +2.05 +0.78   "
         style="fill:#ffff00;stroke:#000000;stroke-width:0.01px;"
         id="path3179" />
      <path
         d="    M +2.80 +0.78    A  3.00  2.90 0 0,0 +2.90 +0.00    L +3.00 +0.00    A  3.00  3.00 0 0,1 +2.90 +0.78    L +2.80 +0.78   "
         style="fill:#80ff00;stroke:#000000;stroke-width:0.01px;"
         id="path3181" />
<!--row5-->      <path
         d="    M -2.12 +2.12    A  3.00  3.00 0 0,1 -2.90 +0.78    L -2.80 +0.78    A  3.00  2.90 0 0,0 -2.05 +2.12    L -2.12 +2.12   "
         style="fill:#5500aa;stroke:#000000;stroke-width:0.01px;"
         id="path3183" />
      <path
         d="    M -2.05 +2.12    A  3.00  2.90 0 0,1 -2.80 +0.78    L -2.05 +0.78    A  3.00  2.12 90 0,0 -1.50 +2.12    L -2.05 +2.12   "
         style="fill:#aa00aa;stroke:#000000;stroke-width:0.01px;"
         id="path3185" />
      <path
         d="    M -1.50 +2.12    A  3.00  2.12 90 0,1 -2.05 +0.78    L -0.75 +0.78    A  3.00  0.78 90 0,0 -0.55 +2.12    L -1.50 +2.12   "
         style="fill:#aa0055;stroke:#000000;stroke-width:0.01px;"
         id="path3187" />
      <path
         d="    M -0.55 +2.12    A  3.00  0.78 90 0,1 -0.75 +0.78    L +0.75 +0.78    A  3.00  0.78 90 0,1 +0.55 +2.12    L -0.55 +2.12   "
         style="fill:#aa0000;stroke:#000000;stroke-width:0.01px;"
         id="path3189" />
      <path
         d="    M +0.55 +2.12    A  3.00  0.78 90 0,0 +0.75 +0.78    L +2.05 +0.78    A  3.00  2.12 90 0,1 +1.50 +2.12    L -0.55 +2.12   "
         style="fill:#aa5500;stroke:#000000;stroke-width:0.01px;"
         id="path3191" />
      <path
         d="    M +1.50 +2.12    A  3.00  2.12 90 0,0 +2.05 +0.78    L +2.80 +0.78    A  3.00  2.90 90 0,1 +2.05 +2.12    L +1.50 +2.12   "
         style="fill:#aaaa00;stroke:#000000;stroke-width:0.01px;"
         id="path3193" />
      <path
         d="    M +2.05 +2.12    A  3.00  2.90 90 0,0 +2.80 +0.78    L +2.90 +0.78    A  3.00  3.00 90 0,1 +2.12 +2.12    L +2.05 +2.12   "
         style="fill:#55aa00;stroke:#000000;stroke-width:0.01px;"
         id="path3195" />
<!--row6-->      <path
         d="    M -0.78 +2.90    A  3.00  3.00 90 0,1 -2.12 +2.12    L -2.05 +2.12    A  3.00  2.90 90 0,0 -0.74 +2.90    L -0.78 +2.90   "
         style="fill:#2b0055;stroke:#000000;stroke-width:0.01px;"
         id="path3197" />
      <path
         d="    M -0.74 +2.90    A  3.00  2.90 90 0,1 -2.05 +2.12    L -1.50 +2.12    A  3.00  2.12 90 0,0 -0.55 +2.90    L -0.75 +2.90   "
         style="fill:#550055;stroke:#000000;stroke-width:0.01px;"
         id="path3199" />
      <path
         d="    M -0.55 +2.90    A  3.00  2.12 90 0,1 -1.50 +2.12    L -0.55 +2.12    A  3.00  0.78 90 0,0 -0.21 +2.90    L -0.55 +2.90   "
         style="fill:#55002b;stroke:#000000;stroke-width:0.01px;"
         id="path3201" />
      <path
         d="    M -0.21 +2.90    A  3.00  0.78 90 0,1 -0.55 +2.12    L +0.55 +2.12    A  3.00  0.78 90 0,1 +0.21 +2.90    L -0.21 +2.90   "
         style="fill:#550000;stroke:#000000;stroke-width:0.01px;"
         id="path3203" />
      <path
         d="    M +0.21 +2.90    A  3.00  0.78 90 0,0 +0.55 +2.12    L +1.50 +2.12    A  3.00  2.12 90 0,1 +0.55 +2.90    L +0.21 +2.90   "
         style="fill:#552b00;stroke:#000000;stroke-width:0.01px;"
         id="path3205" />
      <path
         d="    M +0.55 +2.90    A  3.00  2.12 90 0,0 +1.50 +2.12    L +2.05 +2.12    A  3.00  2.90 90 0,1 +0.75 +2.90    L +0.55 +2.90   "
         style="fill:#555500;stroke:#000000;stroke-width:0.01px;"
         id="path3207" />
      <path
         d="    M +0.75 +2.90    A  3.00  2.90 90 0,0 +2.05 +2.12    L +2.12 +2.12    A  3.00  3.00 90 0,1 +0.78 +2.90    L +0.75 +2.90   "
         style="fill:#2b5500;stroke:#000000;stroke-width:0.01px;"
         id="path3209" />
<!--row7-->      <path
         d="    M +0.00 +3.00    A  3.00  3.00 90 0,1 -0.78 +2.90    L -0.74 +2.90    A  3.00  2.90 90 0,0 +0.00 +3.00   "
         style="fill:#000000;stroke:#000000;stroke-width:0.01px;"
         id="path3211" />
      <path
         d="    M +0.00 +3.00    A  3.00  2.90 90 0,1 -0.74 +2.90    L -0.55 +2.90    A  3.00  2.12 90 0,0 +0.00 +3.00   "
         style="fill:#000000;stroke:#000000;stroke-width:0.01px;"
         id="path3213" />
      <path
         d="    M +0.00 +3.00    A  3.00  2.12 90 0,1 -0.55 +2.90    L -0.21 +2.90    A  3.00  0.78 90 0,0 +0.00 +3.00   "
         style="fill:#000000;stroke:#000000;stroke-width:0.01px;"
         id="path3215" />
      <path
         d="    M +0.00 +3.00    A  3.00  0.78 90 0,1 -0.21 +2.90    L +0.21 +2.90    A  3.00  0.78 90 0,1 +0.00 +3.00   "
         style="fill:#000000;stroke:#000000;stroke-width:0.01px;"
         id="path3217" />
      <path
         d="    M +0.00 +3.00    A  3.00  0.78 90 0,0 +0.21 +2.90    L +0.55 +2.90    A  3.00  2.12 90 0,1 +0.00 +3.00   "
         style="fill:#000000;stroke:#000000;stroke-width:0.01px;"
         id="path3219" />
      <path
         d="    M +0.00 +3.00    A  3.00  2.12 90 0,0 +0.55 +2.90    L +0.75 +2.90    A  3.00  2.90 90 0,1 +0.00 +3.00   "
         style="fill:#000000;stroke:#000000;stroke-width:0.01px;"
         id="path3221" />
      <path
         d="    M +0.00 +3.00    A  3.00  2.90 90 0,0 +0.75 +2.90    L +0.78 +2.90    A  3.00  3.00 90 0,1 +0.00 +3.00   "
         style="fill:#000000;stroke:#000000;stroke-width:0.01px;"
         id="path3223" />
<!--ring1-->      <path
         d="    M +0.00 +0.00    L +0.00 -0.25    A  0.25  0.25 0 0,1 +0.06 -0.24    L +0.00 +0.00   "
         style="fill:#ffffff;stroke:#000000;stroke-width:0.01px;"
         id="path3225" />
      <path
         d="    M +0.00 +0.00    L +0.06 -0.24    A  0.25  0.25 0 0,1 +0.18 -0.18    L +0.00 +0.00   "
         style="fill:#d4d4d4;stroke:#000000;stroke-width:0.01px;"
         id="path3227" />
      <path
         d="    M +0.00 +0.00    L +0.18 -0.18    A  0.25  0.25 0 0,1 +0.24 -0.06    L +0.00 +0.00   "
         style="fill:#aaaaaa;stroke:#000000;stroke-width:0.01px;"
         id="path3229" />
      <path
         d="    M +0.00 +0.00    L +0.24 -0.06    A  0.25  0.25 0 0,1 +0.25 -0.00    L +0.00 +0.00   "
         style="fill:#808080;stroke:#000000;stroke-width:0.01px;"
         id="path3231" />
<!--ring2-->      <path
         d="    M +0.00 -0.25    L +0.00 -0.75    A  0.75  0.75 0 0,1 +0.19 -0.72    L +0.06 -0.24    A  0.25  0.25 0 0,0 +0.00 -0.25   "
         style="fill:#ffffff;stroke:#000000;stroke-width:0.01px;"
         id="path3233" />
      <path
         d="    M +0.06 -0.24    L +0.19 -0.72    A  0.75  0.75 0 0,1 +0.53 -0.53    L +0.18 -0.18    A  0.25  0.25 0 0,0 +0.06 -0.24   "
         style="fill:#d5dccd;stroke:#000000;stroke-width:0.01px;"
         id="path3235" />
      <path
         d="    M +0.18 -0.18    L +0.53 -0.53    A  0.75  0.75 0 0,1 +0.72 -0.19    L +0.24 -0.06    A  0.25  0.25 0 0,0 +0.18 -0.18   "
         style="fill:#aab89c;stroke:#000000;stroke-width:0.01px;"
         id="path3237" />
      <path
         d="    M +0.24 -0.06    L +0.72 -0.19    A  0.75  0.75 0 0,1 +0.75 -0.00    L +0.25 -0.00    A  0.25  0.25 0 0,0 +0.24 -0.06   "
         style="fill:#80956a;stroke:#000000;stroke-width:0.01px;"
         id="path3239" />
<!--ring3-->      <path
         d="    M +0.00 -0.75    L +0.00 -1.25    A  1.25  1.25 90 0,1 +0.32 -1.21    L +0.19 -0.72    A  0.75  0.75 90 0,0 +0.00 -0.75   "
         style="fill:#ffffff;stroke:#000000;stroke-width:0.01px;"
         id="path3241" />
      <path
         d="    M +0.19 -0.72    L +0.32 -1.21    A  1.25  1.25 90 0,1 +0.88 -0.88    L +0.53 -0.53    A  0.75  0.75 90 0,0 +0.19 -0.72   "
         style="fill:#d5e2c7;stroke:#000000;stroke-width:0.01px;"
         id="path3243" />
      <path
         d="    M +0.53 -0.53    L +0.88 -0.88    A  1.25  1.25 90 0,1 +1.21 -0.32    L +0.72 -0.19    A  0.75  0.75 90 0,0 +0.53 -0.53   "
         style="fill:#aac78d;stroke:#000000;stroke-width:0.01px;"
         id="path3245" />
      <path
         d="    M +0.72 -0.19    L +1.21 -0.32    A  1.25  1.25 90 0,1 +1.25 -0.00    L +0.75 -0.00    A  0.75  0.75 90 0,0 +0.72 -0.19   "
         style="fill:#80aa55;stroke:#000000;stroke-width:0.01px;"
         id="path3247" />
<!--ring4-->      <path
         d="    M +0.00 -1.25    L +0.00 -1.75    A  1.75  1.75 90 0,1 +0.45 -1.69    L +0.32 -1.21    A  1.25  1.25 90 0,0 +0.00 -1.25   "
         style="fill:#ffffff;stroke:#000000;stroke-width:0.01px;"
         id="path3249" />
      <path
         d="    M +0.32 -1.21    L +0.45 -1.69    A  1.75  1.75 90 0,1 +1.24 -1.24    L +0.88 -0.88    A  1.25  1.25 90 0,0 +0.32 -1.21   "
         style="fill:#d5eabf;stroke:#000000;stroke-width:0.01px;"
         id="path3251" />
      <path
         d="    M +0.88 -0.88    L +1.24 -1.24    A  1.75  1.75 90 0,1 +1.69 -0.45    L +1.21 -0.32    A  1.25  1.25 90 0,0 +0.88 -0.88   "
         style="fill:#aad580;stroke:#000000;stroke-width:0.01px;"
         id="path3253" />
      <path
         d="    M +1.21 -0.32    L +1.69 -0.45    A  1.75  1.75 90 0,1 +1.75 -0.00    L +1.25 -0.00    A  1.25  1.25 90 0,0 +1.21 -0.32   "
         style="fill:#80bf40;stroke:#000000;stroke-width:0.01px;"
         id="path3255" />
<!--ring5-->      <path
         d="    M +0.00 -1.75    L +0.00 -2.25    A  2.25  2.25 90 0,1 +0.58 -2.17    L +0.45 -1.69    A  1.75  1.75 90 0,0 +0.00 -1.75   "
         style="fill:#ffffff;stroke:#000000;stroke-width:0.01px;"
         id="path3257" />
      <path
         d="    M +0.45 -1.69    L +0.58 -2.17    A  2.25  2.25 90 0,1 +1.59 -1.59    L +1.24 -1.24    A  1.75  1.75 90 0,0 +0.45 -1.69   "
         style="fill:#d5f1b8;stroke:#000000;stroke-width:0.01px;"
         id="path3259" />
      <path
         d="    M +1.24 -1.24    L +1.59 -1.59    A  2.25  2.25 90 0,1 +2.17 -0.58    L +1.69 -0.45    A  1.75  1.75 90 0,0 +1.24 -1.24   "
         style="fill:#aae272;stroke:#000000;stroke-width:0.01px;"
         id="path3261" />
      <path
         d="    M +1.69 -0.45    L +2.17 -0.58    A  2.25  2.25 90 0,1 +2.25 -0.00    L +1.75 -0.00    A  1.75  1.75 90 0,0 +1.69 -0.45   "
         style="fill:#80d52b;stroke:#000000;stroke-width:0.01px;"
         id="path3263" />
<!--ring6-->      <path
         d="    M +0.00 -2.25    L +0.00 -2.75    A  2.75  2.75 90 0,1 +0.71 -2.66    L +0.58 -2.17    A  2.25  2.25 90 0,0 +0.00 -2.25   "
         style="fill:#ffffff;stroke:#000000;stroke-width:0.01px;"
         id="path3265" />
      <path
         d="    M +0.58 -2.17    L +0.71 -2.66    A  2.75  2.75 90 0,1 +1.94 -1.94    L +1.59 -1.59    A  2.25  2.25 90 0,0 +0.58 -2.17   "
         style="fill:#d5f8b1;stroke:#000000;stroke-width:0.01px;"
         id="path3267" />
      <path
         d="    M +1.59 -1.59    L +1.94 -1.94    A  2.75  2.75 90 0,1 +2.66 -0.71    L +2.17 -0.58    A  2.25  2.25 90 0,0 +1.59 -1.59   "
         style="fill:#aaf163;stroke:#000000;stroke-width:0.01px;"
         id="path3269" />
      <path
         d="    M +2.17 -0.58    L +2.66 -0.71    A  2.75  2.75 90 0,1 +2.75 -0.00    L +2.25 -0.00    A  2.25  2.25 90 0,0 +2.17 -0.58   "
         style="fill:#80ea15;stroke:#000000;stroke-width:0.01px;"
         id="path3271" />
<!--ring7-->      <path
         d="    M +0.00 -2.75    L +0.00 -3.00    A  3.00  3.00 90 0,1 +0.78 -2.90    L +0.71 -2.66    A  2.75  2.75 90 0,0 +0.00 -2.75   "
         style="fill:#ffffff;stroke:#000000;stroke-width:0.01px;"
         id="path3273" />
      <path
         d="    M +0.71 -2.66    L +0.78 -2.90    A  3.00  3.00 90 0,1 +2.12 -2.12    L +1.94 -1.94    A  2.75  2.75 90 0,0 +0.71 -2.66   "
         style="fill:#d5ffaa;stroke:#000000;stroke-width:0.01px;"
         id="path3275" />
      <path
         d="    M +1.94 -1.94    L +2.12 -2.12    A  3.00  3.00 90 0,1 +2.90 -0.78    L +2.66 -0.71    A  2.75  2.75 90 0,0 +1.94 -1.94   "
         style="fill:#aaff55;stroke:#000000;stroke-width:0.01px;"
         id="path3277" />
      <path
         d="    M +2.66 -0.71    L +2.90 -0.78    A  3.00  3.00 90 0,1 +3.00 -0.00    L +2.75 -0.00    A  2.75  2.75 90 0,0 +2.66 -0.71   "
         style="fill:#80ff00;stroke:#000000;stroke-width:0.01px;"
         id="path3279" />
    </g>
    <line
       x1="+0.00"
       y1="-3.00"
       x2="+0.00"
       y2="+0.00"
       style="stroke:#000000;stroke-width:0.05px;fill:none;"
       id="line3281" />
    <line
       x1="+0.00"
       y1="+0.00"
       x2="+3.00"
       y2="+0.00"
       style="stroke:#000000;stroke-width:0.05px;fill:none;"
       id="line3283" />
    <path
       id="lum_path"
       d="M -3.14 -0.84 A 3.25 3.25 0 0,1 -0.84 -3.14"
       style="stroke:#000000;stroke-width:0.1;fill:none;" />
    <path
       id="path3567"
       d="M +0.53 -0.53 L +1.94 -1.94"
       style="stroke:#000000;stroke-width:0.1;fill:none;" />
    <use
       xlink:href="#arrow"
       transform="translate(-0.84 -3.14) rotate(-15)"
       id="use3287" />
    <use
       xlink:href="#arrow"
       transform="translate(+1.94 -1.94) rotate(-45)"
       id="use3289" />
    <path
       transform="translate(-0.1 -0.1)"
       style="font-size:0.375px"
       d="M 0.48494262,-0.85886677 L 0.51044922,-0.83336017 C 0.49577541,-0.82818087 0.48287107,-0.8223545 0.47173616,-0.81588103 C 0.46060137,-0.809407 0.45093391,-0.80207008 0.44273374,-0.79387026 C 0.42849157,-0.77962775 0.42026991,-0.76588182 0.41806873,-0.75263244 C 0.41586776,-0.73938261 0.41985991,-0.72766512 0.43004518,-0.71747994 C 0.43859063,-0.7089344 0.44761072,-0.70505015 0.45710548,-0.70582718 C 0.46660038,-0.70660386 0.47984999,-0.71281865 0.49685434,-0.7244716 L 0.51588718,-0.73703069 C 0.53910637,-0.75282643 0.56003816,-0.76068124 0.57868261,-0.76059516 C 0.59732696,-0.76050861 0.61450398,-0.75261064 0.63021371,-0.73690121 C 0.64894432,-0.71817029 0.65686388,-0.69769166 0.65397239,-0.67546527 C 0.65108066,-0.65323858 0.63750737,-0.62999782 0.61325247,-0.60574292 C 0.60410282,-0.59659328 0.59333482,-0.58789687 0.58094843,-0.57965368 C 0.56856194,-0.57141039 0.55481601,-0.56379294 0.5397106,-0.55680132 L 0.51277978,-0.58373215 C 0.5293526,-0.58839319 0.54424222,-0.59430588 0.55744869,-0.60147024 C 0.57065512,-0.60863445 0.58217839,-0.61713664 0.59201855,-0.62697684 C 0.60695127,-0.64190952 0.61553978,-0.65636756 0.6177841,-0.670351 C 0.62002824,-0.68433416 0.61571241,-0.69676376 0.60483659,-0.70763984 C 0.59534168,-0.71713449 0.58500526,-0.72164454 0.57382729,-0.72116998 C 0.56264924,-0.72069505 0.54907595,-0.71514921 0.53310737,-0.70453243 L 0.51407453,-0.69171439 C 0.49068273,-0.67609092 0.47048463,-0.66806347 0.45348017,-0.66763202 C 0.43647587,-0.6672003 0.4205936,-0.67436458 0.40583333,-0.68912489 C 0.38874275,-0.70621543 0.38129794,-0.72570141 0.38349887,-0.74758291 C 0.38570009,-0.76946396 0.39737442,-0.79097839 0.41852189,-0.81212625 C 0.42758525,-0.82118922 0.43764114,-0.82960509 0.44868959,-0.8373739 C 0.4597382,-0.84514209 0.47182254,-0.85230638 0.48494262,-0.85886677 L 0.48494262,-0.85886677 z M 0.71631468,-0.86210367 C 0.69706605,-0.84285489 0.6859312,-0.82731789 0.68291011,-0.81549263 C 0.67988904,-0.80366713 0.68368697,-0.79244596 0.69430392,-0.7818291 C 0.70276295,-0.77336998 0.71225779,-0.76944257 0.72278844,-0.77004686 C 0.73331905,-0.77065101 0.74337494,-0.77574369 0.75295615,-0.78532493 C 0.76616254,-0.79853129 0.77207523,-0.81380934 0.77069424,-0.83115912 C 0.7693131,-0.84850864 0.76085406,-0.86495196 0.74531711,-0.88048914 L 0.74000863,-0.88579762 L 0.71631468,-0.86210367 z M 0.75399194,-0.91946115 L 0.83672655,-0.83672655 L 0.81290312,-0.81290313 L 0.79089235,-0.8349139 C 0.79425861,-0.82067151 0.79397808,-0.80740033 0.79005077,-0.7951003 C 0.78612327,-0.78280008 0.77829003,-0.77078048 0.76655103,-0.75904148 C 0.7517045,-0.74419495 0.73573592,-0.73655593 0.71864524,-0.73612438 C 0.70155452,-0.73569276 0.68601752,-0.74246862 0.6720342,-0.75645197 C 0.65572037,-0.77276576 0.64887978,-0.79052542 0.65151239,-0.80973099 C 0.65414509,-0.82893633 0.66629416,-0.8493718 0.68795963,-0.87103746 L 0.72136421,-0.90444204 L 0.71903366,-0.90677259 C 0.70807142,-0.9177346 0.69598709,-0.92261149 0.68278063,-0.92140328 C 0.66957419,-0.92019462 0.65645406,-0.91307349 0.64342019,-0.90003988 C 0.63513385,-0.89175328 0.62805588,-0.88269003 0.62218627,-0.87285011 C 0.61631682,-0.86300983 0.61174203,-0.8524792 0.60846191,-0.84125818 L 0.58645114,-0.86326895 C 0.59180289,-0.87535311 0.59773716,-0.88633691 0.60425397,-0.89622036 C 0.61077097,-0.90610342 0.61791367,-0.9149293 0.6256821,-0.92269803 C 0.64665712,-0.94367275 0.66776154,-0.95390127 0.68899543,-0.95338363 C 0.71022934,-0.95286548 0.73189482,-0.94155799 0.75399194,-0.91946115 L 0.75399194,-0.91946115 z M 0.72330637,-1.0956768 L 0.76447946,-1.0545037 L 0.81355053,-1.1035748 L 0.83206547,-1.0850599 L 0.7829944,-1.0359888 L 0.86171528,-0.95726792 C 0.87354066,-0.94544244 0.88275496,-0.93946501 0.88935822,-0.93933561 C 0.89596141,-0.93920606 0.90422623,-0.94410453 0.9141527,-0.95403104 L 0.9386235,-0.97850184 L 0.95856267,-0.95856267 L 0.93409187,-0.93409187 C 0.91570635,-0.91570635 0.89958671,-0.90644889 0.88573291,-0.90631946 C 0.87187907,-0.90618994 0.8558889,-0.91518845 0.83776238,-0.93331502 L 0.75904151,-1.0120359 L 0.74156237,-0.99455675 L 0.72304743,-1.0130717 L 0.74052657,-1.0305508 L 0.69935348,-1.0717239 L 0.72330637,-1.0956768 z M 0.93033706,-1.0447931 L 0.84255293,-1.1325772 L 0.86637635,-1.1564006 L 0.95325415,-1.0695228 C 0.96697852,-1.0557984 0.97994759,-1.0481809 0.99216143,-1.0466705 C 1.0043752,-1.0451598 1.0158337,-1.0497562 1.0265371,-1.0604596 C 1.0393982,-1.0733206 1.0454619,-1.0875845 1.0447283,-1.1032511 C 1.0439946,-1.1189174 1.0365497,-1.1338286 1.0223939,-1.1479847 L 0.94017716,-1.2302014 L 0.96400058,-1.2540249 L 1.1090127,-1.1090127 L 1.0851893,-1.0851893 L 1.0629196,-1.107459 C 1.0659406,-1.0928714 1.0657679,-1.0796218 1.0624017,-1.0677102 C 1.0590352,-1.0557984 1.0523025,-1.044793 1.0422036,-1.034694 C 1.0255444,-1.0180348 1.00772,-1.0105684 0.98873034,-1.0122948 C 0.96974065,-1.0140211 0.95027624,-1.0248538 0.93033706,-1.0447931 L 0.93033706,-1.0447931 z M 1.1196297,-1.3651145 C 1.1154002,-1.3639922 1.1113433,-1.3622227 1.107459,-1.359806 C 1.1035748,-1.357389 1.0997337,-1.3542816 1.0959358,-1.3504838 C 1.0824704,-1.3370182 1.0765145,-1.3223012 1.0780682,-1.3063328 C 1.0796219,-1.2903641 1.0885989,-1.2741797 1.104999,-1.2577797 L 1.1813893,-1.1813893 L 1.1574364,-1.1574364 L 1.0124243,-1.3024486 L 1.0363772,-1.3264015 L 1.0589059,-1.3038728 C 1.055108,-1.3176833 1.0550864,-1.3307387 1.0588411,-1.343039 C 1.062596,-1.3553389 1.0702134,-1.3672291 1.0816935,-1.3787094 C 1.0833336,-1.3803492 1.0852541,-1.3820539 1.0874551,-1.3838237 C 1.0896563,-1.3855929 1.092181,-1.3874703 1.0950294,-1.3894559 L 1.1196297,-1.3651145 z M 1.2606281,-1.4064171 C 1.2413795,-1.3871683 1.2302446,-1.3716313 1.2272235,-1.3598061 C 1.2242025,-1.3479806 1.2280004,-1.3367594 1.2386173,-1.3261425 C 1.2470764,-1.3176834 1.2565712,-1.313756 1.2671019,-1.3143603 C 1.2776325,-1.3149644 1.2876884,-1.3200571 1.2972696,-1.3296384 C 1.310476,-1.3428447 1.3163887,-1.3581228 1.3150077,-1.3754726 C 1.3136265,-1.3928221 1.3051675,-1.4092654 1.2896305,-1.4248026 L 1.2843221,-1.4301111 L 1.2606281,-1.4064171 z M 1.2983054,-1.4637746 L 1.38104,-1.38104 L 1.3572166,-1.3572166 L 1.3352058,-1.3792273 C 1.338572,-1.3649849 1.3382915,-1.3517138 1.3343642,-1.3394137 C 1.3304367,-1.3271135 1.3226035,-1.3150939 1.3108645,-1.3033549 C 1.2960179,-1.2885084 1.2800493,-1.2808694 1.2629587,-1.2804378 C 1.245868,-1.2800062 1.230331,-1.286782 1.2163476,-1.3007654 C 1.2000338,-1.3170792 1.1931932,-1.3348388 1.1958258,-1.3540444 C 1.1984585,-1.3732498 1.2106076,-1.3936852 1.2322731,-1.4153509 L 1.2656776,-1.4487555 L 1.2633471,-1.451086 C 1.2523849,-1.462048 1.2403005,-1.4669249 1.2270941,-1.4657167 C 1.2138876,-1.4645081 1.2007675,-1.4573869 1.1877336,-1.4443533 C 1.1794473,-1.4360667 1.1723693,-1.4270035 1.1664997,-1.4171635 C 1.1606302,-1.4073233 1.1560555,-1.3967926 1.1527753,-1.3855716 L 1.1307646,-1.4075824 C 1.1361163,-1.4196665 1.1420506,-1.4306503 1.1485674,-1.4405338 C 1.1550844,-1.4504169 1.1622271,-1.4592427 1.1699955,-1.4670115 C 1.1909706,-1.4879862 1.212075,-1.4982147 1.2333089,-1.4976971 C 1.2545428,-1.4971789 1.2762083,-1.4858714 1.2983054,-1.4637746 L 1.2983054,-1.4637746 z M 1.2676198,-1.6399902 L 1.3087929,-1.5988172 L 1.357864,-1.6478882 L 1.3763789,-1.6293733 L 1.3273078,-1.5803022 L 1.4060287,-1.5015813 C 1.4178541,-1.4897559 1.4270684,-1.4837784 1.4336716,-1.483649 C 1.4402748,-1.4835195 1.4485397,-1.488418 1.4584661,-1.4983445 L 1.4829369,-1.5228153 L 1.5028761,-1.5028761 L 1.4784053,-1.4784053 C 1.4600198,-1.4600198 1.4439001,-1.4507623 1.4300463,-1.4506329 C 1.4161925,-1.4505034 1.4002023,-1.4595019 1.3820758,-1.4776285 L 1.3033549,-1.5563493 L 1.2858758,-1.5388702 L 1.2673609,-1.5573851 L 1.28484,-1.5748643 L 1.2436669,-1.6160374 L 1.2676198,-1.6399902 z M 1.3893264,-1.6793507 L 1.4131498,-1.7031741 L 1.5581619,-1.5581619 L 1.5343385,-1.5343385 L 1.3893264,-1.6793507 z M 1.3328752,-1.7358018 L 1.3566987,-1.7596252 L 1.3868664,-1.7294575 L 1.3630429,-1.7056341 L 1.3328752,-1.7358018 z M 1.5357628,-1.7923824 C 1.5229879,-1.7796074 1.5178737,-1.7645235 1.52042,-1.7471309 C 1.5229664,-1.7297379 1.5329144,-1.7123667 1.550264,-1.6950172 C 1.5676137,-1.6776674 1.5849633,-1.6676978 1.602313,-1.6651084 C 1.6196626,-1.6625188 1.634768,-1.6676547 1.6476293,-1.6805159 C 1.6603177,-1.6932044 1.6653673,-1.7082667 1.6627778,-1.7257028 C 1.6601883,-1.7431386 1.6502619,-1.7604882 1.6329986,-1.7777518 C 1.6158215,-1.7949286 1.5984934,-1.8048334 1.5810143,-1.8074663 C 1.5635352,-1.8100987 1.5484514,-1.8050708 1.5357628,-1.7923824 L 1.5357628,-1.7923824 z M 1.5155646,-1.8125806 C 1.5362807,-1.8332963 1.5592841,-1.8428343 1.5845749,-1.8411946 C 1.6098657,-1.8395543 1.6344227,-1.8268226 1.6582462,-1.8029994 C 1.6819832,-1.7792621 1.6946934,-1.7547266 1.6963766,-1.7293928 C 1.6980597,-1.7040587 1.6885433,-1.6810337 1.6678274,-1.6603178 C 1.647025,-1.6395154 1.6239784,-1.6299774 1.5986877,-1.6317038 C 1.5733969,-1.6334301 1.5488829,-1.6461618 1.5251458,-1.669899 C 1.5013225,-1.6937223 1.4885692,-1.7182578 1.4868859,-1.7435056 C 1.4852028,-1.768753 1.4947624,-1.791778 1.5155646,-1.8125806 L 1.5155646,-1.8125806 z M 1.8029994,-1.9780497 L 1.8905246,-1.8905246 L 1.8667011,-1.8667011 L 1.7799528,-1.9534495 C 1.7662284,-1.9671736 1.7532809,-1.9747695 1.7411103,-1.9762371 C 1.7289396,-1.9777042 1.7175027,-1.9730863 1.7067994,-1.9623832 C 1.6939382,-1.9495218 1.687896,-1.9352796 1.6886728,-1.9196565 C 1.6894497,-1.904033 1.6969161,-1.8891433 1.711072,-1.8749875 L 1.7930298,-1.7930298 L 1.7690769,-1.7690769 L 1.6240648,-1.914089 L 1.6480177,-1.9380419 L 1.6705463,-1.9155133 C 1.6675253,-1.929928 1.6677195,-1.943156 1.671129,-1.9551974 C 1.6745385,-1.9672383 1.6812928,-1.9783085 1.6913918,-1.9884077 C 1.708051,-2.0050666 1.7258106,-2.0125114 1.7446708,-2.0107422 C 1.763531,-2.0089724 1.7829738,-1.998075 1.8029994,-1.9780497 L 1.8029994,-1.9780497 z "
       id="text3295" />
    <path
       style="font-size:0.375px;text-anchor:middle"
       d="M -0.9644165,3.2266235 L -0.80731201,3.2266235 L -0.80731201,3.2577515 L -0.9274292,3.2577515 L -0.9274292,3.3383179 L -0.81903076,3.3383179 L -0.81903076,3.3694458 L -0.9274292,3.3694458 L -0.9274292,3.5 L -0.9644165,3.5 L -0.9644165,3.2266235 z M -0.63098145,3.326416 C -0.63476578,3.3242189 -0.63888564,3.3226015 -0.64334106,3.3215637 C -0.64779677,3.3205263 -0.65271009,3.3200075 -0.65808105,3.3200073 C -0.67712413,3.3200075 -0.69174204,3.3262026 -0.70193481,3.3385925 C -0.71212776,3.3509828 -0.71722419,3.3687745 -0.71722412,3.3919678 L -0.71722412,3.5 L -0.75109863,3.5 L -0.75109863,3.2949219 L -0.71722412,3.2949219 L -0.71722412,3.3267822 C -0.71014412,3.3143312 -0.70092782,3.3050844 -0.6895752,3.2990417 C -0.67822276,3.2929995 -0.66442883,3.2899782 -0.64819336,3.289978 C -0.64587416,3.2899782 -0.64331069,3.2901308 -0.64050293,3.2904358 C -0.63769546,3.2907412 -0.63458267,3.2911989 -0.63116455,3.2918091 L -0.63098145,3.326416 z M -0.51580811,3.3185425 C -0.53387461,3.3185427 -0.54815682,3.3255922 -0.55865479,3.3396912 C -0.56915289,3.3537904 -0.57440191,3.373108 -0.57440186,3.397644 C -0.57440191,3.4221803 -0.56918341,3.4414979 -0.55874634,3.4555969 C -0.54830941,3.4696961 -0.53399668,3.4767456 -0.51580811,3.4767456 C -0.4978639,3.4767456 -0.48364273,3.4696656 -0.47314453,3.4555054 C -0.46264665,3.4413453 -0.45739763,3.4220582 -0.45739746,3.397644 C -0.45739763,3.3733522 -0.46264665,3.3540956 -0.47314453,3.3398743 C -0.48364273,3.3256533 -0.4978639,3.3185427 -0.51580811,3.3185425 L -0.51580811,3.3185425 z M -0.51580811,3.289978 C -0.48651137,3.2899782 -0.46350114,3.2994997 -0.44677734,3.3185425 C -0.43005391,3.3375856 -0.4216921,3.3639528 -0.42169189,3.397644 C -0.4216921,3.4312134 -0.43005391,3.4575501 -0.44677734,3.4766541 C -0.46350114,3.4957581 -0.48651137,3.5053101 -0.51580811,3.5053101 C -0.54522714,3.5053101 -0.56826788,3.4957581 -0.58493042,3.4766541 C -0.60159305,3.4575501 -0.60992434,3.4312134 -0.60992432,3.397644 C -0.60992434,3.3639528 -0.60159305,3.3375856 -0.58493042,3.3185425 C -0.56826788,3.2994997 -0.54522714,3.2899782 -0.51580811,3.289978 L -0.51580811,3.289978 z M -0.19555664,3.3762207 L -0.19555664,3.5 L -0.22924805,3.5 L -0.22924805,3.3773193 C -0.22924822,3.3579103 -0.23303239,3.3433839 -0.24060059,3.3337402 C -0.2481691,3.3240969 -0.25952163,3.3192751 -0.2746582,3.3192749 C -0.29284679,3.3192751 -0.30719004,3.3250734 -0.31768799,3.3366699 C -0.32818611,3.3482668 -0.33343513,3.3640748 -0.33343506,3.3840942 L -0.33343506,3.5 L -0.36730957,3.5 L -0.36730957,3.2949219 L -0.33343506,3.2949219 L -0.33343506,3.3267822 C -0.32537849,3.3144533 -0.31588754,3.305237 -0.30496216,3.2991333 C -0.29403697,3.29303 -0.28143323,3.2899782 -0.26715088,3.289978 C -0.24359147,3.2899782 -0.22576922,3.2972719 -0.21368408,3.3118591 C -0.20159932,3.3264467 -0.19555685,3.3479005 -0.19555664,3.3762207 L -0.19555664,3.3762207 z M -0.094665527,3.2366943 L -0.094665527,3.2949219 L -0.025268555,3.2949219 L -0.025268555,3.321106 L -0.094665527,3.321106 L -0.094665527,3.4324341 C -0.094665596,3.4491578 -0.09237678,3.4598999 -0.087799072,3.4646606 C -0.083221516,3.4694214 -0.073913664,3.4718018 -0.059875488,3.4718018 L -0.025268555,3.4718018 L -0.025268555,3.5 L -0.059875488,3.5 C -0.085876542,3.5 -0.10382086,3.4951477 -0.1137085,3.4854431 C -0.12359623,3.4757385 -0.12854007,3.4580689 -0.12854004,3.4324341 L -0.12854004,3.321106 L -0.15325928,3.321106 L -0.15325928,3.2949219 L -0.12854004,3.2949219 L -0.12854004,3.2366943 L -0.094665527,3.2366943 z M 0.21057129,3.5 L 0.10620117,3.2266235 L 0.14483643,3.2266235 L 0.23144531,3.4567871 L 0.3182373,3.2266235 L 0.35668945,3.2266235 L 0.25250244,3.5 L 0.21057129,3.5 z M 0.3949585,3.2949219 L 0.4286499,3.2949219 L 0.4286499,3.5 L 0.3949585,3.5 L 0.3949585,3.2949219 z M 0.3949585,3.2150879 L 0.4286499,3.2150879 L 0.4286499,3.2577515 L 0.3949585,3.2577515 L 0.3949585,3.2150879 z M 0.67437744,3.3890381 L 0.67437744,3.4055176 L 0.51947021,3.4055176 C 0.520935,3.428711 0.52792352,3.4463807 0.54043579,3.4585266 C 0.55294791,3.4706726 0.57037343,3.4767456 0.5927124,3.4767456 C 0.60565171,3.4767456 0.61819443,3.4751587 0.63034058,3.4719849 C 0.64248639,3.4688111 0.65454082,3.4640503 0.66650391,3.4577026 L 0.66650391,3.489563 C 0.65441875,3.4946899 0.64202863,3.4985962 0.6293335,3.5012817 C 0.61663803,3.5039673 0.60375963,3.5053101 0.59069824,3.5053101 C 0.5579833,3.5053101 0.53207391,3.4957886 0.51296997,3.4767456 C 0.49386594,3.4577027 0.48431394,3.4319459 0.48431396,3.3994751 C 0.48431394,3.3659059 0.49337766,3.3392641 0.51150513,3.3195496 C 0.5296325,3.2998354 0.55407706,3.2899782 0.58483887,3.289978 C 0.61242661,3.2899782 0.63424666,3.2988588 0.65029907,3.3166199 C 0.66635112,3.3343813 0.67437723,3.3585206 0.67437744,3.3890381 L 0.67437744,3.3890381 z M 0.64068604,3.3791504 C 0.64044172,3.3607179 0.63528425,3.3460085 0.62521362,3.335022 C 0.61514267,3.3240358 0.6018065,3.3185427 0.58520508,3.3185425 C 0.56640615,3.3185427 0.551361,3.3238527 0.54006958,3.3344727 C 0.52877801,3.3450929 0.52227777,3.3600465 0.52056885,3.3793335 L 0.64068604,3.3791504 z M 0.71008301,3.2949219 L 0.74377441,3.2949219 L 0.78588867,3.4549561 L 0.82781982,3.2949219 L 0.86755371,3.2949219 L 0.90966797,3.4549561 L 0.95159912,3.2949219 L 0.98529053,3.2949219 L 0.93164063,3.5 L 0.89190674,3.5 L 0.84777832,3.3319092 L 0.8034668,3.5 L 0.76373291,3.5 L 0.71008301,3.2949219 z "
       id="text3299" />
    <path
       transform="scale(1.05)"
       style="font-size:0.375px;fill:#000000"
       d="M -3.3925887,-0.95499201 L -3.3818936,-0.99039927 L -3.1499935,-0.92035135 L -3.1115016,-1.0477825 L -3.0817034,-1.0387816 L -3.1308905,-0.87594322 L -3.3925887,-0.95499201 z M -3.261397,-1.1420613 L -3.2501158,-1.1738079 L -3.0568756,-1.1051402 L -3.0681567,-1.0733936 L -3.261397,-1.1420613 z M -3.3366226,-1.1687927 L -3.3253415,-1.2005393 L -3.2851406,-1.186254 L -3.2964217,-1.1545073 L -3.3366226,-1.1687927 z M -3.078325,-1.3361998 C -3.1008674,-1.3455743 -3.1202713,-1.3481903 -3.1365368,-1.3440479 C -3.1528021,-1.3399051 -3.1644269,-1.3294367 -3.1714112,-1.3126428 C -3.1783483,-1.2959613 -3.1775514,-1.2803931 -3.1690202,-1.2659384 C -3.1604889,-1.2514835 -3.1449521,-1.2395687 -3.1224097,-1.230194 C -3.09998,-1.2208661 -3.0806324,-1.2182735 -3.0643671,-1.2224162 C -3.0481017,-1.2265587 -3.0365003,-1.2369707 -3.029563,-1.2536522 C -3.0225788,-1.2704462 -3.0233524,-1.2860707 -3.0318836,-1.3005257 C -3.0404148,-1.3149804 -3.0558953,-1.3268717 -3.078325,-1.3361998 L -3.078325,-1.3361998 z M -2.9920123,-1.3367935 C -2.9597767,-1.3233874 -2.9387737,-1.3062579 -2.9290033,-1.2854047 C -2.919233,-1.2645513 -2.9204883,-1.2393593 -2.9327691,-1.2098289 C -2.9373159,-1.1988957 -2.942422,-1.1889224 -2.9480874,-1.1799089 C -2.9537529,-1.1708953 -2.9601747,-1.1625268 -2.9673528,-1.1548034 L -2.997616,-1.1673889 C -2.9888599,-1.1744561 -2.9814469,-1.1819497 -2.9753769,-1.1898697 C -2.969307,-1.1977895 -2.9643501,-1.2063706 -2.9605064,-1.2156131 C -2.9520224,-1.2360139 -2.9509966,-1.2535012 -2.9574292,-1.2680749 C -2.9638619,-1.2826484 -2.9778423,-1.2944117 -2.9993702,-1.3033647 L -3.0147554,-1.309763 C -3.0062687,-1.2986977 -3.0013498,-1.2870011 -2.9999987,-1.2746731 C -2.9986476,-1.2623448 -3.0008782,-1.2491925 -3.0066905,-1.2352163 C -3.0163465,-1.2119976 -3.0329754,-1.196967 -3.0565773,-1.1901245 C -3.0801791,-1.1832819 -3.1065763,-1.1859307 -3.1357688,-1.1980711 C -3.1650738,-1.2102582 -3.1856212,-1.2271322 -3.197411,-1.2486932 C -3.2092006,-1.2702539 -3.2102674,-1.2926437 -3.2006116,-1.3158626 C -3.1947991,-1.3298387 -3.1870457,-1.3406941 -3.1773511,-1.3484289 C -3.1676564,-1.3561632 -3.1558939,-1.3609225 -3.1420637,-1.3627068 L -3.1708053,-1.3746596 L -3.1578681,-1.4057682 L -2.9920123,-1.3367935 z M -2.9731178,-1.5981599 L -2.862618,-1.5423824 L -2.8778001,-1.5123056 L -2.987319,-1.567588 C -3.0046459,-1.5763339 -3.019319,-1.5795016 -3.0313385,-1.577091 C -3.0433578,-1.57468 -3.0527779,-1.5667182 -3.0595989,-1.5532056 C -3.0677949,-1.5369683 -3.069082,-1.521551 -3.0634602,-1.5069537 C -3.0578382,-1.4923561 -3.0460914,-1.4805468 -3.0282197,-1.4715257 L -2.9247488,-1.4192962 L -2.9400134,-1.3890559 L -3.1943589,-1.517443 L -3.1790944,-1.5476833 L -3.0793831,-1.4973516 C -3.0867588,-1.5100995 -3.0907096,-1.5227253 -3.0912352,-1.535229 C -3.0917607,-1.5477323 -3.0888055,-1.5603591 -3.0823698,-1.5731093 C -3.0717532,-1.594141 -3.057211,-1.6067645 -3.038743,-1.6109799 C -3.0202748,-1.6151947 -2.9983997,-1.6109213 -2.9731178,-1.5981599 L -2.9731178,-1.5981599 z M -3.0399743,-1.7622931 L -2.9896417,-1.7330172 L -2.95475,-1.7930048 L -2.9321162,-1.7798399 L -2.9670079,-1.7198523 L -2.8707745,-1.6638783 C -2.8563183,-1.6554699 -2.8458819,-1.6520474 -2.8394651,-1.6536108 C -2.8330483,-1.6551741 -2.8263108,-1.6620231 -2.8192527,-1.6741579 L -2.8018529,-1.7040725 L -2.777478,-1.6898949 L -2.7948778,-1.6599802 C -2.8079507,-1.6375046 -2.8211672,-1.624433 -2.8345273,-1.6207653 C -2.8478874,-1.6170975 -2.865647,-1.621708 -2.887806,-1.6345968 L -2.9840394,-1.6905708 L -2.9964678,-1.6692032 L -3.0191017,-1.6823681 L -3.0066733,-1.7037357 L -3.0570059,-1.7330116 L -3.0399743,-1.7622931 z M -2.7632386,-1.9385383 L -2.6601203,-1.8700698 L -2.6787567,-1.8420021 L -2.7809598,-1.9098629 C -2.7971292,-1.9205989 -2.811324,-1.9254816 -2.8235444,-1.9245111 C -2.8357646,-1.9235401 -2.8460612,-1.9167497 -2.8544341,-1.9041398 C -2.864495,-1.8889871 -2.8675985,-1.8738307 -2.8637446,-1.8586704 C -2.8598905,-1.8435099 -2.8496246,-1.8303928 -2.8329467,-1.8193191 L -2.7363878,-1.7552058 L -2.7551254,-1.7269856 L -2.9259723,-1.8404245 L -2.9072346,-1.8686448 L -2.8806923,-1.8510212 C -2.8865068,-1.8645527 -2.8889348,-1.8775575 -2.8879764,-1.8900355 C -2.8870177,-1.9025131 -2.8825883,-1.9147011 -2.8746882,-1.9265996 C -2.8616561,-1.9462264 -2.8457215,-1.9570393 -2.8268843,-1.9590383 C -2.8080469,-1.9610368 -2.7868317,-1.9542034 -2.7632386,-1.9385383 L -2.7632386,-1.9385383 z M -2.6009642,-2.1315417 L -2.587928,-2.1214604 L -2.6826917,-1.9989203 C -2.6634483,-1.9858906 -2.6451955,-1.9806095 -2.627933,-1.9830772 C -2.6106706,-1.9855447 -2.5952066,-1.9956141 -2.5815409,-2.0132855 C -2.5736253,-2.0235212 -2.5672077,-2.034414 -2.562288,-2.0459638 C -2.5573685,-2.0575134 -2.5537603,-2.0699615 -2.5514633,-2.0833081 L -2.52626,-2.0638177 C -2.5295973,-2.0511213 -2.5340869,-2.0389304 -2.5397287,-2.027245 C -2.5453706,-2.0155593 -2.5521867,-2.0045503 -2.560177,-1.994218 C -2.5801902,-1.9683387 -2.6035721,-1.9536677 -2.6303229,-1.9502049 C -2.6570737,-1.9467419 -2.6832921,-1.9549424 -2.7089783,-1.9748062 C -2.7355334,-1.995342 -2.7510638,-2.0188099 -2.7555697,-2.04521 C -2.7600754,-2.0716098 -2.7529191,-2.0969768 -2.7341009,-2.1213112 C -2.7172241,-2.1431345 -2.6968507,-2.1549627 -2.6729808,-2.1567959 C -2.6491108,-2.1586285 -2.6251053,-2.1502104 -2.6009642,-2.1315417 L -2.6009642,-2.1315417 z M -2.6293964,-2.1109387 C -2.644127,-2.1220214 -2.658918,-2.12694 -2.6737696,-2.1256945 C -2.6886211,-2.1244485 -2.7011248,-2.1172593 -2.7112808,-2.1041268 C -2.7227808,-2.0892557 -2.7277841,-2.0741057 -2.7262906,-2.0586769 C -2.7247969,-2.0432478 -2.7169443,-2.0289579 -2.7027327,-2.0158074 L -2.6293964,-2.1109387 z M -2.5396181,-2.3354175 L -2.5157453,-2.3143183 C -2.5257095,-2.3104173 -2.5350014,-2.3054337 -2.5436213,-2.2993675 C -2.5522411,-2.2933009 -2.5601888,-2.2861517 -2.5674645,-2.27792 C -2.5785394,-2.2653889 -2.5849249,-2.254293 -2.5866209,-2.2446325 C -2.5883167,-2.2349716 -2.5853231,-2.226746 -2.57764,-2.2199556 C -2.571786,-2.2147818 -2.5652093,-2.2129605 -2.5579097,-2.2144919 C -2.55061,-2.2160229 -2.5394688,-2.2222232 -2.5244862,-2.2330927 L -2.5149261,-2.2400386 C -2.4952399,-2.2545706 -2.4785636,-2.2625176 -2.4648972,-2.2638795 C -2.4512308,-2.2652411 -2.4381321,-2.2603845 -2.4256011,-2.2493096 C -2.4113324,-2.2366985 -2.4050282,-2.2210668 -2.4066883,-2.2024144 C -2.4083486,-2.1837618 -2.4179094,-2.1645572 -2.4353707,-2.1448005 C -2.4426463,-2.1365684 -2.4510253,-2.1287008 -2.4605078,-2.1211976 C -2.4699904,-2.1136942 -2.4806976,-2.1064181 -2.4926296,-2.0993691 L -2.5186976,-2.1224084 C -2.5056042,-2.1274534 -2.493844,-2.1334325 -2.483417,-2.1403454 C -2.4729901,-2.1472583 -2.4638559,-2.1551509 -2.4560144,-2.1640232 C -2.4455053,-2.1759138 -2.4394565,-2.1868591 -2.4378679,-2.1968592 C -2.4362795,-2.2068591 -2.4391896,-2.2151331 -2.4465983,-2.2216813 C -2.4534584,-2.2277441 -2.4607589,-2.2300828 -2.4684999,-2.2286975 C -2.476241,-2.2273119 -2.4887154,-2.2202943 -2.5059232,-2.2076447 L -2.5157418,-2.2006828 C -2.5328582,-2.1879522 -2.5478954,-2.1811224 -2.5608535,-2.1801936 C -2.5738115,-2.1792646 -2.5862358,-2.1840548 -2.5981265,-2.194564 C -2.6125781,-2.2073365 -2.61921,-2.2223211 -2.6180222,-2.2395177 C -2.6168342,-2.2567139 -2.6079138,-2.2747332 -2.5912609,-2.2935755 C -2.5830152,-2.3029049 -2.5745686,-2.3110793 -2.5659211,-2.318099 C -2.5572735,-2.3251181 -2.5485058,-2.3308909 -2.5396181,-2.3354175 L -2.5396181,-2.3354175 z M -2.3945873,-2.4839027 L -2.3720251,-2.4614076 C -2.3822056,-2.4581121 -2.3917802,-2.4536957 -2.4007489,-2.4481583 C -2.4097176,-2.4426205 -2.4180804,-2.4359616 -2.4258374,-2.4281817 C -2.4376451,-2.4163386 -2.4446855,-2.4056464 -2.4469588,-2.3961052 C -2.4492319,-2.3865636 -2.4467378,-2.378173 -2.4394765,-2.3709334 C -2.4339439,-2.3654172 -2.4274884,-2.3632041 -2.42011,-2.3642942 C -2.4127315,-2.365384 -2.401238,-2.3709039 -2.3856295,-2.3808537 L -2.3756694,-2.3872128 C -2.3551459,-2.400536 -2.3380223,-2.4074669 -2.3242987,-2.4080054 C -2.3105752,-2.4085435 -2.2977919,-2.4029088 -2.2859488,-2.3911012 C -2.2724635,-2.3776558 -2.2671096,-2.3616735 -2.2698872,-2.3431546 C -2.272665,-2.3246354 -2.2833622,-2.3060398 -2.3019787,-2.2873677 C -2.3097357,-2.2795876 -2.3185722,-2.2722375 -2.3284883,-2.2653174 C -2.3384045,-2.2583972 -2.3495295,-2.2517774 -2.3618634,-2.245458 L -2.3865002,-2.2700216 C -2.3731275,-2.274271 -2.3610294,-2.2795327 -2.3502059,-2.2858069 C -2.3393826,-2.2920809 -2.3297907,-2.2994105 -2.3214305,-2.3077958 C -2.3102261,-2.3190336 -2.3035307,-2.3295958 -2.3013443,-2.3394824 C -2.299158,-2.3493688 -2.3015658,-2.3578027 -2.3085678,-2.3647841 C -2.3150513,-2.371248 -2.3221981,-2.3740211 -2.3300084,-2.3731033 C -2.3378187,-2.3721852 -2.3506922,-2.3659296 -2.3686288,-2.3543366 L -2.3788479,-2.3479771 C -2.396698,-2.3362976 -2.4121183,-2.3303835 -2.4251088,-2.3302348 C -2.4380992,-2.3300859 -2.4502134,-2.3356137 -2.4614513,-2.3468182 C -2.4751096,-2.3604358 -2.4808294,-2.3757917 -2.4786107,-2.3928859 C -2.4763918,-2.4099797 -2.4664051,-2.4274306 -2.4486504,-2.4452385 C -2.4398592,-2.4540557 -2.4309368,-2.461708 -2.4218832,-2.4681955 C -2.4128296,-2.4746825 -2.403731,-2.4799182 -2.3945873,-2.4839027 L -2.3945873,-2.4839027 z "
       id="text2489" />
  </svg>
</svg>
