<svg version="1.1" xmlns="http://www.w3.org/2000/svg" xmlns:xlink="http://www.w3.org/1999/xlink" width="2048" height="2048" viewBox="-256 -256 512 512">
<!--
	<image
		x="-256" y="-256"
		width="512" height="512"
		image-rendering="pixelated"
		xlink:href="isometric_camera_location_30_degrees_vector_color_headon_markers.png" />
-->
	<g transform="scale(1.2)">
		<path
			d="M -170.666666670000,170.666666670000 L -176.666666670000,150.666666670000 L -171.504454108133,150.666666670000 A 186.997221106293,186.997221106293 0,0,1, -162.342519040532,111.856086920238 L -166.959742321534,109.547475279602 L -152.648907265178,94.3422130329390 L -156.226616029660,114.914038425853 L -158.739984652571,113.657354114324 A 168.666666670001,168.666666670001 0,0,0 -167.476698216704,150.666666670000 L -164.666666670000,150.666666670000 Z"
			style="stroke:none;stroke-width:0.00;fill:#ff0000;" />
		<path
			d="M -170.537451084967,85.3979411225206 L 0.00000000000000,170.666666670000 L -190.666666670000,170.666666670000"
			stroke-linejoin="round"
			stroke-linecap="round"
			style="stroke:#ff0000;stroke-width:2;fill:none;" />
		<text
			x="-110.734107247963" y="144.525889930359"
			alignment-baseline="middle"
			text-anchor="middle"
			style="font-family:sans-serif;font-size:20pt;fill:#ff0000;">26.565°</text>
		<path
			d="M -85.3333300000002,-81.0231200000002 L -81.7556222003046,-101.594945560703 L -76.3216365575226,-98.8779530577098 A 97.4055610771427,97.4055610771427 0,0,1 76.3216351390499,-98.8779548464984 L 81.7556207181526,-101.594947476851 L 85.3333290000002,-81.0231220000004 L 71.0224943003749,-96.2283845824091 L 72.6625862370005,-97.0484305026724 A 93.4055610771441,93.4055610771441 0,0,0 -72.6625876125937,-97.0484287996428 L -71.0224956567485,-96.2283829178193 Z"
			style="stroke:none;stroke-width:0.00;fill:#ff0000;" />
		<path
			d="M -103.221874239261,-89.9673910714738 L 0.00000000000000,-38.3564600000000 L 103.221873029630,-89.9673934907368"
			stroke-linejoin="round"
			stroke-linecap="round"
			style="stroke:#ff0000;stroke-width:2;fill:none;" />
		<text
			x="0.00000000000000" y="-101.960167384762"
			alignment-baseline="middle"
			text-anchor="middle"
			style="font-family:sans-serif;font-size:20pt;fill:#ff0000;">126.87°</text>
	</g>
</svg>
