<svg version="1.1" xmlns="http://www.w3.org/2000/svg" xmlns:xlink="http://www.w3.org/1999/xlink" width="2048" height="2048" viewBox="-256 -256 512 512">
<!--
	<image
		x="-256" y="-256"
		width="512" height="512"
		image-rendering="pixelated"
		xlink:href="isometric_camera_location_35.264_degrees_vector_color_headon_markers.png" />
-->
	<g transform="scale(1.2)">
		<path
			d="M -170.666670000000,197.068891880000 L -176.666669999999,177.068891880000 L -171.504457460698,177.068891880000 A 172.666669999999,172.666669999999 0,0,1 -158.527217602488,128.637172567230 L -162.997824823106,126.056066335422 L -147.801672521620,111.735558131102 L -152.605519926906,132.056066247453 L -155.039078664172,130.651050482870 A 168.666670000002,168.666670000002 0,0,0 -167.476701570366,177.068891880000 L -164.666670000001,177.068891880000 Z"
			style="stroke:none;stroke-width:0.00;fill:#ff0000;" />
		<path
			d="M -165.122180681956,101.735558277715 L 0.00000000000000,197.068891880000 L -190.666670000000,197.068891880000"
			stroke-linejoin="round"
			stroke-linecap="round"
			style="stroke:#ff0000;stroke-width:2;fill:none;" />
		<text
			x="-109.900896284470" y="167.621035971656"
			alignment-baseline="middle"
			text-anchor="middle"
			style="font-family:sans-serif;font-size:20pt;fill:#ff0000;">30°</text>
		<path
			d="M -85.3333300000002,-49.2672200000002 L -80.5294826095880,-69.5877281198703 L -75.3251461221425,-66.5830031117051 A 100.534441569540,100.534441569540 0,0,1 75.3251476307952,-66.5830014049710 L 80.5294826095826,-69.5877281198671 L 85.3333300000002,-49.2672200000002 L 70.1371777089908,-63.5877282154390 L 71.7873700759640,-64.5404672024912 A 96.5344415695209,96.5344415695209 0,0,0 -71.7873700759640,-64.5404672024911 L -70.1371777089854,-63.5877282154359 Z"
			style="stroke:none;stroke-width:0.00;fill:#ff0000;" />
		<path
			d="M -102.653838167655,-59.2672198407146 L 0.00000000000000,0.00000000000000 L 102.653838167653,-59.2672198407137"
			stroke-linejoin="round"
			stroke-linecap="round"
			style="stroke:#ff0000;stroke-width:2;fill:none;" />
		<text
			x="0.00000000000000" y="-65.6896277130140"
			alignment-baseline="middle"
			text-anchor="middle"
			style="font-family:sans-serif;font-size:20pt;fill:#ff0000;">120°</text>
	</g>
</svg>
