<svg version="1.1" xmlns="http://www.w3.org/2000/svg" xmlns:xlink="http://www.w3.org/1999/xlink" width="660" height="660"><defs><clipPath id="mtvgJTQekfWT"><path fill="none" stroke="none" d=" M 0 0 L 660 0 L 660 660 L 0 660 L 0 0 Z"/></clipPath></defs><g transform="scale(1,1)" clip-path="url(#mtvgJTQekfWT)"><g transform="translate(5.684341886080802e-14,-6.979010494752572)"><rect fill="rgb(255,255,255)" stroke="none" x="0" y="0" width="1210" height="665" fill-opacity="1"/><path fill="rgb(0,0,0)" stroke="none" paint-order="stroke fill markers" fill-rule="evenodd" d=" M 329.45544554455455 330.007496251874 L 329.45544554455455 341.9715142428785 L 581.0396039603962 341.9715142428785 L 581.0396039603962 353.935532233883 L 628.9603960396041 335.98950524737626 L 581.0396039603962 318.0434782608695 L 581.0396039603962 330.007496251874 Z" fill-opacity="1"/><path fill="rgb(0,0,0)" stroke="none" paint-order="stroke fill markers" fill-rule="evenodd" d=" M 323.4653465346536 635.0899550224887 L 335.4455445544555 635.0899550224887 L 335.4455445544555 84.74512743628182 L 347.4257425742575 84.74512743628182 L 329.45544554455455 36.88905547226386 L 311.4851485148516 84.74512743628182 L 323.4653465346535 84.74512743628182 Z" fill-opacity="1"/><path fill="none" stroke="rgb(0,0,0)" paint-order="fill stroke markers" d=" M 628.9603960396041 335.98950524737626 C 628.9603960396041 501.17812232570196 494.86746220179714 635.0899550224887 329.45544554455455 635.0899550224887 C 164.04342888731193 635.0899550224887 29.950495049504923 501.17812232570196 29.950495049504923 335.98950524737626 C 29.950495049504923 170.80088816905055 164.04342888731193 36.88905547226386 329.45544554455455 36.88905547226386 C 494.86746220179714 36.88905547226386 628.9603960396041 170.80088816905055 628.9603960396041 335.98950524737626 Z" stroke-opacity="0.6980392156862745" stroke-linecap="round" stroke-linejoin="round" stroke-miterlimit="10" stroke-width="1.5"/><path fill="none" stroke="rgb(0,0,0)" paint-order="fill stroke markers" d=" M 329.45544554455455 36.88905547226386 L 333.1305552614758 36.979138935693015 L 336.8034512297248 37.24933506307059 L 340.47192103410873 37.69948109835275 L 344.13375492559027 38.32930589039984 L 347.786747152358 39.13843005630787 L 351.4286972884887 40.126366209934304 L 355.05741155940166 41.29251925548158 L 358.6707041633064 42.63618674596029 L 362.2663985878482 44.15655930631715 L 365.8423289211572 45.852721120972205 L 369.39634115651336 47.723650485471865 L 372.92629448983917 49.76822042192555 L 376.43006260924005 51.98519935785487 L 379.90553497581527 54.373251868046964 L 383.3506180949674 56.93093947896489 L 386.7632367774455 59.65672153522979 L 390.14133538936125 62.548956127654606 L 393.482879090426 65.60590108226842 L 396.7858550596627 68.82571500973717 L 400.0482737078537 72.20645841454746 L 403.268169875995 75.74609486328643 L 406.4436040190345 79.44249221131292 L 409.57266337418173 83.29342388708159 L 412.6534631130841 87.29657023334664 L 415.6841474771775 91.44951990443633 L 418.66289089552544 95.74977131875761 L 421.58789908447517 100.1947341656552 L 424.45741012846685 104.78173096571808 L 427.2696955413454 109.50799868359269 L 430.0230613075363 114.37069039233228 L 432.7158489024569 119.36687698827933 L 435.34643629154994 124.49354895544789 L 437.91323890733617 129.74761817834352 L 440.4147106038987 135.12591980212864 L 442.8493445882237 140.62521413901274 L 445.21567432783576 146.2421886197192 L 447.51227443418253 151.97345978885298 L 449.7377615212353 157.81557534296778 L 451.8907950387893 163.7650162101047 L 453.9700780799605 169.81819866954922 L 455.9743581623944 175.97147651053086 L 457.90242798271413 182.2211432285641 L 459.7531261437552 188.56343425810803 L 461.5253378541473 194.99452924020002 L 463.2179955998236 201.5105543236971 L 464.83007978705047 208.10758449873865 L 466.36061935659325 214.78164596102624 L 467.8086923686458 221.52871850549408 L 469.17342655817265 228.34473794793075 L 470.45399986032874 235.22559857309156 L 471.6496409056406 242.16715560782774 L 472.75962948465025 249.16522771774322 L 473.783296981743 256.2155995258737 L 474.720026777896 263.3140241518723 L 475.56925462210654 270.4562257701716 L 476.330468971276 277.63790218558074 L 477.00321129834407 284.85472742476736 L 477.5870763684884 292.1023543420619 L 478.0817124832228 299.37641723801545 L 478.4868216922474 306.6725344891343 L 478.8021599729228 313.98631118720584 L 479.0275373772599 321.3133417866268 L 479.1628181463377 328.64921275813936 L 479.20792079207934 335.98950524737626 L 479.1628181463377 343.3297977366131 L 479.0275373772599 350.66566870812574 L 478.8021599729228 357.9926993075466 L 478.4868216922475 365.30647600561815 L 478.0817124832228 372.602593256737 L 477.5870763684884 379.87665615269054 L 477.00321129834407 387.1242830699851 L 476.330468971276 394.3411083091717 L 475.56925462210654 401.5227847245809 L 474.720026777896 408.6649863428802 L 473.783296981743 415.7634109688788 L 472.75962948465025 422.81378277700924 L 471.6496409056406 429.8118548869247 L 470.45399986032874 436.7534119216609 L 469.17342655817265 443.6342725468217 L 467.8086923686458 450.4502919892584 L 466.36061935659325 457.1973645337263 L 464.83007978705047 463.8714259960138 L 463.21799559982355 470.46845617105544 L 461.5253378541474 476.98448125455246 L 459.7531261437552 483.4155762366445 L 457.90242798271413 489.7578672661884 L 455.9743581623944 496.0075339842216 L 453.97007807996056 502.1608118252032 L 451.8907950387893 508.2139942846478 L 449.73776152123537 514.1634351517847 L 447.51227443418253 520.0055507058995 L 445.21567432783576 525.7368218750332 L 442.84934458822374 531.3537963557396 L 440.4147106038987 536.8530906926239 L 437.91323890733617 542.231392316409 L 435.34643629154994 547.4854615393047 L 432.71584890245697 552.6121335064731 L 430.0230613075363 557.6083201024202 L 427.2696955413454 562.4710118111599 L 424.45741012846685 567.1972795290344 L 421.5878990844752 571.7842763290973 L 418.66289089552544 576.2292391759948 L 415.6841474771775 580.5294905903161 L 412.6534631130841 584.6824402614059 L 409.57266337418173 588.685586607671 L 406.4436040190346 592.5365182834396 L 403.268169875995 596.2329156314661 L 400.04827370785375 599.7725520802051 L 396.78585505966277 603.1532954850154 L 393.482879090426 606.3731094124842 L 390.14133538936125 609.4300543670979 L 386.7632367774455 612.3222889595227 L 383.35061809496744 615.0480710157876 L 379.90553497581527 617.6057586267054 L 376.43006260924005 619.9938111368976 L 372.92629448983917 622.210790072827 L 369.39634115651336 624.2553600092806 L 365.8423289211572 626.1262893737803 L 362.26639858784824 627.8224511884353 L 358.6707041633065 629.3428237487922 L 355.05741155940166 630.6864912392709 L 351.4286972884887 631.8526442848182 L 347.786747152358 632.8405804384447 L 344.13375492559027 633.6497046043526 L 340.47192103410873 634.2795293963998 L 336.8034512297248 634.7296754316819 L 333.1305552614758 634.9998715590596 L 329.45544554455455 635.0899550224887 L 325.78033582763334 634.9998715590596 L 322.10743985938433 634.7296754316819 L 318.43897005500037 634.2795293963998 L 314.7771361635189 633.6497046043527 L 311.1241439367511 632.8405804384447 L 307.48219380062045 631.8526442848182 L 303.8534795297075 630.6864912392709 L 300.2401869258026 629.3428237487922 L 296.6444925012609 627.8224511884354 L 293.0685621679519 626.1262893737803 L 289.51454993259574 624.2553600092806 L 285.98459659927 622.210790072827 L 282.4808284798691 619.9938111368976 L 279.00535611329383 617.6057586267056 L 275.5602729941417 615.0480710157876 L 272.14765431166364 612.3222889595227 L 268.7695556997479 609.4300543670979 L 265.42801199868313 606.3731094124842 L 262.12503602944633 603.1532954850154 L 258.8626173812554 599.7725520802051 L 255.6427212131141 596.2329156314661 L 252.46728707007458 592.5365182834396 L 249.33822771492737 588.685586607671 L 246.257427976025 584.6824402614059 L 243.22674361193162 580.5294905903162 L 240.2480001935837 576.229239175995 L 237.32299200463393 571.7842763290973 L 234.45348096064228 567.1972795290344 L 231.64119554776372 562.4710118111599 L 228.8878297815728 557.6083201024202 L 226.1950421866522 552.6121335064731 L 223.56445479755916 547.4854615393047 L 220.997652181773 542.231392316409 L 218.4961804852104 536.8530906926239 L 216.06154650088547 531.3537963557399 L 213.6952167612734 525.7368218750335 L 211.39861665492663 520.0055507058996 L 209.17312956787373 514.1634351517846 L 207.0200960503198 508.2139942846478 L 204.9408130091486 502.16081182520327 L 202.93653292671468 496.00753398422165 L 201.00846310639494 489.75786726618844 L 199.1577649453539 483.4155762366445 L 197.38555323496175 476.9844812545525 L 195.69289548928552 470.46845617105555 L 194.0808113020587 463.87142599601395 L 192.5502717325159 457.19736453372644 L 191.10219872046332 450.4502919892586 L 189.7374645309364 443.63427254682165 L 188.45689122878034 436.7534119216609 L 187.26125018346855 429.8118548869247 L 186.15126160445885 422.8137827770093 L 185.1275941073661 415.7634109688789 L 184.19086431121312 408.6649863428803 L 183.3416364670026 401.522784724581 L 182.5804221178331 394.34110830917183 L 181.90767979076503 387.1242830699852 L 181.3238147206207 379.87665615269077 L 180.82917860588628 372.60259325673695 L 180.42406939686163 365.3064760056181 L 180.10873111618628 357.9926993075466 L 179.88335371184922 350.66566870812574 L 179.74807294277142 343.32979773661316 L 179.70297029702974 335.9895052473763 L 179.74807294277142 328.64921275813947 L 179.88335371184922 321.3133417866269 L 180.10873111618628 313.986311187206 L 180.42406939686163 306.67253448913453 L 180.82917860588628 299.3764172380157 L 181.3238147206207 292.10235434206186 L 181.90767979076503 284.8547274247674 L 182.5804221178331 277.63790218558074 L 183.34163646700256 270.4562257701716 L 184.19086431121312 263.31402415187233 L 185.1275941073661 256.21559952587376 L 186.15126160445885 249.16522771774333 L 187.26125018346855 242.16715560782788 L 188.4568912287803 235.2255985730917 L 189.7374645309364 228.34473794793095 L 191.1021987204633 221.52871850549403 L 192.55027173251588 214.7816459610262 L 194.08081130205863 208.10758449873867 L 195.6928954892855 201.5105543236971 L 197.38555323496172 194.99452924020008 L 199.1577649453539 188.5634342581081 L 201.0084631063949 182.22114322856413 L 202.93653292671468 175.97147651053095 L 204.94081300914854 169.81819866954933 L 207.02009605031978 163.76501621010485 L 209.17312956787373 157.81557534296797 L 211.3986166549266 151.97345978885292 L 213.69521676127334 146.24218861971917 L 216.0615465008854 140.62521413901277 L 218.4961804852104 135.1259198021287 L 220.99765218177293 129.74761817834357 L 223.5644547975591 124.49354895544795 L 226.19504218665213 119.36687698827944 L 228.88782978157275 114.37069039233236 L 231.64119554776363 109.50799868359277 L 234.4534809606422 104.78173096571822 L 237.32299200463382 100.19473416565535 L 240.2480001935837 95.74977131875758 L 243.22674361193165 91.44951990443633 L 246.25742797602499 87.29657023334664 L 249.3382277149273 83.29342388708162 L 252.46728707007452 79.44249221131292 L 255.64272121311404 75.74609486328649 L 258.86261738125535 72.20645841454751 L 262.1250360294463 68.82571500973722 L 265.428011998683 65.60590108226853 L 268.7695556997478 62.54895612765466 L 272.14765431166353 59.656721535229906 L 275.5602729941417 56.93093947896489 L 279.0053561132939 54.373251868046964 L 282.48082847986905 51.98519935785487 L 285.98459659926993 49.76822042192555 L 289.51454993259574 47.723650485471865 L 293.0685621679519 45.852721120972205 L 296.64449250126086 44.156559306317206 L 300.2401869258026 42.636186745960345 L 303.8534795297074 41.292519255481636 L 307.48219380062034 40.12636620993436 L 311.1241439367511 39.13843005630787 L 314.7771361635189 38.32930589039984 L 318.43897005500037 37.69948109835275 L 322.1074398593843 37.24933506307059 L 325.7803358276333 36.979138935693015 L 329.4554455445545 36.88905547226386" stroke-opacity="0.6980392156862745" stroke-linecap="round" stroke-linejoin="round" stroke-miterlimit="10" stroke-width="1.5"/><path fill="none" stroke="rgb(0,0,0)" paint-order="fill stroke markers" d=" M 329.45544554455455 36.88905547226386 L 335.58062840609 36.979138935693015 L 341.702121686505 37.24933506307059 L 347.81623802714483 37.69948109835275 L 353.9192945129474 38.32930589039984 L 360.0076148908936 39.13843005630787 L 366.0775317844448 40.126366209934304 L 372.12538890263306 41.29251925548158 L 378.1475432424744 42.63618674596029 L 384.14036728337726 44.15655930631715 L 390.1002511722256 45.852721120972205 L 396.0236048978192 47.723650485471865 L 401.90686045336224 49.76822042192555 L 407.7464739856971 51.98519935785487 L 413.5389279299891 54.373251868046964 L 419.28073312857595 56.93093947896489 L 424.9684309327061 59.65672153522979 L 430.598595285899 62.548956127654606 L 436.16783478767366 65.60590108226842 L 441.67279473640156 68.82571500973717 L 447.11015915005316 72.20645841454746 L 452.476652763622 75.74609486328643 L 457.76904300202125 79.44249221131292 L 462.9841419272666 83.29342388708159 L 468.1188081587705 87.29657023334664 L 473.1699487655927 91.44951990443633 L 478.134521129506 95.74977131875761 L 483.0095347777556 100.1947341656552 L 487.79205318440836 104.78173096571808 L 492.479195539206 109.50799868359269 L 497.0681384828575 114.37069039233228 L 501.5561178077252 119.36687698827933 L 505.94043012288023 124.49354895544789 L 510.2184344825239 129.74761817834352 L 514.3875539767948 135.12591980212864 L 518.4452772840032 140.62521413901274 L 522.3891601833566 146.2421886197192 L 526.2168270272678 151.97345978885298 L 529.9259721723558 157.81557534296778 L 533.5143613682791 163.7650162101047 L 536.9798331035645 169.81819866954922 L 540.320299907621 175.97147651053086 L 543.5337496081539 182.2211432285641 L 546.6182465432223 188.56343425810803 L 549.5719327272093 194.99452924020002 L 552.393028970003 201.5105543236971 L 555.0798359487144 208.10758449873865 L 557.6307352312857 214.78164596102624 L 560.0441902513734 221.52871850549408 L 562.3187472339181 228.34473794793075 L 564.453036070845 235.22559857309156 L 566.4457711463646 242.16715560782774 L 568.2957521113807 249.16522771774322 L 570.0018646065353 256.2155995258737 L 571.563080933457 263.3140241518723 L 572.9784606738078 270.4562257701716 L 574.247151255757 277.63790218558074 L 575.3683884675371 284.85472742476736 L 576.3414969177777 292.1023543420619 L 577.165890442335 299.37641723801545 L 577.8410724573761 306.6725344891343 L 578.3666362585017 313.98631118720584 L 578.7422652657301 321.3133417866268 L 578.9677332141931 328.64921275813936 L 579.0429042904293 335.98950524737626 L 578.9677332141931 343.3297977366131 L 578.7422652657301 350.66566870812574 L 578.3666362585017 357.9926993075466 L 577.8410724573761 365.30647600561815 L 577.165890442335 372.602593256737 L 576.3414969177777 379.87665615269054 L 575.3683884675371 387.1242830699851 L 574.247151255757 394.3411083091717 L 572.9784606738078 401.5227847245809 L 571.563080933457 408.6649863428802 L 570.0018646065353 415.7634109688788 L 568.2957521113807 422.81378277700924 L 566.4457711463646 429.8118548869247 L 564.453036070845 436.7534119216609 L 562.3187472339181 443.6342725468217 L 560.0441902513734 450.4502919892584 L 557.6307352312857 457.1973645337263 L 555.0798359487144 463.8714259960138 L 552.393028970003 470.46845617105544 L 549.5719327272093 476.98448125455246 L 546.6182465432223 483.4155762366445 L 543.5337496081539 489.7578672661884 L 540.320299907621 496.0075339842216 L 536.9798331035645 502.1608118252032 L 533.5143613682791 508.2139942846478 L 529.9259721723558 514.1634351517847 L 526.2168270272679 520.0055507058995 L 522.3891601833566 525.7368218750332 L 518.4452772840032 531.3537963557396 L 514.3875539767948 536.8530906926239 L 510.2184344825239 542.231392316409 L 505.94043012288023 547.4854615393047 L 501.55611780772523 552.6121335064731 L 497.06813848285753 557.6083201024202 L 492.479195539206 562.4710118111599 L 487.79205318440836 567.1972795290344 L 483.0095347777557 571.7842763290973 L 478.134521129506 576.2292391759948 L 473.1699487655928 580.5294905903161 L 468.1188081587705 584.6824402614059 L 462.9841419272666 588.685586607671 L 457.76904300202125 592.5365182834396 L 452.47665276362204 596.2329156314661 L 447.1101591500533 599.7725520802051 L 441.6727947364016 603.1532954850154 L 436.16783478767366 606.3731094124842 L 430.598595285899 609.4300543670979 L 424.96843093270616 612.3222889595227 L 419.280733128576 615.0480710157876 L 413.5389279299891 617.6057586267054 L 407.74647398569704 619.9938111368976 L 401.90686045336224 622.210790072827 L 396.02360489781927 624.2553600092806 L 390.1002511722257 626.1262893737803 L 384.1403672833773 627.8224511884353 L 378.14754324247446 629.3428237487922 L 372.12538890263306 630.6864912392709 L 366.0775317844448 631.8526442848182 L 360.00761489089365 632.8405804384447 L 353.91929451294743 633.6497046043526 L 347.8162380271449 634.2795293963998 L 341.702121686505 634.7296754316819 L 335.58062840609 634.9998715590596 L 329.4554455445546 635.0899550224887 L 323.33026268301916 634.9998715590596 L 317.20876940260416 634.7296754316819 L 311.09465306196427 634.2795293963998 L 304.9915965761617 633.6497046043527 L 298.9032761982155 632.8405804384447 L 292.8333593046644 631.8526442848182 L 286.7855021864761 630.6864912392709 L 280.7633478466347 629.3428237487922 L 274.77052380573184 627.8224511884354 L 268.8106399168835 626.1262893737803 L 262.8872861912899 624.2553600092806 L 257.004030635747 622.210790072827 L 251.16441710341212 619.9938111368976 L 245.37196315912004 617.6057586267056 L 239.63015796053315 615.0480710157876 L 233.942460156403 612.3222889595227 L 228.31229580321013 609.4300543670979 L 222.7430563014355 606.3731094124842 L 217.23809635270754 603.1532954850154 L 211.80073193905594 599.7725520802051 L 206.43423832548712 596.2329156314661 L 201.14184808708788 592.5365182834396 L 195.9267491618426 588.685586607671 L 190.79208293033867 584.6824402614059 L 185.74094232351635 580.5294905903162 L 180.77636995960313 576.229239175995 L 175.90135631135348 571.7842763290973 L 171.11883790470077 567.1972795290344 L 166.43169554990314 562.4710118111599 L 161.8427526062516 557.6083201024202 L 157.3547732813839 552.6121335064731 L 152.97046096622887 547.4854615393047 L 148.69245660658524 542.231392316409 L 144.5233371123143 536.8530906926239 L 140.46561380510605 531.3537963557399 L 136.5217309057526 525.7368218750335 L 132.69406406184135 520.0055507058996 L 128.98491891675317 514.1634351517846 L 125.39652972082996 508.2139942846478 L 121.93105798554461 502.16081182520327 L 118.5905911814881 496.00753398422165 L 115.3771414809552 489.75786726618844 L 112.29264454588682 483.4155762366445 L 109.33895836189987 476.9844812545525 L 106.51786211910613 470.46845617105555 L 103.83105514039477 463.87142599601395 L 101.28015585782344 457.19736453372644 L 98.86670083773583 450.4502919892586 L 96.59214385519098 443.63427254682165 L 94.45785501826418 436.7534119216609 L 92.46511994274454 429.8118548869247 L 90.6151389777284 422.8137827770093 L 88.90902648257378 415.7634109688789 L 87.34781015565218 408.6649863428803 L 85.93243041530124 401.522784724581 L 84.66373983335217 394.34110830917183 L 83.54250262157203 387.1242830699852 L 82.56939417133148 379.87665615269077 L 81.74500064677406 372.60259325673695 L 81.069818631733 365.3064760056181 L 80.54425483060743 357.9926993075466 L 80.16862582337899 350.66566870812574 L 79.94315787491601 343.32979773661316 L 79.86798679867985 335.9895052473763 L 79.94315787491601 328.64921275813947 L 80.16862582337899 321.3133417866269 L 80.54425483060743 313.986311187206 L 81.069818631733 306.67253448913453 L 81.74500064677406 299.3764172380157 L 82.56939417133148 292.10235434206186 L 83.542502621572 284.8547274247674 L 84.66373983335214 277.63790218558074 L 85.93243041530124 270.4562257701716 L 87.34781015565218 263.31402415187233 L 88.90902648257375 256.21559952587376 L 90.61513897772838 249.16522771774333 L 92.46511994274451 242.16715560782788 L 94.45785501826415 235.2255985730917 L 96.59214385519095 228.34473794793095 L 98.86670083773578 221.52871850549403 L 101.28015585782342 214.7816459610262 L 103.83105514039471 208.10758449873867 L 106.51786211910613 201.5105543236971 L 109.33895836189984 194.99452924020008 L 112.29264454588679 188.5634342581081 L 115.37714148095517 182.22114322856413 L 118.5905911814881 175.97147651053095 L 121.93105798554456 169.81819866954933 L 125.39652972082993 163.76501621010485 L 128.98491891675314 157.81557534296797 L 132.6940640618413 151.97345978885292 L 136.52173090575258 146.24218861971917 L 140.46561380510596 140.62521413901277 L 144.52333711231427 135.1259198021287 L 148.6924566065852 129.74761817834357 L 152.97046096622884 124.49354895544795 L 157.35477328138384 119.36687698827944 L 161.84275260625154 114.37069039233236 L 166.43169554990303 109.50799868359277 L 171.1188379047006 104.78173096571822 L 175.90135631135334 100.19473416565535 L 180.77636995960313 95.74977131875758 L 185.74094232351638 91.44951990443633 L 190.7920829303386 87.29657023334664 L 195.9267491618425 83.29342388708162 L 201.1418480870878 79.44249221131292 L 206.43423832548706 75.74609486328649 L 211.80073193905582 72.20645841454751 L 217.23809635270746 68.82571500973722 L 222.7430563014353 65.60590108226853 L 228.31229580320996 62.54895612765466 L 233.94246015640283 59.656721535229906 L 239.63015796053315 56.93093947896489 L 245.37196315912007 54.373251868046964 L 251.16441710341203 51.98519935785487 L 257.00403063574686 49.76822042192555 L 262.88728619128983 47.723650485471865 L 268.8106399168834 45.852721120972205 L 274.7705238057317 44.156559306317206 L 280.7633478466346 42.636186745960345 L 286.7855021864759 41.292519255481636 L 292.83335930466416 40.12636620993436 L 298.90327619821556 39.13843005630787 L 304.9915965761618 38.32930589039984 L 311.09465306196427 37.69948109835275 L 317.20876940260405 37.24933506307059 L 323.33026268301904 36.979138935693015 L 329.4554455445545 36.88905547226386" stroke-opacity="0.6980392156862745" stroke-linecap="round" stroke-linejoin="round" stroke-miterlimit="10" stroke-width="1.5"/><path fill="none" stroke="rgb(0,0,0)" paint-order="fill stroke markers" d=" M 329.45544554455455 36.88905547226386 L 330.68048211686164 36.979138935693015 L 331.90478077294466 37.24933506307059 L 333.12760404107263 37.69948109835275 L 334.3482153382331 38.32930589039984 L 335.56587941382236 39.13843005630787 L 336.7798627925326 40.126366209934304 L 337.98943421617025 41.29251925548158 L 339.1938650841385 42.63618674596029 L 340.3924298923191 44.15655930631715 L 341.58440667008875 45.852721120972205 L 342.7690774152075 47.723650485471865 L 343.9457285263161 49.76822042192555 L 345.11365123278307 51.98519935785487 L 346.27214202164146 54.373251868046964 L 347.42050306135883 56.93093947896489 L 348.55804262218487 59.65672153522979 L 349.68407549282347 62.548956127654606 L 350.7979233931784 65.60590108226842 L 351.8989153829239 68.82571500973717 L 352.9863882656543 72.20645841454746 L 354.059686988368 75.74609486328643 L 355.1181650360479 79.44249221131292 L 356.1611848210969 83.29342388708159 L 357.18811806739774 87.29657023334664 L 358.1983461887622 91.44951990443633 L 359.19126066154485 95.74977131875761 L 360.1662633911948 100.1947341656552 L 361.12276707252533 104.78173096571808 L 362.06019554348484 109.50799868359269 L 362.9779841322151 114.37069039233228 L 363.87557999718865 119.36687698827933 L 364.7524424602197 124.49354895544789 L 365.60804333214844 129.74761817834352 L 366.4418672310026 135.12591980212864 L 367.25341189244426 140.62521413901274 L 368.04218847231493 146.2421886197192 L 368.8077218410972 151.97345978885298 L 369.5495508701148 157.81557534296778 L 370.26722870929945 163.7650162101047 L 370.9603230563565 169.81819866954922 L 371.62841641716784 175.97147651053086 L 372.27110635727445 182.2211432285641 L 372.8880057442881 188.56343425810803 L 373.4787429810855 194.99452924020002 L 374.0429622296442 201.5105543236971 L 374.58032362538654 208.10758449873865 L 375.0905034819008 214.78164596102624 L 375.5731944859183 221.52871850549408 L 376.02810588242727 228.34473794793075 L 376.4549636498126 235.22559857309156 L 376.85351066491654 242.16715560782774 L 377.2235068579198 249.16522771774322 L 377.5647293569507 256.2155995258737 L 377.876972622335 263.3140241518723 L 378.1600485704052 270.4562257701716 L 378.41378668679505 277.63790218558074 L 378.63803412915104 284.85472742476736 L 378.83265581919915 292.1023543420619 L 378.9975345241106 299.37641723801545 L 379.1325709271189 306.6725344891343 L 379.237683687344 313.98631118720584 L 379.31280948878964 321.3133417866268 L 379.35790307848225 328.64921275813936 L 379.3729372937295 335.98950524737626 L 379.35790307848225 343.3297977366131 L 379.31280948878964 350.66566870812574 L 379.237683687344 357.9926993075466 L 379.1325709271189 365.30647600561815 L 378.9975345241106 372.602593256737 L 378.83265581919915 379.87665615269054 L 378.63803412915104 387.1242830699851 L 378.41378668679505 394.3411083091717 L 378.1600485704052 401.5227847245809 L 377.876972622335 408.6649863428802 L 377.5647293569507 415.7634109688788 L 377.2235068579198 422.81378277700924 L 376.85351066491654 429.8118548869247 L 376.4549636498126 436.7534119216609 L 376.02810588242727 443.6342725468217 L 375.5731944859183 450.4502919892584 L 375.0905034819008 457.1973645337263 L 374.58032362538654 463.8714259960138 L 374.0429622296442 470.46845617105544 L 373.4787429810855 476.98448125455246 L 372.8880057442881 483.4155762366445 L 372.27110635727445 489.7578672661884 L 371.62841641716784 496.0075339842216 L 370.9603230563565 502.1608118252032 L 370.26722870929945 508.2139942846478 L 369.5495508701148 514.1634351517847 L 368.8077218410972 520.0055507058995 L 368.04218847231493 525.7368218750332 L 367.25341189244426 531.3537963557396 L 366.4418672310026 536.8530906926239 L 365.60804333214844 542.231392316409 L 364.7524424602197 547.4854615393047 L 363.8755799971887 552.6121335064731 L 362.97798413221517 557.6083201024202 L 362.06019554348484 562.4710118111599 L 361.12276707252533 567.1972795290344 L 360.1662633911948 571.7842763290973 L 359.19126066154485 576.2292391759948 L 358.1983461887622 580.5294905903161 L 357.18811806739774 584.6824402614059 L 356.1611848210969 588.685586607671 L 355.1181650360479 592.5365182834396 L 354.05968698836807 596.2329156314661 L 352.9863882656543 599.7725520802051 L 351.898915382924 603.1532954850154 L 350.7979233931784 606.3731094124842 L 349.68407549282347 609.4300543670979 L 348.55804262218487 612.3222889595227 L 347.42050306135883 615.0480710157876 L 346.27214202164146 617.6057586267054 L 345.11365123278307 619.9938111368976 L 343.9457285263161 622.210790072827 L 342.7690774152075 624.2553600092806 L 341.58440667008875 626.1262893737803 L 340.3924298923191 627.8224511884353 L 339.1938650841385 629.3428237487922 L 337.98943421617025 630.6864912392709 L 336.7798627925326 631.8526442848182 L 335.56587941382236 632.8405804384447 L 334.3482153382331 633.6497046043526 L 333.12760404107263 634.2795293963998 L 331.90478077294466 634.7296754316819 L 330.68048211686164 634.9998715590596 L 329.45544554455455 635.0899550224887 L 328.23040897224746 634.9998715590596 L 327.0061103161645 634.7296754316819 L 325.78328704803647 634.2795293963998 L 324.562675750876 633.6497046043527 L 323.34501167528674 632.8405804384447 L 322.1310282965765 631.8526442848182 L 320.92145687293885 630.6864912392709 L 319.7170260049706 629.3428237487922 L 318.51846119679 627.8224511884354 L 317.32648441902035 626.1262893737803 L 316.1418136739016 624.2553600092806 L 314.965162562793 622.210790072827 L 313.7972398563261 619.9938111368976 L 312.63874906746764 617.6057586267056 L 311.49038802775027 615.0480710157876 L 310.35284846692423 612.3222889595227 L 309.2268155962857 609.4300543670979 L 308.11296769593076 606.3731094124842 L 307.0119757061851 603.1532954850154 L 305.9245028234548 599.7725520802051 L 304.8512041007411 596.2329156314661 L 303.79272605306124 592.5365182834396 L 302.7497062680122 588.685586607671 L 301.72277302171136 584.6824402614059 L 300.7125449003469 580.5294905903162 L 299.71963042756425 576.229239175995 L 298.7446276979143 571.7842763290973 L 297.7881240165838 567.1972795290344 L 296.85069554562426 562.4710118111599 L 295.932906956894 557.6083201024202 L 295.03531109192045 552.6121335064731 L 294.1584486288894 547.4854615393047 L 293.30284775696066 542.231392316409 L 292.4690238581065 536.8530906926239 L 291.65747919666484 531.3537963557399 L 290.86870261679417 525.7368218750335 L 290.1031692480119 520.0055507058996 L 289.3613402189943 514.1634351517846 L 288.64366237980965 508.2139942846478 L 287.9505680327526 502.16081182520327 L 287.28247467194126 496.00753398422165 L 286.63978473183465 489.75786726618844 L 286.022885344821 483.4155762366445 L 285.4321481080236 476.9844812545525 L 284.8679288594649 470.46845617105555 L 284.3305674637226 463.87142599601395 L 283.8203876072083 457.19736453372644 L 283.3376966031908 450.4502919892586 L 282.88278520668183 443.63427254682165 L 282.4559274392965 436.7534119216609 L 282.05738042419256 429.8118548869247 L 281.6873842311893 422.8137827770093 L 281.3461617321584 415.7634109688789 L 281.0339184667741 408.6649863428803 L 280.7508425187039 401.522784724581 L 280.49710440231405 394.34110830917183 L 280.27285695995806 387.1242830699852 L 280.07823526990995 379.87665615269077 L 279.9133565649985 372.60259325673695 L 279.7783201619902 365.3064760056181 L 279.6732074017651 357.9926993075466 L 279.59808160031946 350.66566870812574 L 279.55298801062685 343.32979773661316 L 279.5379537953796 335.9895052473763 L 279.55298801062685 328.64921275813947 L 279.59808160031946 321.3133417866269 L 279.6732074017651 313.986311187206 L 279.7783201619902 306.67253448913453 L 279.9133565649985 299.3764172380157 L 280.07823526990995 292.10235434206186 L 280.27285695995806 284.8547274247674 L 280.49710440231405 277.63790218558074 L 280.7508425187039 270.4562257701716 L 281.0339184667741 263.31402415187233 L 281.3461617321584 256.21559952587376 L 281.6873842311893 249.16522771774333 L 282.05738042419256 242.16715560782788 L 282.4559274392965 235.2255985730917 L 282.88278520668183 228.34473794793095 L 283.3376966031908 221.52871850549403 L 283.8203876072083 214.7816459610262 L 284.33056746372256 208.10758449873867 L 284.8679288594649 201.5105543236971 L 285.4321481080236 194.99452924020008 L 286.022885344821 188.5634342581081 L 286.63978473183465 182.22114322856413 L 287.28247467194126 175.97147651053095 L 287.9505680327526 169.81819866954933 L 288.6436623798096 163.76501621010485 L 289.36134021899426 157.81557534296797 L 290.1031692480119 151.97345978885292 L 290.86870261679417 146.24218861971917 L 291.65747919666484 140.62521413901277 L 292.4690238581065 135.1259198021287 L 293.30284775696066 129.74761817834357 L 294.1584486288894 124.49354895544795 L 295.0353110919204 119.36687698827944 L 295.93290695689393 114.37069039233236 L 296.85069554562426 109.50799868359277 L 297.78812401658377 104.78173096571822 L 298.7446276979143 100.19473416565535 L 299.71963042756425 95.74977131875758 L 300.7125449003469 91.44951990443633 L 301.72277302171136 87.29657023334664 L 302.7497062680121 83.29342388708162 L 303.7927260530612 79.44249221131292 L 304.85120410074103 75.74609486328649 L 305.9245028234548 72.20645841454751 L 307.0119757061851 68.82571500973722 L 308.1129676959307 65.60590108226853 L 309.22681559628563 62.54895612765466 L 310.35284846692423 59.656721535229906 L 311.49038802775027 56.93093947896489 L 312.63874906746764 54.373251868046964 L 313.79723985632603 51.98519935785487 L 314.965162562793 49.76822042192555 L 316.1418136739016 47.723650485471865 L 317.32648441902035 45.852721120972205 L 318.51846119679 44.156559306317206 L 319.7170260049706 42.636186745960345 L 320.92145687293885 41.292519255481636 L 322.13102829657646 40.12636620993436 L 323.34501167528674 39.13843005630787 L 324.562675750876 38.32930589039984 L 325.78328704803647 37.69948109835275 L 327.00611031616444 37.24933506307059 L 328.23040897224746 36.979138935693015 L 329.45544554455455 36.88905547226386" stroke-opacity="0.6980392156862745" stroke-linecap="round" stroke-linejoin="round" stroke-miterlimit="10" stroke-width="1.5"/><path fill="none" stroke="rgb(0,0,0)" paint-order="fill stroke markers" d=" M 163.89785493687987 86.7391304347826 L 495.01303615222923 86.7391304347826" stroke-opacity="0.6980392156862745" stroke-linecap="round" stroke-linejoin="round" stroke-miterlimit="10" stroke-width="1.5"/><path fill="none" stroke="rgb(0,0,0)" paint-order="fill stroke markers" d=" M 70.0765498566409 186.43928035982006 L 588.8343412324682 186.43928035982006" stroke-opacity="0.6980392156862745" stroke-linecap="round" stroke-linejoin="round" stroke-miterlimit="10" stroke-width="1.5"/><path fill="none" stroke="rgb(0,0,0)" paint-order="fill stroke markers" d=" M 34.13958178421882 286.13943028485755 L 624.7713093048903 286.13943028485755" stroke-opacity="0.6980392156862745" stroke-linecap="round" stroke-linejoin="round" stroke-miterlimit="10" stroke-width="1.5"/><path fill="none" stroke="rgb(0,0,0)" paint-order="fill stroke markers" d=" M 34.13958178421882 385.83958020989496 L 624.7713093048903 385.83958020989496" stroke-opacity="0.6980392156862745" stroke-linecap="round" stroke-linejoin="round" stroke-miterlimit="10" stroke-width="1.5"/><path fill="none" stroke="rgb(0,0,0)" paint-order="fill stroke markers" d=" M 70.0765498566409 485.5397301349325 L 588.8343412324682 485.5397301349325" stroke-opacity="0.6980392156862745" stroke-linecap="round" stroke-linejoin="round" stroke-miterlimit="10" stroke-width="1.5"/><path fill="none" stroke="rgb(0,0,0)" paint-order="fill stroke markers" d=" M 163.89785493687987 585.2398800599699 L 495.01303615222923 585.2398800599699" stroke-opacity="0.6980392156862745" stroke-linecap="round" stroke-linejoin="round" stroke-miterlimit="10" stroke-width="1.5"/><path fill="none" stroke="rgb(0,0,0)" paint-order="fill stroke markers" d=" M 811.5 118.5 L 1011.5 118.5" stroke-opacity="0.39215686274509803" stroke-linecap="round" stroke-linejoin="round" stroke-miterlimit="10" stroke-width="5"/><path fill="rgb(0,0,0)" stroke="none" paint-order="stroke fill markers" d=" M 1019.9999999999999 118.5 C 1019.9999999999999 123.19442037356174 1016.1944203735617 127 1011.4999999999999 127 C 1006.8055796264381 127 1002.9999999999999 123.19442037356174 1002.9999999999999 118.5 C 1002.9999999999999 113.80557962643826 1006.8055796264381 110 1011.4999999999999 110 C 1016.1944203735617 110 1019.9999999999999 113.80557962643826 1019.9999999999999 118.5 Z" fill-opacity="0.39215686274509803"/><path fill="none" stroke="rgb(0,0,0)" paint-order="fill stroke markers" d=" M 1019.9999999999999 118.5 C 1019.9999999999999 123.19442037356174 1016.1944203735617 127 1011.4999999999999 127 C 1006.8055796264381 127 1002.9999999999999 123.19442037356174 1002.9999999999999 118.5 C 1002.9999999999999 113.80557962643826 1006.8055796264381 110 1011.4999999999999 110 C 1016.1944203735617 110 1019.9999999999999 113.80557962643826 1019.9999999999999 118.5 Z" stroke-opacity="0.39215686274509803" stroke-linecap="round" stroke-linejoin="round" stroke-miterlimit="10"/><path fill="rgb(0,0,0)" stroke="none" paint-order="stroke fill markers" d=" M 1016.9999999999999 118.5 C 1016.9999999999999 121.53756612406936 1014.5375661240693 124 1011.4999999999999 124 C 1008.4624338759305 124 1005.9999999999999 121.53756612406936 1005.9999999999999 118.5 C 1005.9999999999999 115.46243387593064 1008.4624338759305 113 1011.4999999999999 113 C 1014.5375661240693 113 1016.9999999999999 115.46243387593064 1016.9999999999999 118.5 Z" fill-opacity="1"/><path fill="none" stroke="rgb(0,0,0)" paint-order="fill stroke markers" d=" M 1016.9999999999999 118.5 C 1016.9999999999999 121.53756612406936 1014.5375661240693 124 1011.4999999999999 124 C 1008.4624338759305 124 1005.9999999999999 121.53756612406936 1005.9999999999999 118.5 C 1005.9999999999999 115.46243387593064 1008.4624338759305 113 1011.4999999999999 113 C 1014.5375661240693 113 1016.9999999999999 115.46243387593064 1016.9999999999999 118.5 Z" stroke-opacity="1" stroke-linecap="round" stroke-linejoin="round" stroke-miterlimit="10"/><text fill="none" stroke="rgb(255,255,255)" font-family="geogebra-sans-serif, sans-serif" font-size="12px" font-style="normal" font-weight="normal" text-decoration="normal" x="1000" y="103" text-anchor="start" dominant-baseline="alphabetic" stroke-opacity="1" stroke-linecap="round" stroke-linejoin="bevel" stroke-miterlimit="10" stroke-width="3">Pixels = 300</text><text fill="rgb(0,0,0)" stroke="none" font-family="geogebra-sans-serif, sans-serif" font-size="12px" font-style="normal" font-weight="normal" text-decoration="normal" x="1000" y="103" text-anchor="start" dominant-baseline="alphabetic" fill-opacity="1">Pixels = 300</text><path fill="none" stroke="rgb(0,0,0)" paint-order="fill stroke markers" d=" M 839.5 327.5 L 1039.5 327.5" stroke-opacity="0.39215686274509803" stroke-linecap="round" stroke-linejoin="round" stroke-miterlimit="10" stroke-width="5"/><path fill="rgb(0,0,0)" stroke="none" paint-order="stroke fill markers" d=" M 928 327.5 C 928 332.19442037356174 924.1944203735618 336 919.5 336 C 914.8055796264382 336 911 332.19442037356174 911 327.5 C 911 322.80557962643826 914.8055796264382 319 919.5 319 C 924.1944203735618 319 928 322.80557962643826 928 327.5 Z" fill-opacity="0.39215686274509803"/><path fill="none" stroke="rgb(0,0,0)" paint-order="fill stroke markers" d=" M 928 327.5 C 928 332.19442037356174 924.1944203735618 336 919.5 336 C 914.8055796264382 336 911 332.19442037356174 911 327.5 C 911 322.80557962643826 914.8055796264382 319 919.5 319 C 924.1944203735618 319 928 322.80557962643826 928 327.5 Z" stroke-opacity="0.39215686274509803" stroke-linecap="round" stroke-linejoin="round" stroke-miterlimit="10"/><path fill="rgb(0,0,0)" stroke="none" paint-order="stroke fill markers" d=" M 925 327.5 C 925 330.5375661240694 922.5375661240694 333 919.5 333 C 916.4624338759306 333 914 330.5375661240694 914 327.5 C 914 324.4624338759306 916.4624338759306 322 919.5 322 C 922.5375661240694 322 925 324.4624338759306 925 327.5 Z" fill-opacity="1"/><path fill="none" stroke="rgb(0,0,0)" paint-order="fill stroke markers" d=" M 925 327.5 C 925 330.5375661240694 922.5375661240694 333 919.5 333 C 916.4624338759306 333 914 330.5375661240694 914 327.5 C 914 324.4624338759306 916.4624338759306 322 919.5 322 C 922.5375661240694 322 925 324.4624338759306 925 327.5 Z" stroke-opacity="1" stroke-linecap="round" stroke-linejoin="round" stroke-miterlimit="10"/><text fill="none" stroke="rgb(255,255,255)" font-family="geogebra-sans-serif, sans-serif" font-size="12px" font-style="normal" font-weight="normal" text-decoration="normal" x="908" y="312" text-anchor="start" dominant-baseline="alphabetic" stroke-opacity="1" stroke-linecap="round" stroke-linejoin="bevel" stroke-miterlimit="10" stroke-width="3">ArrowScale = 0.04</text><text fill="rgb(0,0,0)" stroke="none" font-family="geogebra-sans-serif, sans-serif" font-size="12px" font-style="normal" font-weight="normal" text-decoration="normal" x="908" y="312" text-anchor="start" dominant-baseline="alphabetic" fill-opacity="1">ArrowScale = 0.04</text><g transform="scale(51,51) translate(6.066994019607843,8.788085117647059) rotate(-90,0,0) translate(-6.066994019607843,-8.788085117647059)"><g transform="translate(6.4003280196078425,8.788085117647059)"><path fill="rgb(0,0,0)" stroke="none" paint-order="stroke fill markers" d=" M 0.183 -0.6940000000000001 L 0.183 -0.064 L 0.232 -0.064 Q 0.321 -0.064 0.499 -0.066 L 0.499 0 L 0.094 0 L 0.094 -0.6940000000000001 L 0.183 -0.6940000000000001 Z"/></g><g transform="translate(6.941997019607842,8.788085117647059)"><path fill="rgb(0,0,0)" stroke="none" paint-order="stroke fill markers" d=" M 0.163 -0.68 L 0.163 -0.591 L 0.074 -0.591 L 0.074 -0.68 L 0.163 -0.68 M 0.156 -0.444 L 0.156 0 L 0.081 0 L 0.081 -0.444 L 0.156 -0.444 Z"/></g><g transform="translate(7.180887019607842,8.788085117647059)"><path fill="rgb(0,0,0)" stroke="none" paint-order="stroke fill markers" d=" M 0.352 -0.391 L 0.34800000000000003 -0.392 Q 0.381 -0.34700000000000003 0.381 -0.292 Q 0.381 -0.225 0.3345 -0.177 Q 0.28800000000000003 -0.129 0.221 -0.129 Q 0.171 -0.129 0.13 -0.158 Q 0.11900000000000001 -0.14400000000000002 0.11900000000000001 -0.122 Q 0.11900000000000001 -0.069 0.177 -0.069 L 0.265 -0.069 Q 0.28200000000000003 -0.069 0.2945 -0.068 Q 0.307 -0.067 0.335 -0.064 Q 0.363 -0.061 0.3835 -0.051500000000000004 Q 0.404 -0.042 0.4255 -0.028 Q 0.447 -0.014 0.459 0.0115 Q 0.47100000000000003 0.037 0.47100000000000003 0.07 Q 0.47100000000000003 0.127 0.40650000000000003 0.1665 Q 0.342 0.20600000000000002 0.249 0.20600000000000002 Q 0.157 0.20600000000000002 0.0925 0.1665 Q 0.028 0.127 0.028 0.07100000000000001 Q 0.028 0.006 0.092 -0.032 Q 0.066 -0.064 0.066 -0.108 Q 0.066 -0.152 0.095 -0.193 Q 0.062 -0.23600000000000002 0.062 -0.292 Q 0.062 -0.36 0.109 -0.40750000000000003 Q 0.156 -0.455 0.221 -0.455 Q 0.276 -0.455 0.316 -0.423 Q 0.39 -0.455 0.47400000000000003 -0.455 L 0.485 -0.392 L 0.47400000000000003 -0.393 Q 0.462 -0.394 0.448 -0.3945 Q 0.434 -0.395 0.426 -0.395 Q 0.41400000000000003 -0.395 0.3885 -0.393 Q 0.363 -0.391 0.352 -0.391 M 0.221 -0.186 Q 0.258 -0.186 0.28450000000000003 -0.212 Q 0.311 -0.23800000000000002 0.311 -0.292 Q 0.311 -0.34600000000000003 0.28450000000000003 -0.372 Q 0.258 -0.398 0.221 -0.398 Q 0.187 -0.398 0.1595 -0.373 Q 0.132 -0.34800000000000003 0.132 -0.292 Q 0.132 -0.23600000000000002 0.1595 -0.211 Q 0.187 -0.186 0.221 -0.186 M 0.266 0.003 L 0.176 0.003 Q 0.154 0.003 0.138 0.01 Q 0.122 0.017 0.1145 0.025500000000000002 Q 0.107 0.034 0.10300000000000001 0.046 Q 0.099 0.058 0.0985 0.0625 Q 0.098 0.067 0.098 0.07100000000000001 Q 0.098 0.105 0.14250000000000002 0.127 Q 0.187 0.149 0.25 0.149 Q 0.312 0.149 0.3565 0.127 Q 0.401 0.105 0.401 0.07200000000000001 Q 0.401 0.003 0.266 0.003 Z"/></g><g transform="translate(7.680889019607842,8.788085117647059)"><path fill="rgb(0,0,0)" stroke="none" paint-order="stroke fill markers" d=" M 0.435 -0.298 L 0.435 0 L 0.357 0 L 0.357 -0.291 Q 0.357 -0.305 0.3565 -0.3145 Q 0.356 -0.324 0.35050000000000003 -0.3405 Q 0.34500000000000003 -0.357 0.3355 -0.3675 Q 0.326 -0.378 0.3065 -0.386 Q 0.28700000000000003 -0.394 0.26 -0.394 Q 0.20800000000000002 -0.394 0.1835 -0.34900000000000003 Q 0.159 -0.304 0.159 -0.245 L 0.159 0 L 0.081 0 L 0.081 -0.6940000000000001 L 0.156 -0.6940000000000001 L 0.156 -0.383 Q 0.212 -0.455 0.298 -0.455 Q 0.435 -0.455 0.435 -0.298 Z"/></g><g transform="translate(8.197557019607842,8.788085117647059)"><path fill="rgb(0,0,0)" stroke="none" paint-order="stroke fill markers" d=" M 0.17500000000000002 -0.386 L 0.17500000000000002 -0.136 Q 0.17500000000000002 -0.053 0.226 -0.053 Q 0.275 -0.053 0.316 -0.08600000000000001 L 0.332 -0.027 Q 0.259 0.011 0.186 0.011 Q 0.10300000000000001 0.011 0.10300000000000001 -0.11900000000000001 L 0.10300000000000001 -0.386 L 0.019 -0.386 L 0.019 -0.444 L 0.106 -0.444 L 0.106 -0.5710000000000001 L 0.17500000000000002 -0.5710000000000001 L 0.17500000000000002 -0.444 L 0.316 -0.444 L 0.316 -0.386 L 0.17500000000000002 -0.386 Z"/></g><g transform="translate(8.558669019607843,8.788085117647059)"><path fill="rgb(0,0,0)" stroke="none" paint-order="stroke fill markers" d=" M 0.435 -0.298 L 0.435 0 L 0.357 0 L 0.357 -0.291 Q 0.357 -0.305 0.3565 -0.3145 Q 0.356 -0.324 0.35050000000000003 -0.3405 Q 0.34500000000000003 -0.357 0.3355 -0.3675 Q 0.326 -0.378 0.3065 -0.386 Q 0.28700000000000003 -0.394 0.26 -0.394 Q 0.20800000000000002 -0.394 0.1835 -0.34900000000000003 Q 0.159 -0.304 0.159 -0.245 L 0.159 0 L 0.081 0 L 0.081 -0.45 L 0.153 -0.45 L 0.153 -0.379 Q 0.21 -0.455 0.298 -0.455 Q 0.435 -0.455 0.435 -0.298 Z"/></g><g transform="translate(9.075337019607842,8.788085117647059)"><path fill="rgb(0,0,0)" stroke="none" paint-order="stroke fill markers" d=" M 0.41400000000000003 -0.219 L 0.105 -0.219 Q 0.107 -0.146 0.1495 -0.098 Q 0.192 -0.05 0.252 -0.05 Q 0.336 -0.05 0.404 -0.106 L 0.41000000000000003 -0.041 Q 0.338 0.011 0.251 0.011 Q 0.161 0.011 0.098 -0.058 Q 0.035 -0.127 0.035 -0.226 Q 0.035 -0.323 0.094 -0.392 Q 0.153 -0.461 0.23600000000000002 -0.461 Q 0.326 -0.461 0.374 -0.388 Q 0.41400000000000003 -0.326 0.41400000000000003 -0.219 M 0.11 -0.274 L 0.357 -0.274 Q 0.34800000000000003 -0.338 0.314 -0.369 Q 0.28 -0.4 0.23600000000000002 -0.4 Q 0.193 -0.4 0.1575 -0.365 Q 0.122 -0.33 0.11 -0.274 Z"/></g><g transform="translate(9.519783019607841,8.788085117647059)"><path fill="rgb(0,0,0)" stroke="none" paint-order="stroke fill markers" d=" M 0.343 -0.429 L 0.331 -0.364 Q 0.267 -0.402 0.189 -0.402 Q 0.10400000000000001 -0.402 0.10400000000000001 -0.34 Q 0.10400000000000001 -0.326 0.11 -0.315 Q 0.116 -0.304 0.1235 -0.2975 Q 0.131 -0.291 0.1465 -0.28550000000000003 Q 0.162 -0.28 0.17300000000000001 -0.277 Q 0.184 -0.274 0.20500000000000002 -0.27 Q 0.248 -0.262 0.271 -0.253 Q 0.294 -0.244 0.321 -0.22 L 0.326 -0.214 Q 0.331 -0.209 0.336 -0.2015 Q 0.341 -0.194 0.34700000000000003 -0.1835 Q 0.353 -0.17300000000000001 0.3565 -0.158 Q 0.36 -0.14300000000000002 0.36 -0.128 Q 0.36 -0.058 0.312 -0.021 Q 0.269 0.011 0.196 0.011 Q 0.116 0.011 0.028 -0.033 L 0.04 -0.101 Q 0.114 -0.052000000000000005 0.195 -0.052000000000000005 Q 0.289 -0.052000000000000005 0.289 -0.121 Q 0.289 -0.136 0.28200000000000003 -0.148 Q 0.275 -0.16 0.2665 -0.167 Q 0.258 -0.17400000000000002 0.243 -0.18 Q 0.228 -0.186 0.219 -0.188 Q 0.21 -0.19 0.195 -0.193 Q 0.161 -0.2 0.148 -0.203 Q 0.135 -0.20600000000000002 0.11850000000000001 -0.2125 Q 0.10200000000000001 -0.219 0.08700000000000001 -0.23 Q 0.033 -0.271 0.033 -0.33 Q 0.033 -0.367 0.0485 -0.3935 Q 0.064 -0.42 0.0835 -0.4325 Q 0.10300000000000001 -0.445 0.1305 -0.452 Q 0.158 -0.459 0.171 -0.46 Q 0.184 -0.461 0.199 -0.461 Q 0.274 -0.461 0.343 -0.429 Z"/></g><g transform="translate(9.90311701960784,8.788085117647059)"><path fill="rgb(0,0,0)" stroke="none" paint-order="stroke fill markers" d=" M 0.343 -0.429 L 0.331 -0.364 Q 0.267 -0.402 0.189 -0.402 Q 0.10400000000000001 -0.402 0.10400000000000001 -0.34 Q 0.10400000000000001 -0.326 0.11 -0.315 Q 0.116 -0.304 0.1235 -0.2975 Q 0.131 -0.291 0.1465 -0.28550000000000003 Q 0.162 -0.28 0.17300000000000001 -0.277 Q 0.184 -0.274 0.20500000000000002 -0.27 Q 0.248 -0.262 0.271 -0.253 Q 0.294 -0.244 0.321 -0.22 L 0.326 -0.214 Q 0.331 -0.209 0.336 -0.2015 Q 0.341 -0.194 0.34700000000000003 -0.1835 Q 0.353 -0.17300000000000001 0.3565 -0.158 Q 0.36 -0.14300000000000002 0.36 -0.128 Q 0.36 -0.058 0.312 -0.021 Q 0.269 0.011 0.196 0.011 Q 0.116 0.011 0.028 -0.033 L 0.04 -0.101 Q 0.114 -0.052000000000000005 0.195 -0.052000000000000005 Q 0.289 -0.052000000000000005 0.289 -0.121 Q 0.289 -0.136 0.28200000000000003 -0.148 Q 0.275 -0.16 0.2665 -0.167 Q 0.258 -0.17400000000000002 0.243 -0.18 Q 0.228 -0.186 0.219 -0.188 Q 0.21 -0.19 0.195 -0.193 Q 0.161 -0.2 0.148 -0.203 Q 0.135 -0.20600000000000002 0.11850000000000001 -0.2125 Q 0.10200000000000001 -0.219 0.08700000000000001 -0.23 Q 0.033 -0.271 0.033 -0.33 Q 0.033 -0.367 0.0485 -0.3935 Q 0.064 -0.42 0.0835 -0.4325 Q 0.10300000000000001 -0.445 0.1305 -0.452 Q 0.158 -0.459 0.171 -0.46 Q 0.184 -0.461 0.199 -0.461 Q 0.274 -0.461 0.343 -0.429 Z"/></g><g transform="translate(6.066994019607843,8.788085117647059) rotate(90,0,0) translate(-6.066994019607843,-8.788085117647059)"/></g><g transform="scale(51,51) translate(6.509803921568627,7.459150882352941) rotate(0,0,0) translate(-6.509803921568627,-7.459150882352941)"><g transform="translate(6.843137921568627,7.459150882352941)"><path fill="rgb(0,0,0)" stroke="none" paint-order="stroke fill markers" d=" M 0.577 -0.681 L 0.562 -0.6 Q 0.481 -0.652 0.393 -0.652 Q 0.291 -0.652 0.2235 -0.562 Q 0.156 -0.47200000000000003 0.156 -0.34700000000000003 Q 0.156 -0.225 0.222 -0.1335 Q 0.28800000000000003 -0.042 0.396 -0.042 Q 0.451 -0.042 0.4905 -0.054 Q 0.53 -0.066 0.582 -0.10300000000000001 L 0.588 -0.034 Q 0.534 -0.001 0.495 0.0105 Q 0.456 0.022 0.395 0.022 Q 0.253 0.022 0.16 -0.088 Q 0.067 -0.198 0.067 -0.34700000000000003 Q 0.067 -0.498 0.16 -0.607 Q 0.253 -0.716 0.394 -0.716 Q 0.485 -0.716 0.577 -0.681 Z"/></g><g transform="translate(7.482028921568627,7.459150882352941)"><path fill="rgb(0,0,0)" stroke="none" paint-order="stroke fill markers" d=" M 0.46900000000000003 -0.22 Q 0.46900000000000003 -0.123 0.4045 -0.056 Q 0.34 0.011 0.249 0.011 Q 0.16 0.011 0.095 -0.0555 Q 0.03 -0.122 0.03 -0.22 Q 0.03 -0.319 0.094 -0.39 Q 0.158 -0.461 0.25 -0.461 Q 0.34 -0.461 0.4045 -0.3905 Q 0.46900000000000003 -0.32 0.46900000000000003 -0.22 M 0.249 -0.053 Q 0.308 -0.053 0.34950000000000003 -0.0995 Q 0.391 -0.146 0.391 -0.23 Q 0.391 -0.313 0.34900000000000003 -0.3565 Q 0.307 -0.4 0.249 -0.4 Q 0.193 -0.4 0.1505 -0.357 Q 0.108 -0.314 0.108 -0.23 Q 0.108 -0.145 0.15 -0.099 Q 0.192 -0.053 0.249 -0.053 Z"/></g><g transform="translate(7.982030921568628,7.459150882352941)"><path fill="rgb(0,0,0)" stroke="none" paint-order="stroke fill markers" d=" M 0.156 -0.6940000000000001 L 0.156 0 L 0.081 0 L 0.081 -0.6940000000000001 L 0.156 -0.6940000000000001 Z"/></g><g transform="translate(8.220920921568627,7.459150882352941)"><path fill="rgb(0,0,0)" stroke="none" paint-order="stroke fill markers" d=" M 0.46900000000000003 -0.22 Q 0.46900000000000003 -0.123 0.4045 -0.056 Q 0.34 0.011 0.249 0.011 Q 0.16 0.011 0.095 -0.0555 Q 0.03 -0.122 0.03 -0.22 Q 0.03 -0.319 0.094 -0.39 Q 0.158 -0.461 0.25 -0.461 Q 0.34 -0.461 0.4045 -0.3905 Q 0.46900000000000003 -0.32 0.46900000000000003 -0.22 M 0.249 -0.053 Q 0.308 -0.053 0.34950000000000003 -0.0995 Q 0.391 -0.146 0.391 -0.23 Q 0.391 -0.313 0.34900000000000003 -0.3565 Q 0.307 -0.4 0.249 -0.4 Q 0.193 -0.4 0.1505 -0.357 Q 0.108 -0.314 0.108 -0.23 Q 0.108 -0.145 0.15 -0.099 Q 0.192 -0.053 0.249 -0.053 Z"/></g><g transform="translate(8.693143921568627,7.459150882352941)"><path fill="rgb(0,0,0)" stroke="none" paint-order="stroke fill markers" d=" M 0.157 -0.214 L 0.157 0 L 0.082 0 L 0.082 -0.45 L 0.152 -0.45 L 0.152 -0.359 Q 0.216 -0.454 0.327 -0.455 L 0.327 -0.388 Q 0.253 -0.386 0.20500000000000002 -0.3375 Q 0.157 -0.289 0.157 -0.214 Z"/></g><g transform="translate(9.034812921568626,7.459150882352941)"><path fill="rgb(0,0,0)" stroke="none" paint-order="stroke fill markers" d=" M 0.176 -0.386 L 0.176 0 L 0.101 0 L 0.101 -0.386 L 0.027 -0.386 L 0.027 -0.444 L 0.101 -0.444 L 0.101 -0.534 Q 0.101 -0.608 0.1485 -0.6565 Q 0.196 -0.705 0.267 -0.705 Q 0.303 -0.705 0.34700000000000003 -0.6940000000000001 L 0.34700000000000003 -0.627 Q 0.308 -0.644 0.266 -0.644 Q 0.253 -0.644 0.24 -0.6415 Q 0.227 -0.639 0.2105 -0.6315000000000001 Q 0.194 -0.624 0.1835 -0.6065 Q 0.17300000000000001 -0.589 0.17300000000000001 -0.5630000000000001 L 0.17300000000000001 -0.444 L 0.28600000000000003 -0.444 L 0.28600000000000003 -0.386 L 0.176 -0.386 Z"/></g><g transform="translate(9.340369921568627,7.459150882352941)"><path fill="rgb(0,0,0)" stroke="none" paint-order="stroke fill markers" d=" M 0.435 -0.444 L 0.435 0 L 0.36 0 L 0.36 -0.048 Q 0.293 0.011 0.187 0.011 Q 0.128 0.011 0.1045 -0.0195 Q 0.081 -0.05 0.081 -0.109 L 0.081 -0.444 L 0.159 -0.444 L 0.159 -0.113 Q 0.159 -0.076 0.17350000000000002 -0.06 Q 0.188 -0.044 0.23700000000000002 -0.044 Q 0.28800000000000003 -0.044 0.3225 -0.0725 Q 0.357 -0.101 0.357 -0.154 L 0.357 -0.444 L 0.435 -0.444 Z"/></g><g transform="translate(9.857037921568626,7.459150882352941)"><path fill="rgb(0,0,0)" stroke="none" paint-order="stroke fill markers" d=" M 0.156 -0.6940000000000001 L 0.156 0 L 0.081 0 L 0.081 -0.6940000000000001 L 0.156 -0.6940000000000001 Z"/></g><g transform="translate(10.095927921568626,7.459150882352941)"><path fill="rgb(0,0,0)" stroke="none" paint-order="stroke fill markers" d=" M 0.435 -0.298 L 0.435 0 L 0.357 0 L 0.357 -0.291 Q 0.357 -0.305 0.3565 -0.3145 Q 0.356 -0.324 0.35050000000000003 -0.3405 Q 0.34500000000000003 -0.357 0.3355 -0.3675 Q 0.326 -0.378 0.3065 -0.386 Q 0.28700000000000003 -0.394 0.26 -0.394 Q 0.20800000000000002 -0.394 0.1835 -0.34900000000000003 Q 0.159 -0.304 0.159 -0.245 L 0.159 0 L 0.081 0 L 0.081 -0.45 L 0.153 -0.45 L 0.153 -0.379 Q 0.21 -0.455 0.298 -0.455 Q 0.435 -0.455 0.435 -0.298 Z"/></g><g transform="translate(10.612595921568625,7.459150882352941)"><path fill="rgb(0,0,0)" stroke="none" paint-order="stroke fill markers" d=" M 0.41400000000000003 -0.219 L 0.105 -0.219 Q 0.107 -0.146 0.1495 -0.098 Q 0.192 -0.05 0.252 -0.05 Q 0.336 -0.05 0.404 -0.106 L 0.41000000000000003 -0.041 Q 0.338 0.011 0.251 0.011 Q 0.161 0.011 0.098 -0.058 Q 0.035 -0.127 0.035 -0.226 Q 0.035 -0.323 0.094 -0.392 Q 0.153 -0.461 0.23600000000000002 -0.461 Q 0.326 -0.461 0.374 -0.388 Q 0.41400000000000003 -0.326 0.41400000000000003 -0.219 M 0.11 -0.274 L 0.357 -0.274 Q 0.34800000000000003 -0.338 0.314 -0.369 Q 0.28 -0.4 0.23600000000000002 -0.4 Q 0.193 -0.4 0.1575 -0.365 Q 0.122 -0.33 0.11 -0.274 Z"/></g><g transform="translate(11.057041921568624,7.459150882352941)"><path fill="rgb(0,0,0)" stroke="none" paint-order="stroke fill markers" d=" M 0.343 -0.429 L 0.331 -0.364 Q 0.267 -0.402 0.189 -0.402 Q 0.10400000000000001 -0.402 0.10400000000000001 -0.34 Q 0.10400000000000001 -0.326 0.11 -0.315 Q 0.116 -0.304 0.1235 -0.2975 Q 0.131 -0.291 0.1465 -0.28550000000000003 Q 0.162 -0.28 0.17300000000000001 -0.277 Q 0.184 -0.274 0.20500000000000002 -0.27 Q 0.248 -0.262 0.271 -0.253 Q 0.294 -0.244 0.321 -0.22 L 0.326 -0.214 Q 0.331 -0.209 0.336 -0.2015 Q 0.341 -0.194 0.34700000000000003 -0.1835 Q 0.353 -0.17300000000000001 0.3565 -0.158 Q 0.36 -0.14300000000000002 0.36 -0.128 Q 0.36 -0.058 0.312 -0.021 Q 0.269 0.011 0.196 0.011 Q 0.116 0.011 0.028 -0.033 L 0.04 -0.101 Q 0.114 -0.052000000000000005 0.195 -0.052000000000000005 Q 0.289 -0.052000000000000005 0.289 -0.121 Q 0.289 -0.136 0.28200000000000003 -0.148 Q 0.275 -0.16 0.2665 -0.167 Q 0.258 -0.17400000000000002 0.243 -0.18 Q 0.228 -0.186 0.219 -0.188 Q 0.21 -0.19 0.195 -0.193 Q 0.161 -0.2 0.148 -0.203 Q 0.135 -0.20600000000000002 0.11850000000000001 -0.2125 Q 0.10200000000000001 -0.219 0.08700000000000001 -0.23 Q 0.033 -0.271 0.033 -0.33 Q 0.033 -0.367 0.0485 -0.3935 Q 0.064 -0.42 0.0835 -0.4325 Q 0.10300000000000001 -0.445 0.1305 -0.452 Q 0.158 -0.459 0.171 -0.46 Q 0.184 -0.461 0.199 -0.461 Q 0.274 -0.461 0.343 -0.429 Z"/></g><g transform="translate(11.440375921568624,7.459150882352941)"><path fill="rgb(0,0,0)" stroke="none" paint-order="stroke fill markers" d=" M 0.343 -0.429 L 0.331 -0.364 Q 0.267 -0.402 0.189 -0.402 Q 0.10400000000000001 -0.402 0.10400000000000001 -0.34 Q 0.10400000000000001 -0.326 0.11 -0.315 Q 0.116 -0.304 0.1235 -0.2975 Q 0.131 -0.291 0.1465 -0.28550000000000003 Q 0.162 -0.28 0.17300000000000001 -0.277 Q 0.184 -0.274 0.20500000000000002 -0.27 Q 0.248 -0.262 0.271 -0.253 Q 0.294 -0.244 0.321 -0.22 L 0.326 -0.214 Q 0.331 -0.209 0.336 -0.2015 Q 0.341 -0.194 0.34700000000000003 -0.1835 Q 0.353 -0.17300000000000001 0.3565 -0.158 Q 0.36 -0.14300000000000002 0.36 -0.128 Q 0.36 -0.058 0.312 -0.021 Q 0.269 0.011 0.196 0.011 Q 0.116 0.011 0.028 -0.033 L 0.04 -0.101 Q 0.114 -0.052000000000000005 0.195 -0.052000000000000005 Q 0.289 -0.052000000000000005 0.289 -0.121 Q 0.289 -0.136 0.28200000000000003 -0.148 Q 0.275 -0.16 0.2665 -0.167 Q 0.258 -0.17400000000000002 0.243 -0.18 Q 0.228 -0.186 0.219 -0.188 Q 0.21 -0.19 0.195 -0.193 Q 0.161 -0.2 0.148 -0.203 Q 0.135 -0.20600000000000002 0.11850000000000001 -0.2125 Q 0.10200000000000001 -0.219 0.08700000000000001 -0.23 Q 0.033 -0.271 0.033 -0.33 Q 0.033 -0.367 0.0485 -0.3935 Q 0.064 -0.42 0.0835 -0.4325 Q 0.10300000000000001 -0.445 0.1305 -0.452 Q 0.158 -0.459 0.171 -0.46 Q 0.184 -0.461 0.199 -0.461 Q 0.274 -0.461 0.343 -0.429 Z"/></g><g transform="translate(6.509803921568627,7.459150882352941) rotate(0,0,0) translate(-6.509803921568627,-7.459150882352941)"/></g><path fill="rgb(255,255,255)" stroke="none" paint-order="stroke fill markers" fill-rule="evenodd" d=" M 818 207 L 949 207 C 950.6568542494924 207 953 209.34314575050763 953 211 L 953 237 C 953 238.65685424949237 950.6568542494924 241 949 241 L 818 241 C 816.3431457505076 241 814 238.65685424949237 814 237 L 814 211 C 814 209.34314575050763 816.3431457505076 207 818 207 Z" fill-opacity="1"/><path fill="none" stroke="rgb(0,0,0)" paint-order="fill stroke markers" d=" M 817.5 207 L 949.5 207 C 950.9497474683059 207 953 209.05025253169416 953 210.5 L 953 237.5 C 953 238.94974746830584 950.9497474683059 241 949.5 241 L 817.5 241 C 816.0502525316941 241 814 238.94974746830584 814 237.5 L 814 210.5 C 814 209.05025253169416 816.0502525316941 207 817.5 207 Z" stroke-opacity="1" stroke-linecap="round" stroke-linejoin="round" stroke-miterlimit="10"/><text fill="rgb(0,0,0)" stroke="none" font-family="geogebra-sans-serif, sans-serif" font-size="24px" font-style="normal" font-weight="normal" text-decoration="normal" x="824" y="232" text-anchor="start" dominant-baseline="alphabetic" fill-opacity="1">Reset View</text></g></g></svg>