<svg version="1.1" xmlns="http://www.w3.org/2000/svg" xmlns:xlink="http://www.w3.org/1999/xlink" width="660" height="660"><defs><clipPath id="NWgSlMShgZkw"><path fill="none" stroke="none" d=" M 0 0 L 660 0 L 660 660 L 0 660 L 0 0 Z"/></clipPath></defs><g transform="scale(1,1)" clip-path="url(#NWgSlMShgZkw)"><g transform="translate(0,-10.967213114754088)"><rect fill="rgb(255,255,255)" stroke="none" x="0" y="0" width="1210" height="669" fill-opacity="1"/><path fill="rgb(0,0,0)" stroke="none" paint-order="stroke fill markers" fill-rule="evenodd" d=" M 329.45544554455455 334.0014903129657 L 329.45544554455455 345.96572280178833 L 581.0396039603962 345.96572280178833 L 581.0396039603962 357.929955290611 L 628.9603960396041 339.983606557377 L 581.0396039603962 322.037257824143 L 581.0396039603962 334.0014903129657 Z" fill-opacity="1"/><path fill="rgb(0,0,0)" stroke="none" paint-order="stroke fill markers" fill-rule="evenodd" d=" M 323.4653465346536 339.983606557377 L 335.4455445544555 339.983606557377 L 335.4455445544555 88.7347242921013 L 347.4257425742575 88.7347242921013 L 329.45544554455455 40.87779433681072 L 311.4851485148516 88.7347242921013 L 323.4653465346535 88.7347242921013 Z" fill-opacity="1"/><path fill="none" stroke="rgb(0,0,0)" paint-order="fill stroke markers" d=" M 628.9603960396041 339.983606557377 C 628.9603960396041 505.1751852325487 494.86746220179714 639.0894187779434 329.45544554455455 639.0894187779434 C 164.04342888731196 639.0894187779434 29.95049504950498 505.1751852325487 29.95049504950498 339.983606557377 C 29.95049504950498 174.7920278822053 164.04342888731196 40.87779433681072 329.45544554455455 40.87779433681072 C 494.86746220179714 40.87779433681072 628.9603960396041 174.7920278822053 628.9603960396041 339.983606557377 Z" stroke-opacity="0.6980392156862745" stroke-linecap="round" stroke-linejoin="round" stroke-miterlimit="10" stroke-width="1.5"/><path fill="none" stroke="rgb(0,0,0)" paint-order="fill stroke markers" d=" M 359.4059405940595 339.983606557377 C 359.4059405940595 356.50276442489417 345.9966472102788 369.89418777943365 329.45544554455455 369.89418777943365 C 312.9142438788303 369.89418777943365 299.50495049504957 356.50276442489417 299.50495049504957 339.983606557377 C 299.50495049504957 323.46444868985986 312.9142438788303 310.0730253353204 329.45544554455455 310.0730253353204 C 345.9966472102788 310.0730253353204 359.4059405940595 323.46444868985986 359.4059405940595 339.983606557377 Z" stroke-opacity="0.6980392156862745" stroke-linecap="round" stroke-linejoin="round" stroke-miterlimit="10" stroke-width="1.5"/><path fill="none" stroke="rgb(0,0,0)" paint-order="fill stroke markers" d=" M 389.3564356435645 339.983606557377 C 389.3564356435645 373.0219222924113 362.53784887600307 399.8047690014903 329.45544554455455 399.8047690014903 C 296.37304221310603 399.8047690014903 269.55445544554465 373.0219222924113 269.55445544554465 339.983606557377 C 269.55445544554465 306.94529082234266 296.37304221310603 280.16244411326375 329.45544554455455 280.16244411326375 C 362.53784887600307 280.16244411326375 389.3564356435645 306.94529082234266 389.3564356435645 339.983606557377 Z" stroke-opacity="0.6980392156862745" stroke-linecap="round" stroke-linejoin="round" stroke-miterlimit="10" stroke-width="1.5"/><path fill="none" stroke="rgb(0,0,0)" paint-order="fill stroke markers" d=" M 419.3069306930694 339.983606557377 C 419.3069306930694 389.54108015992847 379.07905054172727 429.7153502235469 329.45544554455455 429.7153502235469 C 279.8318405473818 429.7153502235469 239.60396039603967 389.54108015992847 239.60396039603967 339.983606557377 C 239.60396039603967 290.4261329548255 279.8318405473818 250.2518628912071 329.45544554455455 250.2518628912071 C 379.07905054172727 250.2518628912071 419.3069306930694 290.4261329548255 419.3069306930694 339.983606557377 Z" stroke-opacity="0.6980392156862745" stroke-linecap="round" stroke-linejoin="round" stroke-miterlimit="10" stroke-width="1.5"/><path fill="none" stroke="rgb(0,0,0)" paint-order="fill stroke markers" d=" M 449.25742574257436 339.983606557377 C 449.25742574257436 406.0602380274457 395.6202522074516 459.62593144560356 329.45544554455455 459.62593144560356 C 263.2906388816575 459.62593144560356 209.65346534653472 406.0602380274457 209.65346534653472 339.983606557377 C 209.65346534653472 273.9069750873083 263.2906388816575 220.34128166915048 329.45544554455455 220.34128166915048 C 395.6202522074516 220.34128166915048 449.25742574257436 273.9069750873083 449.25742574257436 339.983606557377 Z" stroke-opacity="0.6980392156862745" stroke-linecap="round" stroke-linejoin="round" stroke-miterlimit="10" stroke-width="1.5"/><path fill="none" stroke="rgb(0,0,0)" paint-order="fill stroke markers" d=" M 479.20792079207934 339.983606557377 C 479.20792079207934 422.5793958949629 412.16145387317584 489.5365126676602 329.45544554455455 489.5365126676602 C 246.74943721593326 489.5365126676602 179.70297029702976 422.5793958949629 179.70297029702976 339.983606557377 C 179.70297029702976 257.38781721979115 246.74943721593326 190.43070044709387 329.45544554455455 190.43070044709387 C 412.16145387317584 190.43070044709387 479.20792079207934 257.38781721979115 479.20792079207934 339.983606557377 Z" stroke-opacity="0.6980392156862745" stroke-linecap="round" stroke-linejoin="round" stroke-miterlimit="10" stroke-width="1.5"/><path fill="none" stroke="rgb(0,0,0)" paint-order="fill stroke markers" d=" M 509.1584158415843 339.983606557377 C 509.1584158415843 439.09855376248004 428.7026555389001 519.4470938897168 329.45544554455455 519.4470938897168 C 230.208235550209 519.4470938897168 149.7524752475248 439.09855376248004 149.7524752475248 339.983606557377 C 149.7524752475248 240.868659352274 230.208235550209 160.52011922503723 329.45544554455455 160.52011922503723 C 428.7026555389001 160.52011922503723 509.1584158415843 240.868659352274 509.1584158415843 339.983606557377 Z" stroke-opacity="0.6980392156862745" stroke-linecap="round" stroke-linejoin="round" stroke-miterlimit="10" stroke-width="1.5"/><path fill="none" stroke="rgb(0,0,0)" paint-order="fill stroke markers" d=" M 539.1089108910892 339.983606557377 C 539.1089108910892 455.6177116299972 445.24385720462436 549.3576751117735 329.45544554455455 549.3576751117735 C 213.66703388448474 549.3576751117735 119.80198019801986 455.6177116299972 119.80198019801986 339.983606557377 C 119.80198019801986 224.34950148475684 213.66703388448474 130.60953800298063 329.45544554455455 130.60953800298063 C 445.24385720462436 130.60953800298063 539.1089108910892 224.34950148475684 539.1089108910892 339.983606557377 Z" stroke-opacity="0.6980392156862745" stroke-linecap="round" stroke-linejoin="round" stroke-miterlimit="10" stroke-width="1.5"/><path fill="none" stroke="rgb(0,0,0)" paint-order="fill stroke markers" d=" M 569.0594059405942 339.983606557377 C 569.0594059405942 472.13686949751434 461.7850588703486 579.2682563338301 329.45544554455455 579.2682563338301 C 197.12583221876048 579.2682563338301 89.85148514851488 472.13686949751434 89.85148514851488 339.983606557377 C 89.85148514851488 207.83034361723963 197.12583221876048 100.69895678092396 329.45544554455455 100.69895678092396 C 461.7850588703486 100.69895678092396 569.0594059405942 207.83034361723963 569.0594059405942 339.983606557377 Z" stroke-opacity="0.6980392156862745" stroke-linecap="round" stroke-linejoin="round" stroke-miterlimit="10" stroke-width="1.5"/><path fill="none" stroke="rgb(0,0,0)" paint-order="fill stroke markers" d=" M 599.0099009900991 339.983606557377 C 599.0099009900991 488.6560273650315 478.3262605360729 609.1788375558867 329.45544554455455 609.1788375558867 C 180.5846305530362 609.1788375558867 59.9009900990099 488.6560273650315 59.9009900990099 339.983606557377 C 59.9009900990099 191.31118574972248 180.5846305530362 70.78837555886736 329.45544554455455 70.78837555886736 C 478.3262605360729 70.78837555886736 599.0099009900991 191.31118574972248 599.0099009900991 339.983606557377 Z" stroke-opacity="0.6980392156862745" stroke-linecap="round" stroke-linejoin="round" stroke-miterlimit="10" stroke-width="1.5"/><path fill="rgb(0,0,0)" stroke="none" paint-order="stroke fill markers" d=" M 335.4455445544556 339.983606557377 C 335.4455445544556 343.28743813088045 332.7636858776994 345.96572280178833 329.45544554455455 345.96572280178833 C 326.1472052114097 345.96572280178833 323.4653465346536 343.28743813088045 323.4653465346536 339.983606557377 C 323.4653465346536 336.6797749838736 326.1472052114097 334.0014903129657 329.45544554455455 334.0014903129657 C 332.7636858776994 334.0014903129657 335.4455445544556 336.6797749838736 335.4455445544556 339.983606557377 Z" fill-opacity="1"/><path fill="none" stroke="rgb(0,0,0)" paint-order="fill stroke markers" d=" M 335.4455445544556 339.983606557377 C 335.4455445544556 343.28743813088045 332.7636858776994 345.96572280178833 329.45544554455455 345.96572280178833 C 326.1472052114097 345.96572280178833 323.4653465346536 343.28743813088045 323.4653465346536 339.983606557377 C 323.4653465346536 336.6797749838736 326.1472052114097 334.0014903129657 329.45544554455455 334.0014903129657 C 332.7636858776994 334.0014903129657 335.4455445544556 336.6797749838736 335.4455445544556 339.983606557377 Z" stroke-opacity="0" stroke-linecap="round" stroke-linejoin="round" stroke-miterlimit="10" stroke-width="6.5"/><path fill="none" stroke="rgb(0,0,0)" paint-order="fill stroke markers" d=" M 198.90426431474722 70.78837555886736 L 460.00662677436185 70.78837555886736" stroke-opacity="0.6980392156862745" stroke-linecap="round" stroke-linejoin="round" stroke-miterlimit="10" stroke-width="1.5"/><path fill="none" stroke="rgb(0,0,0)" paint-order="fill stroke markers" d=" M 149.7524752475248 100.69895678092396 L 509.15841584158426 100.69895678092396" stroke-opacity="0.6980392156862745" stroke-linecap="round" stroke-linejoin="round" stroke-miterlimit="10" stroke-width="1.5"/><path fill="none" stroke="rgb(0,0,0)" paint-order="fill stroke markers" d=" M 115.56612874908794 130.60953800298063 L 543.3447623400211 130.60953800298063" stroke-opacity="0.6980392156862745" stroke-linecap="round" stroke-linejoin="round" stroke-miterlimit="10" stroke-width="1.5"/><path fill="none" stroke="rgb(0,0,0)" paint-order="fill stroke markers" d=" M 89.85148514851491 160.52011922503723 L 569.0594059405942 160.52011922503723" stroke-opacity="0.6980392156862745" stroke-linecap="round" stroke-linejoin="round" stroke-miterlimit="10" stroke-width="1.5"/><path fill="none" stroke="rgb(0,0,0)" paint-order="fill stroke markers" d=" M 70.0765498566409 190.43070044709387 L 588.8343412324682 190.43070044709387" stroke-opacity="0.6980392156862745" stroke-linecap="round" stroke-linejoin="round" stroke-miterlimit="10" stroke-width="1.5"/><path fill="none" stroke="rgb(0,0,0)" paint-order="fill stroke markers" d=" M 54.95462421304131 220.34128166915048 L 603.9562668760677 220.34128166915048" stroke-opacity="0.6980392156862745" stroke-linecap="round" stroke-linejoin="round" stroke-miterlimit="10" stroke-width="1.5"/><path fill="none" stroke="rgb(0,0,0)" paint-order="fill stroke markers" d=" M 43.74593224888514 250.2518628912071 L 615.164958840224 250.2518628912071" stroke-opacity="0.6980392156862745" stroke-linecap="round" stroke-linejoin="round" stroke-miterlimit="10" stroke-width="1.5"/><path fill="none" stroke="rgb(0,0,0)" paint-order="fill stroke markers" d=" M 36.001723884391595 280.16244411326375 L 622.9091672047175 280.16244411326375" stroke-opacity="0.6980392156862745" stroke-linecap="round" stroke-linejoin="round" stroke-miterlimit="10" stroke-width="1.5"/><path fill="none" stroke="rgb(0,0,0)" paint-order="fill stroke markers" d=" M 31.451782450740097 310.0730253353204 L 627.459108638369 310.0730253353204" stroke-opacity="0.6980392156862745" stroke-linecap="round" stroke-linejoin="round" stroke-miterlimit="10" stroke-width="1.5"/><path fill="none" stroke="rgb(0,0,0)" paint-order="fill stroke markers" d=" M 29.95049504950498 339.98360655737696 L 628.9603960396041 339.983606557377" stroke-opacity="0.6980392156862745" stroke-linecap="round" stroke-linejoin="round" stroke-miterlimit="10" stroke-width="1.5"/><path fill="none" stroke="rgb(0,0,0)" paint-order="fill stroke markers" d=" M 31.451782450740097 369.89418777943365 L 627.459108638369 369.89418777943365" stroke-opacity="0.6980392156862745" stroke-linecap="round" stroke-linejoin="round" stroke-miterlimit="10" stroke-width="1.5"/><path fill="none" stroke="rgb(0,0,0)" paint-order="fill stroke markers" d=" M 36.001723884391595 399.8047690014903 L 622.9091672047175 399.8047690014903" stroke-opacity="0.6980392156862745" stroke-linecap="round" stroke-linejoin="round" stroke-miterlimit="10" stroke-width="1.5"/><path fill="none" stroke="rgb(0,0,0)" paint-order="fill stroke markers" d=" M 43.74593224888514 429.7153502235469 L 615.164958840224 429.7153502235469" stroke-opacity="0.6980392156862745" stroke-linecap="round" stroke-linejoin="round" stroke-miterlimit="10" stroke-width="1.5"/><path fill="none" stroke="rgb(0,0,0)" paint-order="fill stroke markers" d=" M 54.95462421304131 459.62593144560356 L 603.9562668760677 459.62593144560356" stroke-opacity="0.6980392156862745" stroke-linecap="round" stroke-linejoin="round" stroke-miterlimit="10" stroke-width="1.5"/><path fill="none" stroke="rgb(0,0,0)" paint-order="fill stroke markers" d=" M 70.0765498566409 489.5365126676602 L 588.8343412324682 489.5365126676602" stroke-opacity="0.6980392156862745" stroke-linecap="round" stroke-linejoin="round" stroke-miterlimit="10" stroke-width="1.5"/><path fill="none" stroke="rgb(0,0,0)" paint-order="fill stroke markers" d=" M 89.85148514851491 519.4470938897168 L 569.0594059405942 519.4470938897168" stroke-opacity="0.6980392156862745" stroke-linecap="round" stroke-linejoin="round" stroke-miterlimit="10" stroke-width="1.5"/><path fill="none" stroke="rgb(0,0,0)" paint-order="fill stroke markers" d=" M 115.56612874908794 549.3576751117735 L 543.3447623400211 549.3576751117735" stroke-opacity="0.6980392156862745" stroke-linecap="round" stroke-linejoin="round" stroke-miterlimit="10" stroke-width="1.5"/><path fill="none" stroke="rgb(0,0,0)" paint-order="fill stroke markers" d=" M 149.7524752475248 579.2682563338301 L 509.15841584158426 579.2682563338301" stroke-opacity="0.6980392156862745" stroke-linecap="round" stroke-linejoin="round" stroke-miterlimit="10" stroke-width="1.5"/><path fill="none" stroke="rgb(0,0,0)" paint-order="fill stroke markers" d=" M 198.90426431474722 609.1788375558867 L 460.00662677436185 609.1788375558867" stroke-opacity="0.6980392156862745" stroke-linecap="round" stroke-linejoin="round" stroke-miterlimit="10" stroke-width="1.5"/><path fill="none" stroke="rgb(0,0,0)" paint-order="fill stroke markers" d=" M 811.5 118.5 L 1011.5 118.5" stroke-opacity="0.39215686274509803" stroke-linecap="round" stroke-linejoin="round" stroke-miterlimit="10" stroke-width="5"/><path fill="rgb(0,0,0)" stroke="none" paint-order="stroke fill markers" d=" M 1019.9999999999999 118.5 C 1019.9999999999999 123.19442037356174 1016.1944203735617 127 1011.4999999999999 127 C 1006.8055796264381 127 1002.9999999999999 123.19442037356174 1002.9999999999999 118.5 C 1002.9999999999999 113.80557962643826 1006.8055796264381 110 1011.4999999999999 110 C 1016.1944203735617 110 1019.9999999999999 113.80557962643826 1019.9999999999999 118.5 Z" fill-opacity="0.39215686274509803"/><path fill="none" stroke="rgb(0,0,0)" paint-order="fill stroke markers" d=" M 1019.9999999999999 118.5 C 1019.9999999999999 123.19442037356174 1016.1944203735617 127 1011.4999999999999 127 C 1006.8055796264381 127 1002.9999999999999 123.19442037356174 1002.9999999999999 118.5 C 1002.9999999999999 113.80557962643826 1006.8055796264381 110 1011.4999999999999 110 C 1016.1944203735617 110 1019.9999999999999 113.80557962643826 1019.9999999999999 118.5 Z" stroke-opacity="0.39215686274509803" stroke-linecap="round" stroke-linejoin="round" stroke-miterlimit="10"/><path fill="rgb(0,0,0)" stroke="none" paint-order="stroke fill markers" d=" M 1016.9999999999999 118.5 C 1016.9999999999999 121.53756612406936 1014.5375661240693 124 1011.4999999999999 124 C 1008.4624338759305 124 1005.9999999999999 121.53756612406936 1005.9999999999999 118.5 C 1005.9999999999999 115.46243387593064 1008.4624338759305 113 1011.4999999999999 113 C 1014.5375661240693 113 1016.9999999999999 115.46243387593064 1016.9999999999999 118.5 Z" fill-opacity="1"/><path fill="none" stroke="rgb(0,0,0)" paint-order="fill stroke markers" d=" M 1016.9999999999999 118.5 C 1016.9999999999999 121.53756612406936 1014.5375661240693 124 1011.4999999999999 124 C 1008.4624338759305 124 1005.9999999999999 121.53756612406936 1005.9999999999999 118.5 C 1005.9999999999999 115.46243387593064 1008.4624338759305 113 1011.4999999999999 113 C 1014.5375661240693 113 1016.9999999999999 115.46243387593064 1016.9999999999999 118.5 Z" stroke-opacity="1" stroke-linecap="round" stroke-linejoin="round" stroke-miterlimit="10"/><text fill="none" stroke="rgb(255,255,255)" font-family="geogebra-sans-serif, sans-serif" font-size="12px" font-style="normal" font-weight="normal" text-decoration="normal" x="1000" y="103" text-anchor="start" dominant-baseline="alphabetic" stroke-opacity="1" stroke-linecap="round" stroke-linejoin="bevel" stroke-miterlimit="10" stroke-width="3">Pixels = 300</text><text fill="rgb(0,0,0)" stroke="none" font-family="geogebra-sans-serif, sans-serif" font-size="12px" font-style="normal" font-weight="normal" text-decoration="normal" x="1000" y="103" text-anchor="start" dominant-baseline="alphabetic" fill-opacity="1">Pixels = 300</text><path fill="none" stroke="rgb(0,0,0)" paint-order="fill stroke markers" d=" M 913.5 323.5 L 1113.5 323.5" stroke-opacity="0.39215686274509803" stroke-linecap="round" stroke-linejoin="round" stroke-miterlimit="10" stroke-width="5"/><path fill="rgb(0,0,0)" stroke="none" paint-order="stroke fill markers" d=" M 1001.9999999999999 323.5 C 1001.9999999999999 328.19442037356174 998.1944203735617 332 993.4999999999999 332 C 988.8055796264381 332 984.9999999999999 328.19442037356174 984.9999999999999 323.5 C 984.9999999999999 318.80557962643826 988.8055796264381 315 993.4999999999999 315 C 998.1944203735617 315 1001.9999999999999 318.80557962643826 1001.9999999999999 323.5 Z" fill-opacity="0.39215686274509803"/><path fill="none" stroke="rgb(0,0,0)" paint-order="fill stroke markers" d=" M 1001.9999999999999 323.5 C 1001.9999999999999 328.19442037356174 998.1944203735617 332 993.4999999999999 332 C 988.8055796264381 332 984.9999999999999 328.19442037356174 984.9999999999999 323.5 C 984.9999999999999 318.80557962643826 988.8055796264381 315 993.4999999999999 315 C 998.1944203735617 315 1001.9999999999999 318.80557962643826 1001.9999999999999 323.5 Z" stroke-opacity="0.39215686274509803" stroke-linecap="round" stroke-linejoin="round" stroke-miterlimit="10"/><path fill="rgb(0,0,0)" stroke="none" paint-order="stroke fill markers" d=" M 998.9999999999999 323.5 C 998.9999999999999 326.5375661240694 996.5375661240693 329 993.4999999999999 329 C 990.4624338759305 329 987.9999999999999 326.5375661240694 987.9999999999999 323.5 C 987.9999999999999 320.4624338759306 990.4624338759305 318 993.4999999999999 318 C 996.5375661240693 318 998.9999999999999 320.4624338759306 998.9999999999999 323.5 Z" fill-opacity="1"/><path fill="none" stroke="rgb(0,0,0)" paint-order="fill stroke markers" d=" M 998.9999999999999 323.5 C 998.9999999999999 326.5375661240694 996.5375661240693 329 993.4999999999999 329 C 990.4624338759305 329 987.9999999999999 326.5375661240694 987.9999999999999 323.5 C 987.9999999999999 320.4624338759306 990.4624338759305 318 993.4999999999999 318 C 996.5375661240693 318 998.9999999999999 320.4624338759306 998.9999999999999 323.5 Z" stroke-opacity="1" stroke-linecap="round" stroke-linejoin="round" stroke-miterlimit="10"/><text fill="none" stroke="rgb(255,255,255)" font-family="geogebra-sans-serif, sans-serif" font-size="12px" font-style="normal" font-weight="normal" text-decoration="normal" x="982" y="308" text-anchor="start" dominant-baseline="alphabetic" stroke-opacity="1" stroke-linecap="round" stroke-linejoin="bevel" stroke-miterlimit="10" stroke-width="3">ArrowScale = 0.04</text><text fill="rgb(0,0,0)" stroke="none" font-family="geogebra-sans-serif, sans-serif" font-size="12px" font-style="normal" font-weight="normal" text-decoration="normal" x="982" y="308" text-anchor="start" dominant-baseline="alphabetic" fill-opacity="1">ArrowScale = 0.04</text><text fill="rgb(0,0,0)" stroke="none" font-family="geogebra-sans-serif, sans-serif" font-size="12px" font-style="normal" font-weight="normal" text-decoration="normal" x="1018" y="475" text-anchor="start" dominant-baseline="alphabetic" fill-opacity="1">Lightness</text><text fill="rgb(0,0,0)" stroke="none" font-family="geogebra-sans-serif, sans-serif" font-size="12px" font-style="normal" font-weight="normal" text-decoration="normal" x="1020" y="448" text-anchor="start" dominant-baseline="alphabetic" fill-opacity="1">Chroma</text><g transform="scale(15,15)"><g transform="translate(67.76666666666667,33.40555633598243)"><path fill="rgb(0,0,0)" stroke="none" paint-order="stroke fill markers" d=" M 0.577 -0.681 L 0.562 -0.6 Q 0.481 -0.652 0.393 -0.652 Q 0.291 -0.652 0.2235 -0.562 Q 0.156 -0.47200000000000003 0.156 -0.34700000000000003 Q 0.156 -0.225 0.222 -0.1335 Q 0.28800000000000003 -0.042 0.396 -0.042 Q 0.451 -0.042 0.4905 -0.054 Q 0.53 -0.066 0.582 -0.10300000000000001 L 0.588 -0.034 Q 0.534 -0.001 0.495 0.0105 Q 0.456 0.022 0.395 0.022 Q 0.253 0.022 0.16 -0.088 Q 0.067 -0.198 0.067 -0.34700000000000003 Q 0.067 -0.498 0.16 -0.607 Q 0.253 -0.716 0.394 -0.716 Q 0.485 -0.716 0.577 -0.681 Z"/></g><g transform="translate(68.40555766666667,33.40555633598243)"><path fill="rgb(0,0,0)" stroke="none" paint-order="stroke fill markers" d=" M 0.435 -0.298 L 0.435 0 L 0.357 0 L 0.357 -0.291 Q 0.357 -0.305 0.3565 -0.3145 Q 0.356 -0.324 0.35050000000000003 -0.3405 Q 0.34500000000000003 -0.357 0.3355 -0.3675 Q 0.326 -0.378 0.3065 -0.386 Q 0.28700000000000003 -0.394 0.26 -0.394 Q 0.20800000000000002 -0.394 0.1835 -0.34900000000000003 Q 0.159 -0.304 0.159 -0.245 L 0.159 0 L 0.081 0 L 0.081 -0.6940000000000001 L 0.156 -0.6940000000000001 L 0.156 -0.383 Q 0.212 -0.455 0.298 -0.455 Q 0.435 -0.455 0.435 -0.298 Z"/></g><g transform="translate(68.92222566666666,33.40555633598243)"><path fill="rgb(0,0,0)" stroke="none" paint-order="stroke fill markers" d=" M 0.157 -0.214 L 0.157 0 L 0.082 0 L 0.082 -0.45 L 0.152 -0.45 L 0.152 -0.359 Q 0.216 -0.454 0.327 -0.455 L 0.327 -0.388 Q 0.253 -0.386 0.20500000000000002 -0.3375 Q 0.157 -0.289 0.157 -0.214 Z"/></g><g transform="translate(69.27778266666667,33.40555633598243)"><path fill="rgb(0,0,0)" stroke="none" paint-order="stroke fill markers" d=" M 0.46900000000000003 -0.22 Q 0.46900000000000003 -0.123 0.4045 -0.056 Q 0.34 0.011 0.249 0.011 Q 0.16 0.011 0.095 -0.0555 Q 0.03 -0.122 0.03 -0.22 Q 0.03 -0.319 0.094 -0.39 Q 0.158 -0.461 0.25 -0.461 Q 0.34 -0.461 0.4045 -0.3905 Q 0.46900000000000003 -0.32 0.46900000000000003 -0.22 M 0.249 -0.053 Q 0.308 -0.053 0.34950000000000003 -0.0995 Q 0.391 -0.146 0.391 -0.23 Q 0.391 -0.313 0.34900000000000003 -0.3565 Q 0.307 -0.4 0.249 -0.4 Q 0.193 -0.4 0.1505 -0.357 Q 0.108 -0.314 0.108 -0.23 Q 0.108 -0.145 0.15 -0.099 Q 0.192 -0.053 0.249 -0.053 Z"/></g><g transform="translate(69.77778466666666,33.40555633598243)"><path fill="rgb(0,0,0)" stroke="none" paint-order="stroke fill markers" d=" M 0.713 -0.298 L 0.713 0 L 0.635 0 L 0.635 -0.291 Q 0.635 -0.31 0.6325000000000001 -0.324 Q 0.63 -0.338 0.6215 -0.356 Q 0.613 -0.374 0.5915 -0.384 Q 0.5700000000000001 -0.394 0.537 -0.394 Q 0.486 -0.394 0.461 -0.34900000000000003 Q 0.436 -0.304 0.436 -0.245 L 0.436 0 L 0.358 0 L 0.358 -0.291 Q 0.358 -0.31 0.3555 -0.324 Q 0.353 -0.338 0.34450000000000003 -0.356 Q 0.336 -0.374 0.3145 -0.384 Q 0.293 -0.394 0.26 -0.394 Q 0.209 -0.394 0.184 -0.34900000000000003 Q 0.159 -0.304 0.159 -0.245 L 0.159 0 L 0.081 0 L 0.081 -0.45 L 0.153 -0.45 L 0.153 -0.378 Q 0.211 -0.455 0.299 -0.455 Q 0.399 -0.455 0.427 -0.373 Q 0.483 -0.455 0.5760000000000001 -0.455 Q 0.713 -0.455 0.713 -0.298 Z"/></g><g transform="translate(70.57223166666667,33.40555633598243)"><path fill="rgb(0,0,0)" stroke="none" paint-order="stroke fill markers" d=" M 0.399 -0.289 L 0.399 0 L 0.324 0 L 0.324 -0.036000000000000004 Q 0.263 0.011 0.158 0.011 Q 0.1 0.011 0.07200000000000001 -0.029500000000000002 Q 0.044 -0.07 0.044 -0.113 Q 0.044 -0.176 0.1225 -0.2095 Q 0.201 -0.243 0.321 -0.245 L 0.321 -0.28800000000000003 Q 0.321 -0.341 0.296 -0.3715 Q 0.271 -0.402 0.234 -0.402 Q 0.153 -0.402 0.083 -0.352 L 0.077 -0.418 Q 0.152 -0.461 0.234 -0.461 Q 0.304 -0.461 0.35150000000000003 -0.41250000000000003 Q 0.399 -0.364 0.399 -0.289 M 0.321 -0.132 L 0.321 -0.194 Q 0.116 -0.184 0.116 -0.115 Q 0.116 -0.085 0.14350000000000002 -0.0675 Q 0.171 -0.05 0.209 -0.05 Q 0.256 -0.05 0.28700000000000003 -0.069 Q 0.321 -0.088 0.321 -0.132 Z"/></g></g><g transform="scale(15,15)"><g transform="translate(68.03333333333333,34.73888966931577)"><path fill="rgb(0,0,0)" stroke="none" paint-order="stroke fill markers" d=" M 0.183 -0.6940000000000001 L 0.183 -0.064 L 0.232 -0.064 Q 0.321 -0.064 0.499 -0.066 L 0.499 0 L 0.094 0 L 0.094 -0.6940000000000001 L 0.183 -0.6940000000000001 Z"/></g><g transform="translate(68.57500233333333,34.73888966931577)"><path fill="rgb(0,0,0)" stroke="none" paint-order="stroke fill markers" d=" M 0.163 -0.68 L 0.163 -0.591 L 0.074 -0.591 L 0.074 -0.68 L 0.163 -0.68 M 0.156 -0.444 L 0.156 0 L 0.081 0 L 0.081 -0.444 L 0.156 -0.444 Z"/></g><g transform="translate(68.81389233333333,34.73888966931577)"><path fill="rgb(0,0,0)" stroke="none" paint-order="stroke fill markers" d=" M 0.352 -0.391 L 0.34800000000000003 -0.392 Q 0.381 -0.34700000000000003 0.381 -0.292 Q 0.381 -0.225 0.3345 -0.177 Q 0.28800000000000003 -0.129 0.221 -0.129 Q 0.171 -0.129 0.13 -0.158 Q 0.11900000000000001 -0.14400000000000002 0.11900000000000001 -0.122 Q 0.11900000000000001 -0.069 0.177 -0.069 L 0.265 -0.069 Q 0.28200000000000003 -0.069 0.2945 -0.068 Q 0.307 -0.067 0.335 -0.064 Q 0.363 -0.061 0.3835 -0.051500000000000004 Q 0.404 -0.042 0.4255 -0.028 Q 0.447 -0.014 0.459 0.0115 Q 0.47100000000000003 0.037 0.47100000000000003 0.07 Q 0.47100000000000003 0.127 0.40650000000000003 0.1665 Q 0.342 0.20600000000000002 0.249 0.20600000000000002 Q 0.157 0.20600000000000002 0.0925 0.1665 Q 0.028 0.127 0.028 0.07100000000000001 Q 0.028 0.006 0.092 -0.032 Q 0.066 -0.064 0.066 -0.108 Q 0.066 -0.152 0.095 -0.193 Q 0.062 -0.23600000000000002 0.062 -0.292 Q 0.062 -0.36 0.109 -0.40750000000000003 Q 0.156 -0.455 0.221 -0.455 Q 0.276 -0.455 0.316 -0.423 Q 0.39 -0.455 0.47400000000000003 -0.455 L 0.485 -0.392 L 0.47400000000000003 -0.393 Q 0.462 -0.394 0.448 -0.3945 Q 0.434 -0.395 0.426 -0.395 Q 0.41400000000000003 -0.395 0.3885 -0.393 Q 0.363 -0.391 0.352 -0.391 M 0.221 -0.186 Q 0.258 -0.186 0.28450000000000003 -0.212 Q 0.311 -0.23800000000000002 0.311 -0.292 Q 0.311 -0.34600000000000003 0.28450000000000003 -0.372 Q 0.258 -0.398 0.221 -0.398 Q 0.187 -0.398 0.1595 -0.373 Q 0.132 -0.34800000000000003 0.132 -0.292 Q 0.132 -0.23600000000000002 0.1595 -0.211 Q 0.187 -0.186 0.221 -0.186 M 0.266 0.003 L 0.176 0.003 Q 0.154 0.003 0.138 0.01 Q 0.122 0.017 0.1145 0.025500000000000002 Q 0.107 0.034 0.10300000000000001 0.046 Q 0.099 0.058 0.0985 0.0625 Q 0.098 0.067 0.098 0.07100000000000001 Q 0.098 0.105 0.14250000000000002 0.127 Q 0.187 0.149 0.25 0.149 Q 0.312 0.149 0.3565 0.127 Q 0.401 0.105 0.401 0.07200000000000001 Q 0.401 0.003 0.266 0.003 Z"/></g><g transform="translate(69.32778233333333,34.73888966931577)"><path fill="rgb(0,0,0)" stroke="none" paint-order="stroke fill markers" d=" M 0.435 -0.298 L 0.435 0 L 0.357 0 L 0.357 -0.291 Q 0.357 -0.305 0.3565 -0.3145 Q 0.356 -0.324 0.35050000000000003 -0.3405 Q 0.34500000000000003 -0.357 0.3355 -0.3675 Q 0.326 -0.378 0.3065 -0.386 Q 0.28700000000000003 -0.394 0.26 -0.394 Q 0.20800000000000002 -0.394 0.1835 -0.34900000000000003 Q 0.159 -0.304 0.159 -0.245 L 0.159 0 L 0.081 0 L 0.081 -0.6940000000000001 L 0.156 -0.6940000000000001 L 0.156 -0.383 Q 0.212 -0.455 0.298 -0.455 Q 0.435 -0.455 0.435 -0.298 Z"/></g><g transform="translate(69.84445033333333,34.73888966931577)"><path fill="rgb(0,0,0)" stroke="none" paint-order="stroke fill markers" d=" M 0.17500000000000002 -0.386 L 0.17500000000000002 -0.136 Q 0.17500000000000002 -0.053 0.226 -0.053 Q 0.275 -0.053 0.316 -0.08600000000000001 L 0.332 -0.027 Q 0.259 0.011 0.186 0.011 Q 0.10300000000000001 0.011 0.10300000000000001 -0.11900000000000001 L 0.10300000000000001 -0.386 L 0.019 -0.386 L 0.019 -0.444 L 0.106 -0.444 L 0.106 -0.5710000000000001 L 0.17500000000000002 -0.5710000000000001 L 0.17500000000000002 -0.444 L 0.316 -0.444 L 0.316 -0.386 L 0.17500000000000002 -0.386 Z"/></g><g transform="translate(70.20556233333333,34.73888966931577)"><path fill="rgb(0,0,0)" stroke="none" paint-order="stroke fill markers" d=" M 0.435 -0.298 L 0.435 0 L 0.357 0 L 0.357 -0.291 Q 0.357 -0.305 0.3565 -0.3145 Q 0.356 -0.324 0.35050000000000003 -0.3405 Q 0.34500000000000003 -0.357 0.3355 -0.3675 Q 0.326 -0.378 0.3065 -0.386 Q 0.28700000000000003 -0.394 0.26 -0.394 Q 0.20800000000000002 -0.394 0.1835 -0.34900000000000003 Q 0.159 -0.304 0.159 -0.245 L 0.159 0 L 0.081 0 L 0.081 -0.45 L 0.153 -0.45 L 0.153 -0.379 Q 0.21 -0.455 0.298 -0.455 Q 0.435 -0.455 0.435 -0.298 Z"/></g><g transform="translate(70.72223033333333,34.73888966931577)"><path fill="rgb(0,0,0)" stroke="none" paint-order="stroke fill markers" d=" M 0.41400000000000003 -0.219 L 0.105 -0.219 Q 0.107 -0.146 0.1495 -0.098 Q 0.192 -0.05 0.252 -0.05 Q 0.336 -0.05 0.404 -0.106 L 0.41000000000000003 -0.041 Q 0.338 0.011 0.251 0.011 Q 0.161 0.011 0.098 -0.058 Q 0.035 -0.127 0.035 -0.226 Q 0.035 -0.323 0.094 -0.392 Q 0.153 -0.461 0.23600000000000002 -0.461 Q 0.326 -0.461 0.374 -0.388 Q 0.41400000000000003 -0.326 0.41400000000000003 -0.219 M 0.11 -0.274 L 0.357 -0.274 Q 0.34800000000000003 -0.338 0.314 -0.369 Q 0.28 -0.4 0.23600000000000002 -0.4 Q 0.193 -0.4 0.1575 -0.365 Q 0.122 -0.33 0.11 -0.274 Z"/></g><g transform="translate(71.16667633333333,34.73888966931577)"><path fill="rgb(0,0,0)" stroke="none" paint-order="stroke fill markers" d=" M 0.343 -0.429 L 0.331 -0.364 Q 0.267 -0.402 0.189 -0.402 Q 0.10400000000000001 -0.402 0.10400000000000001 -0.34 Q 0.10400000000000001 -0.326 0.11 -0.315 Q 0.116 -0.304 0.1235 -0.2975 Q 0.131 -0.291 0.1465 -0.28550000000000003 Q 0.162 -0.28 0.17300000000000001 -0.277 Q 0.184 -0.274 0.20500000000000002 -0.27 Q 0.248 -0.262 0.271 -0.253 Q 0.294 -0.244 0.321 -0.22 L 0.326 -0.214 Q 0.331 -0.209 0.336 -0.2015 Q 0.341 -0.194 0.34700000000000003 -0.1835 Q 0.353 -0.17300000000000001 0.3565 -0.158 Q 0.36 -0.14300000000000002 0.36 -0.128 Q 0.36 -0.058 0.312 -0.021 Q 0.269 0.011 0.196 0.011 Q 0.116 0.011 0.028 -0.033 L 0.04 -0.101 Q 0.114 -0.052000000000000005 0.195 -0.052000000000000005 Q 0.289 -0.052000000000000005 0.289 -0.121 Q 0.289 -0.136 0.28200000000000003 -0.148 Q 0.275 -0.16 0.2665 -0.167 Q 0.258 -0.17400000000000002 0.243 -0.18 Q 0.228 -0.186 0.219 -0.188 Q 0.21 -0.19 0.195 -0.193 Q 0.161 -0.2 0.148 -0.203 Q 0.135 -0.20600000000000002 0.11850000000000001 -0.2125 Q 0.10200000000000001 -0.219 0.08700000000000001 -0.23 Q 0.033 -0.271 0.033 -0.33 Q 0.033 -0.367 0.0485 -0.3935 Q 0.064 -0.42 0.0835 -0.4325 Q 0.10300000000000001 -0.445 0.1305 -0.452 Q 0.158 -0.459 0.171 -0.46 Q 0.184 -0.461 0.199 -0.461 Q 0.274 -0.461 0.343 -0.429 Z"/></g><g transform="translate(71.55001033333333,34.73888966931577)"><path fill="rgb(0,0,0)" stroke="none" paint-order="stroke fill markers" d=" M 0.343 -0.429 L 0.331 -0.364 Q 0.267 -0.402 0.189 -0.402 Q 0.10400000000000001 -0.402 0.10400000000000001 -0.34 Q 0.10400000000000001 -0.326 0.11 -0.315 Q 0.116 -0.304 0.1235 -0.2975 Q 0.131 -0.291 0.1465 -0.28550000000000003 Q 0.162 -0.28 0.17300000000000001 -0.277 Q 0.184 -0.274 0.20500000000000002 -0.27 Q 0.248 -0.262 0.271 -0.253 Q 0.294 -0.244 0.321 -0.22 L 0.326 -0.214 Q 0.331 -0.209 0.336 -0.2015 Q 0.341 -0.194 0.34700000000000003 -0.1835 Q 0.353 -0.17300000000000001 0.3565 -0.158 Q 0.36 -0.14300000000000002 0.36 -0.128 Q 0.36 -0.058 0.312 -0.021 Q 0.269 0.011 0.196 0.011 Q 0.116 0.011 0.028 -0.033 L 0.04 -0.101 Q 0.114 -0.052000000000000005 0.195 -0.052000000000000005 Q 0.289 -0.052000000000000005 0.289 -0.121 Q 0.289 -0.136 0.28200000000000003 -0.148 Q 0.275 -0.16 0.2665 -0.167 Q 0.258 -0.17400000000000002 0.243 -0.18 Q 0.228 -0.186 0.219 -0.188 Q 0.21 -0.19 0.195 -0.193 Q 0.161 -0.2 0.148 -0.203 Q 0.135 -0.20600000000000002 0.11850000000000001 -0.2125 Q 0.10200000000000001 -0.219 0.08700000000000001 -0.23 Q 0.033 -0.271 0.033 -0.33 Q 0.033 -0.367 0.0485 -0.3935 Q 0.064 -0.42 0.0835 -0.4325 Q 0.10300000000000001 -0.445 0.1305 -0.452 Q 0.158 -0.459 0.171 -0.46 Q 0.184 -0.461 0.199 -0.461 Q 0.274 -0.461 0.343 -0.429 Z"/></g></g><g transform="scale(51,51) translate(6.647058823529412,7.637745600688314) rotate(0,0,0) translate(-6.647058823529412,-7.637745600688314)"><g transform="translate(7.147058823529412,7.734968100688314)"><path fill="rgb(0,0,0)" stroke="none" paint-order="stroke fill markers" d=" M 0.577 -0.681 L 0.562 -0.6 Q 0.481 -0.652 0.393 -0.652 Q 0.291 -0.652 0.2235 -0.562 Q 0.156 -0.47200000000000003 0.156 -0.34700000000000003 Q 0.156 -0.225 0.222 -0.1335 Q 0.28800000000000003 -0.042 0.396 -0.042 Q 0.451 -0.042 0.4905 -0.054 Q 0.53 -0.066 0.582 -0.10300000000000001 L 0.588 -0.034 Q 0.534 -0.001 0.495 0.0105 Q 0.456 0.022 0.395 0.022 Q 0.253 0.022 0.16 -0.088 Q 0.067 -0.198 0.067 -0.34700000000000003 Q 0.067 -0.498 0.16 -0.607 Q 0.253 -0.716 0.394 -0.716 Q 0.485 -0.716 0.577 -0.681 Z"/></g><g transform="translate(7.785949823529412,7.734968100688314)"><path fill="rgb(0,0,0)" stroke="none" paint-order="stroke fill markers" d=" M 0.435 -0.298 L 0.435 0 L 0.357 0 L 0.357 -0.291 Q 0.357 -0.305 0.3565 -0.3145 Q 0.356 -0.324 0.35050000000000003 -0.3405 Q 0.34500000000000003 -0.357 0.3355 -0.3675 Q 0.326 -0.378 0.3065 -0.386 Q 0.28700000000000003 -0.394 0.26 -0.394 Q 0.20800000000000002 -0.394 0.1835 -0.34900000000000003 Q 0.159 -0.304 0.159 -0.245 L 0.159 0 L 0.081 0 L 0.081 -0.6940000000000001 L 0.156 -0.6940000000000001 L 0.156 -0.383 Q 0.212 -0.455 0.298 -0.455 Q 0.435 -0.455 0.435 -0.298 Z"/></g><g transform="translate(8.302617823529411,7.734968100688314)"><path fill="rgb(0,0,0)" stroke="none" paint-order="stroke fill markers" d=" M 0.157 -0.214 L 0.157 0 L 0.082 0 L 0.082 -0.45 L 0.152 -0.45 L 0.152 -0.359 Q 0.216 -0.454 0.327 -0.455 L 0.327 -0.388 Q 0.253 -0.386 0.20500000000000002 -0.3375 Q 0.157 -0.289 0.157 -0.214 Z"/></g><g transform="translate(8.65817482352941,7.734968100688314)"><path fill="rgb(0,0,0)" stroke="none" paint-order="stroke fill markers" d=" M 0.46900000000000003 -0.22 Q 0.46900000000000003 -0.123 0.4045 -0.056 Q 0.34 0.011 0.249 0.011 Q 0.16 0.011 0.095 -0.0555 Q 0.03 -0.122 0.03 -0.22 Q 0.03 -0.319 0.094 -0.39 Q 0.158 -0.461 0.25 -0.461 Q 0.34 -0.461 0.4045 -0.3905 Q 0.46900000000000003 -0.32 0.46900000000000003 -0.22 M 0.249 -0.053 Q 0.308 -0.053 0.34950000000000003 -0.0995 Q 0.391 -0.146 0.391 -0.23 Q 0.391 -0.313 0.34900000000000003 -0.3565 Q 0.307 -0.4 0.249 -0.4 Q 0.193 -0.4 0.1505 -0.357 Q 0.108 -0.314 0.108 -0.23 Q 0.108 -0.145 0.15 -0.099 Q 0.192 -0.053 0.249 -0.053 Z"/></g><g transform="translate(9.158176823529411,7.734968100688314)"><path fill="rgb(0,0,0)" stroke="none" paint-order="stroke fill markers" d=" M 0.713 -0.298 L 0.713 0 L 0.635 0 L 0.635 -0.291 Q 0.635 -0.31 0.6325000000000001 -0.324 Q 0.63 -0.338 0.6215 -0.356 Q 0.613 -0.374 0.5915 -0.384 Q 0.5700000000000001 -0.394 0.537 -0.394 Q 0.486 -0.394 0.461 -0.34900000000000003 Q 0.436 -0.304 0.436 -0.245 L 0.436 0 L 0.358 0 L 0.358 -0.291 Q 0.358 -0.31 0.3555 -0.324 Q 0.353 -0.338 0.34450000000000003 -0.356 Q 0.336 -0.374 0.3145 -0.384 Q 0.293 -0.394 0.26 -0.394 Q 0.209 -0.394 0.184 -0.34900000000000003 Q 0.159 -0.304 0.159 -0.245 L 0.159 0 L 0.081 0 L 0.081 -0.45 L 0.153 -0.45 L 0.153 -0.378 Q 0.211 -0.455 0.299 -0.455 Q 0.399 -0.455 0.427 -0.373 Q 0.483 -0.455 0.5760000000000001 -0.455 Q 0.713 -0.455 0.713 -0.298 Z"/></g><g transform="translate(9.95262382352941,7.734968100688314)"><path fill="rgb(0,0,0)" stroke="none" paint-order="stroke fill markers" d=" M 0.399 -0.289 L 0.399 0 L 0.324 0 L 0.324 -0.036000000000000004 Q 0.263 0.011 0.158 0.011 Q 0.1 0.011 0.07200000000000001 -0.029500000000000002 Q 0.044 -0.07 0.044 -0.113 Q 0.044 -0.176 0.1225 -0.2095 Q 0.201 -0.243 0.321 -0.245 L 0.321 -0.28800000000000003 Q 0.321 -0.341 0.296 -0.3715 Q 0.271 -0.402 0.234 -0.402 Q 0.153 -0.402 0.083 -0.352 L 0.077 -0.418 Q 0.152 -0.461 0.234 -0.461 Q 0.304 -0.461 0.35150000000000003 -0.41250000000000003 Q 0.399 -0.364 0.399 -0.289 M 0.321 -0.132 L 0.321 -0.194 Q 0.116 -0.184 0.116 -0.115 Q 0.116 -0.085 0.14350000000000002 -0.0675 Q 0.171 -0.05 0.209 -0.05 Q 0.256 -0.05 0.28700000000000003 -0.069 Q 0.321 -0.088 0.321 -0.132 Z"/></g><g transform="translate(6.647058823529412,7.637745600688314) rotate(0,0,0) translate(-6.647058823529412,-7.637745600688314)"/></g><g transform="scale(51,51) translate(7.519281826178511,5.900011) rotate(-90,0,0) translate(-7.519281826178511,-5.900011)"><g transform="translate(8.01928182617851,5.900011)"><path fill="rgb(0,0,0)" stroke="none" paint-order="stroke fill markers" d=" M 0.183 -0.6940000000000001 L 0.183 -0.064 L 0.232 -0.064 Q 0.321 -0.064 0.499 -0.066 L 0.499 0 L 0.094 0 L 0.094 -0.6940000000000001 L 0.183 -0.6940000000000001 Z"/></g><g transform="translate(8.56095082617851,5.900011)"><path fill="rgb(0,0,0)" stroke="none" paint-order="stroke fill markers" d=" M 0.163 -0.68 L 0.163 -0.591 L 0.074 -0.591 L 0.074 -0.68 L 0.163 -0.68 M 0.156 -0.444 L 0.156 0 L 0.081 0 L 0.081 -0.444 L 0.156 -0.444 Z"/></g><g transform="translate(8.79984082617851,5.900011)"><path fill="rgb(0,0,0)" stroke="none" paint-order="stroke fill markers" d=" M 0.352 -0.391 L 0.34800000000000003 -0.392 Q 0.381 -0.34700000000000003 0.381 -0.292 Q 0.381 -0.225 0.3345 -0.177 Q 0.28800000000000003 -0.129 0.221 -0.129 Q 0.171 -0.129 0.13 -0.158 Q 0.11900000000000001 -0.14400000000000002 0.11900000000000001 -0.122 Q 0.11900000000000001 -0.069 0.177 -0.069 L 0.265 -0.069 Q 0.28200000000000003 -0.069 0.2945 -0.068 Q 0.307 -0.067 0.335 -0.064 Q 0.363 -0.061 0.3835 -0.051500000000000004 Q 0.404 -0.042 0.4255 -0.028 Q 0.447 -0.014 0.459 0.0115 Q 0.47100000000000003 0.037 0.47100000000000003 0.07 Q 0.47100000000000003 0.127 0.40650000000000003 0.1665 Q 0.342 0.20600000000000002 0.249 0.20600000000000002 Q 0.157 0.20600000000000002 0.0925 0.1665 Q 0.028 0.127 0.028 0.07100000000000001 Q 0.028 0.006 0.092 -0.032 Q 0.066 -0.064 0.066 -0.108 Q 0.066 -0.152 0.095 -0.193 Q 0.062 -0.23600000000000002 0.062 -0.292 Q 0.062 -0.36 0.109 -0.40750000000000003 Q 0.156 -0.455 0.221 -0.455 Q 0.276 -0.455 0.316 -0.423 Q 0.39 -0.455 0.47400000000000003 -0.455 L 0.485 -0.392 L 0.47400000000000003 -0.393 Q 0.462 -0.394 0.448 -0.3945 Q 0.434 -0.395 0.426 -0.395 Q 0.41400000000000003 -0.395 0.3885 -0.393 Q 0.363 -0.391 0.352 -0.391 M 0.221 -0.186 Q 0.258 -0.186 0.28450000000000003 -0.212 Q 0.311 -0.23800000000000002 0.311 -0.292 Q 0.311 -0.34600000000000003 0.28450000000000003 -0.372 Q 0.258 -0.398 0.221 -0.398 Q 0.187 -0.398 0.1595 -0.373 Q 0.132 -0.34800000000000003 0.132 -0.292 Q 0.132 -0.23600000000000002 0.1595 -0.211 Q 0.187 -0.186 0.221 -0.186 M 0.266 0.003 L 0.176 0.003 Q 0.154 0.003 0.138 0.01 Q 0.122 0.017 0.1145 0.025500000000000002 Q 0.107 0.034 0.10300000000000001 0.046 Q 0.099 0.058 0.0985 0.0625 Q 0.098 0.067 0.098 0.07100000000000001 Q 0.098 0.105 0.14250000000000002 0.127 Q 0.187 0.149 0.25 0.149 Q 0.312 0.149 0.3565 0.127 Q 0.401 0.105 0.401 0.07200000000000001 Q 0.401 0.003 0.266 0.003 Z"/></g><g transform="translate(9.31373082617851,5.900011)"><path fill="rgb(0,0,0)" stroke="none" paint-order="stroke fill markers" d=" M 0.435 -0.298 L 0.435 0 L 0.357 0 L 0.357 -0.291 Q 0.357 -0.305 0.3565 -0.3145 Q 0.356 -0.324 0.35050000000000003 -0.3405 Q 0.34500000000000003 -0.357 0.3355 -0.3675 Q 0.326 -0.378 0.3065 -0.386 Q 0.28700000000000003 -0.394 0.26 -0.394 Q 0.20800000000000002 -0.394 0.1835 -0.34900000000000003 Q 0.159 -0.304 0.159 -0.245 L 0.159 0 L 0.081 0 L 0.081 -0.6940000000000001 L 0.156 -0.6940000000000001 L 0.156 -0.383 Q 0.212 -0.455 0.298 -0.455 Q 0.435 -0.455 0.435 -0.298 Z"/></g><g transform="translate(9.83039882617851,5.900011)"><path fill="rgb(0,0,0)" stroke="none" paint-order="stroke fill markers" d=" M 0.17500000000000002 -0.386 L 0.17500000000000002 -0.136 Q 0.17500000000000002 -0.053 0.226 -0.053 Q 0.275 -0.053 0.316 -0.08600000000000001 L 0.332 -0.027 Q 0.259 0.011 0.186 0.011 Q 0.10300000000000001 0.011 0.10300000000000001 -0.11900000000000001 L 0.10300000000000001 -0.386 L 0.019 -0.386 L 0.019 -0.444 L 0.106 -0.444 L 0.106 -0.5710000000000001 L 0.17500000000000002 -0.5710000000000001 L 0.17500000000000002 -0.444 L 0.316 -0.444 L 0.316 -0.386 L 0.17500000000000002 -0.386 Z"/></g><g transform="translate(10.19151082617851,5.900011)"><path fill="rgb(0,0,0)" stroke="none" paint-order="stroke fill markers" d=" M 0.435 -0.298 L 0.435 0 L 0.357 0 L 0.357 -0.291 Q 0.357 -0.305 0.3565 -0.3145 Q 0.356 -0.324 0.35050000000000003 -0.3405 Q 0.34500000000000003 -0.357 0.3355 -0.3675 Q 0.326 -0.378 0.3065 -0.386 Q 0.28700000000000003 -0.394 0.26 -0.394 Q 0.20800000000000002 -0.394 0.1835 -0.34900000000000003 Q 0.159 -0.304 0.159 -0.245 L 0.159 0 L 0.081 0 L 0.081 -0.45 L 0.153 -0.45 L 0.153 -0.379 Q 0.21 -0.455 0.298 -0.455 Q 0.435 -0.455 0.435 -0.298 Z"/></g><g transform="translate(10.708178826178509,5.900011)"><path fill="rgb(0,0,0)" stroke="none" paint-order="stroke fill markers" d=" M 0.41400000000000003 -0.219 L 0.105 -0.219 Q 0.107 -0.146 0.1495 -0.098 Q 0.192 -0.05 0.252 -0.05 Q 0.336 -0.05 0.404 -0.106 L 0.41000000000000003 -0.041 Q 0.338 0.011 0.251 0.011 Q 0.161 0.011 0.098 -0.058 Q 0.035 -0.127 0.035 -0.226 Q 0.035 -0.323 0.094 -0.392 Q 0.153 -0.461 0.23600000000000002 -0.461 Q 0.326 -0.461 0.374 -0.388 Q 0.41400000000000003 -0.326 0.41400000000000003 -0.219 M 0.11 -0.274 L 0.357 -0.274 Q 0.34800000000000003 -0.338 0.314 -0.369 Q 0.28 -0.4 0.23600000000000002 -0.4 Q 0.193 -0.4 0.1575 -0.365 Q 0.122 -0.33 0.11 -0.274 Z"/></g><g transform="translate(11.152624826178508,5.900011)"><path fill="rgb(0,0,0)" stroke="none" paint-order="stroke fill markers" d=" M 0.343 -0.429 L 0.331 -0.364 Q 0.267 -0.402 0.189 -0.402 Q 0.10400000000000001 -0.402 0.10400000000000001 -0.34 Q 0.10400000000000001 -0.326 0.11 -0.315 Q 0.116 -0.304 0.1235 -0.2975 Q 0.131 -0.291 0.1465 -0.28550000000000003 Q 0.162 -0.28 0.17300000000000001 -0.277 Q 0.184 -0.274 0.20500000000000002 -0.27 Q 0.248 -0.262 0.271 -0.253 Q 0.294 -0.244 0.321 -0.22 L 0.326 -0.214 Q 0.331 -0.209 0.336 -0.2015 Q 0.341 -0.194 0.34700000000000003 -0.1835 Q 0.353 -0.17300000000000001 0.3565 -0.158 Q 0.36 -0.14300000000000002 0.36 -0.128 Q 0.36 -0.058 0.312 -0.021 Q 0.269 0.011 0.196 0.011 Q 0.116 0.011 0.028 -0.033 L 0.04 -0.101 Q 0.114 -0.052000000000000005 0.195 -0.052000000000000005 Q 0.289 -0.052000000000000005 0.289 -0.121 Q 0.289 -0.136 0.28200000000000003 -0.148 Q 0.275 -0.16 0.2665 -0.167 Q 0.258 -0.17400000000000002 0.243 -0.18 Q 0.228 -0.186 0.219 -0.188 Q 0.21 -0.19 0.195 -0.193 Q 0.161 -0.2 0.148 -0.203 Q 0.135 -0.20600000000000002 0.11850000000000001 -0.2125 Q 0.10200000000000001 -0.219 0.08700000000000001 -0.23 Q 0.033 -0.271 0.033 -0.33 Q 0.033 -0.367 0.0485 -0.3935 Q 0.064 -0.42 0.0835 -0.4325 Q 0.10300000000000001 -0.445 0.1305 -0.452 Q 0.158 -0.459 0.171 -0.46 Q 0.184 -0.461 0.199 -0.461 Q 0.274 -0.461 0.343 -0.429 Z"/></g><g transform="translate(11.535958826178508,5.900011)"><path fill="rgb(0,0,0)" stroke="none" paint-order="stroke fill markers" d=" M 0.343 -0.429 L 0.331 -0.364 Q 0.267 -0.402 0.189 -0.402 Q 0.10400000000000001 -0.402 0.10400000000000001 -0.34 Q 0.10400000000000001 -0.326 0.11 -0.315 Q 0.116 -0.304 0.1235 -0.2975 Q 0.131 -0.291 0.1465 -0.28550000000000003 Q 0.162 -0.28 0.17300000000000001 -0.277 Q 0.184 -0.274 0.20500000000000002 -0.27 Q 0.248 -0.262 0.271 -0.253 Q 0.294 -0.244 0.321 -0.22 L 0.326 -0.214 Q 0.331 -0.209 0.336 -0.2015 Q 0.341 -0.194 0.34700000000000003 -0.1835 Q 0.353 -0.17300000000000001 0.3565 -0.158 Q 0.36 -0.14300000000000002 0.36 -0.128 Q 0.36 -0.058 0.312 -0.021 Q 0.269 0.011 0.196 0.011 Q 0.116 0.011 0.028 -0.033 L 0.04 -0.101 Q 0.114 -0.052000000000000005 0.195 -0.052000000000000005 Q 0.289 -0.052000000000000005 0.289 -0.121 Q 0.289 -0.136 0.28200000000000003 -0.148 Q 0.275 -0.16 0.2665 -0.167 Q 0.258 -0.17400000000000002 0.243 -0.18 Q 0.228 -0.186 0.219 -0.188 Q 0.21 -0.19 0.195 -0.193 Q 0.161 -0.2 0.148 -0.203 Q 0.135 -0.20600000000000002 0.11850000000000001 -0.2125 Q 0.10200000000000001 -0.219 0.08700000000000001 -0.23 Q 0.033 -0.271 0.033 -0.33 Q 0.033 -0.367 0.0485 -0.3935 Q 0.064 -0.42 0.0835 -0.4325 Q 0.10300000000000001 -0.445 0.1305 -0.452 Q 0.158 -0.459 0.171 -0.46 Q 0.184 -0.461 0.199 -0.461 Q 0.274 -0.461 0.343 -0.429 Z"/></g><g transform="translate(7.519281826178511,5.900011) rotate(90,0,0) translate(-7.519281826178511,-5.900011)"/></g><path fill="rgb(255,255,255)" stroke="none" paint-order="stroke fill markers" fill-rule="evenodd" d=" M 818 207 L 949 207 C 950.6568542494924 207 953 209.34314575050763 953 211 L 953 237 C 953 238.65685424949237 950.6568542494924 241 949 241 L 818 241 C 816.3431457505076 241 814 238.65685424949237 814 237 L 814 211 C 814 209.34314575050763 816.3431457505076 207 818 207 Z" fill-opacity="1"/><path fill="none" stroke="rgb(0,0,0)" paint-order="fill stroke markers" d=" M 817.5 207 L 949.5 207 C 950.9497474683059 207 953 209.05025253169416 953 210.5 L 953 237.5 C 953 238.94974746830584 950.9497474683059 241 949.5 241 L 817.5 241 C 816.0502525316941 241 814 238.94974746830584 814 237.5 L 814 210.5 C 814 209.05025253169416 816.0502525316941 207 817.5 207 Z" stroke-opacity="1" stroke-linecap="round" stroke-linejoin="round" stroke-miterlimit="10"/><text fill="rgb(0,0,0)" stroke="none" font-family="geogebra-sans-serif, sans-serif" font-size="24px" font-style="normal" font-weight="normal" text-decoration="normal" x="824" y="232" text-anchor="start" dominant-baseline="alphabetic" fill-opacity="1">Reset View</text></g></g></svg>