<?xml version="1.0" encoding="UTF-8" standalone="no"?>
<svg
   xmlns:dc="http://purl.org/dc/elements/1.1/"
   xmlns:cc="http://creativecommons.org/ns#"
   xmlns:rdf="http://www.w3.org/1999/02/22-rdf-syntax-ns#"
   xmlns:svg="http://www.w3.org/2000/svg"
   xmlns="http://www.w3.org/2000/svg"
   xmlns:sodipodi="http://sodipodi.sourceforge.net/DTD/sodipodi-0.dtd"
   xmlns:inkscape="http://www.inkscape.org/namespaces/inkscape"
   version="1.1"
   width="660"
   height="660"
   id="svg1461"
   sodipodi:docname="sphere_vertical_cross_section_munsell_b.svg"
   inkscape:version="1.0.1 (3bc2e813f5, 2020-09-07)">
  <metadata
     id="metadata1465">
    <rdf:RDF>
      <cc:Work
         rdf:about="">
        <dc:format>image/svg+xml</dc:format>
        <dc:type
           rdf:resource="http://purl.org/dc/dcmitype/StillImage" />
        <dc:title></dc:title>
      </cc:Work>
    </rdf:RDF>
  </metadata>
  <sodipodi:namedview
     pagecolor="#ffffff"
     bordercolor="#666666"
     borderopacity="1"
     objecttolerance="10"
     gridtolerance="10"
     guidetolerance="10"
     inkscape:pageopacity="0"
     inkscape:pageshadow="2"
     inkscape:window-width="1670"
     inkscape:window-height="1177"
     id="namedview1463"
     showgrid="false"
     inkscape:zoom="0.39372991"
     inkscape:cx="112.12226"
     inkscape:cy="320.41251"
     inkscape:window-x="62"
     inkscape:window-y="-8"
     inkscape:window-maximized="1"
     inkscape:current-layer="svg1461" />
  <defs
     id="defs1321">
    <clipPath
       id="tcAtRCJbMfKi">
      <path
         fill="none"
         stroke="none"
         d=" M 0 0 L 660 0 L 660 660 L 0 660 L 0 0 Z"
         id="path1318" />
    </clipPath>
  </defs>
  <g
     id="g1652">
    <rect
       fill="#ffffff"
       stroke="none"
       x="0"
       y="0"
       width="660"
       height="660"
       fill-opacity="1"
       id="rect1323"
       style="stroke-width:0.705999" />
    <path
       fill="#000000"
       stroke="none"
       paint-order="stroke fill markers"
       fill-rule="evenodd"
       d="m 329.46166,323.09498 v 11.96648 h 251.58891 v 11.96648 l 47.9217,-17.94973 -47.9217,-17.94972 v 11.96648 z"
       fill-opacity="1"
       id="path1325" />
    <path
       fill="#000000"
       stroke="none"
       paint-order="stroke fill markers"
       fill-rule="evenodd"
       d="m 323.47145,628.24022 h 11.98043 V 77.782125 H 347.4323 L 329.46166,29.916202 311.49103,77.782125 h 11.98042 z"
       fill-opacity="1"
       id="path1327" />
    <path
       fill="none"
       stroke="#000000"
       paint-order="fill stroke markers"
       d="m 628.97227,329.07821 c 0,165.22262 -134.09547,299.16201 -299.51061,299.16201 -165.41513,0 -299.5106,-133.93939 -299.5106,-299.16201 0,-165.22262 134.09547,-299.162008 299.5106,-299.162008 165.41514,0 299.51061,133.939388 299.51061,299.162008 z"
       stroke-opacity="0.698039"
       stroke-linecap="round"
       stroke-linejoin="round"
       stroke-miterlimit="10"
       stroke-width="1.5"
       id="path1329" />
    <path
       fill="#000000"
       stroke="none"
       paint-order="stroke fill markers"
       d="m 335.45188,329.07821 c 0,3.30445 -2.68191,5.98325 -5.99022,5.98325 -3.3083,0 -5.99021,-2.67879 -5.99021,-5.98325 0,-3.30444 2.68191,-5.98324 5.99021,-5.98324 3.30831,0 5.99022,2.67879 5.99022,5.98324 z"
       fill-opacity="1"
       id="path1331" />
    <path
       fill="none"
       stroke="#000000"
       paint-order="fill stroke markers"
       d="m 335.45188,329.07821 c 0,3.30445 -2.68191,5.98325 -5.99022,5.98325 -3.3083,0 -5.99021,-2.67879 -5.99021,-5.98325 0,-3.30444 2.68191,-5.98324 5.99021,-5.98324 3.30831,0 5.99022,2.67879 5.99022,5.98324 z"
       stroke-opacity="0"
       stroke-linecap="round"
       stroke-linejoin="round"
       stroke-miterlimit="10"
       stroke-width="6.5"
       id="path1333" />
    <path
       fill="none"
       stroke="#000000"
       paint-order="fill stroke markers"
       d="m 362.68922,31.762881 c 0.68507,-12.297737 -5.49399,-23.965753 -16.05698,-30.320696 -10.56299,-6.354943 -23.77816,-6.354943 -34.34115,0 -10.563,6.354943 -16.74205,18.022959 -16.05699,30.320696"
       stroke-opacity="0.698039"
       stroke-linecap="round"
       stroke-linejoin="round"
       stroke-miterlimit="10"
       stroke-width="1.5"
       id="path1335" />
    <path
       fill="none"
       stroke="#000000"
       paint-order="fill stroke markers"
       d="m 296.2341,626.39355 c -0.68506,12.29773 5.49399,23.96574 16.05699,30.32069 10.56299,6.35495 23.77816,6.35495 34.34115,0 10.56299,-6.35495 16.74205,-18.02296 16.05698,-30.32069"
       stroke-opacity="0.698039"
       stroke-linecap="round"
       stroke-linejoin="round"
       stroke-miterlimit="10"
       stroke-width="1.5"
       id="path1337" />
    <path
       fill="none"
       stroke="#000000"
       paint-order="fill stroke markers"
       d="m 96.508972,141.04311 v 376.0702"
       stroke-opacity="0.698039"
       stroke-linecap="round"
       stroke-linejoin="round"
       stroke-miterlimit="10"
       stroke-width="1.5"
       id="path1339" />
    <path
       fill="none"
       stroke="#000000"
       paint-order="fill stroke markers"
       d="M 163.06688,80.331155 V 577.82527"
       stroke-opacity="0.698039"
       stroke-linecap="round"
       stroke-linejoin="round"
       stroke-miterlimit="10"
       stroke-width="1.5"
       id="path1341" />
    <path
       fill="none"
       stroke="#000000"
       paint-order="fill stroke markers"
       d="M 229.6248,47.025565 V 611.13087"
       stroke-opacity="0.698039"
       stroke-linecap="round"
       stroke-linejoin="round"
       stroke-miterlimit="10"
       stroke-width="1.5"
       id="path1343" />
    <path
       fill="none"
       stroke="#000000"
       paint-order="fill stroke markers"
       d="M 429.29853,47.025565 V 611.13087"
       stroke-opacity="0.698039"
       stroke-linecap="round"
       stroke-linejoin="round"
       stroke-miterlimit="10"
       stroke-width="1.5"
       id="path1345" />
    <path
       fill="none"
       stroke="#000000"
       paint-order="fill stroke markers"
       d="M 495.85644,577.82527 V 80.331155"
       stroke-opacity="0.698039"
       stroke-linecap="round"
       stroke-linejoin="round"
       stroke-miterlimit="10"
       stroke-width="1.5"
       id="path1347" />
    <path
       fill="none"
       stroke="#000000"
       paint-order="fill stroke markers"
       d="M 562.41436,517.11332 V 141.04311"
       stroke-opacity="0.698039"
       stroke-linecap="round"
       stroke-linejoin="round"
       stroke-miterlimit="10"
       stroke-width="1.5"
       id="path1349" />
    <path
       fill="none"
       stroke="#000000"
       paint-order="fill stroke markers"
       d="M 141.20746,96.396645 H 517.71587"
       stroke-opacity="0.698039"
       stroke-linecap="round"
       stroke-linejoin="round"
       stroke-miterlimit="10"
       stroke-width="1.5"
       id="path1351" />
    <path
       fill="none"
       stroke="#000000"
       paint-order="fill stroke markers"
       d="M 80.424761,162.87709 H 578.49857"
       stroke-opacity="0.698039"
       stroke-linecap="round"
       stroke-linejoin="round"
       stroke-miterlimit="10"
       stroke-width="1.5"
       id="path1353" />
    <path
       fill="none"
       stroke="#000000"
       paint-order="fill stroke markers"
       d="M 47.080359,229.35755 H 611.84297"
       stroke-opacity="0.698039"
       stroke-linecap="round"
       stroke-linejoin="round"
       stroke-miterlimit="10"
       stroke-width="1.5"
       id="path1355" />
    <path
       fill="none"
       stroke="#000000"
       paint-order="fill stroke markers"
       d="M 31.805633,295.83798 H 627.11769"
       stroke-opacity="0.698039"
       stroke-linecap="round"
       stroke-linejoin="round"
       stroke-miterlimit="10"
       stroke-width="1.5"
       id="path1357" />
    <path
       fill="none"
       stroke="#000000"
       paint-order="fill stroke markers"
       d="M 31.805633,362.31844 H 627.11769"
       stroke-opacity="0.698039"
       stroke-linecap="round"
       stroke-linejoin="round"
       stroke-miterlimit="10"
       stroke-width="1.5"
       id="path1359" />
    <path
       fill="none"
       stroke="#000000"
       paint-order="fill stroke markers"
       d="M 47.080359,428.79889 H 611.84297"
       stroke-opacity="0.698039"
       stroke-linecap="round"
       stroke-linejoin="round"
       stroke-miterlimit="10"
       stroke-width="1.5"
       id="path1361" />
    <path
       fill="none"
       stroke="#000000"
       paint-order="fill stroke markers"
       d="M 80.424761,495.27934 H 578.49857"
       stroke-opacity="0.698039"
       stroke-linecap="round"
       stroke-linejoin="round"
       stroke-miterlimit="10"
       stroke-width="1.5"
       id="path1363" />
    <path
       fill="none"
       stroke="#000000"
       paint-order="fill stroke markers"
       d="M 141.20746,561.75977 H 517.71587"
       stroke-opacity="0.698039"
       stroke-linecap="round"
       stroke-linejoin="round"
       stroke-miterlimit="10"
       stroke-width="1.5"
       id="path1365" />
    <path
       fill="none"
       stroke="#000000"
       paint-order="fill stroke markers"
       d="M 296.18271,31.768616 V 626.3878"
       stroke-opacity="0.698039"
       stroke-linecap="round"
       stroke-linejoin="round"
       stroke-miterlimit="10"
       stroke-width="1.5"
       id="path1367" />
    <path
       fill="none"
       stroke="#000000"
       paint-order="fill stroke markers"
       d="M 362.74062,626.3878 V 31.768616"
       stroke-opacity="0.698039"
       stroke-linecap="round"
       stroke-linejoin="round"
       stroke-miterlimit="10"
       stroke-width="1.5"
       id="path1369" />
    <g
       transform="matrix(51,0,0,51,0,-55.843575)"
       id="g1425">
      <g
         transform="translate(7.705883,8.4199352)"
         id="g1401">
        <path
           fill="#000000"
           stroke="none"
           paint-order="stroke fill markers"
           d="M 0.577,-0.681 0.562,-0.6 q -0.081,-0.052 -0.169,-0.052 -0.102,0 -0.1695,0.09 -0.0675,0.09 -0.0675,0.215 0,0.122 0.066,0.2135 0.066,0.0915 0.174,0.0915 0.055,0 0.0945,-0.012 Q 0.53,-0.066 0.582,-0.103 l 0.006,0.069 Q 0.534,-0.001 0.495,0.0105 0.456,0.022 0.395,0.022 q -0.142,0 -0.235,-0.11 -0.093,-0.11 -0.093,-0.259 0,-0.151 0.093,-0.26 0.093,-0.109 0.234,-0.109 0.091,0 0.183,0.035 z"
           id="path1399" />
      </g>
      <g
         transform="translate(8.344774,8.4199352)"
         id="g1405">
        <path
           fill="#000000"
           stroke="none"
           paint-order="stroke fill markers"
           d="M 0.435,-0.298 V 0 H 0.357 v -0.291 q 0,-0.014 -5e-4,-0.0235 Q 0.356,-0.324 0.3505,-0.3405 0.345,-0.357 0.3355,-0.3675 0.326,-0.378 0.3065,-0.386 0.287,-0.394 0.26,-0.394 0.208,-0.394 0.1835,-0.349 0.159,-0.304 0.159,-0.245 V 0 H 0.081 v -0.694 h 0.075 v 0.311 q 0.056,-0.072 0.142,-0.072 0.137,0 0.137,0.157 z"
           id="path1403" />
      </g>
      <g
         transform="translate(8.861442,8.4199352)"
         id="g1409">
        <path
           fill="#000000"
           stroke="none"
           paint-order="stroke fill markers"
           d="M 0.157,-0.214 V 0 H 0.082 v -0.45 h 0.07 v 0.091 q 0.064,-0.095 0.175,-0.096 v 0.067 Q 0.253,-0.386 0.205,-0.3375 0.157,-0.289 0.157,-0.214 Z"
           id="path1407" />
      </g>
      <g
         transform="translate(9.203111,8.4199352)"
         id="g1413">
        <path
           fill="#000000"
           stroke="none"
           paint-order="stroke fill markers"
           d="m 0.469,-0.22 q 0,0.097 -0.0645,0.164 Q 0.34,0.011 0.249,0.011 0.16,0.011 0.095,-0.0555 0.03,-0.122 0.03,-0.22 q 0,-0.099 0.064,-0.17 0.064,-0.071 0.156,-0.071 0.09,0 0.1545,0.0705 Q 0.469,-0.32 0.469,-0.22 m -0.22,0.167 q 0.059,0 0.1005,-0.0465 Q 0.391,-0.146 0.391,-0.23 0.391,-0.313 0.349,-0.3565 0.307,-0.4 0.249,-0.4 0.193,-0.4 0.1505,-0.357 0.108,-0.314 0.108,-0.23 q 0,0.085 0.042,0.131 0.042,0.046 0.099,0.046 z"
           id="path1411" />
      </g>
      <g
         transform="translate(9.703113,8.4199352)"
         id="g1417">
        <path
           fill="#000000"
           stroke="none"
           paint-order="stroke fill markers"
           d="M 0.713,-0.298 V 0 H 0.635 V -0.291 Q 0.635,-0.31 0.6325,-0.324 0.63,-0.338 0.6215,-0.356 0.613,-0.374 0.5915,-0.384 0.57,-0.394 0.537,-0.394 q -0.051,0 -0.076,0.045 -0.025,0.045 -0.025,0.104 V 0 H 0.358 V -0.291 Q 0.358,-0.31 0.3555,-0.324 0.353,-0.338 0.3445,-0.356 0.336,-0.374 0.3145,-0.384 0.293,-0.394 0.26,-0.394 q -0.051,0 -0.076,0.045 -0.025,0.045 -0.025,0.104 V 0 H 0.081 v -0.45 h 0.072 v 0.072 q 0.058,-0.077 0.146,-0.077 0.1,0 0.128,0.082 0.056,-0.082 0.149,-0.082 0.137,0 0.137,0.157 z"
           id="path1415" />
      </g>
      <g
         transform="translate(10.49756,8.4199352)"
         id="g1421">
        <path
           fill="#000000"
           stroke="none"
           paint-order="stroke fill markers"
           d="M 0.399,-0.289 V 0 H 0.324 V -0.036 Q 0.263,0.011 0.158,0.011 0.1,0.011 0.072,-0.0295 0.044,-0.07 0.044,-0.113 0.044,-0.176 0.1225,-0.2095 0.201,-0.243 0.321,-0.245 v -0.043 q 0,-0.053 -0.025,-0.0835 -0.025,-0.0305 -0.062,-0.0305 -0.081,0 -0.151,0.05 L 0.077,-0.418 q 0.075,-0.043 0.157,-0.043 0.07,0 0.1175,0.0485 0.0475,0.0485 0.0475,0.1235 m -0.078,0.157 v -0.062 q -0.205,0.01 -0.205,0.079 0,0.03 0.0275,0.0475 0.0275,0.0175 0.0655,0.0175 0.047,0 0.078,-0.019 0.034,-0.019 0.034,-0.063 z"
           id="path1419" />
      </g>
      <g
         id="g1423" />
    </g>
    <g
       transform="matrix(0,-51,51,0,-142.87542,715.86523)"
       id="g1449">
      <g
         transform="translate(6.4983672,8.9665122)"
         id="g1429">
        <path
           fill="#000000"
           stroke="none"
           paint-order="stroke fill markers"
           d="M 0.652,-0.694 0.379,0 H 0.287 L 0.014,-0.694 h 0.093 l 0.173,0.448 q 0.054,0.144 0.06,0.174 h 0.001 q 0.009,-0.048 0.1,-0.28 l 0.133,-0.342 z"
           id="path1427" />
      </g>
      <g
         transform="translate(7.1372582,8.9665122)"
         id="g1433">
        <path
           fill="#000000"
           stroke="none"
           paint-order="stroke fill markers"
           d="M 0.399,-0.289 V 0 H 0.324 V -0.036 Q 0.263,0.011 0.158,0.011 0.1,0.011 0.072,-0.0295 0.044,-0.07 0.044,-0.113 0.044,-0.176 0.1225,-0.2095 0.201,-0.243 0.321,-0.245 v -0.043 q 0,-0.053 -0.025,-0.0835 -0.025,-0.0305 -0.062,-0.0305 -0.081,0 -0.151,0.05 L 0.077,-0.418 q 0.075,-0.043 0.157,-0.043 0.07,0 0.1175,0.0485 0.0475,0.0485 0.0475,0.1235 m -0.078,0.157 v -0.062 q -0.205,0.01 -0.205,0.079 0,0.03 0.0275,0.0475 0.0275,0.0175 0.0655,0.0175 0.047,0 0.078,-0.019 0.034,-0.019 0.034,-0.063 z"
           id="path1431" />
      </g>
      <g
         transform="translate(7.6178152,8.9665122)"
         id="g1437">
        <path
           fill="#000000"
           stroke="none"
           paint-order="stroke fill markers"
           d="M 0.156,-0.694 V 0 H 0.081 v -0.694 z"
           id="path1435" />
      </g>
      <g
         transform="translate(7.8567052,8.9665122)"
         id="g1441">
        <path
           fill="#000000"
           stroke="none"
           paint-order="stroke fill markers"
           d="M 0.435,-0.444 V 0 H 0.36 V -0.048 Q 0.293,0.011 0.187,0.011 0.128,0.011 0.1045,-0.0195 0.081,-0.05 0.081,-0.109 v -0.335 h 0.078 v 0.331 q 0,0.037 0.0145,0.053 0.0145,0.016 0.0635,0.016 0.051,0 0.0855,-0.0285 Q 0.357,-0.101 0.357,-0.154 v -0.29 z"
           id="path1439" />
      </g>
      <g
         transform="translate(8.3733732,8.9665122)"
         id="g1445">
        <path
           fill="#000000"
           stroke="none"
           paint-order="stroke fill markers"
           d="M 0.414,-0.219 H 0.105 q 0.002,0.073 0.0445,0.121 0.0425,0.048 0.1025,0.048 0.084,0 0.152,-0.056 l 0.006,0.065 q -0.072,0.052 -0.159,0.052 -0.09,0 -0.153,-0.069 -0.063,-0.069 -0.063,-0.168 0,-0.097 0.059,-0.166 0.059,-0.069 0.142,-0.069 0.09,0 0.138,0.073 0.04,0.062 0.04,0.169 M 0.11,-0.274 H 0.357 Q 0.348,-0.338 0.314,-0.369 0.28,-0.4 0.236,-0.4 0.193,-0.4 0.1575,-0.365 0.122,-0.33 0.11,-0.274 Z"
           id="path1443" />
      </g>
      <g
         transform="rotate(90,6.1650332,8.9665122)"
         id="g1447" />
    </g>
  </g>
</svg>
