<svg version="1.1" xmlns="http://www.w3.org/2000/svg" xmlns:xlink="http://www.w3.org/1999/xlink" width="660" height="660"><defs><clipPath id="aueFLrgUPatt"><path fill="none" stroke="none" d=" M 0 0 L 660 0 L 660 660 L 0 660 L 0 0 Z"/></clipPath></defs><g transform="scale(1,1)" clip-path="url(#aueFLrgUPatt)"><g transform="translate(5.684341886080802e-14,-55.84357541899436)"><rect fill="rgb(255,255,255)" stroke="none" x="0" y="0" width="1210" height="714" fill-opacity="1"/><path fill="rgb(0,0,0)" stroke="none" paint-order="stroke fill markers" fill-rule="evenodd" d=" M 329.45544554455455 378.9385474860335 L 329.45544554455455 390.9050279329608 L 581.0396039603962 390.9050279329608 L 581.0396039603962 402.8715083798882 L 628.9603960396041 384.92178770949715 L 581.0396039603962 366.9720670391061 L 581.0396039603962 378.9385474860334 Z" fill-opacity="1"/><path fill="rgb(0,0,0)" stroke="none" paint-order="stroke fill markers" fill-rule="evenodd" d=" M 323.4653465346536 684.0837988826815 L 335.4455445544555 684.0837988826815 L 335.4455445544555 133.6256983240223 L 347.4257425742575 133.6256983240223 L 329.45544554455455 85.75977653631281 L 311.4851485148516 133.6256983240223 L 323.4653465346535 133.6256983240223 Z" fill-opacity="1"/><path fill="none" stroke="rgb(0,0,0)" paint-order="fill stroke markers" d=" M 628.9603960396041 384.92178770949715 C 628.9603960396041 550.1444042091562 494.86746220179714 684.0837988826815 329.45544554455455 684.0837988826815 C 164.04342888731193 684.0837988826815 29.950495049504923 550.1444042091562 29.950495049504923 384.92178770949715 C 29.950495049504923 219.69917120983803 164.04342888731193 85.75977653631281 329.45544554455455 85.75977653631281 C 494.86746220179714 85.75977653631281 628.9603960396041 219.69917120983803 628.9603960396041 384.92178770949715 Z" stroke-opacity="0.6980392156862745" stroke-linecap="round" stroke-linejoin="round" stroke-miterlimit="10" stroke-width="1.5"/><path fill="none" stroke="rgb(0,0,0)" paint-order="fill stroke markers" d=" M 329.45544554455455 85.75977653631281 L 333.1305552614758 85.8498785408841 L 336.8034512297248 86.12013028051962 L 340.47192103410873 86.57036896567672 L 344.13375492559027 87.20032338940695 L 347.786747152358 88.00961409072107 L 351.4286972884887 88.99775358316185 L 355.05741155940166 90.16414664844797 L 358.6707041633064 91.50809069501122 L 362.2663985878482 93.02877618121113 L 365.8423289211572 94.72528710297297 L 369.39634115651336 96.59660154555411 L 372.92629448983917 98.64159229910734 L 376.43006260924005 100.8590275376697 L 379.90553497581527 103.24757156116885 L 383.3506180949674 105.80578559999844 L 386.7632367774455 108.53212868167924 L 390.14133538936125 111.4249585590834 L 393.482879090426 114.48253269966256 L 396.7858550596627 117.70300933508463 L 400.0482737078537 121.08444857064569 L 403.268169875995 124.62481355379049 L 406.4436040190345 128.32197170103586 L 409.57266337418173 132.17369598255965 L 412.6534631130841 136.17766626367987 L 415.6841474771775 140.33147070241725 L 418.66289089552544 144.63260720229863 L 421.58789908447517 149.07848491952637 L 424.45741012846685 153.66642582360575 L 427.2696955413454 158.3936663104902 L 430.0230613075363 163.25735886727333 L 432.7158489024569 168.25457378742422 L 435.34643629154994 173.38230093553278 L 437.91323890733617 178.6374515605031 L 440.4147106038987 184.01686015610142 L 442.8493445882237 189.5172863677388 L 445.21567432783576 195.13541694433954 L 447.51227443418253 200.8678677341197 L 449.7377615212353 206.71118572307364 L 451.8907950387893 212.66185111494065 L 453.9700780799605 218.71627945139826 L 455.9743581623944 224.87082377120635 L 457.90242798271413 231.12177680699983 L 459.7531261437552 237.46537321840813 L 461.5253378541473 243.89779186015537 L 463.2179955998236 250.41515808377548 L 464.83007978705047 257.0135460715552 L 466.36061935659325 263.68898120130046 L 467.8086923686458 270.4374424404996 L 469.17342655817265 277.2548647684434 L 470.45399986032874 284.1371416248414 L 471.6496409056406 291.08012738346 L 472.75962948465025 298.07963984929347 L 473.783296981743 305.1314627777608 L 474.720026777896 312.2313484144146 L 475.56925462210654 319.3750200536291 L 476.330468971276 326.55817461472805 L 477.00321129834407 333.7764852339992 L 477.5870763684884 341.02560387103557 L 478.0817124832228 348.3011639278322 L 478.4868216922474 355.5987828790615 L 478.8021599729228 362.914064911943 L 479.0275373772599 370.24260357411595 L 479.1628181463377 377.579984427922 L 479.20792079207934 384.92178770949715 L 479.1628181463377 392.26359099107225 L 479.0275373772599 399.60097184487836 L 478.8021599729228 406.92951050705125 L 478.4868216922475 414.24479253993275 L 478.0817124832228 421.5424114911621 L 477.5870763684884 428.8179715479587 L 477.00321129834407 436.0670901849951 L 476.330468971276 443.2854008042662 L 475.56925462210654 450.46855536536515 L 474.720026777896 457.6122270045797 L 473.783296981743 464.7121126412335 L 472.75962948465025 471.7639355697008 L 471.6496409056406 478.7634480355342 L 470.45399986032874 485.7064337941529 L 469.17342655817265 492.58871065055087 L 467.8086923686458 499.40613297849467 L 466.36061935659325 506.1545942176938 L 464.83007978705047 512.830029347439 L 463.21799559982355 519.4284173352189 L 461.5253378541474 525.9457835588389 L 459.7531261437552 532.3782022005862 L 457.90242798271413 538.7217986119945 L 455.9743581623944 544.9727516477878 L 453.97007807996056 551.127295967596 L 451.8907950387893 557.1817243040537 L 449.73776152123537 563.1323896959207 L 447.51227443418253 568.9757076848746 L 445.21567432783576 574.7081584746547 L 442.84934458822374 580.3262890512555 L 440.4147106038987 585.8267152628929 L 437.91323890733617 591.2061238584912 L 435.34643629154994 596.4612744834615 L 432.71584890245697 601.58900163157 L 430.0230613075363 606.5862165517209 L 427.2696955413454 611.4499091085041 L 424.45741012846685 616.1771495953885 L 421.5878990844752 620.7650904994679 L 418.66289089552544 625.2109682166956 L 415.6841474771775 629.512104716577 L 412.6534631130841 633.6659091553145 L 409.57266337418173 637.6698794364347 L 406.4436040190346 641.5216037179584 L 403.268169875995 645.2187618652038 L 400.04827370785375 648.7591268483486 L 396.78585505966277 652.1405660839097 L 393.482879090426 655.3610427193317 L 390.14133538936125 658.4186168599109 L 386.7632367774455 661.311446737315 L 383.35061809496744 664.0377898189959 L 379.90553497581527 666.5960038578254 L 376.43006260924005 668.9845478813246 L 372.92629448983917 671.201983119887 L 369.39634115651336 673.2469738734402 L 365.8423289211572 675.1182883160213 L 362.26639858784824 676.8147992377832 L 358.6707041633065 678.3354847239831 L 355.05741155940166 679.6794287705463 L 351.4286972884887 680.8458218358325 L 347.786747152358 681.8339613282733 L 344.13375492559027 682.6432520295873 L 340.47192103410873 683.2732064533176 L 336.8034512297248 683.7234451384747 L 333.1305552614758 683.9936968781102 L 329.45544554455455 684.0837988826815 L 325.78033582763334 683.9936968781102 L 322.10743985938433 683.7234451384747 L 318.43897005500037 683.2732064533176 L 314.7771361635189 682.6432520295873 L 311.1241439367511 681.8339613282733 L 307.48219380062045 680.8458218358325 L 303.8534795297075 679.6794287705463 L 300.2401869258026 678.3354847239831 L 296.6444925012609 676.8147992377832 L 293.0685621679519 675.1182883160213 L 289.51454993259574 673.2469738734402 L 285.98459659927 671.201983119887 L 282.4808284798691 668.9845478813246 L 279.00535611329383 666.5960038578255 L 275.5602729941417 664.0377898189959 L 272.14765431166364 661.311446737315 L 268.7695556997479 658.4186168599109 L 265.42801199868313 655.3610427193317 L 262.12503602944633 652.1405660839097 L 258.8626173812554 648.7591268483486 L 255.6427212131141 645.2187618652038 L 252.46728707007458 641.5216037179584 L 249.33822771492737 637.6698794364347 L 246.257427976025 633.6659091553145 L 243.22674361193162 629.512104716577 L 240.2480001935837 625.2109682166956 L 237.32299200463393 620.765090499468 L 234.45348096064228 616.1771495953886 L 231.64119554776372 611.4499091085042 L 228.8878297815728 606.586216551721 L 226.1950421866522 601.5890016315701 L 223.56445479755916 596.4612744834616 L 220.997652181773 591.2061238584912 L 218.4961804852104 585.826715262893 L 216.06154650088547 580.3262890512556 L 213.6952167612734 574.708158474655 L 211.39861665492663 568.9757076848748 L 209.17312956787373 563.1323896959206 L 207.0200960503198 557.1817243040537 L 204.9408130091486 551.127295967596 L 202.93653292671468 544.972751647788 L 201.00846310639494 538.7217986119945 L 199.1577649453539 532.3782022005862 L 197.38555323496175 525.9457835588389 L 195.69289548928552 519.4284173352189 L 194.0808113020587 512.8300293474392 L 192.5502717325159 506.154594217694 L 191.10219872046332 499.40613297849484 L 189.7374645309364 492.5887106505508 L 188.45689122878034 485.7064337941529 L 187.26125018346855 478.7634480355342 L 186.15126160445885 471.76393556970083 L 185.1275941073661 464.71211264123355 L 184.19086431121312 457.6122270045798 L 183.3416364670026 450.46855536536526 L 182.5804221178331 443.2854008042664 L 181.90767979076503 436.0670901849952 L 181.3238147206207 428.8179715479589 L 180.82917860588628 421.54241149116206 L 180.42406939686163 414.2447925399327 L 180.10873111618628 406.92951050705125 L 179.88335371184922 399.60097184487836 L 179.74807294277142 392.26359099107236 L 179.70297029702974 384.9217877094972 L 179.74807294277142 377.57998442792206 L 179.88335371184922 370.24260357411606 L 180.10873111618628 362.91406491194317 L 180.42406939686163 355.59878287906173 L 180.82917860588628 348.30116392783236 L 181.3238147206207 341.0256038710355 L 181.90767979076503 333.7764852339992 L 182.5804221178331 326.55817461472805 L 183.34163646700256 319.37502005362916 L 184.19086431121312 312.23134841441464 L 185.1275941073661 305.1314627777609 L 186.15126160445885 298.0796398492936 L 187.26125018346855 291.0801273834602 L 188.4568912287803 284.13714162484155 L 189.7374645309364 277.2548647684436 L 191.1021987204633 270.4374424404996 L 192.55027173251588 263.6889812013004 L 194.08081130205863 257.0135460715552 L 195.6928954892855 250.41515808377548 L 197.38555323496172 243.89779186015542 L 199.1577649453539 237.4653732184082 L 201.0084631063949 231.1217768069999 L 202.93653292671468 224.87082377120643 L 204.94081300914854 218.7162794513984 L 207.02009605031978 212.66185111494076 L 209.17312956787373 206.71118572307384 L 211.3986166549266 200.86786773411964 L 213.69521676127334 195.1354169443395 L 216.0615465008854 189.51728636773882 L 218.4961804852104 184.01686015610144 L 220.99765218177293 178.63745156050314 L 223.5644547975591 173.38230093553287 L 226.19504218665213 168.2545737874243 L 228.88782978157275 163.25735886727344 L 231.64119554776363 158.3936663104903 L 234.4534809606422 153.66642582360586 L 237.32299200463382 149.07848491952652 L 240.2480001935837 144.6326072022986 L 243.22674361193165 140.33147070241725 L 246.25742797602499 136.17766626367987 L 249.3382277149273 132.17369598255968 L 252.46728707007452 128.32197170103592 L 255.64272121311404 124.62481355379049 L 258.86261738125535 121.08444857064575 L 262.1250360294463 117.70300933508469 L 265.428011998683 114.48253269966267 L 268.7695556997478 111.42495855908345 L 272.14765431166353 108.53212868167935 L 275.5602729941417 105.80578559999844 L 279.0053561132939 103.24757156116885 L 282.48082847986905 100.8590275376697 L 285.98459659926993 98.64159229910734 L 289.51454993259574 96.59660154555411 L 293.0685621679519 94.72528710297297 L 296.64449250126086 93.02877618121113 L 300.2401869258026 91.50809069501122 L 303.8534795297074 90.16414664844802 L 307.48219380062034 88.99775358316185 L 311.1241439367511 88.00961409072107 L 314.7771361635189 87.20032338940695 L 318.43897005500037 86.57036896567672 L 322.1074398593843 86.12013028051962 L 325.7803358276333 85.8498785408841 L 329.4554455445545 85.75977653631281" stroke-opacity="0.6980392156862745" stroke-linecap="round" stroke-linejoin="round" stroke-miterlimit="10" stroke-width="1.5"/><path fill="none" stroke="rgb(0,0,0)" paint-order="fill stroke markers" d=" M 329.45544554455455 85.75977653631281 L 335.58062840609 85.8498785408841 L 341.702121686505 86.12013028051962 L 347.81623802714483 86.57036896567672 L 353.9192945129474 87.20032338940695 L 360.0076148908936 88.00961409072107 L 366.0775317844448 88.99775358316185 L 372.12538890263306 90.16414664844797 L 378.1475432424744 91.50809069501122 L 384.14036728337726 93.02877618121113 L 390.1002511722256 94.72528710297297 L 396.0236048978192 96.59660154555411 L 401.90686045336224 98.64159229910734 L 407.7464739856971 100.8590275376697 L 413.5389279299891 103.24757156116885 L 419.28073312857595 105.80578559999844 L 424.9684309327061 108.53212868167924 L 430.598595285899 111.4249585590834 L 436.16783478767366 114.48253269966256 L 441.67279473640156 117.70300933508463 L 447.11015915005316 121.08444857064569 L 452.476652763622 124.62481355379049 L 457.76904300202125 128.32197170103586 L 462.9841419272666 132.17369598255965 L 468.1188081587705 136.17766626367987 L 473.1699487655927 140.33147070241725 L 478.134521129506 144.63260720229863 L 483.0095347777556 149.07848491952637 L 487.79205318440836 153.66642582360575 L 492.479195539206 158.3936663104902 L 497.0681384828575 163.25735886727333 L 501.5561178077252 168.25457378742422 L 505.94043012288023 173.38230093553278 L 510.2184344825239 178.6374515605031 L 514.3875539767948 184.01686015610142 L 518.4452772840032 189.5172863677388 L 522.3891601833566 195.13541694433954 L 526.2168270272678 200.8678677341197 L 529.9259721723558 206.71118572307364 L 533.5143613682791 212.66185111494065 L 536.9798331035645 218.71627945139826 L 540.320299907621 224.87082377120635 L 543.5337496081539 231.12177680699983 L 546.6182465432223 237.46537321840813 L 549.5719327272093 243.89779186015537 L 552.393028970003 250.41515808377548 L 555.0798359487144 257.0135460715552 L 557.6307352312857 263.68898120130046 L 560.0441902513734 270.4374424404996 L 562.3187472339181 277.2548647684434 L 564.453036070845 284.1371416248414 L 566.4457711463646 291.08012738346 L 568.2957521113807 298.07963984929347 L 570.0018646065353 305.1314627777608 L 571.563080933457 312.2313484144146 L 572.9784606738078 319.3750200536291 L 574.247151255757 326.55817461472805 L 575.3683884675371 333.7764852339992 L 576.3414969177777 341.02560387103557 L 577.165890442335 348.3011639278322 L 577.8410724573761 355.5987828790615 L 578.3666362585017 362.914064911943 L 578.7422652657301 370.24260357411595 L 578.9677332141931 377.579984427922 L 579.0429042904293 384.92178770949715 L 578.9677332141931 392.26359099107225 L 578.7422652657301 399.60097184487836 L 578.3666362585017 406.92951050705125 L 577.8410724573761 414.24479253993275 L 577.165890442335 421.5424114911621 L 576.3414969177777 428.8179715479587 L 575.3683884675371 436.0670901849951 L 574.247151255757 443.2854008042662 L 572.9784606738078 450.46855536536515 L 571.563080933457 457.6122270045797 L 570.0018646065353 464.7121126412335 L 568.2957521113807 471.7639355697008 L 566.4457711463646 478.7634480355342 L 564.453036070845 485.7064337941529 L 562.3187472339181 492.58871065055087 L 560.0441902513734 499.40613297849467 L 557.6307352312857 506.1545942176938 L 555.0798359487144 512.830029347439 L 552.393028970003 519.4284173352189 L 549.5719327272093 525.9457835588389 L 546.6182465432223 532.3782022005862 L 543.5337496081539 538.7217986119945 L 540.320299907621 544.9727516477878 L 536.9798331035645 551.127295967596 L 533.5143613682791 557.1817243040537 L 529.9259721723558 563.1323896959207 L 526.2168270272679 568.9757076848746 L 522.3891601833566 574.7081584746547 L 518.4452772840032 580.3262890512555 L 514.3875539767948 585.8267152628929 L 510.2184344825239 591.2061238584912 L 505.94043012288023 596.4612744834615 L 501.55611780772523 601.58900163157 L 497.06813848285753 606.5862165517209 L 492.479195539206 611.4499091085041 L 487.79205318440836 616.1771495953885 L 483.0095347777557 620.7650904994679 L 478.134521129506 625.2109682166956 L 473.1699487655928 629.512104716577 L 468.1188081587705 633.6659091553145 L 462.9841419272666 637.6698794364347 L 457.76904300202125 641.5216037179584 L 452.47665276362204 645.2187618652038 L 447.1101591500533 648.7591268483486 L 441.6727947364016 652.1405660839097 L 436.16783478767366 655.3610427193317 L 430.598595285899 658.4186168599109 L 424.96843093270616 661.311446737315 L 419.280733128576 664.0377898189959 L 413.5389279299891 666.5960038578254 L 407.74647398569704 668.9845478813246 L 401.90686045336224 671.201983119887 L 396.02360489781927 673.2469738734402 L 390.1002511722257 675.1182883160213 L 384.1403672833773 676.8147992377832 L 378.14754324247446 678.3354847239831 L 372.12538890263306 679.6794287705463 L 366.0775317844448 680.8458218358325 L 360.00761489089365 681.8339613282733 L 353.91929451294743 682.6432520295873 L 347.8162380271449 683.2732064533176 L 341.702121686505 683.7234451384747 L 335.58062840609 683.9936968781102 L 329.4554455445546 684.0837988826815 L 323.33026268301916 683.9936968781102 L 317.20876940260416 683.7234451384747 L 311.09465306196427 683.2732064533176 L 304.9915965761617 682.6432520295873 L 298.9032761982155 681.8339613282733 L 292.8333593046644 680.8458218358325 L 286.7855021864761 679.6794287705463 L 280.7633478466347 678.3354847239831 L 274.77052380573184 676.8147992377832 L 268.8106399168835 675.1182883160213 L 262.8872861912899 673.2469738734402 L 257.004030635747 671.201983119887 L 251.16441710341212 668.9845478813246 L 245.37196315912004 666.5960038578255 L 239.63015796053315 664.0377898189959 L 233.942460156403 661.311446737315 L 228.31229580321013 658.4186168599109 L 222.7430563014355 655.3610427193317 L 217.23809635270754 652.1405660839097 L 211.80073193905594 648.7591268483486 L 206.43423832548712 645.2187618652038 L 201.14184808708788 641.5216037179584 L 195.9267491618426 637.6698794364347 L 190.79208293033867 633.6659091553145 L 185.74094232351635 629.512104716577 L 180.77636995960313 625.2109682166956 L 175.90135631135348 620.765090499468 L 171.11883790470077 616.1771495953886 L 166.43169554990314 611.4499091085042 L 161.8427526062516 606.586216551721 L 157.3547732813839 601.5890016315701 L 152.97046096622887 596.4612744834616 L 148.69245660658524 591.2061238584912 L 144.5233371123143 585.826715262893 L 140.46561380510605 580.3262890512556 L 136.5217309057526 574.708158474655 L 132.69406406184135 568.9757076848748 L 128.98491891675317 563.1323896959206 L 125.39652972082996 557.1817243040537 L 121.93105798554461 551.127295967596 L 118.5905911814881 544.972751647788 L 115.3771414809552 538.7217986119945 L 112.29264454588682 532.3782022005862 L 109.33895836189987 525.9457835588389 L 106.51786211910613 519.4284173352189 L 103.83105514039477 512.8300293474392 L 101.28015585782344 506.154594217694 L 98.86670083773583 499.40613297849484 L 96.59214385519098 492.5887106505508 L 94.45785501826418 485.7064337941529 L 92.46511994274454 478.7634480355342 L 90.6151389777284 471.76393556970083 L 88.90902648257378 464.71211264123355 L 87.34781015565218 457.6122270045798 L 85.93243041530124 450.46855536536526 L 84.66373983335217 443.2854008042664 L 83.54250262157203 436.0670901849952 L 82.56939417133148 428.8179715479589 L 81.74500064677406 421.54241149116206 L 81.069818631733 414.2447925399327 L 80.54425483060743 406.92951050705125 L 80.16862582337899 399.60097184487836 L 79.94315787491601 392.26359099107236 L 79.86798679867985 384.9217877094972 L 79.94315787491601 377.57998442792206 L 80.16862582337899 370.24260357411606 L 80.54425483060743 362.91406491194317 L 81.069818631733 355.59878287906173 L 81.74500064677406 348.30116392783236 L 82.56939417133148 341.0256038710355 L 83.542502621572 333.7764852339992 L 84.66373983335214 326.55817461472805 L 85.93243041530124 319.37502005362916 L 87.34781015565218 312.23134841441464 L 88.90902648257375 305.1314627777609 L 90.61513897772838 298.0796398492936 L 92.46511994274451 291.0801273834602 L 94.45785501826415 284.13714162484155 L 96.59214385519095 277.2548647684436 L 98.86670083773578 270.4374424404996 L 101.28015585782342 263.6889812013004 L 103.83105514039471 257.0135460715552 L 106.51786211910613 250.41515808377548 L 109.33895836189984 243.89779186015542 L 112.29264454588679 237.4653732184082 L 115.37714148095517 231.1217768069999 L 118.5905911814881 224.87082377120643 L 121.93105798554456 218.7162794513984 L 125.39652972082993 212.66185111494076 L 128.98491891675314 206.71118572307384 L 132.6940640618413 200.86786773411964 L 136.52173090575258 195.1354169443395 L 140.46561380510596 189.51728636773882 L 144.52333711231427 184.01686015610144 L 148.6924566065852 178.63745156050314 L 152.97046096622884 173.38230093553287 L 157.35477328138384 168.2545737874243 L 161.84275260625154 163.25735886727344 L 166.43169554990303 158.3936663104903 L 171.1188379047006 153.66642582360586 L 175.90135631135334 149.07848491952652 L 180.77636995960313 144.6326072022986 L 185.74094232351638 140.33147070241725 L 190.7920829303386 136.17766626367987 L 195.9267491618425 132.17369598255968 L 201.1418480870878 128.32197170103592 L 206.43423832548706 124.62481355379049 L 211.80073193905582 121.08444857064575 L 217.23809635270746 117.70300933508469 L 222.7430563014353 114.48253269966267 L 228.31229580320996 111.42495855908345 L 233.94246015640283 108.53212868167935 L 239.63015796053315 105.80578559999844 L 245.37196315912007 103.24757156116885 L 251.16441710341203 100.8590275376697 L 257.00403063574686 98.64159229910734 L 262.88728619128983 96.59660154555411 L 268.8106399168834 94.72528710297297 L 274.7705238057317 93.02877618121113 L 280.7633478466346 91.50809069501122 L 286.7855021864759 90.16414664844802 L 292.83335930466416 88.99775358316185 L 298.90327619821556 88.00961409072107 L 304.9915965761618 87.20032338940695 L 311.09465306196427 86.57036896567672 L 317.20876940260405 86.12013028051962 L 323.33026268301904 85.8498785408841 L 329.4554455445545 85.75977653631281" stroke-opacity="0.6980392156862745" stroke-linecap="round" stroke-linejoin="round" stroke-miterlimit="10" stroke-width="1.5"/><path fill="none" stroke="rgb(0,0,0)" paint-order="fill stroke markers" d=" M 329.45544554455455 85.75977653631281 L 330.68048211686164 85.8498785408841 L 331.90478077294466 86.12013028051962 L 333.12760404107263 86.57036896567672 L 334.3482153382331 87.20032338940695 L 335.56587941382236 88.00961409072107 L 336.7798627925326 88.99775358316185 L 337.98943421617025 90.16414664844797 L 339.1938650841385 91.50809069501122 L 340.3924298923191 93.02877618121113 L 341.58440667008875 94.72528710297297 L 342.7690774152075 96.59660154555411 L 343.9457285263161 98.64159229910734 L 345.11365123278307 100.8590275376697 L 346.27214202164146 103.24757156116885 L 347.42050306135883 105.80578559999844 L 348.55804262218487 108.53212868167924 L 349.68407549282347 111.4249585590834 L 350.7979233931784 114.48253269966256 L 351.8989153829239 117.70300933508463 L 352.9863882656543 121.08444857064569 L 354.059686988368 124.62481355379049 L 355.1181650360479 128.32197170103586 L 356.1611848210969 132.17369598255965 L 357.18811806739774 136.17766626367987 L 358.1983461887622 140.33147070241725 L 359.19126066154485 144.63260720229863 L 360.1662633911948 149.07848491952637 L 361.12276707252533 153.66642582360575 L 362.06019554348484 158.3936663104902 L 362.9779841322151 163.25735886727333 L 363.87557999718865 168.25457378742422 L 364.7524424602197 173.38230093553278 L 365.60804333214844 178.6374515605031 L 366.4418672310026 184.01686015610142 L 367.25341189244426 189.5172863677388 L 368.04218847231493 195.13541694433954 L 368.8077218410972 200.8678677341197 L 369.5495508701148 206.71118572307364 L 370.26722870929945 212.66185111494065 L 370.9603230563565 218.71627945139826 L 371.62841641716784 224.87082377120635 L 372.27110635727445 231.12177680699983 L 372.8880057442881 237.46537321840813 L 373.4787429810855 243.89779186015537 L 374.0429622296442 250.41515808377548 L 374.58032362538654 257.0135460715552 L 375.0905034819008 263.68898120130046 L 375.5731944859183 270.4374424404996 L 376.02810588242727 277.2548647684434 L 376.4549636498126 284.1371416248414 L 376.85351066491654 291.08012738346 L 377.2235068579198 298.07963984929347 L 377.5647293569507 305.1314627777608 L 377.876972622335 312.2313484144146 L 378.1600485704052 319.3750200536291 L 378.41378668679505 326.55817461472805 L 378.63803412915104 333.7764852339992 L 378.83265581919915 341.02560387103557 L 378.9975345241106 348.3011639278322 L 379.1325709271189 355.5987828790615 L 379.237683687344 362.914064911943 L 379.31280948878964 370.24260357411595 L 379.35790307848225 377.579984427922 L 379.3729372937295 384.92178770949715 L 379.35790307848225 392.26359099107225 L 379.31280948878964 399.60097184487836 L 379.237683687344 406.92951050705125 L 379.1325709271189 414.24479253993275 L 378.9975345241106 421.5424114911621 L 378.83265581919915 428.8179715479587 L 378.63803412915104 436.0670901849951 L 378.41378668679505 443.2854008042662 L 378.1600485704052 450.46855536536515 L 377.876972622335 457.6122270045797 L 377.5647293569507 464.7121126412335 L 377.2235068579198 471.7639355697008 L 376.85351066491654 478.7634480355342 L 376.4549636498126 485.7064337941529 L 376.02810588242727 492.58871065055087 L 375.5731944859183 499.40613297849467 L 375.0905034819008 506.1545942176938 L 374.58032362538654 512.830029347439 L 374.0429622296442 519.4284173352189 L 373.4787429810855 525.9457835588389 L 372.8880057442881 532.3782022005862 L 372.27110635727445 538.7217986119945 L 371.62841641716784 544.9727516477878 L 370.9603230563565 551.127295967596 L 370.26722870929945 557.1817243040537 L 369.5495508701148 563.1323896959207 L 368.8077218410972 568.9757076848746 L 368.04218847231493 574.7081584746547 L 367.25341189244426 580.3262890512555 L 366.4418672310026 585.8267152628929 L 365.60804333214844 591.2061238584912 L 364.7524424602197 596.4612744834615 L 363.8755799971887 601.58900163157 L 362.97798413221517 606.5862165517209 L 362.06019554348484 611.4499091085041 L 361.12276707252533 616.1771495953885 L 360.1662633911948 620.7650904994679 L 359.19126066154485 625.2109682166956 L 358.1983461887622 629.512104716577 L 357.18811806739774 633.6659091553145 L 356.1611848210969 637.6698794364347 L 355.1181650360479 641.5216037179584 L 354.05968698836807 645.2187618652038 L 352.9863882656543 648.7591268483486 L 351.898915382924 652.1405660839097 L 350.7979233931784 655.3610427193317 L 349.68407549282347 658.4186168599109 L 348.55804262218487 661.311446737315 L 347.42050306135883 664.0377898189959 L 346.27214202164146 666.5960038578254 L 345.11365123278307 668.9845478813246 L 343.9457285263161 671.201983119887 L 342.7690774152075 673.2469738734402 L 341.58440667008875 675.1182883160213 L 340.3924298923191 676.8147992377832 L 339.1938650841385 678.3354847239831 L 337.98943421617025 679.6794287705463 L 336.7798627925326 680.8458218358325 L 335.56587941382236 681.8339613282733 L 334.3482153382331 682.6432520295873 L 333.12760404107263 683.2732064533176 L 331.90478077294466 683.7234451384747 L 330.68048211686164 683.9936968781102 L 329.45544554455455 684.0837988826815 L 328.23040897224746 683.9936968781102 L 327.0061103161645 683.7234451384747 L 325.78328704803647 683.2732064533176 L 324.562675750876 682.6432520295873 L 323.34501167528674 681.8339613282733 L 322.1310282965765 680.8458218358325 L 320.92145687293885 679.6794287705463 L 319.7170260049706 678.3354847239831 L 318.51846119679 676.8147992377832 L 317.32648441902035 675.1182883160213 L 316.1418136739016 673.2469738734402 L 314.965162562793 671.201983119887 L 313.7972398563261 668.9845478813246 L 312.63874906746764 666.5960038578255 L 311.49038802775027 664.0377898189959 L 310.35284846692423 661.311446737315 L 309.2268155962857 658.4186168599109 L 308.11296769593076 655.3610427193317 L 307.0119757061851 652.1405660839097 L 305.9245028234548 648.7591268483486 L 304.8512041007411 645.2187618652038 L 303.79272605306124 641.5216037179584 L 302.7497062680122 637.6698794364347 L 301.72277302171136 633.6659091553145 L 300.7125449003469 629.512104716577 L 299.71963042756425 625.2109682166956 L 298.7446276979143 620.765090499468 L 297.7881240165838 616.1771495953886 L 296.85069554562426 611.4499091085042 L 295.932906956894 606.586216551721 L 295.03531109192045 601.5890016315701 L 294.1584486288894 596.4612744834616 L 293.30284775696066 591.2061238584912 L 292.4690238581065 585.826715262893 L 291.65747919666484 580.3262890512556 L 290.86870261679417 574.708158474655 L 290.1031692480119 568.9757076848748 L 289.3613402189943 563.1323896959206 L 288.64366237980965 557.1817243040537 L 287.9505680327526 551.127295967596 L 287.28247467194126 544.972751647788 L 286.63978473183465 538.7217986119945 L 286.022885344821 532.3782022005862 L 285.4321481080236 525.9457835588389 L 284.8679288594649 519.4284173352189 L 284.3305674637226 512.8300293474392 L 283.8203876072083 506.154594217694 L 283.3376966031908 499.40613297849484 L 282.88278520668183 492.5887106505508 L 282.4559274392965 485.7064337941529 L 282.05738042419256 478.7634480355342 L 281.6873842311893 471.76393556970083 L 281.3461617321584 464.71211264123355 L 281.0339184667741 457.6122270045798 L 280.7508425187039 450.46855536536526 L 280.49710440231405 443.2854008042664 L 280.27285695995806 436.0670901849952 L 280.07823526990995 428.8179715479589 L 279.9133565649985 421.54241149116206 L 279.7783201619902 414.2447925399327 L 279.6732074017651 406.92951050705125 L 279.59808160031946 399.60097184487836 L 279.55298801062685 392.26359099107236 L 279.5379537953796 384.9217877094972 L 279.55298801062685 377.57998442792206 L 279.59808160031946 370.24260357411606 L 279.6732074017651 362.91406491194317 L 279.7783201619902 355.59878287906173 L 279.9133565649985 348.30116392783236 L 280.07823526990995 341.0256038710355 L 280.27285695995806 333.7764852339992 L 280.49710440231405 326.55817461472805 L 280.7508425187039 319.37502005362916 L 281.0339184667741 312.23134841441464 L 281.3461617321584 305.1314627777609 L 281.6873842311893 298.0796398492936 L 282.05738042419256 291.0801273834602 L 282.4559274392965 284.13714162484155 L 282.88278520668183 277.2548647684436 L 283.3376966031908 270.4374424404996 L 283.8203876072083 263.6889812013004 L 284.33056746372256 257.0135460715552 L 284.8679288594649 250.41515808377548 L 285.4321481080236 243.89779186015542 L 286.022885344821 237.4653732184082 L 286.63978473183465 231.1217768069999 L 287.28247467194126 224.87082377120643 L 287.9505680327526 218.7162794513984 L 288.6436623798096 212.66185111494076 L 289.36134021899426 206.71118572307384 L 290.1031692480119 200.86786773411964 L 290.86870261679417 195.1354169443395 L 291.65747919666484 189.51728636773882 L 292.4690238581065 184.01686015610144 L 293.30284775696066 178.63745156050314 L 294.1584486288894 173.38230093553287 L 295.0353110919204 168.2545737874243 L 295.93290695689393 163.25735886727344 L 296.85069554562426 158.3936663104903 L 297.78812401658377 153.66642582360586 L 298.7446276979143 149.07848491952652 L 299.71963042756425 144.6326072022986 L 300.7125449003469 140.33147070241725 L 301.72277302171136 136.17766626367987 L 302.7497062680121 132.17369598255968 L 303.7927260530612 128.32197170103592 L 304.85120410074103 124.62481355379049 L 305.9245028234548 121.08444857064575 L 307.0119757061851 117.70300933508469 L 308.1129676959307 114.48253269966267 L 309.22681559628563 111.42495855908345 L 310.35284846692423 108.53212868167935 L 311.49038802775027 105.80578559999844 L 312.63874906746764 103.24757156116885 L 313.79723985632603 100.8590275376697 L 314.965162562793 98.64159229910734 L 316.1418136739016 96.59660154555411 L 317.32648441902035 94.72528710297297 L 318.51846119679 93.02877618121113 L 319.7170260049706 91.50809069501122 L 320.92145687293885 90.16414664844802 L 322.13102829657646 88.99775358316185 L 323.34501167528674 88.00961409072107 L 324.562675750876 87.20032338940695 L 325.78328704803647 86.57036896567672 L 327.00611031616444 86.12013028051962 L 328.23040897224746 85.8498785408841 L 329.45544554455455 85.75977653631281" stroke-opacity="0.6980392156862745" stroke-linecap="round" stroke-linejoin="round" stroke-miterlimit="10" stroke-width="1.5"/><path fill="none" stroke="rgb(0,0,0)" paint-order="fill stroke markers" d=" M 163.89785493687987 135.62011173184354 L 495.01303615222923 135.62011173184354" stroke-opacity="0.6980392156862745" stroke-linecap="round" stroke-linejoin="round" stroke-miterlimit="10" stroke-width="1.5"/><path fill="none" stroke="rgb(0,0,0)" paint-order="fill stroke markers" d=" M 70.0765498566409 235.34078212290498 L 588.8343412324682 235.34078212290498" stroke-opacity="0.6980392156862745" stroke-linecap="round" stroke-linejoin="round" stroke-miterlimit="10" stroke-width="1.5"/><path fill="none" stroke="rgb(0,0,0)" paint-order="fill stroke markers" d=" M 34.13958178421882 335.0614525139664 L 624.7713093048903 335.0614525139664" stroke-opacity="0.6980392156862745" stroke-linecap="round" stroke-linejoin="round" stroke-miterlimit="10" stroke-width="1.5"/><path fill="none" stroke="rgb(0,0,0)" paint-order="fill stroke markers" d=" M 34.13958178421882 434.7821229050279 L 624.7713093048903 434.7821229050279" stroke-opacity="0.6980392156862745" stroke-linecap="round" stroke-linejoin="round" stroke-miterlimit="10" stroke-width="1.5"/><path fill="none" stroke="rgb(0,0,0)" paint-order="fill stroke markers" d=" M 70.0765498566409 534.5027932960893 L 588.8343412324682 534.5027932960893" stroke-opacity="0.6980392156862745" stroke-linecap="round" stroke-linejoin="round" stroke-miterlimit="10" stroke-width="1.5"/><path fill="none" stroke="rgb(0,0,0)" paint-order="fill stroke markers" d=" M 163.89785493687987 634.2234636871508 L 495.01303615222923 634.2234636871508" stroke-opacity="0.6980392156862745" stroke-linecap="round" stroke-linejoin="round" stroke-miterlimit="10" stroke-width="1.5"/><path fill="none" stroke="rgb(0,0,0)" paint-order="fill stroke markers" d=" M 811.5 118.5 L 1011.5 118.5" stroke-opacity="0.39215686274509803" stroke-linecap="round" stroke-linejoin="round" stroke-miterlimit="10" stroke-width="5"/><path fill="rgb(0,0,0)" stroke="none" paint-order="stroke fill markers" d=" M 1019.9999999999999 118.5 C 1019.9999999999999 123.19442037356174 1016.1944203735617 127 1011.4999999999999 127 C 1006.8055796264381 127 1002.9999999999999 123.19442037356174 1002.9999999999999 118.5 C 1002.9999999999999 113.80557962643826 1006.8055796264381 110 1011.4999999999999 110 C 1016.1944203735617 110 1019.9999999999999 113.80557962643826 1019.9999999999999 118.5 Z" fill-opacity="0.39215686274509803"/><path fill="none" stroke="rgb(0,0,0)" paint-order="fill stroke markers" d=" M 1019.9999999999999 118.5 C 1019.9999999999999 123.19442037356174 1016.1944203735617 127 1011.4999999999999 127 C 1006.8055796264381 127 1002.9999999999999 123.19442037356174 1002.9999999999999 118.5 C 1002.9999999999999 113.80557962643826 1006.8055796264381 110 1011.4999999999999 110 C 1016.1944203735617 110 1019.9999999999999 113.80557962643826 1019.9999999999999 118.5 Z" stroke-opacity="0.39215686274509803" stroke-linecap="round" stroke-linejoin="round" stroke-miterlimit="10"/><path fill="rgb(0,0,0)" stroke="none" paint-order="stroke fill markers" d=" M 1016.9999999999999 118.5 C 1016.9999999999999 121.53756612406936 1014.5375661240693 124 1011.4999999999999 124 C 1008.4624338759305 124 1005.9999999999999 121.53756612406936 1005.9999999999999 118.5 C 1005.9999999999999 115.46243387593064 1008.4624338759305 113 1011.4999999999999 113 C 1014.5375661240693 113 1016.9999999999999 115.46243387593064 1016.9999999999999 118.5 Z" fill-opacity="1"/><path fill="none" stroke="rgb(0,0,0)" paint-order="fill stroke markers" d=" M 1016.9999999999999 118.5 C 1016.9999999999999 121.53756612406936 1014.5375661240693 124 1011.4999999999999 124 C 1008.4624338759305 124 1005.9999999999999 121.53756612406936 1005.9999999999999 118.5 C 1005.9999999999999 115.46243387593064 1008.4624338759305 113 1011.4999999999999 113 C 1014.5375661240693 113 1016.9999999999999 115.46243387593064 1016.9999999999999 118.5 Z" stroke-opacity="1" stroke-linecap="round" stroke-linejoin="round" stroke-miterlimit="10"/><text fill="none" stroke="rgb(255,255,255)" font-family="geogebra-sans-serif, sans-serif" font-size="12px" font-style="normal" font-weight="normal" text-decoration="normal" x="1000" y="103" text-anchor="start" dominant-baseline="alphabetic" stroke-opacity="1" stroke-linecap="round" stroke-linejoin="bevel" stroke-miterlimit="10" stroke-width="3">Pixels = 300</text><text fill="rgb(0,0,0)" stroke="none" font-family="geogebra-sans-serif, sans-serif" font-size="12px" font-style="normal" font-weight="normal" text-decoration="normal" x="1000" y="103" text-anchor="start" dominant-baseline="alphabetic" fill-opacity="1">Pixels = 300</text><path fill="none" stroke="rgb(0,0,0)" paint-order="fill stroke markers" d=" M 839.5 327.5 L 1039.5 327.5" stroke-opacity="0.39215686274509803" stroke-linecap="round" stroke-linejoin="round" stroke-miterlimit="10" stroke-width="5"/><path fill="rgb(0,0,0)" stroke="none" paint-order="stroke fill markers" d=" M 928 327.5 C 928 332.19442037356174 924.1944203735618 336 919.5 336 C 914.8055796264382 336 911 332.19442037356174 911 327.5 C 911 322.80557962643826 914.8055796264382 319 919.5 319 C 924.1944203735618 319 928 322.80557962643826 928 327.5 Z" fill-opacity="0.39215686274509803"/><path fill="none" stroke="rgb(0,0,0)" paint-order="fill stroke markers" d=" M 928 327.5 C 928 332.19442037356174 924.1944203735618 336 919.5 336 C 914.8055796264382 336 911 332.19442037356174 911 327.5 C 911 322.80557962643826 914.8055796264382 319 919.5 319 C 924.1944203735618 319 928 322.80557962643826 928 327.5 Z" stroke-opacity="0.39215686274509803" stroke-linecap="round" stroke-linejoin="round" stroke-miterlimit="10"/><path fill="rgb(0,0,0)" stroke="none" paint-order="stroke fill markers" d=" M 925 327.5 C 925 330.5375661240694 922.5375661240694 333 919.5 333 C 916.4624338759306 333 914 330.5375661240694 914 327.5 C 914 324.4624338759306 916.4624338759306 322 919.5 322 C 922.5375661240694 322 925 324.4624338759306 925 327.5 Z" fill-opacity="1"/><path fill="none" stroke="rgb(0,0,0)" paint-order="fill stroke markers" d=" M 925 327.5 C 925 330.5375661240694 922.5375661240694 333 919.5 333 C 916.4624338759306 333 914 330.5375661240694 914 327.5 C 914 324.4624338759306 916.4624338759306 322 919.5 322 C 922.5375661240694 322 925 324.4624338759306 925 327.5 Z" stroke-opacity="1" stroke-linecap="round" stroke-linejoin="round" stroke-miterlimit="10"/><text fill="none" stroke="rgb(255,255,255)" font-family="geogebra-sans-serif, sans-serif" font-size="12px" font-style="normal" font-weight="normal" text-decoration="normal" x="908" y="312" text-anchor="start" dominant-baseline="alphabetic" stroke-opacity="1" stroke-linecap="round" stroke-linejoin="bevel" stroke-miterlimit="10" stroke-width="3">ArrowScale = 0.04</text><text fill="rgb(0,0,0)" stroke="none" font-family="geogebra-sans-serif, sans-serif" font-size="12px" font-style="normal" font-weight="normal" text-decoration="normal" x="908" y="312" text-anchor="start" dominant-baseline="alphabetic" fill-opacity="1">ArrowScale = 0.04</text><text fill="rgb(0,0,0)" stroke="none" font-family="geogebra-sans-serif, sans-serif" font-size="12px" font-style="normal" font-weight="normal" text-decoration="normal" x="1021" y="367" text-anchor="start" dominant-baseline="alphabetic" fill-opacity="1">Saturation</text><g transform="scale(15,15)"><g transform="translate(68.43333333333334,30.20555633598243)"><path fill="rgb(0,0,0)" stroke="none" paint-order="stroke fill markers" d=" M 0.465 -0.666 L 0.45 -0.586 Q 0.374 -0.65 0.281 -0.65 Q 0.215 -0.65 0.17500000000000002 -0.614 Q 0.135 -0.578 0.135 -0.531 Q 0.135 -0.482 0.17 -0.452 Q 0.191 -0.434 0.209 -0.4265 Q 0.227 -0.419 0.274 -0.40800000000000003 Q 0.35000000000000003 -0.389 0.3815 -0.375 Q 0.41300000000000003 -0.361 0.446 -0.326 Q 0.499 -0.268 0.499 -0.189 Q 0.499 -0.10400000000000001 0.435 -0.041 Q 0.371 0.022 0.275 0.022 Q 0.154 0.022 0.044 -0.047 L 0.059000000000000004 -0.128 Q 0.155 -0.047 0.274 -0.047 Q 0.339 -0.047 0.3795 -0.08700000000000001 Q 0.42 -0.127 0.42 -0.179 Q 0.42 -0.23600000000000002 0.378 -0.272 Q 0.357 -0.29 0.3385 -0.2975 Q 0.32 -0.305 0.255 -0.321 Q 0.202 -0.334 0.1705 -0.34750000000000003 Q 0.139 -0.361 0.11 -0.392 Q 0.056 -0.449 0.056 -0.519 Q 0.056 -0.597 0.11900000000000001 -0.6565 Q 0.182 -0.716 0.28200000000000003 -0.716 Q 0.382 -0.716 0.465 -0.666 Z"/></g><g transform="translate(68.98889033333333,30.20555633598243)"><path fill="rgb(0,0,0)" stroke="none" paint-order="stroke fill markers" d=" M 0.399 -0.289 L 0.399 0 L 0.324 0 L 0.324 -0.036000000000000004 Q 0.263 0.011 0.158 0.011 Q 0.1 0.011 0.07200000000000001 -0.029500000000000002 Q 0.044 -0.07 0.044 -0.113 Q 0.044 -0.176 0.1225 -0.2095 Q 0.201 -0.243 0.321 -0.245 L 0.321 -0.28800000000000003 Q 0.321 -0.341 0.296 -0.3715 Q 0.271 -0.402 0.234 -0.402 Q 0.153 -0.402 0.083 -0.352 L 0.077 -0.418 Q 0.152 -0.461 0.234 -0.461 Q 0.304 -0.461 0.35150000000000003 -0.41250000000000003 Q 0.399 -0.364 0.399 -0.289 M 0.321 -0.132 L 0.321 -0.194 Q 0.116 -0.184 0.116 -0.115 Q 0.116 -0.085 0.14350000000000002 -0.0675 Q 0.171 -0.05 0.209 -0.05 Q 0.256 -0.05 0.28700000000000003 -0.069 Q 0.321 -0.088 0.321 -0.132 Z"/></g><g transform="translate(69.46944733333333,30.20555633598243)"><path fill="rgb(0,0,0)" stroke="none" paint-order="stroke fill markers" d=" M 0.17500000000000002 -0.386 L 0.17500000000000002 -0.136 Q 0.17500000000000002 -0.053 0.226 -0.053 Q 0.275 -0.053 0.316 -0.08600000000000001 L 0.332 -0.027 Q 0.259 0.011 0.186 0.011 Q 0.10300000000000001 0.011 0.10300000000000001 -0.11900000000000001 L 0.10300000000000001 -0.386 L 0.019 -0.386 L 0.019 -0.444 L 0.106 -0.444 L 0.106 -0.5710000000000001 L 0.17500000000000002 -0.5710000000000001 L 0.17500000000000002 -0.444 L 0.316 -0.444 L 0.316 -0.386 L 0.17500000000000002 -0.386 Z"/></g><g transform="translate(69.83055933333334,30.20555633598243)"><path fill="rgb(0,0,0)" stroke="none" paint-order="stroke fill markers" d=" M 0.435 -0.444 L 0.435 0 L 0.36 0 L 0.36 -0.048 Q 0.293 0.011 0.187 0.011 Q 0.128 0.011 0.1045 -0.0195 Q 0.081 -0.05 0.081 -0.109 L 0.081 -0.444 L 0.159 -0.444 L 0.159 -0.113 Q 0.159 -0.076 0.17350000000000002 -0.06 Q 0.188 -0.044 0.23700000000000002 -0.044 Q 0.28800000000000003 -0.044 0.3225 -0.0725 Q 0.357 -0.101 0.357 -0.154 L 0.357 -0.444 L 0.435 -0.444 Z"/></g><g transform="translate(70.34722733333334,30.20555633598243)"><path fill="rgb(0,0,0)" stroke="none" paint-order="stroke fill markers" d=" M 0.157 -0.214 L 0.157 0 L 0.082 0 L 0.082 -0.45 L 0.152 -0.45 L 0.152 -0.359 Q 0.216 -0.454 0.327 -0.455 L 0.327 -0.388 Q 0.253 -0.386 0.20500000000000002 -0.3375 Q 0.157 -0.289 0.157 -0.214 Z"/></g><g transform="translate(70.70278433333334,30.20555633598243)"><path fill="rgb(0,0,0)" stroke="none" paint-order="stroke fill markers" d=" M 0.399 -0.289 L 0.399 0 L 0.324 0 L 0.324 -0.036000000000000004 Q 0.263 0.011 0.158 0.011 Q 0.1 0.011 0.07200000000000001 -0.029500000000000002 Q 0.044 -0.07 0.044 -0.113 Q 0.044 -0.176 0.1225 -0.2095 Q 0.201 -0.243 0.321 -0.245 L 0.321 -0.28800000000000003 Q 0.321 -0.341 0.296 -0.3715 Q 0.271 -0.402 0.234 -0.402 Q 0.153 -0.402 0.083 -0.352 L 0.077 -0.418 Q 0.152 -0.461 0.234 -0.461 Q 0.304 -0.461 0.35150000000000003 -0.41250000000000003 Q 0.399 -0.364 0.399 -0.289 M 0.321 -0.132 L 0.321 -0.194 Q 0.116 -0.184 0.116 -0.115 Q 0.116 -0.085 0.14350000000000002 -0.0675 Q 0.171 -0.05 0.209 -0.05 Q 0.256 -0.05 0.28700000000000003 -0.069 Q 0.321 -0.088 0.321 -0.132 Z"/></g><g transform="translate(71.18334133333335,30.20555633598243)"><path fill="rgb(0,0,0)" stroke="none" paint-order="stroke fill markers" d=" M 0.17500000000000002 -0.386 L 0.17500000000000002 -0.136 Q 0.17500000000000002 -0.053 0.226 -0.053 Q 0.275 -0.053 0.316 -0.08600000000000001 L 0.332 -0.027 Q 0.259 0.011 0.186 0.011 Q 0.10300000000000001 0.011 0.10300000000000001 -0.11900000000000001 L 0.10300000000000001 -0.386 L 0.019 -0.386 L 0.019 -0.444 L 0.106 -0.444 L 0.106 -0.5710000000000001 L 0.17500000000000002 -0.5710000000000001 L 0.17500000000000002 -0.444 L 0.316 -0.444 L 0.316 -0.386 L 0.17500000000000002 -0.386 Z"/></g><g transform="translate(71.54445333333335,30.20555633598243)"><path fill="rgb(0,0,0)" stroke="none" paint-order="stroke fill markers" d=" M 0.163 -0.68 L 0.163 -0.591 L 0.074 -0.591 L 0.074 -0.68 L 0.163 -0.68 M 0.156 -0.444 L 0.156 0 L 0.081 0 L 0.081 -0.444 L 0.156 -0.444 Z"/></g><g transform="translate(71.78334333333335,30.20555633598243)"><path fill="rgb(0,0,0)" stroke="none" paint-order="stroke fill markers" d=" M 0.46900000000000003 -0.22 Q 0.46900000000000003 -0.123 0.4045 -0.056 Q 0.34 0.011 0.249 0.011 Q 0.16 0.011 0.095 -0.0555 Q 0.03 -0.122 0.03 -0.22 Q 0.03 -0.319 0.094 -0.39 Q 0.158 -0.461 0.25 -0.461 Q 0.34 -0.461 0.4045 -0.3905 Q 0.46900000000000003 -0.32 0.46900000000000003 -0.22 M 0.249 -0.053 Q 0.308 -0.053 0.34950000000000003 -0.0995 Q 0.391 -0.146 0.391 -0.23 Q 0.391 -0.313 0.34900000000000003 -0.3565 Q 0.307 -0.4 0.249 -0.4 Q 0.193 -0.4 0.1505 -0.357 Q 0.108 -0.314 0.108 -0.23 Q 0.108 -0.145 0.15 -0.099 Q 0.192 -0.053 0.249 -0.053 Z"/></g><g transform="translate(72.28334533333334,30.20555633598243)"><path fill="rgb(0,0,0)" stroke="none" paint-order="stroke fill markers" d=" M 0.435 -0.298 L 0.435 0 L 0.357 0 L 0.357 -0.291 Q 0.357 -0.305 0.3565 -0.3145 Q 0.356 -0.324 0.35050000000000003 -0.3405 Q 0.34500000000000003 -0.357 0.3355 -0.3675 Q 0.326 -0.378 0.3065 -0.386 Q 0.28700000000000003 -0.394 0.26 -0.394 Q 0.20800000000000002 -0.394 0.1835 -0.34900000000000003 Q 0.159 -0.304 0.159 -0.245 L 0.159 0 L 0.081 0 L 0.081 -0.45 L 0.153 -0.45 L 0.153 -0.379 Q 0.21 -0.455 0.298 -0.455 Q 0.435 -0.455 0.435 -0.298 Z"/></g></g><text fill="rgb(0,0,0)" stroke="none" font-family="geogebra-sans-serif, sans-serif" font-size="12px" font-style="normal" font-weight="normal" text-decoration="normal" x="1029" y="395" text-anchor="start" dominant-baseline="alphabetic" fill-opacity="1">Lightness</text><g transform="scale(15,15)"><g transform="translate(68.96666666666667,32.00555633598243)"><path fill="rgb(0,0,0)" stroke="none" paint-order="stroke fill markers" d=" M 0.183 -0.6940000000000001 L 0.183 -0.064 L 0.232 -0.064 Q 0.321 -0.064 0.499 -0.066 L 0.499 0 L 0.094 0 L 0.094 -0.6940000000000001 L 0.183 -0.6940000000000001 Z"/></g><g transform="translate(69.50833566666667,32.00555633598243)"><path fill="rgb(0,0,0)" stroke="none" paint-order="stroke fill markers" d=" M 0.163 -0.68 L 0.163 -0.591 L 0.074 -0.591 L 0.074 -0.68 L 0.163 -0.68 M 0.156 -0.444 L 0.156 0 L 0.081 0 L 0.081 -0.444 L 0.156 -0.444 Z"/></g><g transform="translate(69.74722566666667,32.00555633598243)"><path fill="rgb(0,0,0)" stroke="none" paint-order="stroke fill markers" d=" M 0.352 -0.391 L 0.34800000000000003 -0.392 Q 0.381 -0.34700000000000003 0.381 -0.292 Q 0.381 -0.225 0.3345 -0.177 Q 0.28800000000000003 -0.129 0.221 -0.129 Q 0.171 -0.129 0.13 -0.158 Q 0.11900000000000001 -0.14400000000000002 0.11900000000000001 -0.122 Q 0.11900000000000001 -0.069 0.177 -0.069 L 0.265 -0.069 Q 0.28200000000000003 -0.069 0.2945 -0.068 Q 0.307 -0.067 0.335 -0.064 Q 0.363 -0.061 0.3835 -0.051500000000000004 Q 0.404 -0.042 0.4255 -0.028 Q 0.447 -0.014 0.459 0.0115 Q 0.47100000000000003 0.037 0.47100000000000003 0.07 Q 0.47100000000000003 0.127 0.40650000000000003 0.1665 Q 0.342 0.20600000000000002 0.249 0.20600000000000002 Q 0.157 0.20600000000000002 0.0925 0.1665 Q 0.028 0.127 0.028 0.07100000000000001 Q 0.028 0.006 0.092 -0.032 Q 0.066 -0.064 0.066 -0.108 Q 0.066 -0.152 0.095 -0.193 Q 0.062 -0.23600000000000002 0.062 -0.292 Q 0.062 -0.36 0.109 -0.40750000000000003 Q 0.156 -0.455 0.221 -0.455 Q 0.276 -0.455 0.316 -0.423 Q 0.39 -0.455 0.47400000000000003 -0.455 L 0.485 -0.392 L 0.47400000000000003 -0.393 Q 0.462 -0.394 0.448 -0.3945 Q 0.434 -0.395 0.426 -0.395 Q 0.41400000000000003 -0.395 0.3885 -0.393 Q 0.363 -0.391 0.352 -0.391 M 0.221 -0.186 Q 0.258 -0.186 0.28450000000000003 -0.212 Q 0.311 -0.23800000000000002 0.311 -0.292 Q 0.311 -0.34600000000000003 0.28450000000000003 -0.372 Q 0.258 -0.398 0.221 -0.398 Q 0.187 -0.398 0.1595 -0.373 Q 0.132 -0.34800000000000003 0.132 -0.292 Q 0.132 -0.23600000000000002 0.1595 -0.211 Q 0.187 -0.186 0.221 -0.186 M 0.266 0.003 L 0.176 0.003 Q 0.154 0.003 0.138 0.01 Q 0.122 0.017 0.1145 0.025500000000000002 Q 0.107 0.034 0.10300000000000001 0.046 Q 0.099 0.058 0.0985 0.0625 Q 0.098 0.067 0.098 0.07100000000000001 Q 0.098 0.105 0.14250000000000002 0.127 Q 0.187 0.149 0.25 0.149 Q 0.312 0.149 0.3565 0.127 Q 0.401 0.105 0.401 0.07200000000000001 Q 0.401 0.003 0.266 0.003 Z"/></g><g transform="translate(70.26111566666667,32.00555633598243)"><path fill="rgb(0,0,0)" stroke="none" paint-order="stroke fill markers" d=" M 0.435 -0.298 L 0.435 0 L 0.357 0 L 0.357 -0.291 Q 0.357 -0.305 0.3565 -0.3145 Q 0.356 -0.324 0.35050000000000003 -0.3405 Q 0.34500000000000003 -0.357 0.3355 -0.3675 Q 0.326 -0.378 0.3065 -0.386 Q 0.28700000000000003 -0.394 0.26 -0.394 Q 0.20800000000000002 -0.394 0.1835 -0.34900000000000003 Q 0.159 -0.304 0.159 -0.245 L 0.159 0 L 0.081 0 L 0.081 -0.6940000000000001 L 0.156 -0.6940000000000001 L 0.156 -0.383 Q 0.212 -0.455 0.298 -0.455 Q 0.435 -0.455 0.435 -0.298 Z"/></g><g transform="translate(70.77778366666666,32.00555633598243)"><path fill="rgb(0,0,0)" stroke="none" paint-order="stroke fill markers" d=" M 0.17500000000000002 -0.386 L 0.17500000000000002 -0.136 Q 0.17500000000000002 -0.053 0.226 -0.053 Q 0.275 -0.053 0.316 -0.08600000000000001 L 0.332 -0.027 Q 0.259 0.011 0.186 0.011 Q 0.10300000000000001 0.011 0.10300000000000001 -0.11900000000000001 L 0.10300000000000001 -0.386 L 0.019 -0.386 L 0.019 -0.444 L 0.106 -0.444 L 0.106 -0.5710000000000001 L 0.17500000000000002 -0.5710000000000001 L 0.17500000000000002 -0.444 L 0.316 -0.444 L 0.316 -0.386 L 0.17500000000000002 -0.386 Z"/></g><g transform="translate(71.13889566666667,32.00555633598243)"><path fill="rgb(0,0,0)" stroke="none" paint-order="stroke fill markers" d=" M 0.435 -0.298 L 0.435 0 L 0.357 0 L 0.357 -0.291 Q 0.357 -0.305 0.3565 -0.3145 Q 0.356 -0.324 0.35050000000000003 -0.3405 Q 0.34500000000000003 -0.357 0.3355 -0.3675 Q 0.326 -0.378 0.3065 -0.386 Q 0.28700000000000003 -0.394 0.26 -0.394 Q 0.20800000000000002 -0.394 0.1835 -0.34900000000000003 Q 0.159 -0.304 0.159 -0.245 L 0.159 0 L 0.081 0 L 0.081 -0.45 L 0.153 -0.45 L 0.153 -0.379 Q 0.21 -0.455 0.298 -0.455 Q 0.435 -0.455 0.435 -0.298 Z"/></g><g transform="translate(71.65556366666667,32.00555633598243)"><path fill="rgb(0,0,0)" stroke="none" paint-order="stroke fill markers" d=" M 0.41400000000000003 -0.219 L 0.105 -0.219 Q 0.107 -0.146 0.1495 -0.098 Q 0.192 -0.05 0.252 -0.05 Q 0.336 -0.05 0.404 -0.106 L 0.41000000000000003 -0.041 Q 0.338 0.011 0.251 0.011 Q 0.161 0.011 0.098 -0.058 Q 0.035 -0.127 0.035 -0.226 Q 0.035 -0.323 0.094 -0.392 Q 0.153 -0.461 0.23600000000000002 -0.461 Q 0.326 -0.461 0.374 -0.388 Q 0.41400000000000003 -0.326 0.41400000000000003 -0.219 M 0.11 -0.274 L 0.357 -0.274 Q 0.34800000000000003 -0.338 0.314 -0.369 Q 0.28 -0.4 0.23600000000000002 -0.4 Q 0.193 -0.4 0.1575 -0.365 Q 0.122 -0.33 0.11 -0.274 Z"/></g><g transform="translate(72.10000966666666,32.00555633598243)"><path fill="rgb(0,0,0)" stroke="none" paint-order="stroke fill markers" d=" M 0.343 -0.429 L 0.331 -0.364 Q 0.267 -0.402 0.189 -0.402 Q 0.10400000000000001 -0.402 0.10400000000000001 -0.34 Q 0.10400000000000001 -0.326 0.11 -0.315 Q 0.116 -0.304 0.1235 -0.2975 Q 0.131 -0.291 0.1465 -0.28550000000000003 Q 0.162 -0.28 0.17300000000000001 -0.277 Q 0.184 -0.274 0.20500000000000002 -0.27 Q 0.248 -0.262 0.271 -0.253 Q 0.294 -0.244 0.321 -0.22 L 0.326 -0.214 Q 0.331 -0.209 0.336 -0.2015 Q 0.341 -0.194 0.34700000000000003 -0.1835 Q 0.353 -0.17300000000000001 0.3565 -0.158 Q 0.36 -0.14300000000000002 0.36 -0.128 Q 0.36 -0.058 0.312 -0.021 Q 0.269 0.011 0.196 0.011 Q 0.116 0.011 0.028 -0.033 L 0.04 -0.101 Q 0.114 -0.052000000000000005 0.195 -0.052000000000000005 Q 0.289 -0.052000000000000005 0.289 -0.121 Q 0.289 -0.136 0.28200000000000003 -0.148 Q 0.275 -0.16 0.2665 -0.167 Q 0.258 -0.17400000000000002 0.243 -0.18 Q 0.228 -0.186 0.219 -0.188 Q 0.21 -0.19 0.195 -0.193 Q 0.161 -0.2 0.148 -0.203 Q 0.135 -0.20600000000000002 0.11850000000000001 -0.2125 Q 0.10200000000000001 -0.219 0.08700000000000001 -0.23 Q 0.033 -0.271 0.033 -0.33 Q 0.033 -0.367 0.0485 -0.3935 Q 0.064 -0.42 0.0835 -0.4325 Q 0.10300000000000001 -0.445 0.1305 -0.452 Q 0.158 -0.459 0.171 -0.46 Q 0.184 -0.461 0.199 -0.461 Q 0.274 -0.461 0.343 -0.429 Z"/></g><g transform="translate(72.48334366666667,32.00555633598243)"><path fill="rgb(0,0,0)" stroke="none" paint-order="stroke fill markers" d=" M 0.343 -0.429 L 0.331 -0.364 Q 0.267 -0.402 0.189 -0.402 Q 0.10400000000000001 -0.402 0.10400000000000001 -0.34 Q 0.10400000000000001 -0.326 0.11 -0.315 Q 0.116 -0.304 0.1235 -0.2975 Q 0.131 -0.291 0.1465 -0.28550000000000003 Q 0.162 -0.28 0.17300000000000001 -0.277 Q 0.184 -0.274 0.20500000000000002 -0.27 Q 0.248 -0.262 0.271 -0.253 Q 0.294 -0.244 0.321 -0.22 L 0.326 -0.214 Q 0.331 -0.209 0.336 -0.2015 Q 0.341 -0.194 0.34700000000000003 -0.1835 Q 0.353 -0.17300000000000001 0.3565 -0.158 Q 0.36 -0.14300000000000002 0.36 -0.128 Q 0.36 -0.058 0.312 -0.021 Q 0.269 0.011 0.196 0.011 Q 0.116 0.011 0.028 -0.033 L 0.04 -0.101 Q 0.114 -0.052000000000000005 0.195 -0.052000000000000005 Q 0.289 -0.052000000000000005 0.289 -0.121 Q 0.289 -0.136 0.28200000000000003 -0.148 Q 0.275 -0.16 0.2665 -0.167 Q 0.258 -0.17400000000000002 0.243 -0.18 Q 0.228 -0.186 0.219 -0.188 Q 0.21 -0.19 0.195 -0.193 Q 0.161 -0.2 0.148 -0.203 Q 0.135 -0.20600000000000002 0.11850000000000001 -0.2125 Q 0.10200000000000001 -0.219 0.08700000000000001 -0.23 Q 0.033 -0.271 0.033 -0.33 Q 0.033 -0.367 0.0485 -0.3935 Q 0.064 -0.42 0.0835 -0.4325 Q 0.10300000000000001 -0.445 0.1305 -0.452 Q 0.158 -0.459 0.171 -0.46 Q 0.184 -0.461 0.199 -0.461 Q 0.274 -0.461 0.343 -0.429 Z"/></g></g><g transform="scale(51,51) translate(7.519281826178511,7.370599235294118) rotate(-90,0,0) translate(-7.519281826178511,-7.370599235294118)"><g transform="translate(8.01928182617851,7.370599235294118)"><path fill="rgb(0,0,0)" stroke="none" paint-order="stroke fill markers" d=" M 0.183 -0.6940000000000001 L 0.183 -0.064 L 0.232 -0.064 Q 0.321 -0.064 0.499 -0.066 L 0.499 0 L 0.094 0 L 0.094 -0.6940000000000001 L 0.183 -0.6940000000000001 Z"/></g><g transform="translate(8.56095082617851,7.370599235294118)"><path fill="rgb(0,0,0)" stroke="none" paint-order="stroke fill markers" d=" M 0.163 -0.68 L 0.163 -0.591 L 0.074 -0.591 L 0.074 -0.68 L 0.163 -0.68 M 0.156 -0.444 L 0.156 0 L 0.081 0 L 0.081 -0.444 L 0.156 -0.444 Z"/></g><g transform="translate(8.79984082617851,7.370599235294118)"><path fill="rgb(0,0,0)" stroke="none" paint-order="stroke fill markers" d=" M 0.352 -0.391 L 0.34800000000000003 -0.392 Q 0.381 -0.34700000000000003 0.381 -0.292 Q 0.381 -0.225 0.3345 -0.177 Q 0.28800000000000003 -0.129 0.221 -0.129 Q 0.171 -0.129 0.13 -0.158 Q 0.11900000000000001 -0.14400000000000002 0.11900000000000001 -0.122 Q 0.11900000000000001 -0.069 0.177 -0.069 L 0.265 -0.069 Q 0.28200000000000003 -0.069 0.2945 -0.068 Q 0.307 -0.067 0.335 -0.064 Q 0.363 -0.061 0.3835 -0.051500000000000004 Q 0.404 -0.042 0.4255 -0.028 Q 0.447 -0.014 0.459 0.0115 Q 0.47100000000000003 0.037 0.47100000000000003 0.07 Q 0.47100000000000003 0.127 0.40650000000000003 0.1665 Q 0.342 0.20600000000000002 0.249 0.20600000000000002 Q 0.157 0.20600000000000002 0.0925 0.1665 Q 0.028 0.127 0.028 0.07100000000000001 Q 0.028 0.006 0.092 -0.032 Q 0.066 -0.064 0.066 -0.108 Q 0.066 -0.152 0.095 -0.193 Q 0.062 -0.23600000000000002 0.062 -0.292 Q 0.062 -0.36 0.109 -0.40750000000000003 Q 0.156 -0.455 0.221 -0.455 Q 0.276 -0.455 0.316 -0.423 Q 0.39 -0.455 0.47400000000000003 -0.455 L 0.485 -0.392 L 0.47400000000000003 -0.393 Q 0.462 -0.394 0.448 -0.3945 Q 0.434 -0.395 0.426 -0.395 Q 0.41400000000000003 -0.395 0.3885 -0.393 Q 0.363 -0.391 0.352 -0.391 M 0.221 -0.186 Q 0.258 -0.186 0.28450000000000003 -0.212 Q 0.311 -0.23800000000000002 0.311 -0.292 Q 0.311 -0.34600000000000003 0.28450000000000003 -0.372 Q 0.258 -0.398 0.221 -0.398 Q 0.187 -0.398 0.1595 -0.373 Q 0.132 -0.34800000000000003 0.132 -0.292 Q 0.132 -0.23600000000000002 0.1595 -0.211 Q 0.187 -0.186 0.221 -0.186 M 0.266 0.003 L 0.176 0.003 Q 0.154 0.003 0.138 0.01 Q 0.122 0.017 0.1145 0.025500000000000002 Q 0.107 0.034 0.10300000000000001 0.046 Q 0.099 0.058 0.0985 0.0625 Q 0.098 0.067 0.098 0.07100000000000001 Q 0.098 0.105 0.14250000000000002 0.127 Q 0.187 0.149 0.25 0.149 Q 0.312 0.149 0.3565 0.127 Q 0.401 0.105 0.401 0.07200000000000001 Q 0.401 0.003 0.266 0.003 Z"/></g><g transform="translate(9.31373082617851,7.370599235294118)"><path fill="rgb(0,0,0)" stroke="none" paint-order="stroke fill markers" d=" M 0.435 -0.298 L 0.435 0 L 0.357 0 L 0.357 -0.291 Q 0.357 -0.305 0.3565 -0.3145 Q 0.356 -0.324 0.35050000000000003 -0.3405 Q 0.34500000000000003 -0.357 0.3355 -0.3675 Q 0.326 -0.378 0.3065 -0.386 Q 0.28700000000000003 -0.394 0.26 -0.394 Q 0.20800000000000002 -0.394 0.1835 -0.34900000000000003 Q 0.159 -0.304 0.159 -0.245 L 0.159 0 L 0.081 0 L 0.081 -0.6940000000000001 L 0.156 -0.6940000000000001 L 0.156 -0.383 Q 0.212 -0.455 0.298 -0.455 Q 0.435 -0.455 0.435 -0.298 Z"/></g><g transform="translate(9.83039882617851,7.370599235294118)"><path fill="rgb(0,0,0)" stroke="none" paint-order="stroke fill markers" d=" M 0.17500000000000002 -0.386 L 0.17500000000000002 -0.136 Q 0.17500000000000002 -0.053 0.226 -0.053 Q 0.275 -0.053 0.316 -0.08600000000000001 L 0.332 -0.027 Q 0.259 0.011 0.186 0.011 Q 0.10300000000000001 0.011 0.10300000000000001 -0.11900000000000001 L 0.10300000000000001 -0.386 L 0.019 -0.386 L 0.019 -0.444 L 0.106 -0.444 L 0.106 -0.5710000000000001 L 0.17500000000000002 -0.5710000000000001 L 0.17500000000000002 -0.444 L 0.316 -0.444 L 0.316 -0.386 L 0.17500000000000002 -0.386 Z"/></g><g transform="translate(10.19151082617851,7.370599235294118)"><path fill="rgb(0,0,0)" stroke="none" paint-order="stroke fill markers" d=" M 0.435 -0.298 L 0.435 0 L 0.357 0 L 0.357 -0.291 Q 0.357 -0.305 0.3565 -0.3145 Q 0.356 -0.324 0.35050000000000003 -0.3405 Q 0.34500000000000003 -0.357 0.3355 -0.3675 Q 0.326 -0.378 0.3065 -0.386 Q 0.28700000000000003 -0.394 0.26 -0.394 Q 0.20800000000000002 -0.394 0.1835 -0.34900000000000003 Q 0.159 -0.304 0.159 -0.245 L 0.159 0 L 0.081 0 L 0.081 -0.45 L 0.153 -0.45 L 0.153 -0.379 Q 0.21 -0.455 0.298 -0.455 Q 0.435 -0.455 0.435 -0.298 Z"/></g><g transform="translate(10.708178826178509,7.370599235294118)"><path fill="rgb(0,0,0)" stroke="none" paint-order="stroke fill markers" d=" M 0.41400000000000003 -0.219 L 0.105 -0.219 Q 0.107 -0.146 0.1495 -0.098 Q 0.192 -0.05 0.252 -0.05 Q 0.336 -0.05 0.404 -0.106 L 0.41000000000000003 -0.041 Q 0.338 0.011 0.251 0.011 Q 0.161 0.011 0.098 -0.058 Q 0.035 -0.127 0.035 -0.226 Q 0.035 -0.323 0.094 -0.392 Q 0.153 -0.461 0.23600000000000002 -0.461 Q 0.326 -0.461 0.374 -0.388 Q 0.41400000000000003 -0.326 0.41400000000000003 -0.219 M 0.11 -0.274 L 0.357 -0.274 Q 0.34800000000000003 -0.338 0.314 -0.369 Q 0.28 -0.4 0.23600000000000002 -0.4 Q 0.193 -0.4 0.1575 -0.365 Q 0.122 -0.33 0.11 -0.274 Z"/></g><g transform="translate(11.152624826178508,7.370599235294118)"><path fill="rgb(0,0,0)" stroke="none" paint-order="stroke fill markers" d=" M 0.343 -0.429 L 0.331 -0.364 Q 0.267 -0.402 0.189 -0.402 Q 0.10400000000000001 -0.402 0.10400000000000001 -0.34 Q 0.10400000000000001 -0.326 0.11 -0.315 Q 0.116 -0.304 0.1235 -0.2975 Q 0.131 -0.291 0.1465 -0.28550000000000003 Q 0.162 -0.28 0.17300000000000001 -0.277 Q 0.184 -0.274 0.20500000000000002 -0.27 Q 0.248 -0.262 0.271 -0.253 Q 0.294 -0.244 0.321 -0.22 L 0.326 -0.214 Q 0.331 -0.209 0.336 -0.2015 Q 0.341 -0.194 0.34700000000000003 -0.1835 Q 0.353 -0.17300000000000001 0.3565 -0.158 Q 0.36 -0.14300000000000002 0.36 -0.128 Q 0.36 -0.058 0.312 -0.021 Q 0.269 0.011 0.196 0.011 Q 0.116 0.011 0.028 -0.033 L 0.04 -0.101 Q 0.114 -0.052000000000000005 0.195 -0.052000000000000005 Q 0.289 -0.052000000000000005 0.289 -0.121 Q 0.289 -0.136 0.28200000000000003 -0.148 Q 0.275 -0.16 0.2665 -0.167 Q 0.258 -0.17400000000000002 0.243 -0.18 Q 0.228 -0.186 0.219 -0.188 Q 0.21 -0.19 0.195 -0.193 Q 0.161 -0.2 0.148 -0.203 Q 0.135 -0.20600000000000002 0.11850000000000001 -0.2125 Q 0.10200000000000001 -0.219 0.08700000000000001 -0.23 Q 0.033 -0.271 0.033 -0.33 Q 0.033 -0.367 0.0485 -0.3935 Q 0.064 -0.42 0.0835 -0.4325 Q 0.10300000000000001 -0.445 0.1305 -0.452 Q 0.158 -0.459 0.171 -0.46 Q 0.184 -0.461 0.199 -0.461 Q 0.274 -0.461 0.343 -0.429 Z"/></g><g transform="translate(11.535958826178508,7.370599235294118)"><path fill="rgb(0,0,0)" stroke="none" paint-order="stroke fill markers" d=" M 0.343 -0.429 L 0.331 -0.364 Q 0.267 -0.402 0.189 -0.402 Q 0.10400000000000001 -0.402 0.10400000000000001 -0.34 Q 0.10400000000000001 -0.326 0.11 -0.315 Q 0.116 -0.304 0.1235 -0.2975 Q 0.131 -0.291 0.1465 -0.28550000000000003 Q 0.162 -0.28 0.17300000000000001 -0.277 Q 0.184 -0.274 0.20500000000000002 -0.27 Q 0.248 -0.262 0.271 -0.253 Q 0.294 -0.244 0.321 -0.22 L 0.326 -0.214 Q 0.331 -0.209 0.336 -0.2015 Q 0.341 -0.194 0.34700000000000003 -0.1835 Q 0.353 -0.17300000000000001 0.3565 -0.158 Q 0.36 -0.14300000000000002 0.36 -0.128 Q 0.36 -0.058 0.312 -0.021 Q 0.269 0.011 0.196 0.011 Q 0.116 0.011 0.028 -0.033 L 0.04 -0.101 Q 0.114 -0.052000000000000005 0.195 -0.052000000000000005 Q 0.289 -0.052000000000000005 0.289 -0.121 Q 0.289 -0.136 0.28200000000000003 -0.148 Q 0.275 -0.16 0.2665 -0.167 Q 0.258 -0.17400000000000002 0.243 -0.18 Q 0.228 -0.186 0.219 -0.188 Q 0.21 -0.19 0.195 -0.193 Q 0.161 -0.2 0.148 -0.203 Q 0.135 -0.20600000000000002 0.11850000000000001 -0.2125 Q 0.10200000000000001 -0.219 0.08700000000000001 -0.23 Q 0.033 -0.271 0.033 -0.33 Q 0.033 -0.367 0.0485 -0.3935 Q 0.064 -0.42 0.0835 -0.4325 Q 0.10300000000000001 -0.445 0.1305 -0.452 Q 0.158 -0.459 0.171 -0.46 Q 0.184 -0.461 0.199 -0.461 Q 0.274 -0.461 0.343 -0.429 Z"/></g><g transform="translate(7.519281826178511,7.370599235294118) rotate(90,0,0) translate(-7.519281826178511,-7.370599235294118)"/></g><g transform="scale(51,51) translate(6.647058823529412,8.520098541864785) rotate(0,0,0) translate(-6.647058823529412,-8.520098541864785)"><g transform="translate(7.147058823529412,8.617321041864784)"><path fill="rgb(0,0,0)" stroke="none" paint-order="stroke fill markers" d=" M 0.465 -0.666 L 0.45 -0.586 Q 0.374 -0.65 0.281 -0.65 Q 0.215 -0.65 0.17500000000000002 -0.614 Q 0.135 -0.578 0.135 -0.531 Q 0.135 -0.482 0.17 -0.452 Q 0.191 -0.434 0.209 -0.4265 Q 0.227 -0.419 0.274 -0.40800000000000003 Q 0.35000000000000003 -0.389 0.3815 -0.375 Q 0.41300000000000003 -0.361 0.446 -0.326 Q 0.499 -0.268 0.499 -0.189 Q 0.499 -0.10400000000000001 0.435 -0.041 Q 0.371 0.022 0.275 0.022 Q 0.154 0.022 0.044 -0.047 L 0.059000000000000004 -0.128 Q 0.155 -0.047 0.274 -0.047 Q 0.339 -0.047 0.3795 -0.08700000000000001 Q 0.42 -0.127 0.42 -0.179 Q 0.42 -0.23600000000000002 0.378 -0.272 Q 0.357 -0.29 0.3385 -0.2975 Q 0.32 -0.305 0.255 -0.321 Q 0.202 -0.334 0.1705 -0.34750000000000003 Q 0.139 -0.361 0.11 -0.392 Q 0.056 -0.449 0.056 -0.519 Q 0.056 -0.597 0.11900000000000001 -0.6565 Q 0.182 -0.716 0.28200000000000003 -0.716 Q 0.382 -0.716 0.465 -0.666 Z"/></g><g transform="translate(7.702615823529412,8.617321041864784)"><path fill="rgb(0,0,0)" stroke="none" paint-order="stroke fill markers" d=" M 0.399 -0.289 L 0.399 0 L 0.324 0 L 0.324 -0.036000000000000004 Q 0.263 0.011 0.158 0.011 Q 0.1 0.011 0.07200000000000001 -0.029500000000000002 Q 0.044 -0.07 0.044 -0.113 Q 0.044 -0.176 0.1225 -0.2095 Q 0.201 -0.243 0.321 -0.245 L 0.321 -0.28800000000000003 Q 0.321 -0.341 0.296 -0.3715 Q 0.271 -0.402 0.234 -0.402 Q 0.153 -0.402 0.083 -0.352 L 0.077 -0.418 Q 0.152 -0.461 0.234 -0.461 Q 0.304 -0.461 0.35150000000000003 -0.41250000000000003 Q 0.399 -0.364 0.399 -0.289 M 0.321 -0.132 L 0.321 -0.194 Q 0.116 -0.184 0.116 -0.115 Q 0.116 -0.085 0.14350000000000002 -0.0675 Q 0.171 -0.05 0.209 -0.05 Q 0.256 -0.05 0.28700000000000003 -0.069 Q 0.321 -0.088 0.321 -0.132 Z"/></g><g transform="translate(8.183172823529413,8.617321041864784)"><path fill="rgb(0,0,0)" stroke="none" paint-order="stroke fill markers" d=" M 0.17500000000000002 -0.386 L 0.17500000000000002 -0.136 Q 0.17500000000000002 -0.053 0.226 -0.053 Q 0.275 -0.053 0.316 -0.08600000000000001 L 0.332 -0.027 Q 0.259 0.011 0.186 0.011 Q 0.10300000000000001 0.011 0.10300000000000001 -0.11900000000000001 L 0.10300000000000001 -0.386 L 0.019 -0.386 L 0.019 -0.444 L 0.106 -0.444 L 0.106 -0.5710000000000001 L 0.17500000000000002 -0.5710000000000001 L 0.17500000000000002 -0.444 L 0.316 -0.444 L 0.316 -0.386 L 0.17500000000000002 -0.386 Z"/></g><g transform="translate(8.544284823529413,8.617321041864784)"><path fill="rgb(0,0,0)" stroke="none" paint-order="stroke fill markers" d=" M 0.435 -0.444 L 0.435 0 L 0.36 0 L 0.36 -0.048 Q 0.293 0.011 0.187 0.011 Q 0.128 0.011 0.1045 -0.0195 Q 0.081 -0.05 0.081 -0.109 L 0.081 -0.444 L 0.159 -0.444 L 0.159 -0.113 Q 0.159 -0.076 0.17350000000000002 -0.06 Q 0.188 -0.044 0.23700000000000002 -0.044 Q 0.28800000000000003 -0.044 0.3225 -0.0725 Q 0.357 -0.101 0.357 -0.154 L 0.357 -0.444 L 0.435 -0.444 Z"/></g><g transform="translate(9.060952823529412,8.617321041864784)"><path fill="rgb(0,0,0)" stroke="none" paint-order="stroke fill markers" d=" M 0.157 -0.214 L 0.157 0 L 0.082 0 L 0.082 -0.45 L 0.152 -0.45 L 0.152 -0.359 Q 0.216 -0.454 0.327 -0.455 L 0.327 -0.388 Q 0.253 -0.386 0.20500000000000002 -0.3375 Q 0.157 -0.289 0.157 -0.214 Z"/></g><g transform="translate(9.416509823529411,8.617321041864784)"><path fill="rgb(0,0,0)" stroke="none" paint-order="stroke fill markers" d=" M 0.399 -0.289 L 0.399 0 L 0.324 0 L 0.324 -0.036000000000000004 Q 0.263 0.011 0.158 0.011 Q 0.1 0.011 0.07200000000000001 -0.029500000000000002 Q 0.044 -0.07 0.044 -0.113 Q 0.044 -0.176 0.1225 -0.2095 Q 0.201 -0.243 0.321 -0.245 L 0.321 -0.28800000000000003 Q 0.321 -0.341 0.296 -0.3715 Q 0.271 -0.402 0.234 -0.402 Q 0.153 -0.402 0.083 -0.352 L 0.077 -0.418 Q 0.152 -0.461 0.234 -0.461 Q 0.304 -0.461 0.35150000000000003 -0.41250000000000003 Q 0.399 -0.364 0.399 -0.289 M 0.321 -0.132 L 0.321 -0.194 Q 0.116 -0.184 0.116 -0.115 Q 0.116 -0.085 0.14350000000000002 -0.0675 Q 0.171 -0.05 0.209 -0.05 Q 0.256 -0.05 0.28700000000000003 -0.069 Q 0.321 -0.088 0.321 -0.132 Z"/></g><g transform="translate(9.89706682352941,8.617321041864784)"><path fill="rgb(0,0,0)" stroke="none" paint-order="stroke fill markers" d=" M 0.17500000000000002 -0.386 L 0.17500000000000002 -0.136 Q 0.17500000000000002 -0.053 0.226 -0.053 Q 0.275 -0.053 0.316 -0.08600000000000001 L 0.332 -0.027 Q 0.259 0.011 0.186 0.011 Q 0.10300000000000001 0.011 0.10300000000000001 -0.11900000000000001 L 0.10300000000000001 -0.386 L 0.019 -0.386 L 0.019 -0.444 L 0.106 -0.444 L 0.106 -0.5710000000000001 L 0.17500000000000002 -0.5710000000000001 L 0.17500000000000002 -0.444 L 0.316 -0.444 L 0.316 -0.386 L 0.17500000000000002 -0.386 Z"/></g><g transform="translate(10.258178823529411,8.617321041864784)"><path fill="rgb(0,0,0)" stroke="none" paint-order="stroke fill markers" d=" M 0.163 -0.68 L 0.163 -0.591 L 0.074 -0.591 L 0.074 -0.68 L 0.163 -0.68 M 0.156 -0.444 L 0.156 0 L 0.081 0 L 0.081 -0.444 L 0.156 -0.444 Z"/></g><g transform="translate(10.49706882352941,8.617321041864784)"><path fill="rgb(0,0,0)" stroke="none" paint-order="stroke fill markers" d=" M 0.46900000000000003 -0.22 Q 0.46900000000000003 -0.123 0.4045 -0.056 Q 0.34 0.011 0.249 0.011 Q 0.16 0.011 0.095 -0.0555 Q 0.03 -0.122 0.03 -0.22 Q 0.03 -0.319 0.094 -0.39 Q 0.158 -0.461 0.25 -0.461 Q 0.34 -0.461 0.4045 -0.3905 Q 0.46900000000000003 -0.32 0.46900000000000003 -0.22 M 0.249 -0.053 Q 0.308 -0.053 0.34950000000000003 -0.0995 Q 0.391 -0.146 0.391 -0.23 Q 0.391 -0.313 0.34900000000000003 -0.3565 Q 0.307 -0.4 0.249 -0.4 Q 0.193 -0.4 0.1505 -0.357 Q 0.108 -0.314 0.108 -0.23 Q 0.108 -0.145 0.15 -0.099 Q 0.192 -0.053 0.249 -0.053 Z"/></g><g transform="translate(10.99707082352941,8.617321041864784)"><path fill="rgb(0,0,0)" stroke="none" paint-order="stroke fill markers" d=" M 0.435 -0.298 L 0.435 0 L 0.357 0 L 0.357 -0.291 Q 0.357 -0.305 0.3565 -0.3145 Q 0.356 -0.324 0.35050000000000003 -0.3405 Q 0.34500000000000003 -0.357 0.3355 -0.3675 Q 0.326 -0.378 0.3065 -0.386 Q 0.28700000000000003 -0.394 0.26 -0.394 Q 0.20800000000000002 -0.394 0.1835 -0.34900000000000003 Q 0.159 -0.304 0.159 -0.245 L 0.159 0 L 0.081 0 L 0.081 -0.45 L 0.153 -0.45 L 0.153 -0.379 Q 0.21 -0.455 0.298 -0.455 Q 0.435 -0.455 0.435 -0.298 Z"/></g><g transform="translate(6.647058823529412,8.520098541864785) rotate(0,0,0) translate(-6.647058823529412,-8.520098541864785)"/></g><path fill="rgb(255,255,255)" stroke="none" paint-order="stroke fill markers" fill-rule="evenodd" d=" M 818 207 L 949 207 C 950.6568542494924 207 953 209.34314575050763 953 211 L 953 237 C 953 238.65685424949237 950.6568542494924 241 949 241 L 818 241 C 816.3431457505076 241 814 238.65685424949237 814 237 L 814 211 C 814 209.34314575050763 816.3431457505076 207 818 207 Z" fill-opacity="1"/><path fill="none" stroke="rgb(0,0,0)" paint-order="fill stroke markers" d=" M 817.5 207 L 949.5 207 C 950.9497474683059 207 953 209.05025253169416 953 210.5 L 953 237.5 C 953 238.94974746830584 950.9497474683059 241 949.5 241 L 817.5 241 C 816.0502525316941 241 814 238.94974746830584 814 237.5 L 814 210.5 C 814 209.05025253169416 816.0502525316941 207 817.5 207 Z" stroke-opacity="1" stroke-linecap="round" stroke-linejoin="round" stroke-miterlimit="10"/><text fill="rgb(0,0,0)" stroke="none" font-family="geogebra-sans-serif, sans-serif" font-size="24px" font-style="normal" font-weight="normal" text-decoration="normal" x="824" y="232" text-anchor="start" dominant-baseline="alphabetic" fill-opacity="1">Reset View</text></g></g></svg>