<?xml version="1.0" encoding="UTF-8" standalone="no"?>
<svg
   xmlns:dc="http://purl.org/dc/elements/1.1/"
   xmlns:cc="http://creativecommons.org/ns#"
   xmlns:rdf="http://www.w3.org/1999/02/22-rdf-syntax-ns#"
   xmlns:svg="http://www.w3.org/2000/svg"
   xmlns="http://www.w3.org/2000/svg"
   xmlns:sodipodi="http://sodipodi.sourceforge.net/DTD/sodipodi-0.dtd"
   xmlns:inkscape="http://www.inkscape.org/namespaces/inkscape"
   version="1.1"
   width="660"
   height="660"
   id="svg147"
   sodipodi:docname="sphere_vertical_cross_section_parametric_b.svg"
   inkscape:version="1.0.1 (3bc2e813f5, 2020-09-07)">
  <metadata
     id="metadata151">
    <rdf:RDF>
      <cc:Work
         rdf:about="">
        <dc:format>image/svg+xml</dc:format>
        <dc:type
           rdf:resource="http://purl.org/dc/dcmitype/StillImage" />
      </cc:Work>
    </rdf:RDF>
  </metadata>
  <sodipodi:namedview
     pagecolor="#ffffff"
     bordercolor="#666666"
     borderopacity="1"
     objecttolerance="10"
     gridtolerance="10"
     guidetolerance="10"
     inkscape:pageopacity="0"
     inkscape:pageshadow="2"
     inkscape:window-width="1670"
     inkscape:window-height="1177"
     id="namedview149"
     showgrid="false"
     inkscape:zoom="0.55681818"
     inkscape:cx="481.1078"
     inkscape:cy="565.66064"
     inkscape:window-x="62"
     inkscape:window-y="-8"
     inkscape:window-maximized="1"
     inkscape:current-layer="svg147" />
  <defs
     id="defs5">
    <clipPath
       id="SIKtDdlAAJhK">
      <path
         fill="none"
         stroke="none"
         d=" M 0 0 L 660 0 L 660 660 L 0 660 L 0 0 Z"
         id="path2" />
    </clipPath>
  </defs>
  <g
     id="g1164">
    <rect
       fill="#ffffff"
       stroke="none"
       x="0"
       y="0"
       width="660"
       height="660"
       fill-opacity="1"
       id="rect7"
       style="stroke-width:0.710072" />
    <path
       fill="#000000"
       stroke="none"
       paint-order="stroke fill markers"
       fill-rule="evenodd"
       d="m 329.45545,323.09498 v 11.96648 H 581.0396 v 11.96648 l 47.9208,-17.94973 -47.9208,-17.94972 v 11.96648 z"
       fill-opacity="1"
       id="path9" />
    <path
       fill="#000000"
       stroke="none"
       paint-order="stroke fill markers"
       fill-rule="evenodd"
       d="m 414.72479,11.213069 41.63687,29.726711 2.10989,-7.865165 7.68626,3.180109 25.03031,13.015031 23.79943,15.14455 22.38741,17.1588 20.80503,19.042455 19.06429,20.78121 17.17847,22.36178 15.1619,23.77217 13.02996,25.00165 10.79883,26.04085 8.48554,26.88186 11.57198,-3.09715 -8.79981,-27.87748 -11.1988,-27.00533 -13.51254,-25.92764 -15.72346,-24.65263 -17.81471,-23.18998 -19.77038,-21.550885 -21.57557,-19.74774 -23.21658,-17.79431 -24.68089,-15.705452 -25.95736,-13.497074 -9.62483,-3.98217 4.06775,-15.163657 z"
       fill-opacity="1"
       id="path11" />
    <path
       fill="none"
       stroke="#000000"
       paint-order="fill stroke markers"
       d="m 628.9604,329.07821 c 0,165.22262 -134.09294,299.16201 -299.50495,299.16201 -165.41202,0 -299.504955,-133.93939 -299.504955,-299.16201 0,-165.22262 134.092935,-299.162008 299.504955,-299.162008 165.41201,0 299.50495,133.939388 299.50495,299.162008 z"
       stroke-opacity="0.698039"
       stroke-linecap="round"
       stroke-linejoin="round"
       stroke-miterlimit="10"
       stroke-width="1.5"
       id="path13" />
    <path
       fill="none"
       stroke="#000000"
       paint-order="fill stroke markers"
       d="m 379.37294,329.07821 c 0,27.5371 -22.34883,49.86033 -49.91749,49.86033 -27.56867,0 -49.9175,-22.32323 -49.9175,-49.86033 0,-27.5371 22.34883,-49.86034 49.9175,-49.86034 27.56866,0 49.91749,22.32324 49.91749,49.86034 z"
       stroke-opacity="0.698039"
       stroke-linecap="round"
       stroke-linejoin="round"
       stroke-miterlimit="10"
       stroke-width="1.5"
       id="path15" />
    <path
       fill="none"
       stroke="#000000"
       paint-order="fill stroke markers"
       d="m 429.29043,329.07821 c 0,55.07421 -44.69765,99.72067 -99.83498,99.72067 -55.13734,0 -99.83499,-44.64647 -99.83499,-99.72067 0,-55.07421 44.69765,-99.72066 99.83499,-99.72066 55.13733,0 99.83498,44.64645 99.83498,99.72066 z"
       stroke-opacity="0.698039"
       stroke-linecap="round"
       stroke-linejoin="round"
       stroke-miterlimit="10"
       stroke-width="1.5"
       id="path17" />
    <path
       fill="none"
       stroke="#000000"
       paint-order="fill stroke markers"
       d="m 479.20792,329.07821 c 0,82.61131 -67.04647,149.58101 -149.75247,149.58101 -82.70601,0 -149.75248,-66.9697 -149.75248,-149.58101 0,-82.61131 67.04647,-149.58101 149.75248,-149.58101 82.706,0 149.75247,66.9697 149.75247,149.58101 z"
       stroke-opacity="0.698039"
       stroke-linecap="round"
       stroke-linejoin="round"
       stroke-miterlimit="10"
       stroke-width="1.5"
       id="path19" />
    <path
       fill="none"
       stroke="#000000"
       paint-order="fill stroke markers"
       d="m 529.12541,329.07821 c 0,110.14842 -89.39529,199.44134 -199.66996,199.44134 -110.27468,0 -199.66997,-89.29293 -199.66997,-199.44134 0,-110.14841 89.39529,-199.44134 199.66997,-199.44134 110.27467,0 199.66996,89.29293 199.66996,199.44134 z"
       stroke-opacity="0.698039"
       stroke-linecap="round"
       stroke-linejoin="round"
       stroke-miterlimit="10"
       stroke-width="1.5"
       id="path21" />
    <path
       fill="none"
       stroke="#000000"
       paint-order="fill stroke markers"
       d="m 579.0429,329.07821 c 0,137.68552 -111.74411,249.30167 -249.58745,249.30167 -137.84335,0 -249.587463,-111.61616 -249.587463,-249.30167 0,-137.68552 111.744113,-249.301675 249.587463,-249.301675 137.84334,0 249.58745,111.616155 249.58745,249.301675 z"
       stroke-opacity="0.698039"
       stroke-linecap="round"
       stroke-linejoin="round"
       stroke-miterlimit="10"
       stroke-width="1.5"
       id="path23" />
    <path
       fill="none"
       stroke="#000000"
       paint-order="fill stroke markers"
       d="M 628.9604,329.07821 H 29.950495"
       stroke-opacity="0.698039"
       stroke-linecap="round"
       stroke-linejoin="round"
       stroke-miterlimit="10"
       stroke-width="1.5"
       id="path25" />
    <path
       fill="none"
       stroke="#000000"
       paint-order="fill stroke markers"
       d="M 40.155879,251.64938 618.75501,406.50704"
       stroke-opacity="0.698039"
       stroke-linecap="round"
       stroke-linejoin="round"
       stroke-miterlimit="10"
       stroke-width="1.5"
       id="path27" />
    <path
       fill="none"
       stroke="#000000"
       paint-order="fill stroke markers"
       d="M 70.07655,179.4972 588.83434,478.65922"
       stroke-opacity="0.698039"
       stroke-linecap="round"
       stroke-linejoin="round"
       stroke-miterlimit="10"
       stroke-width="1.5"
       id="path29" />
    <path
       fill="none"
       stroke="#000000"
       paint-order="fill stroke markers"
       d="M 117.67346,117.53872 541.23743,540.6177"
       stroke-opacity="0.698039"
       stroke-linecap="round"
       stroke-linejoin="round"
       stroke-miterlimit="10"
       stroke-width="1.5"
       id="path31" />
    <path
       fill="none"
       stroke="#000000"
       paint-order="fill stroke markers"
       d="M 179.70297,69.996315 479.20792,588.16012"
       stroke-opacity="0.698039"
       stroke-linecap="round"
       stroke-linejoin="round"
       stroke-miterlimit="10"
       stroke-width="1.5"
       id="path33" />
    <path
       fill="none"
       stroke="#000000"
       paint-order="fill stroke markers"
       d="M 251.93786,40.1099 406.97303,618.04652"
       stroke-opacity="0.698039"
       stroke-linecap="round"
       stroke-linejoin="round"
       stroke-miterlimit="10"
       stroke-width="1.5"
       id="path35" />
    <path
       fill="none"
       stroke="#000000"
       paint-order="fill stroke markers"
       d="M 329.45545,29.916202 V 628.24022"
       stroke-opacity="0.698039"
       stroke-linecap="round"
       stroke-linejoin="round"
       stroke-miterlimit="10"
       stroke-width="1.5"
       id="path37" />
    <path
       fill="none"
       stroke="#000000"
       paint-order="fill stroke markers"
       d="M 406.97303,40.1099 251.93786,618.04652"
       stroke-opacity="0.698039"
       stroke-linecap="round"
       stroke-linejoin="round"
       stroke-miterlimit="10"
       stroke-width="1.5"
       id="path39" />
    <path
       fill="none"
       stroke="#000000"
       paint-order="fill stroke markers"
       d="M 479.20792,69.996315 179.70297,588.16012"
       stroke-opacity="0.698039"
       stroke-linecap="round"
       stroke-linejoin="round"
       stroke-miterlimit="10"
       stroke-width="1.5"
       id="path41" />
    <path
       fill="none"
       stroke="#000000"
       paint-order="fill stroke markers"
       d="M 541.23743,117.53872 117.67346,540.6177"
       stroke-opacity="0.698039"
       stroke-linecap="round"
       stroke-linejoin="round"
       stroke-miterlimit="10"
       stroke-width="1.5"
       id="path43" />
    <path
       fill="none"
       stroke="#000000"
       paint-order="fill stroke markers"
       d="M 588.83434,179.4972 70.07655,478.65922"
       stroke-opacity="0.698039"
       stroke-linecap="round"
       stroke-linejoin="round"
       stroke-miterlimit="10"
       stroke-width="1.5"
       id="path45" />
    <path
       fill="none"
       stroke="#000000"
       paint-order="fill stroke markers"
       d="M 618.75501,251.64938 40.155879,406.50704"
       stroke-opacity="0.698039"
       stroke-linecap="round"
       stroke-linejoin="round"
       stroke-miterlimit="10"
       stroke-width="1.5"
       id="path47" />
    <g
       transform="matrix(51,0,0,51,0,-55.843575)"
       id="g103">
      <g
         transform="translate(7.9411771,8.4199352)"
         id="g79">
        <path
           fill="#000000"
           stroke="none"
           paint-order="stroke fill markers"
           d="M 0.419,-0.326 0.617,0 H 0.528 L 0.34,-0.317 H 0.182 V 0 H 0.096 v -0.694 h 0.241 q 0.106,0 0.179,0.0555 0.073,0.0555 0.073,0.1305 0,0.061 -0.0465,0.11 Q 0.496,-0.349 0.419,-0.326 M 0.182,-0.378 h 0.144 q 0.085,0 0.1335,-0.037 0.0485,-0.037 0.0485,-0.093 0,-0.055 -0.049,-0.0925 Q 0.41,-0.638 0.326,-0.638 H 0.182 Z"
           id="path77" />
      </g>
      <g
         transform="translate(8.5870131,8.4199352)"
         id="g83">
        <path
           fill="#000000"
           stroke="none"
           paint-order="stroke fill markers"
           d="M 0.399,-0.289 V 0 H 0.324 V -0.036 Q 0.263,0.011 0.158,0.011 0.1,0.011 0.072,-0.0295 0.044,-0.07 0.044,-0.113 0.044,-0.176 0.1225,-0.2095 0.201,-0.243 0.321,-0.245 v -0.043 q 0,-0.053 -0.025,-0.0835 -0.025,-0.0305 -0.062,-0.0305 -0.081,0 -0.151,0.05 L 0.077,-0.418 q 0.075,-0.043 0.157,-0.043 0.07,0 0.1175,0.0485 0.0475,0.0485 0.0475,0.1235 m -0.078,0.157 v -0.062 q -0.205,0.01 -0.205,0.079 0,0.03 0.0275,0.0475 0.0275,0.0175 0.0655,0.0175 0.047,0 0.078,-0.019 0.034,-0.019 0.034,-0.063 z"
           id="path81" />
      </g>
      <g
         transform="translate(9.0675701,8.4199352)"
         id="g87">
        <path
           fill="#000000"
           stroke="none"
           paint-order="stroke fill markers"
           d="M 0.434,-0.694 V 0 H 0.356 v -0.052 q -0.065,0.063 -0.148,0.063 -0.072,0 -0.122,-0.0675 -0.05,-0.0675 -0.05,-0.1655 0,-0.097 0.0515,-0.165 0.0515,-0.068 0.1255,-0.068 0.08,0 0.146,0.055 v -0.294 h 0.075 m -0.078,0.555 v -0.2 q -0.038,-0.055 -0.097,-0.055 -0.055,0 -0.1,0.042 -0.045,0.042 -0.045,0.131 0,0.086 0.0405,0.1285 0.0405,0.0425 0.0945,0.0425 0.042,0 0.074,-0.028 0.033,-0.03 0.033,-0.061 z"
           id="path85" />
      </g>
      <g
         transform="translate(9.5842381,8.4199352)"
         id="g91">
        <path
           fill="#000000"
           stroke="none"
           paint-order="stroke fill markers"
           d="m 0.163,-0.68 v 0.089 H 0.074 V -0.68 H 0.163 M 0.156,-0.444 V 0 H 0.081 v -0.444 z"
           id="path89" />
      </g>
      <g
         transform="translate(9.8231281,8.4199352)"
         id="g95">
        <path
           fill="#000000"
           stroke="none"
           paint-order="stroke fill markers"
           d="M 0.435,-0.444 V 0 H 0.36 V -0.048 Q 0.293,0.011 0.187,0.011 0.128,0.011 0.1045,-0.0195 0.081,-0.05 0.081,-0.109 v -0.335 h 0.078 v 0.331 q 0,0.037 0.0145,0.053 0.0145,0.016 0.0635,0.016 0.051,0 0.0855,-0.0285 Q 0.357,-0.101 0.357,-0.154 v -0.29 z"
           id="path93" />
      </g>
      <g
         transform="translate(10.339796,8.4199352)"
         id="g99">
        <path
           fill="#000000"
           stroke="none"
           paint-order="stroke fill markers"
           d="m 0.343,-0.429 -0.012,0.065 q -0.064,-0.038 -0.142,-0.038 -0.085,0 -0.085,0.062 0,0.014 0.006,0.025 0.006,0.011 0.0135,0.0175 0.0075,0.0065 0.023,0.012 0.0155,0.0055 0.0265,0.0085 0.011,0.003 0.032,0.007 0.043,0.008 0.066,0.017 0.023,0.009 0.05,0.033 l 0.005,0.006 q 0.005,0.005 0.01,0.0125 0.005,0.0075 0.011,0.018 0.006,0.0105 0.0095,0.0255 0.0035,0.015 0.0035,0.03 0,0.07 -0.048,0.107 -0.043,0.032 -0.116,0.032 -0.08,0 -0.168,-0.044 L 0.04,-0.101 q 0.074,0.049 0.155,0.049 0.094,0 0.094,-0.069 0,-0.015 -0.007,-0.027 Q 0.275,-0.16 0.2665,-0.167 0.258,-0.174 0.243,-0.18 0.228,-0.186 0.219,-0.188 0.21,-0.19 0.195,-0.193 0.161,-0.2 0.148,-0.203 0.135,-0.206 0.1185,-0.2125 0.102,-0.219 0.087,-0.23 0.033,-0.271 0.033,-0.33 0.033,-0.367 0.0485,-0.3935 0.064,-0.42 0.0835,-0.4325 0.103,-0.445 0.1305,-0.452 0.158,-0.459 0.171,-0.46 q 0.013,-0.001 0.028,-0.001 0.075,0 0.144,0.032 z"
           id="path97" />
      </g>
      <g
         id="g101" />
    </g>
    <g
       transform="matrix(36.062446,36.062446,-36.062446,36.062446,189.68187,-385.68934)"
       id="g135">
      <g
         transform="translate(10.000001,1.2557527)"
         id="g107">
        <path
           fill="#000000"
           stroke="none"
           paint-order="stroke fill markers"
           d="M 0.377,-0.694 0.638,0 H 0.546 L 0.47,-0.204 H 0.179 L 0.102,0 H 0.028 L 0.289,-0.694 H 0.377 M 0.448,-0.26 0.357,-0.517 Q 0.328,-0.6 0.325,-0.622 H 0.324 Q 0.318,-0.589 0.265,-0.441 L 0.2,-0.26 Z"
           id="path105" />
      </g>
      <g
         transform="translate(10.666671,1.2557527)"
         id="g111">
        <path
           fill="#000000"
           stroke="none"
           paint-order="stroke fill markers"
           d="m 0.4,-0.405 -0.266,0.344 h 0.085 q 0.006,0 0.018,-5e-4 0.012,-5e-4 0.018,-5e-4 H 0.402 V 0 H 0.028 V -0.041 L 0.295,-0.386 H 0.217 q -0.006,0 -0.018,5e-4 -0.012,5e-4 -0.018,5e-4 H 0.042 V -0.444 H 0.4 Z"
           id="path109" />
      </g>
      <g
         transform="translate(11.101394,1.2557527)"
         id="g115">
        <path
           fill="#000000"
           stroke="none"
           paint-order="stroke fill markers"
           d="m 0.163,-0.68 v 0.089 H 0.074 V -0.68 H 0.163 M 0.156,-0.444 V 0 H 0.081 v -0.444 z"
           id="path113" />
      </g>
      <g
         transform="translate(11.340284,1.2557527)"
         id="g119">
        <path
           fill="#000000"
           stroke="none"
           paint-order="stroke fill markers"
           d="M 0.713,-0.298 V 0 H 0.635 V -0.291 Q 0.635,-0.31 0.6325,-0.324 0.63,-0.338 0.6215,-0.356 0.613,-0.374 0.5915,-0.384 0.57,-0.394 0.537,-0.394 q -0.051,0 -0.076,0.045 -0.025,0.045 -0.025,0.104 V 0 H 0.358 V -0.291 Q 0.358,-0.31 0.3555,-0.324 0.353,-0.338 0.3445,-0.356 0.336,-0.374 0.3145,-0.384 0.293,-0.394 0.26,-0.394 q -0.051,0 -0.076,0.045 -0.025,0.045 -0.025,0.104 V 0 H 0.081 v -0.45 h 0.072 v 0.072 q 0.058,-0.077 0.146,-0.077 0.1,0 0.128,0.082 0.056,-0.082 0.149,-0.082 0.137,0 0.137,0.157 z"
           id="path117" />
      </g>
      <g
         transform="translate(12.134731,1.2557527)"
         id="g123">
        <path
           fill="#000000"
           stroke="none"
           paint-order="stroke fill markers"
           d="M 0.435,-0.444 V 0 H 0.36 V -0.048 Q 0.293,0.011 0.187,0.011 0.128,0.011 0.1045,-0.0195 0.081,-0.05 0.081,-0.109 v -0.335 h 0.078 v 0.331 q 0,0.037 0.0145,0.053 0.0145,0.016 0.0635,0.016 0.051,0 0.0855,-0.0285 Q 0.357,-0.101 0.357,-0.154 v -0.29 z"
           id="path121" />
      </g>
      <g
         transform="translate(12.651399,1.2557527)"
         id="g127">
        <path
           fill="#000000"
           stroke="none"
           paint-order="stroke fill markers"
           d="m 0.175,-0.386 v 0.25 q 0,0.083 0.051,0.083 0.049,0 0.09,-0.033 l 0.016,0.059 q -0.073,0.038 -0.146,0.038 -0.083,0 -0.083,-0.13 V -0.386 H 0.019 v -0.058 h 0.087 v -0.127 h 0.069 v 0.127 h 0.141 v 0.058 z"
           id="path125" />
      </g>
      <g
         transform="translate(13.012511,1.2557527)"
         id="g131">
        <path
           fill="#000000"
           stroke="none"
           paint-order="stroke fill markers"
           d="M 0.435,-0.298 V 0 H 0.357 v -0.291 q 0,-0.014 -5e-4,-0.0235 Q 0.356,-0.324 0.3505,-0.3405 0.345,-0.357 0.3355,-0.3675 0.326,-0.378 0.3065,-0.386 0.287,-0.394 0.26,-0.394 0.208,-0.394 0.1835,-0.349 0.159,-0.304 0.159,-0.245 V 0 H 0.081 v -0.694 h 0.075 v 0.311 q 0.056,-0.072 0.142,-0.072 0.137,0 0.137,0.157 z"
           id="path129" />
      </g>
      <g
         transform="rotate(-45,9.6666667,1.2557527)"
         id="g133" />
    </g>
  </g>
</svg>
