<svg version="1.1" xmlns="http://www.w3.org/2000/svg" xmlns:xlink="http://www.w3.org/1999/xlink" width="660" height="660"><defs><clipPath id="bdrBKBizWDRg"><path fill="none" stroke="none" d=" M 0 0 L 660 0 L 660 660 L 0 660 L 0 0 Z"/></clipPath></defs><g transform="scale(1,1)" clip-path="url(#bdrBKBizWDRg)"><g transform="translate(0,-59.83333333333326)"><rect fill="rgb(255,255,255)" stroke="none" x="0" y="0" width="1210" height="718" fill-opacity="1"/><path fill="rgb(0,0,0)" stroke="none" paint-order="stroke fill markers" fill-rule="evenodd" d=" M 329.4554455445545 382.9333333333333 L 329.4554455445545 394.9 L 581.0396039603961 394.9 L 581.0396039603961 406.8666666666666 L 628.960396039604 388.91666666666663 L 581.0396039603961 370.9666666666666 L 581.0396039603961 382.9333333333333 Z" fill-opacity="1"/><path fill="rgb(0,0,0)" stroke="none" paint-order="stroke fill markers" fill-rule="evenodd" d=" M 323.4653465346535 388.91666666666663 L 335.44554455445547 388.91666666666663 L 335.44554455445547 137.6166666666666 L 347.42574257425747 137.6166666666666 L 329.4554455445545 89.74999999999994 L 311.4851485148515 137.6166666666666 L 323.46534653465346 137.6166666666666 Z" fill-opacity="1"/><path fill="none" stroke="rgb(0,0,0)" paint-order="fill stroke markers" d=" M 628.960396039604 388.91666666666663 C 628.960396039604 554.141854324379 494.867462201797 688.0833333333333 329.4554455445545 688.0833333333333 C 164.04342888731193 688.0833333333333 29.95049504950498 554.141854324379 29.95049504950498 388.91666666666663 C 29.95049504950498 223.69147900895427 164.04342888731193 89.74999999999994 329.4554455445545 89.74999999999994 C 494.867462201797 89.74999999999994 628.960396039604 223.69147900895427 628.960396039604 388.91666666666663 Z" stroke-opacity="0.6980392156862745" stroke-linecap="round" stroke-linejoin="round" stroke-miterlimit="10" stroke-width="1.5"/><path fill="rgb(0,0,0)" stroke="none" paint-order="stroke fill markers" d=" M 335.4455445544555 388.91666666666663 C 335.4455445544555 392.22117041982085 332.76368587769934 394.9 329.4554455445545 394.9 C 326.14720521140964 394.9 323.4653465346535 392.22117041982085 323.4653465346535 388.91666666666663 C 323.4653465346535 385.61216291351235 326.14720521140964 382.9333333333333 329.4554455445545 382.9333333333333 C 332.76368587769934 382.9333333333333 335.4455445544555 385.61216291351235 335.4455445544555 388.91666666666663 Z" fill-opacity="1"/><path fill="none" stroke="rgb(0,0,0)" paint-order="fill stroke markers" d=" M 335.4455445544555 388.91666666666663 C 335.4455445544555 392.22117041982085 332.76368587769934 394.9 329.4554455445545 394.9 C 326.14720521140964 394.9 323.4653465346535 392.22117041982085 323.4653465346535 388.91666666666663 C 323.4653465346535 385.61216291351235 326.14720521140964 382.9333333333333 329.4554455445545 382.9333333333333 C 332.76368587769934 382.9333333333333 335.4455445544555 385.61216291351235 335.4455445544555 388.91666666666663 Z" stroke-opacity="0" stroke-linecap="round" stroke-linejoin="round" stroke-miterlimit="10" stroke-width="6.5"/><path fill="none" stroke="rgb(0,0,0)" paint-order="fill stroke markers" d=" M 254.5792079207921 104.70833333333331 L 404.3316831683169 104.70833333333331" stroke-opacity="0.6980392156862745" stroke-linecap="round" stroke-linejoin="round" stroke-miterlimit="10" stroke-width="1.5"/><path fill="none" stroke="rgb(0,0,0)" paint-order="fill stroke markers" d=" M 194.6782178217822 134.62499999999994 L 464.2326732673268 134.62499999999994" stroke-opacity="0.6980392156862745" stroke-linecap="round" stroke-linejoin="round" stroke-miterlimit="10" stroke-width="1.5"/><path fill="none" stroke="rgb(0,0,0)" paint-order="fill stroke markers" d=" M 134.7772277227723 164.54166666666663 L 524.1336633663367 164.54166666666663" stroke-opacity="0.6980392156862745" stroke-linecap="round" stroke-linejoin="round" stroke-miterlimit="10" stroke-width="1.5"/><path fill="none" stroke="rgb(0,0,0)" paint-order="fill stroke markers" d=" M 104.82673267326737 194.4583333333333 L 554.0841584158416 194.4583333333333" stroke-opacity="0.6980392156862745" stroke-linecap="round" stroke-linejoin="round" stroke-miterlimit="10" stroke-width="1.5"/><path fill="none" stroke="rgb(0,0,0)" paint-order="fill stroke markers" d=" M 104.82673267326737 224.37499999999994 L 554.0841584158416 224.37499999999994" stroke-opacity="0.6980392156862745" stroke-linecap="round" stroke-linejoin="round" stroke-miterlimit="10" stroke-width="1.5"/><path fill="none" stroke="rgb(0,0,0)" paint-order="fill stroke markers" d=" M 74.87623762376242 254.29166666666663 L 584.0346534653465 254.29166666666663" stroke-opacity="0.6980392156862745" stroke-linecap="round" stroke-linejoin="round" stroke-miterlimit="10" stroke-width="1.5"/><path fill="none" stroke="rgb(0,0,0)" paint-order="fill stroke markers" d=" M 74.87623762376242 284.2083333333333 L 584.0346534653465 284.2083333333333" stroke-opacity="0.6980392156862745" stroke-linecap="round" stroke-linejoin="round" stroke-miterlimit="10" stroke-width="1.5"/><path fill="none" stroke="rgb(0,0,0)" paint-order="fill stroke markers" d=" M 44.92574257425747 314.12499999999994 L 613.9851485148515 314.12499999999994" stroke-opacity="0.6980392156862745" stroke-linecap="round" stroke-linejoin="round" stroke-miterlimit="10" stroke-width="1.5"/><path fill="none" stroke="rgb(0,0,0)" paint-order="fill stroke markers" d=" M 44.92574257425747 344.04166666666663 L 613.9851485148515 344.04166666666663" stroke-opacity="0.6980392156862745" stroke-linecap="round" stroke-linejoin="round" stroke-miterlimit="10" stroke-width="1.5"/><path fill="none" stroke="rgb(0,0,0)" paint-order="fill stroke markers" d=" M 44.92574257425747 373.9583333333333 L 613.9851485148515 373.9583333333333" stroke-opacity="0.6980392156862745" stroke-linecap="round" stroke-linejoin="round" stroke-miterlimit="10" stroke-width="1.5"/><path fill="none" stroke="rgb(0,0,0)" paint-order="fill stroke markers" d=" M 44.92574257425747 403.87499999999994 L 613.9851485148515 403.87499999999994" stroke-opacity="0.6980392156862745" stroke-linecap="round" stroke-linejoin="round" stroke-miterlimit="10" stroke-width="1.5"/><path fill="none" stroke="rgb(0,0,0)" paint-order="fill stroke markers" d=" M 44.92574257425747 433.79166666666663 L 613.9851485148515 433.79166666666663" stroke-opacity="0.6980392156862745" stroke-linecap="round" stroke-linejoin="round" stroke-miterlimit="10" stroke-width="1.5"/><path fill="none" stroke="rgb(0,0,0)" paint-order="fill stroke markers" d=" M 44.92574257425747 463.7083333333333 L 613.9851485148515 463.7083333333333" stroke-opacity="0.6980392156862745" stroke-linecap="round" stroke-linejoin="round" stroke-miterlimit="10" stroke-width="1.5"/><path fill="none" stroke="rgb(0,0,0)" paint-order="fill stroke markers" d=" M 74.87623762376242 493.62499999999994 L 584.0346534653465 493.62499999999994" stroke-opacity="0.6980392156862745" stroke-linecap="round" stroke-linejoin="round" stroke-miterlimit="10" stroke-width="1.5"/><path fill="none" stroke="rgb(0,0,0)" paint-order="fill stroke markers" d=" M 74.87623762376242 523.5416666666666 L 584.0346534653465 523.5416666666666" stroke-opacity="0.6980392156862745" stroke-linecap="round" stroke-linejoin="round" stroke-miterlimit="10" stroke-width="1.5"/><path fill="none" stroke="rgb(0,0,0)" paint-order="fill stroke markers" d=" M 104.82673267326737 553.4583333333333 L 554.0841584158416 553.4583333333333" stroke-opacity="0.6980392156862745" stroke-linecap="round" stroke-linejoin="round" stroke-miterlimit="10" stroke-width="1.5"/><path fill="none" stroke="rgb(0,0,0)" paint-order="fill stroke markers" d=" M 104.82673267326737 583.375 L 554.0841584158416 583.375" stroke-opacity="0.6980392156862745" stroke-linecap="round" stroke-linejoin="round" stroke-miterlimit="10" stroke-width="1.5"/><path fill="none" stroke="rgb(0,0,0)" paint-order="fill stroke markers" d=" M 134.7772277227723 613.2916666666666 L 524.1336633663367 613.2916666666666" stroke-opacity="0.6980392156862745" stroke-linecap="round" stroke-linejoin="round" stroke-miterlimit="10" stroke-width="1.5"/><path fill="none" stroke="rgb(0,0,0)" paint-order="fill stroke markers" d=" M 194.6782178217822 643.2083333333333 L 464.2326732673268 643.2083333333333" stroke-opacity="0.6980392156862745" stroke-linecap="round" stroke-linejoin="round" stroke-miterlimit="10" stroke-width="1.5"/><path fill="none" stroke="rgb(0,0,0)" paint-order="fill stroke markers" d=" M 254.5792079207921 673.125 L 404.3316831683169 673.125" stroke-opacity="0.6980392156862745" stroke-linecap="round" stroke-linejoin="round" stroke-miterlimit="10" stroke-width="1.5"/><path fill="none" stroke="rgb(0,0,0)" paint-order="fill stroke markers" d=" M 44.92574257425747 314.12499999999994 L 44.92574257425747 463.7083333333333" stroke-opacity="0.6980392156862745" stroke-linecap="round" stroke-linejoin="round" stroke-miterlimit="10" stroke-width="1.5"/><path fill="none" stroke="rgb(0,0,0)" paint-order="fill stroke markers" d=" M 74.87623762376242 254.29166666666663 L 74.87623762376242 523.5416666666666" stroke-opacity="0.6980392156862745" stroke-linecap="round" stroke-linejoin="round" stroke-miterlimit="10" stroke-width="1.5"/><path fill="none" stroke="rgb(0,0,0)" paint-order="fill stroke markers" d=" M 104.82673267326737 194.4583333333333 L 104.82673267326737 583.375" stroke-opacity="0.6980392156862745" stroke-linecap="round" stroke-linejoin="round" stroke-miterlimit="10" stroke-width="1.5"/><path fill="none" stroke="rgb(0,0,0)" paint-order="fill stroke markers" d=" M 134.7772277227723 164.54166666666663 L 134.7772277227723 613.2916666666666" stroke-opacity="0.6980392156862745" stroke-linecap="round" stroke-linejoin="round" stroke-miterlimit="10" stroke-width="1.5"/><path fill="none" stroke="rgb(0,0,0)" paint-order="fill stroke markers" d=" M 164.72772277227725 164.54166666666663 L 164.72772277227725 613.2916666666666" stroke-opacity="0.6980392156862745" stroke-linecap="round" stroke-linejoin="round" stroke-miterlimit="10" stroke-width="1.5"/><path fill="none" stroke="rgb(0,0,0)" paint-order="fill stroke markers" d=" M 194.6782178217822 134.62499999999994 L 194.6782178217822 643.2083333333333" stroke-opacity="0.6980392156862745" stroke-linecap="round" stroke-linejoin="round" stroke-miterlimit="10" stroke-width="1.5"/><path fill="none" stroke="rgb(0,0,0)" paint-order="fill stroke markers" d=" M 224.62871287128718 643.2083333333333 L 224.62871287128718 134.62499999999994" stroke-opacity="0.6980392156862745" stroke-linecap="round" stroke-linejoin="round" stroke-miterlimit="10" stroke-width="1.5"/><path fill="none" stroke="rgb(0,0,0)" paint-order="fill stroke markers" d=" M 254.5792079207921 104.70833333333331 L 254.5792079207921 673.125" stroke-opacity="0.6980392156862745" stroke-linecap="round" stroke-linejoin="round" stroke-miterlimit="10" stroke-width="1.5"/><path fill="none" stroke="rgb(0,0,0)" paint-order="fill stroke markers" d=" M 284.5297029702971 673.125 L 284.5297029702971 104.70833333333331" stroke-opacity="0.6980392156862745" stroke-linecap="round" stroke-linejoin="round" stroke-miterlimit="10" stroke-width="1.5"/><path fill="none" stroke="rgb(0,0,0)" paint-order="fill stroke markers" d=" M 314.480198019802 104.70833333333331 L 314.480198019802 673.125" stroke-opacity="0.6980392156862745" stroke-linecap="round" stroke-linejoin="round" stroke-miterlimit="10" stroke-width="1.5"/><path fill="none" stroke="rgb(0,0,0)" paint-order="fill stroke markers" d=" M 344.430693069307 673.125 L 344.430693069307 104.70833333333331" stroke-opacity="0.6980392156862745" stroke-linecap="round" stroke-linejoin="round" stroke-miterlimit="10" stroke-width="1.5"/><path fill="none" stroke="rgb(0,0,0)" paint-order="fill stroke markers" d=" M 374.3811881188119 104.70833333333331 L 374.3811881188119 673.125" stroke-opacity="0.6980392156862745" stroke-linecap="round" stroke-linejoin="round" stroke-miterlimit="10" stroke-width="1.5"/><path fill="none" stroke="rgb(0,0,0)" paint-order="fill stroke markers" d=" M 404.3316831683169 673.125 L 404.3316831683169 104.70833333333331" stroke-opacity="0.6980392156862745" stroke-linecap="round" stroke-linejoin="round" stroke-miterlimit="10" stroke-width="1.5"/><path fill="none" stroke="rgb(0,0,0)" paint-order="fill stroke markers" d=" M 434.2821782178218 134.62499999999994 L 434.2821782178218 643.2083333333333" stroke-opacity="0.6980392156862745" stroke-linecap="round" stroke-linejoin="round" stroke-miterlimit="10" stroke-width="1.5"/><path fill="none" stroke="rgb(0,0,0)" paint-order="fill stroke markers" d=" M 464.2326732673268 643.2083333333333 L 464.2326732673268 134.62499999999994" stroke-opacity="0.6980392156862745" stroke-linecap="round" stroke-linejoin="round" stroke-miterlimit="10" stroke-width="1.5"/><path fill="none" stroke="rgb(0,0,0)" paint-order="fill stroke markers" d=" M 494.1831683168317 613.2916666666666 L 494.1831683168317 164.54166666666663" stroke-opacity="0.6980392156862745" stroke-linecap="round" stroke-linejoin="round" stroke-miterlimit="10" stroke-width="1.5"/><path fill="none" stroke="rgb(0,0,0)" paint-order="fill stroke markers" d=" M 524.1336633663367 613.2916666666666 L 524.1336633663367 164.54166666666663" stroke-opacity="0.6980392156862745" stroke-linecap="round" stroke-linejoin="round" stroke-miterlimit="10" stroke-width="1.5"/><path fill="none" stroke="rgb(0,0,0)" paint-order="fill stroke markers" d=" M 554.0841584158416 583.375 L 554.0841584158416 194.4583333333333" stroke-opacity="0.6980392156862745" stroke-linecap="round" stroke-linejoin="round" stroke-miterlimit="10" stroke-width="1.5"/><path fill="none" stroke="rgb(0,0,0)" paint-order="fill stroke markers" d=" M 584.0346534653465 523.5416666666666 L 584.0346534653465 254.29166666666663" stroke-opacity="0.6980392156862745" stroke-linecap="round" stroke-linejoin="round" stroke-miterlimit="10" stroke-width="1.5"/><path fill="none" stroke="rgb(0,0,0)" paint-order="fill stroke markers" d=" M 613.9851485148515 463.7083333333333 L 613.9851485148515 314.12499999999994" stroke-opacity="0.6980392156862745" stroke-linecap="round" stroke-linejoin="round" stroke-miterlimit="10" stroke-width="1.5"/><path fill="none" stroke="rgb(0,0,0)" paint-order="fill stroke markers" d=" M 811.5 118.5 L 1011.5 118.5" stroke-opacity="0.39215686274509803" stroke-linecap="round" stroke-linejoin="round" stroke-miterlimit="10" stroke-width="5"/><path fill="rgb(0,0,0)" stroke="none" paint-order="stroke fill markers" d=" M 1020 118.5 C 1020 123.19442037356174 1016.1944203735618 127 1011.5 127 C 1006.8055796264382 127 1003 123.19442037356174 1003 118.5 C 1003 113.80557962643826 1006.8055796264382 110 1011.5 110 C 1016.1944203735618 110 1020 113.80557962643826 1020 118.5 Z" fill-opacity="0.39215686274509803"/><path fill="none" stroke="rgb(0,0,0)" paint-order="fill stroke markers" d=" M 1020 118.5 C 1020 123.19442037356174 1016.1944203735618 127 1011.5 127 C 1006.8055796264382 127 1003 123.19442037356174 1003 118.5 C 1003 113.80557962643826 1006.8055796264382 110 1011.5 110 C 1016.1944203735618 110 1020 113.80557962643826 1020 118.5 Z" stroke-opacity="0.39215686274509803" stroke-linecap="round" stroke-linejoin="round" stroke-miterlimit="10"/><path fill="rgb(0,0,0)" stroke="none" paint-order="stroke fill markers" d=" M 1017 118.5 C 1017 121.53756612406936 1014.5375661240694 124 1011.5 124 C 1008.4624338759306 124 1006 121.53756612406936 1006 118.5 C 1006 115.46243387593064 1008.4624338759306 113 1011.5 113 C 1014.5375661240694 113 1017 115.46243387593064 1017 118.5 Z" fill-opacity="1"/><path fill="none" stroke="rgb(0,0,0)" paint-order="fill stroke markers" d=" M 1017 118.5 C 1017 121.53756612406936 1014.5375661240694 124 1011.5 124 C 1008.4624338759306 124 1006 121.53756612406936 1006 118.5 C 1006 115.46243387593064 1008.4624338759306 113 1011.5 113 C 1014.5375661240694 113 1017 115.46243387593064 1017 118.5 Z" stroke-opacity="1" stroke-linecap="round" stroke-linejoin="round" stroke-miterlimit="10"/><text fill="none" stroke="rgb(255,255,255)" font-family="geogebra-sans-serif, sans-serif" font-size="12px" font-style="normal" font-weight="normal" text-decoration="normal" x="1000" y="103" text-anchor="start" dominant-baseline="alphabetic" stroke-opacity="1" stroke-linecap="round" stroke-linejoin="bevel" stroke-miterlimit="10" stroke-width="3">Pixels = 300</text><text fill="rgb(0,0,0)" stroke="none" font-family="geogebra-sans-serif, sans-serif" font-size="12px" font-style="normal" font-weight="normal" text-decoration="normal" x="1000" y="103" text-anchor="start" dominant-baseline="alphabetic" fill-opacity="1">Pixels = 300</text><path fill="none" stroke="rgb(0,0,0)" paint-order="fill stroke markers" d=" M 839.5 327.5 L 1039.5 327.5" stroke-opacity="0.39215686274509803" stroke-linecap="round" stroke-linejoin="round" stroke-miterlimit="10" stroke-width="5"/><path fill="rgb(0,0,0)" stroke="none" paint-order="stroke fill markers" d=" M 928 327.5 C 928 332.19442037356174 924.1944203735618 336 919.5 336 C 914.8055796264382 336 911 332.19442037356174 911 327.5 C 911 322.80557962643826 914.8055796264382 319 919.5 319 C 924.1944203735618 319 928 322.80557962643826 928 327.5 Z" fill-opacity="0.39215686274509803"/><path fill="none" stroke="rgb(0,0,0)" paint-order="fill stroke markers" d=" M 928 327.5 C 928 332.19442037356174 924.1944203735618 336 919.5 336 C 914.8055796264382 336 911 332.19442037356174 911 327.5 C 911 322.80557962643826 914.8055796264382 319 919.5 319 C 924.1944203735618 319 928 322.80557962643826 928 327.5 Z" stroke-opacity="0.39215686274509803" stroke-linecap="round" stroke-linejoin="round" stroke-miterlimit="10"/><path fill="rgb(0,0,0)" stroke="none" paint-order="stroke fill markers" d=" M 925 327.5 C 925 330.5375661240694 922.5375661240694 333 919.5 333 C 916.4624338759306 333 914 330.5375661240694 914 327.5 C 914 324.4624338759306 916.4624338759306 322 919.5 322 C 922.5375661240694 322 925 324.4624338759306 925 327.5 Z" fill-opacity="1"/><path fill="none" stroke="rgb(0,0,0)" paint-order="fill stroke markers" d=" M 925 327.5 C 925 330.5375661240694 922.5375661240694 333 919.5 333 C 916.4624338759306 333 914 330.5375661240694 914 327.5 C 914 324.4624338759306 916.4624338759306 322 919.5 322 C 922.5375661240694 322 925 324.4624338759306 925 327.5 Z" stroke-opacity="1" stroke-linecap="round" stroke-linejoin="round" stroke-miterlimit="10"/><text fill="none" stroke="rgb(255,255,255)" font-family="geogebra-sans-serif, sans-serif" font-size="12px" font-style="normal" font-weight="normal" text-decoration="normal" x="908" y="312" text-anchor="start" dominant-baseline="alphabetic" stroke-opacity="1" stroke-linecap="round" stroke-linejoin="bevel" stroke-miterlimit="10" stroke-width="3">ArrowScale = 0.04</text><text fill="rgb(0,0,0)" stroke="none" font-family="geogebra-sans-serif, sans-serif" font-size="12px" font-style="normal" font-weight="normal" text-decoration="normal" x="908" y="312" text-anchor="start" dominant-baseline="alphabetic" fill-opacity="1">ArrowScale = 0.04</text><text fill="rgb(0,0,0)" stroke="none" font-family="geogebra-sans-serif, sans-serif" font-size="12px" font-style="normal" font-weight="normal" text-decoration="normal" x="1021" y="367" text-anchor="start" dominant-baseline="alphabetic" fill-opacity="1">Chroma</text><g transform="scale(15,15)"><g transform="translate(68.43333333333334,30.20555633598243)"><path fill="rgb(0,0,0)" stroke="none" paint-order="stroke fill markers" d=" M 0.577 -0.681 L 0.562 -0.6 Q 0.481 -0.652 0.393 -0.652 Q 0.291 -0.652 0.2235 -0.562 Q 0.156 -0.47200000000000003 0.156 -0.34700000000000003 Q 0.156 -0.225 0.222 -0.1335 Q 0.28800000000000003 -0.042 0.396 -0.042 Q 0.451 -0.042 0.4905 -0.054 Q 0.53 -0.066 0.582 -0.10300000000000001 L 0.588 -0.034 Q 0.534 -0.001 0.495 0.0105 Q 0.456 0.022 0.395 0.022 Q 0.253 0.022 0.16 -0.088 Q 0.067 -0.198 0.067 -0.34700000000000003 Q 0.067 -0.498 0.16 -0.607 Q 0.253 -0.716 0.394 -0.716 Q 0.485 -0.716 0.577 -0.681 Z"/></g><g transform="translate(69.07222433333334,30.20555633598243)"><path fill="rgb(0,0,0)" stroke="none" paint-order="stroke fill markers" d=" M 0.435 -0.298 L 0.435 0 L 0.357 0 L 0.357 -0.291 Q 0.357 -0.305 0.3565 -0.3145 Q 0.356 -0.324 0.35050000000000003 -0.3405 Q 0.34500000000000003 -0.357 0.3355 -0.3675 Q 0.326 -0.378 0.3065 -0.386 Q 0.28700000000000003 -0.394 0.26 -0.394 Q 0.20800000000000002 -0.394 0.1835 -0.34900000000000003 Q 0.159 -0.304 0.159 -0.245 L 0.159 0 L 0.081 0 L 0.081 -0.6940000000000001 L 0.156 -0.6940000000000001 L 0.156 -0.383 Q 0.212 -0.455 0.298 -0.455 Q 0.435 -0.455 0.435 -0.298 Z"/></g><g transform="translate(69.58889233333333,30.20555633598243)"><path fill="rgb(0,0,0)" stroke="none" paint-order="stroke fill markers" d=" M 0.157 -0.214 L 0.157 0 L 0.082 0 L 0.082 -0.45 L 0.152 -0.45 L 0.152 -0.359 Q 0.216 -0.454 0.327 -0.455 L 0.327 -0.388 Q 0.253 -0.386 0.20500000000000002 -0.3375 Q 0.157 -0.289 0.157 -0.214 Z"/></g><g transform="translate(69.94444933333334,30.20555633598243)"><path fill="rgb(0,0,0)" stroke="none" paint-order="stroke fill markers" d=" M 0.46900000000000003 -0.22 Q 0.46900000000000003 -0.123 0.4045 -0.056 Q 0.34 0.011 0.249 0.011 Q 0.16 0.011 0.095 -0.0555 Q 0.03 -0.122 0.03 -0.22 Q 0.03 -0.319 0.094 -0.39 Q 0.158 -0.461 0.25 -0.461 Q 0.34 -0.461 0.4045 -0.3905 Q 0.46900000000000003 -0.32 0.46900000000000003 -0.22 M 0.249 -0.053 Q 0.308 -0.053 0.34950000000000003 -0.0995 Q 0.391 -0.146 0.391 -0.23 Q 0.391 -0.313 0.34900000000000003 -0.3565 Q 0.307 -0.4 0.249 -0.4 Q 0.193 -0.4 0.1505 -0.357 Q 0.108 -0.314 0.108 -0.23 Q 0.108 -0.145 0.15 -0.099 Q 0.192 -0.053 0.249 -0.053 Z"/></g><g transform="translate(70.44445133333333,30.20555633598243)"><path fill="rgb(0,0,0)" stroke="none" paint-order="stroke fill markers" d=" M 0.713 -0.298 L 0.713 0 L 0.635 0 L 0.635 -0.291 Q 0.635 -0.31 0.6325000000000001 -0.324 Q 0.63 -0.338 0.6215 -0.356 Q 0.613 -0.374 0.5915 -0.384 Q 0.5700000000000001 -0.394 0.537 -0.394 Q 0.486 -0.394 0.461 -0.34900000000000003 Q 0.436 -0.304 0.436 -0.245 L 0.436 0 L 0.358 0 L 0.358 -0.291 Q 0.358 -0.31 0.3555 -0.324 Q 0.353 -0.338 0.34450000000000003 -0.356 Q 0.336 -0.374 0.3145 -0.384 Q 0.293 -0.394 0.26 -0.394 Q 0.209 -0.394 0.184 -0.34900000000000003 Q 0.159 -0.304 0.159 -0.245 L 0.159 0 L 0.081 0 L 0.081 -0.45 L 0.153 -0.45 L 0.153 -0.378 Q 0.211 -0.455 0.299 -0.455 Q 0.399 -0.455 0.427 -0.373 Q 0.483 -0.455 0.5760000000000001 -0.455 Q 0.713 -0.455 0.713 -0.298 Z"/></g><g transform="translate(71.23889833333334,30.20555633598243)"><path fill="rgb(0,0,0)" stroke="none" paint-order="stroke fill markers" d=" M 0.399 -0.289 L 0.399 0 L 0.324 0 L 0.324 -0.036000000000000004 Q 0.263 0.011 0.158 0.011 Q 0.1 0.011 0.07200000000000001 -0.029500000000000002 Q 0.044 -0.07 0.044 -0.113 Q 0.044 -0.176 0.1225 -0.2095 Q 0.201 -0.243 0.321 -0.245 L 0.321 -0.28800000000000003 Q 0.321 -0.341 0.296 -0.3715 Q 0.271 -0.402 0.234 -0.402 Q 0.153 -0.402 0.083 -0.352 L 0.077 -0.418 Q 0.152 -0.461 0.234 -0.461 Q 0.304 -0.461 0.35150000000000003 -0.41250000000000003 Q 0.399 -0.364 0.399 -0.289 M 0.321 -0.132 L 0.321 -0.194 Q 0.116 -0.184 0.116 -0.115 Q 0.116 -0.085 0.14350000000000002 -0.0675 Q 0.171 -0.05 0.209 -0.05 Q 0.256 -0.05 0.28700000000000003 -0.069 Q 0.321 -0.088 0.321 -0.132 Z"/></g></g><text fill="rgb(0,0,0)" stroke="none" font-family="geogebra-sans-serif, sans-serif" font-size="12px" font-style="normal" font-weight="normal" text-decoration="normal" x="1029" y="395" text-anchor="start" dominant-baseline="alphabetic" fill-opacity="1">Value</text><g transform="scale(15,15)"><g transform="translate(68.96666666666667,32.00555633598243)"><path fill="rgb(0,0,0)" stroke="none" paint-order="stroke fill markers" d=" M 0.652 -0.6940000000000001 L 0.379 0 L 0.28700000000000003 0 L 0.014 -0.6940000000000001 L 0.107 -0.6940000000000001 L 0.28 -0.246 Q 0.334 -0.10200000000000001 0.34 -0.07200000000000001 L 0.341 -0.07200000000000001 Q 0.35000000000000003 -0.12 0.441 -0.352 L 0.5740000000000001 -0.6940000000000001 L 0.652 -0.6940000000000001 Z"/></g><g transform="translate(69.61944566666668,32.00555633598243)"><path fill="rgb(0,0,0)" stroke="none" paint-order="stroke fill markers" d=" M 0.399 -0.289 L 0.399 0 L 0.324 0 L 0.324 -0.036000000000000004 Q 0.263 0.011 0.158 0.011 Q 0.1 0.011 0.07200000000000001 -0.029500000000000002 Q 0.044 -0.07 0.044 -0.113 Q 0.044 -0.176 0.1225 -0.2095 Q 0.201 -0.243 0.321 -0.245 L 0.321 -0.28800000000000003 Q 0.321 -0.341 0.296 -0.3715 Q 0.271 -0.402 0.234 -0.402 Q 0.153 -0.402 0.083 -0.352 L 0.077 -0.418 Q 0.152 -0.461 0.234 -0.461 Q 0.304 -0.461 0.35150000000000003 -0.41250000000000003 Q 0.399 -0.364 0.399 -0.289 M 0.321 -0.132 L 0.321 -0.194 Q 0.116 -0.184 0.116 -0.115 Q 0.116 -0.085 0.14350000000000002 -0.0675 Q 0.171 -0.05 0.209 -0.05 Q 0.256 -0.05 0.28700000000000003 -0.069 Q 0.321 -0.088 0.321 -0.132 Z"/></g><g transform="translate(70.10000266666668,32.00555633598243)"><path fill="rgb(0,0,0)" stroke="none" paint-order="stroke fill markers" d=" M 0.156 -0.6940000000000001 L 0.156 0 L 0.081 0 L 0.081 -0.6940000000000001 L 0.156 -0.6940000000000001 Z"/></g><g transform="translate(70.33889266666668,32.00555633598243)"><path fill="rgb(0,0,0)" stroke="none" paint-order="stroke fill markers" d=" M 0.435 -0.444 L 0.435 0 L 0.36 0 L 0.36 -0.048 Q 0.293 0.011 0.187 0.011 Q 0.128 0.011 0.1045 -0.0195 Q 0.081 -0.05 0.081 -0.109 L 0.081 -0.444 L 0.159 -0.444 L 0.159 -0.113 Q 0.159 -0.076 0.17350000000000002 -0.06 Q 0.188 -0.044 0.23700000000000002 -0.044 Q 0.28800000000000003 -0.044 0.3225 -0.0725 Q 0.357 -0.101 0.357 -0.154 L 0.357 -0.444 L 0.435 -0.444 Z"/></g><g transform="translate(70.85556066666668,32.00555633598243)"><path fill="rgb(0,0,0)" stroke="none" paint-order="stroke fill markers" d=" M 0.41400000000000003 -0.219 L 0.105 -0.219 Q 0.107 -0.146 0.1495 -0.098 Q 0.192 -0.05 0.252 -0.05 Q 0.336 -0.05 0.404 -0.106 L 0.41000000000000003 -0.041 Q 0.338 0.011 0.251 0.011 Q 0.161 0.011 0.098 -0.058 Q 0.035 -0.127 0.035 -0.226 Q 0.035 -0.323 0.094 -0.392 Q 0.153 -0.461 0.23600000000000002 -0.461 Q 0.326 -0.461 0.374 -0.388 Q 0.41400000000000003 -0.326 0.41400000000000003 -0.219 M 0.11 -0.274 L 0.357 -0.274 Q 0.34800000000000003 -0.338 0.314 -0.369 Q 0.28 -0.4 0.23600000000000002 -0.4 Q 0.193 -0.4 0.1575 -0.365 Q 0.122 -0.33 0.11 -0.274 Z"/></g></g><g transform="scale(51,51) translate(7.422059326178511,7.039222352941177) rotate(-90,0,0) translate(-7.422059326178511,-7.039222352941177)"><g transform="translate(7.922059326178511,7.136444852941177)"><path fill="rgb(0,0,0)" stroke="none" paint-order="stroke fill markers" d=" M 0.652 -0.6940000000000001 L 0.379 0 L 0.28700000000000003 0 L 0.014 -0.6940000000000001 L 0.107 -0.6940000000000001 L 0.28 -0.246 Q 0.334 -0.10200000000000001 0.34 -0.07200000000000001 L 0.341 -0.07200000000000001 Q 0.35000000000000003 -0.12 0.441 -0.352 L 0.5740000000000001 -0.6940000000000001 L 0.652 -0.6940000000000001 Z"/></g><g transform="translate(8.57483832617851,7.136444852941177)"><path fill="rgb(0,0,0)" stroke="none" paint-order="stroke fill markers" d=" M 0.399 -0.289 L 0.399 0 L 0.324 0 L 0.324 -0.036000000000000004 Q 0.263 0.011 0.158 0.011 Q 0.1 0.011 0.07200000000000001 -0.029500000000000002 Q 0.044 -0.07 0.044 -0.113 Q 0.044 -0.176 0.1225 -0.2095 Q 0.201 -0.243 0.321 -0.245 L 0.321 -0.28800000000000003 Q 0.321 -0.341 0.296 -0.3715 Q 0.271 -0.402 0.234 -0.402 Q 0.153 -0.402 0.083 -0.352 L 0.077 -0.418 Q 0.152 -0.461 0.234 -0.461 Q 0.304 -0.461 0.35150000000000003 -0.41250000000000003 Q 0.399 -0.364 0.399 -0.289 M 0.321 -0.132 L 0.321 -0.194 Q 0.116 -0.184 0.116 -0.115 Q 0.116 -0.085 0.14350000000000002 -0.0675 Q 0.171 -0.05 0.209 -0.05 Q 0.256 -0.05 0.28700000000000003 -0.069 Q 0.321 -0.088 0.321 -0.132 Z"/></g><g transform="translate(9.055395326178509,7.136444852941177)"><path fill="rgb(0,0,0)" stroke="none" paint-order="stroke fill markers" d=" M 0.156 -0.6940000000000001 L 0.156 0 L 0.081 0 L 0.081 -0.6940000000000001 L 0.156 -0.6940000000000001 Z"/></g><g transform="translate(9.294285326178509,7.136444852941177)"><path fill="rgb(0,0,0)" stroke="none" paint-order="stroke fill markers" d=" M 0.435 -0.444 L 0.435 0 L 0.36 0 L 0.36 -0.048 Q 0.293 0.011 0.187 0.011 Q 0.128 0.011 0.1045 -0.0195 Q 0.081 -0.05 0.081 -0.109 L 0.081 -0.444 L 0.159 -0.444 L 0.159 -0.113 Q 0.159 -0.076 0.17350000000000002 -0.06 Q 0.188 -0.044 0.23700000000000002 -0.044 Q 0.28800000000000003 -0.044 0.3225 -0.0725 Q 0.357 -0.101 0.357 -0.154 L 0.357 -0.444 L 0.435 -0.444 Z"/></g><g transform="translate(9.810953326178508,7.136444852941177)"><path fill="rgb(0,0,0)" stroke="none" paint-order="stroke fill markers" d=" M 0.41400000000000003 -0.219 L 0.105 -0.219 Q 0.107 -0.146 0.1495 -0.098 Q 0.192 -0.05 0.252 -0.05 Q 0.336 -0.05 0.404 -0.106 L 0.41000000000000003 -0.041 Q 0.338 0.011 0.251 0.011 Q 0.161 0.011 0.098 -0.058 Q 0.035 -0.127 0.035 -0.226 Q 0.035 -0.323 0.094 -0.392 Q 0.153 -0.461 0.23600000000000002 -0.461 Q 0.326 -0.461 0.374 -0.388 Q 0.41400000000000003 -0.326 0.41400000000000003 -0.219 M 0.11 -0.274 L 0.357 -0.274 Q 0.34800000000000003 -0.338 0.314 -0.369 Q 0.28 -0.4 0.23600000000000002 -0.4 Q 0.193 -0.4 0.1575 -0.365 Q 0.122 -0.33 0.11 -0.274 Z"/></g><g transform="translate(7.422059326178511,7.039222352941177) rotate(90,0,0) translate(-7.422059326178511,-7.039222352941177)"/></g><g transform="scale(51,51) translate(6.647058823529412,8.598529914413804) rotate(0,0,0) translate(-6.647058823529412,-8.598529914413804)"><g transform="translate(7.147058823529412,8.695752414413803)"><path fill="rgb(0,0,0)" stroke="none" paint-order="stroke fill markers" d=" M 0.577 -0.681 L 0.562 -0.6 Q 0.481 -0.652 0.393 -0.652 Q 0.291 -0.652 0.2235 -0.562 Q 0.156 -0.47200000000000003 0.156 -0.34700000000000003 Q 0.156 -0.225 0.222 -0.1335 Q 0.28800000000000003 -0.042 0.396 -0.042 Q 0.451 -0.042 0.4905 -0.054 Q 0.53 -0.066 0.582 -0.10300000000000001 L 0.588 -0.034 Q 0.534 -0.001 0.495 0.0105 Q 0.456 0.022 0.395 0.022 Q 0.253 0.022 0.16 -0.088 Q 0.067 -0.198 0.067 -0.34700000000000003 Q 0.067 -0.498 0.16 -0.607 Q 0.253 -0.716 0.394 -0.716 Q 0.485 -0.716 0.577 -0.681 Z"/></g><g transform="translate(7.785949823529412,8.695752414413803)"><path fill="rgb(0,0,0)" stroke="none" paint-order="stroke fill markers" d=" M 0.435 -0.298 L 0.435 0 L 0.357 0 L 0.357 -0.291 Q 0.357 -0.305 0.3565 -0.3145 Q 0.356 -0.324 0.35050000000000003 -0.3405 Q 0.34500000000000003 -0.357 0.3355 -0.3675 Q 0.326 -0.378 0.3065 -0.386 Q 0.28700000000000003 -0.394 0.26 -0.394 Q 0.20800000000000002 -0.394 0.1835 -0.34900000000000003 Q 0.159 -0.304 0.159 -0.245 L 0.159 0 L 0.081 0 L 0.081 -0.6940000000000001 L 0.156 -0.6940000000000001 L 0.156 -0.383 Q 0.212 -0.455 0.298 -0.455 Q 0.435 -0.455 0.435 -0.298 Z"/></g><g transform="translate(8.302617823529411,8.695752414413803)"><path fill="rgb(0,0,0)" stroke="none" paint-order="stroke fill markers" d=" M 0.157 -0.214 L 0.157 0 L 0.082 0 L 0.082 -0.45 L 0.152 -0.45 L 0.152 -0.359 Q 0.216 -0.454 0.327 -0.455 L 0.327 -0.388 Q 0.253 -0.386 0.20500000000000002 -0.3375 Q 0.157 -0.289 0.157 -0.214 Z"/></g><g transform="translate(8.65817482352941,8.695752414413803)"><path fill="rgb(0,0,0)" stroke="none" paint-order="stroke fill markers" d=" M 0.46900000000000003 -0.22 Q 0.46900000000000003 -0.123 0.4045 -0.056 Q 0.34 0.011 0.249 0.011 Q 0.16 0.011 0.095 -0.0555 Q 0.03 -0.122 0.03 -0.22 Q 0.03 -0.319 0.094 -0.39 Q 0.158 -0.461 0.25 -0.461 Q 0.34 -0.461 0.4045 -0.3905 Q 0.46900000000000003 -0.32 0.46900000000000003 -0.22 M 0.249 -0.053 Q 0.308 -0.053 0.34950000000000003 -0.0995 Q 0.391 -0.146 0.391 -0.23 Q 0.391 -0.313 0.34900000000000003 -0.3565 Q 0.307 -0.4 0.249 -0.4 Q 0.193 -0.4 0.1505 -0.357 Q 0.108 -0.314 0.108 -0.23 Q 0.108 -0.145 0.15 -0.099 Q 0.192 -0.053 0.249 -0.053 Z"/></g><g transform="translate(9.158176823529411,8.695752414413803)"><path fill="rgb(0,0,0)" stroke="none" paint-order="stroke fill markers" d=" M 0.713 -0.298 L 0.713 0 L 0.635 0 L 0.635 -0.291 Q 0.635 -0.31 0.6325000000000001 -0.324 Q 0.63 -0.338 0.6215 -0.356 Q 0.613 -0.374 0.5915 -0.384 Q 0.5700000000000001 -0.394 0.537 -0.394 Q 0.486 -0.394 0.461 -0.34900000000000003 Q 0.436 -0.304 0.436 -0.245 L 0.436 0 L 0.358 0 L 0.358 -0.291 Q 0.358 -0.31 0.3555 -0.324 Q 0.353 -0.338 0.34450000000000003 -0.356 Q 0.336 -0.374 0.3145 -0.384 Q 0.293 -0.394 0.26 -0.394 Q 0.209 -0.394 0.184 -0.34900000000000003 Q 0.159 -0.304 0.159 -0.245 L 0.159 0 L 0.081 0 L 0.081 -0.45 L 0.153 -0.45 L 0.153 -0.378 Q 0.211 -0.455 0.299 -0.455 Q 0.399 -0.455 0.427 -0.373 Q 0.483 -0.455 0.5760000000000001 -0.455 Q 0.713 -0.455 0.713 -0.298 Z"/></g><g transform="translate(9.95262382352941,8.695752414413803)"><path fill="rgb(0,0,0)" stroke="none" paint-order="stroke fill markers" d=" M 0.399 -0.289 L 0.399 0 L 0.324 0 L 0.324 -0.036000000000000004 Q 0.263 0.011 0.158 0.011 Q 0.1 0.011 0.07200000000000001 -0.029500000000000002 Q 0.044 -0.07 0.044 -0.113 Q 0.044 -0.176 0.1225 -0.2095 Q 0.201 -0.243 0.321 -0.245 L 0.321 -0.28800000000000003 Q 0.321 -0.341 0.296 -0.3715 Q 0.271 -0.402 0.234 -0.402 Q 0.153 -0.402 0.083 -0.352 L 0.077 -0.418 Q 0.152 -0.461 0.234 -0.461 Q 0.304 -0.461 0.35150000000000003 -0.41250000000000003 Q 0.399 -0.364 0.399 -0.289 M 0.321 -0.132 L 0.321 -0.194 Q 0.116 -0.184 0.116 -0.115 Q 0.116 -0.085 0.14350000000000002 -0.0675 Q 0.171 -0.05 0.209 -0.05 Q 0.256 -0.05 0.28700000000000003 -0.069 Q 0.321 -0.088 0.321 -0.132 Z"/></g><g transform="translate(6.647058823529412,8.598529914413804) rotate(0,0,0) translate(-6.647058823529412,-8.598529914413804)"/></g><path fill="rgb(255,255,255)" stroke="none" paint-order="stroke fill markers" fill-rule="evenodd" d=" M 818 207 L 949 207 C 950.6568542494924 207 953 209.34314575050763 953 211 L 953 237 C 953 238.65685424949237 950.6568542494924 241 949 241 L 818 241 C 816.3431457505076 241 814 238.65685424949237 814 237 L 814 211 C 814 209.34314575050763 816.3431457505076 207 818 207 Z" fill-opacity="1"/><path fill="none" stroke="rgb(0,0,0)" paint-order="fill stroke markers" d=" M 817.5 207 L 949.5 207 C 950.9497474683059 207 953 209.05025253169416 953 210.5 L 953 237.5 C 953 238.94974746830584 950.9497474683059 241 949.5 241 L 817.5 241 C 816.0502525316941 241 814 238.94974746830584 814 237.5 L 814 210.5 C 814 209.05025253169416 816.0502525316941 207 817.5 207 Z" stroke-opacity="1" stroke-linecap="round" stroke-linejoin="round" stroke-miterlimit="10"/><text fill="rgb(0,0,0)" stroke="none" font-family="geogebra-sans-serif, sans-serif" font-size="24px" font-style="normal" font-weight="normal" text-decoration="normal" x="824" y="232" text-anchor="start" dominant-baseline="alphabetic" fill-opacity="1">Reset View</text></g></g></svg>