<svg version="1.1" xmlns="http://www.w3.org/2000/svg" xmlns:xlink="http://www.w3.org/1999/xlink" width="660" height="660"><defs><clipPath id="poGOAgOGXkUu"><path fill="none" stroke="none" d=" M 0 0 L 660 0 L 660 660 L 0 660 L 0 0 Z"/></clipPath></defs><g transform="scale(1,1)" clip-path="url(#poGOAgOGXkUu)"><g transform="translate(0,-59.83333333333326)"><rect fill="rgb(255,255,255)" stroke="none" x="0" y="0" width="1210" height="718" fill-opacity="1"/><path fill="rgb(0,0,0)" stroke="none" paint-order="stroke fill markers" fill-rule="evenodd" d=" M 329.45544554455455 382.9333333333333 L 329.45544554455455 394.9 L 581.0396039603962 394.9 L 581.0396039603962 406.8666666666666 L 628.9603960396041 388.91666666666663 L 581.0396039603962 370.9666666666666 L 581.0396039603962 382.9333333333333 Z" fill-opacity="1"/><path fill="rgb(0,0,0)" stroke="none" paint-order="stroke fill markers" fill-rule="evenodd" d=" M 414.7247893642217 71.04657599870563 L 456.36166493232065 100.77374953950181 L 458.4715453309187 92.90846239692371 L 466.1578080303829 96.08862067512496 L 491.1881188118814 109.10385870391445 L 514.9875462929574 124.24864115689337 L 537.3749624599927 141.4077070949248 L 558.1799855580646 160.4504656652931 L 577.2442767989805 181.23198997694578 L 594.4227454150632 203.59412008164367 L 609.5846528875013 227.36666666666665 L 622.6146079454195 252.36870629824665 L 633.4134447631252 278.40995835814306 L 641.8989776719196 305.2922331940422 L 653.4709603433034 302.19503195431537 L 644.671148437887 274.31711730967925 L 633.4723547010071 247.3113744327496 L 619.959808715018 221.38333333333327 L 604.2363491139711 196.7303220599761 L 586.4216409195149 173.53996491436348 L 566.6512648178243 151.98875451709407 L 545.0756853087127 132.2407085922677 L 521.8591055799354 114.44612169356839 L 497.1782178217825 98.74042137196062 L 471.2208584928211 85.24313749025305 L 461.59602794182615 81.2609050647124 L 465.6637751671935 66.0970123757242 Z" fill-opacity="1"/><path fill="rgb(0,0,0)" stroke="none" paint-order="stroke fill markers" fill-rule="evenodd" d=" M 414.7247893642217 706.7867573346276 L 456.36166493232065 677.0595837938315 L 458.4715453309187 684.9248709364095 L 466.1578080303829 681.7447126582083 L 491.1881188118814 668.7294746294187 L 514.9875462929574 653.5846921764398 L 537.3749624599927 636.4256262384084 L 558.1799855580646 617.3828676680401 L 577.2442767989805 596.6013433563875 L 594.4227454150632 574.2392132516895 L 609.5846528875013 550.4666666666666 L 622.6146079454195 525.4646270350866 L 633.4134447631252 499.4233749751902 L 641.8989776719196 472.5411001392911 L 653.4709603433034 475.6383013790179 L 644.671148437887 503.516216023654 L 633.4723547010071 530.5219589005836 L 619.959808715018 556.45 L 604.2363491139711 581.1030112733572 L 586.4216409195149 604.2933684189697 L 566.6512648178243 625.8445788162392 L 545.0756853087127 645.5926247410655 L 521.8591055799354 663.3872116397649 L 497.1782178217825 679.0929119613727 L 471.2208584928211 692.5901958430802 L 461.59602794182615 696.5724282686208 L 465.6637751671935 711.736320957609 Z" fill-opacity="1"/><path fill="none" stroke="rgb(0,0,0)" paint-order="fill stroke markers" d=" M 628.9603960396041 388.91666666666663 C 628.9603960396041 554.141854324379 494.86746220179714 688.0833333333333 329.45544554455455 688.0833333333333 C 164.04342888731196 688.0833333333333 29.95049504950498 554.141854324379 29.95049504950498 388.91666666666663 C 29.95049504950498 223.69147900895427 164.04342888731196 89.74999999999994 329.45544554455455 89.74999999999994 C 494.86746220179714 89.74999999999994 628.9603960396041 223.69147900895427 628.9603960396041 388.91666666666663 Z" stroke-opacity="0.6980392156862745" stroke-linecap="round" stroke-linejoin="round" stroke-miterlimit="10" stroke-width="1.5"/><path fill="none" stroke="rgb(0,0,0)" paint-order="fill stroke markers" d=" M 359.4059405940595 388.91666666666663 C 359.4059405940595 405.43918543243785 345.9966472102788 418.83333333333326 329.45544554455455 418.83333333333326 C 312.9142438788303 418.83333333333326 299.50495049504957 405.43918543243785 299.50495049504957 388.91666666666663 C 299.50495049504957 372.3941479008954 312.9142438788303 358.99999999999994 329.45544554455455 358.99999999999994 C 345.9966472102788 358.99999999999994 359.4059405940595 372.3941479008954 359.4059405940595 388.91666666666663 Z" stroke-opacity="0.6980392156862745" stroke-linecap="round" stroke-linejoin="round" stroke-miterlimit="10" stroke-width="1.5"/><path fill="none" stroke="rgb(0,0,0)" paint-order="fill stroke markers" d=" M 389.3564356435645 388.91666666666663 C 389.3564356435645 421.9617041982091 362.53784887600307 448.74999999999994 329.45544554455455 448.74999999999994 C 296.37304221310603 448.74999999999994 269.55445544554465 421.9617041982091 269.55445544554465 388.91666666666663 C 269.55445544554465 355.8716291351241 296.37304221310603 329.08333333333326 329.45544554455455 329.08333333333326 C 362.53784887600307 329.08333333333326 389.3564356435645 355.8716291351241 389.3564356435645 388.91666666666663 Z" stroke-opacity="0.6980392156862745" stroke-linecap="round" stroke-linejoin="round" stroke-miterlimit="10" stroke-width="1.5"/><path fill="none" stroke="rgb(0,0,0)" paint-order="fill stroke markers" d=" M 419.3069306930694 388.91666666666663 C 419.3069306930694 438.4842229639803 379.07905054172727 478.66666666666663 329.45544554455455 478.66666666666663 C 279.8318405473818 478.66666666666663 239.60396039603967 438.4842229639803 239.60396039603967 388.91666666666663 C 239.60396039603967 339.34911036935296 279.8318405473818 299.16666666666663 329.45544554455455 299.16666666666663 C 379.07905054172727 299.16666666666663 419.3069306930694 339.34911036935296 419.3069306930694 388.91666666666663 Z" stroke-opacity="0.6980392156862745" stroke-linecap="round" stroke-linejoin="round" stroke-miterlimit="10" stroke-width="1.5"/><path fill="none" stroke="rgb(0,0,0)" paint-order="fill stroke markers" d=" M 449.25742574257436 388.91666666666663 C 449.25742574257436 455.0067417297515 395.6202522074516 508.5833333333333 329.45544554455455 508.5833333333333 C 263.2906388816575 508.5833333333333 209.65346534653472 455.0067417297515 209.65346534653472 388.91666666666663 C 209.65346534653472 322.8265916035817 263.2906388816575 269.24999999999994 329.45544554455455 269.24999999999994 C 395.6202522074516 269.24999999999994 449.25742574257436 322.8265916035817 449.25742574257436 388.91666666666663 Z" stroke-opacity="0.6980392156862745" stroke-linecap="round" stroke-linejoin="round" stroke-miterlimit="10" stroke-width="1.5"/><path fill="none" stroke="rgb(0,0,0)" paint-order="fill stroke markers" d=" M 479.20792079207934 388.91666666666663 C 479.20792079207934 471.52926049552275 412.16145387317584 538.5 329.45544554455455 538.5 C 246.74943721593326 538.5 179.70297029702976 471.52926049552275 179.70297029702976 388.91666666666663 C 179.70297029702976 306.30407283781045 246.74943721593326 239.3333333333333 329.45544554455455 239.3333333333333 C 412.16145387317584 239.3333333333333 479.20792079207934 306.30407283781045 479.20792079207934 388.91666666666663 Z" stroke-opacity="0.6980392156862745" stroke-linecap="round" stroke-linejoin="round" stroke-miterlimit="10" stroke-width="1.5"/><path fill="none" stroke="rgb(0,0,0)" paint-order="fill stroke markers" d=" M 509.1584158415843 388.91666666666663 C 509.1584158415843 488.05177926129403 428.7026555389001 568.4166666666666 329.45544554455455 568.4166666666666 C 230.208235550209 568.4166666666666 149.7524752475248 488.05177926129403 149.7524752475248 388.91666666666663 C 149.7524752475248 289.7815540720392 230.208235550209 209.41666666666663 329.45544554455455 209.41666666666663 C 428.7026555389001 209.41666666666663 509.1584158415843 289.7815540720392 509.1584158415843 388.91666666666663 Z" stroke-opacity="0.6980392156862745" stroke-linecap="round" stroke-linejoin="round" stroke-miterlimit="10" stroke-width="1.5"/><path fill="none" stroke="rgb(0,0,0)" paint-order="fill stroke markers" d=" M 539.1089108910892 388.91666666666663 C 539.1089108910892 504.5742980270652 445.24385720462436 598.3333333333333 329.45544554455455 598.3333333333333 C 213.66703388448474 598.3333333333333 119.80198019801986 504.5742980270652 119.80198019801986 388.91666666666663 C 119.80198019801986 273.259035306268 213.66703388448474 179.49999999999997 329.45544554455455 179.49999999999997 C 445.24385720462436 179.49999999999997 539.1089108910892 273.259035306268 539.1089108910892 388.91666666666663 Z" stroke-opacity="0.6980392156862745" stroke-linecap="round" stroke-linejoin="round" stroke-miterlimit="10" stroke-width="1.5"/><path fill="none" stroke="rgb(0,0,0)" paint-order="fill stroke markers" d=" M 569.0594059405942 388.91666666666663 C 569.0594059405942 521.0968167928365 461.7850588703486 628.25 329.45544554455455 628.25 C 197.12583221876048 628.25 89.85148514851488 521.0968167928365 89.85148514851488 388.91666666666663 C 89.85148514851488 256.7365165404967 197.12583221876048 149.58333333333326 329.45544554455455 149.58333333333326 C 461.7850588703486 149.58333333333326 569.0594059405942 256.7365165404967 569.0594059405942 388.91666666666663 Z" stroke-opacity="0.6980392156862745" stroke-linecap="round" stroke-linejoin="round" stroke-miterlimit="10" stroke-width="1.5"/><path fill="none" stroke="rgb(0,0,0)" paint-order="fill stroke markers" d=" M 599.0099009900991 388.91666666666663 C 599.0099009900991 537.6193355586076 478.3262605360729 658.1666666666666 329.45544554455455 658.1666666666666 C 180.5846305530362 658.1666666666666 59.9009900990099 537.6193355586076 59.9009900990099 388.91666666666663 C 59.9009900990099 240.21399777472553 180.5846305530362 119.66666666666663 329.45544554455455 119.66666666666663 C 478.3262605360729 119.66666666666663 599.0099009900991 240.21399777472553 599.0099009900991 388.91666666666663 Z" stroke-opacity="0.6980392156862745" stroke-linecap="round" stroke-linejoin="round" stroke-miterlimit="10" stroke-width="1.5"/><path fill="rgb(0,0,0)" stroke="none" paint-order="stroke fill markers" d=" M 335.4455445544556 388.91666666666663 C 335.4455445544556 392.22117041982085 332.7636858776994 394.9 329.45544554455455 394.9 C 326.1472052114097 394.9 323.4653465346536 392.22117041982085 323.4653465346536 388.91666666666663 C 323.4653465346536 385.61216291351235 326.1472052114097 382.9333333333333 329.45544554455455 382.9333333333333 C 332.7636858776994 382.9333333333333 335.4455445544556 385.61216291351235 335.4455445544556 388.91666666666663 Z" fill-opacity="1"/><path fill="none" stroke="rgb(0,0,0)" paint-order="fill stroke markers" d=" M 335.4455445544556 388.91666666666663 C 335.4455445544556 392.22117041982085 332.7636858776994 394.9 329.45544554455455 394.9 C 326.1472052114097 394.9 323.4653465346536 392.22117041982085 323.4653465346536 388.91666666666663 C 323.4653465346536 385.61216291351235 326.1472052114097 382.9333333333333 329.45544554455455 382.9333333333333 C 332.7636858776994 382.9333333333333 335.4455445544556 385.61216291351235 335.4455445544556 388.91666666666663 Z" stroke-opacity="0" stroke-linecap="round" stroke-linejoin="round" stroke-miterlimit="10" stroke-width="6.5"/><path fill="none" stroke="rgb(0,0,0)" paint-order="fill stroke markers" d=" M 329.45544554455455 89.74999999999983 L 329.45544554455455 688.0833333333335" stroke-opacity="0.6980392156862745" stroke-linecap="round" stroke-linejoin="round" stroke-miterlimit="10" stroke-width="1.5"/><path fill="none" stroke="rgb(0,0,0)" paint-order="fill stroke markers" d=" M 376.3083422521485 93.43323810528778 L 282.60254883696064 684.4000952280455" stroke-opacity="0.6980392156862745" stroke-linecap="round" stroke-linejoin="round" stroke-miterlimit="10" stroke-width="1.5"/><path fill="none" stroke="rgb(0,0,0)" paint-order="fill stroke markers" d=" M 422.00756514695223 104.39225887503306 L 236.90332594215687 673.4410744583002" stroke-opacity="0.6980392156862745" stroke-linecap="round" stroke-linejoin="round" stroke-miterlimit="10" stroke-width="1.5"/><path fill="none" stroke="rgb(0,0,0)" paint-order="fill stroke markers" d=" M 465.4278476942704 122.35721484697984 L 193.48304339483872 655.4761184863535" stroke-opacity="0.6980392156862745" stroke-linecap="round" stroke-linejoin="round" stroke-miterlimit="10" stroke-width="1.5"/><path fill="none" stroke="rgb(0,0,0)" paint-order="fill stroke markers" d=" M 505.50003843413197 146.8857491828281 L 153.4108526549771 630.9475841505052" stroke-opacity="0.6980392156862745" stroke-linecap="round" stroke-linejoin="round" stroke-miterlimit="10" stroke-width="1.5"/><path fill="none" stroke="rgb(0,0,0)" paint-order="fill stroke markers" d=" M 541.2374270385453 177.3738879616911 L 117.67346405056367 600.4594453716422" stroke-opacity="0.6980392156862745" stroke-linecap="round" stroke-linejoin="round" stroke-miterlimit="10" stroke-width="1.5"/><path fill="none" stroke="rgb(0,0,0)" paint-order="fill stroke markers" d=" M 571.7600403944771 213.07091202250172 L 87.15085069463194 564.7624213108317" stroke-opacity="0.6980392156862745" stroke-linecap="round" stroke-linejoin="round" stroke-miterlimit="10" stroke-width="1.5"/><path fill="none" stroke="rgb(0,0,0)" paint-order="fill stroke markers" d=" M 596.3163104623579 253.09784216125217 L 62.59458062675105 524.7354911720812" stroke-opacity="0.6980392156862745" stroke-linecap="round" stroke-linejoin="round" stroke-miterlimit="10" stroke-width="1.5"/><path fill="none" stroke="rgb(0,0,0)" paint-order="fill stroke markers" d=" M 614.3015803755288 296.4690825161615 L 44.609310713580044 481.36425081717186" stroke-opacity="0.6980392156862745" stroke-linecap="round" stroke-linejoin="round" stroke-miterlimit="10" stroke-width="1.5"/><path fill="none" stroke="rgb(0,0,0)" paint-order="fill stroke markers" d=" M 625.272993099039 342.11668920879754 L 33.637897990069916 435.7166441245358" stroke-opacity="0.6980392156862745" stroke-linecap="round" stroke-linejoin="round" stroke-miterlimit="10" stroke-width="1.5"/><path fill="none" stroke="rgb(0,0,0)" paint-order="fill stroke markers" d=" M 628.9603960396041 388.91666666666663 L 29.95049504950498 388.9166666666666" stroke-opacity="0.6980392156862745" stroke-linecap="round" stroke-linejoin="round" stroke-miterlimit="10" stroke-width="1.5"/><path fill="none" stroke="rgb(0,0,0)" paint-order="fill stroke markers" d=" M 625.272993099039 435.7166441245357 L 33.637897990069916 342.1166892087975" stroke-opacity="0.6980392156862745" stroke-linecap="round" stroke-linejoin="round" stroke-miterlimit="10" stroke-width="1.5"/><path fill="none" stroke="rgb(0,0,0)" paint-order="fill stroke markers" d=" M 614.3015803755288 481.36425081717175 L 44.609310713580044 296.4690825161614" stroke-opacity="0.6980392156862745" stroke-linecap="round" stroke-linejoin="round" stroke-miterlimit="10" stroke-width="1.5"/><path fill="none" stroke="rgb(0,0,0)" paint-order="fill stroke markers" d=" M 596.3163104623579 524.7354911720811 L 62.59458062675105 253.0978421612521" stroke-opacity="0.6980392156862745" stroke-linecap="round" stroke-linejoin="round" stroke-miterlimit="10" stroke-width="1.5"/><path fill="none" stroke="rgb(0,0,0)" paint-order="fill stroke markers" d=" M 571.7600403944771 564.7624213108315 L 87.15085069463194 213.0709120225016" stroke-opacity="0.6980392156862745" stroke-linecap="round" stroke-linejoin="round" stroke-miterlimit="10" stroke-width="1.5"/><path fill="none" stroke="rgb(0,0,0)" paint-order="fill stroke markers" d=" M 541.2374270385453 600.4594453716421 L 117.67346405056367 177.373887961691" stroke-opacity="0.6980392156862745" stroke-linecap="round" stroke-linejoin="round" stroke-miterlimit="10" stroke-width="1.5"/><path fill="none" stroke="rgb(0,0,0)" paint-order="fill stroke markers" d=" M 505.50003843413197 630.9475841505051 L 153.4108526549771 146.88574918282802" stroke-opacity="0.6980392156862745" stroke-linecap="round" stroke-linejoin="round" stroke-miterlimit="10" stroke-width="1.5"/><path fill="none" stroke="rgb(0,0,0)" paint-order="fill stroke markers" d=" M 465.4278476942704 655.4761184863535 L 193.48304339483872 122.35721484697973" stroke-opacity="0.6980392156862745" stroke-linecap="round" stroke-linejoin="round" stroke-miterlimit="10" stroke-width="1.5"/><path fill="none" stroke="rgb(0,0,0)" paint-order="fill stroke markers" d=" M 422.00756514695223 673.4410744583001 L 236.90332594215687 104.39225887503301" stroke-opacity="0.6980392156862745" stroke-linecap="round" stroke-linejoin="round" stroke-miterlimit="10" stroke-width="1.5"/><path fill="none" stroke="rgb(0,0,0)" paint-order="fill stroke markers" d=" M 376.3083422521485 684.4000952280455 L 282.60254883696064 93.43323810528778" stroke-opacity="0.6980392156862745" stroke-linecap="round" stroke-linejoin="round" stroke-miterlimit="10" stroke-width="1.5"/><path fill="none" stroke="rgb(0,0,0)" paint-order="fill stroke markers" d=" M 811.5 118.5 L 1011.5 118.5" stroke-opacity="0.39215686274509803" stroke-linecap="round" stroke-linejoin="round" stroke-miterlimit="10" stroke-width="5"/><path fill="rgb(0,0,0)" stroke="none" paint-order="stroke fill markers" d=" M 1019.9999999999999 118.5 C 1019.9999999999999 123.19442037356174 1016.1944203735617 127 1011.4999999999999 127 C 1006.8055796264381 127 1002.9999999999999 123.19442037356174 1002.9999999999999 118.5 C 1002.9999999999999 113.80557962643826 1006.8055796264381 110 1011.4999999999999 110 C 1016.1944203735617 110 1019.9999999999999 113.80557962643826 1019.9999999999999 118.5 Z" fill-opacity="0.39215686274509803"/><path fill="none" stroke="rgb(0,0,0)" paint-order="fill stroke markers" d=" M 1019.9999999999999 118.5 C 1019.9999999999999 123.19442037356174 1016.1944203735617 127 1011.4999999999999 127 C 1006.8055796264381 127 1002.9999999999999 123.19442037356174 1002.9999999999999 118.5 C 1002.9999999999999 113.80557962643826 1006.8055796264381 110 1011.4999999999999 110 C 1016.1944203735617 110 1019.9999999999999 113.80557962643826 1019.9999999999999 118.5 Z" stroke-opacity="0.39215686274509803" stroke-linecap="round" stroke-linejoin="round" stroke-miterlimit="10"/><path fill="rgb(0,0,0)" stroke="none" paint-order="stroke fill markers" d=" M 1016.9999999999999 118.5 C 1016.9999999999999 121.53756612406936 1014.5375661240693 124 1011.4999999999999 124 C 1008.4624338759305 124 1005.9999999999999 121.53756612406936 1005.9999999999999 118.5 C 1005.9999999999999 115.46243387593064 1008.4624338759305 113 1011.4999999999999 113 C 1014.5375661240693 113 1016.9999999999999 115.46243387593064 1016.9999999999999 118.5 Z" fill-opacity="1"/><path fill="none" stroke="rgb(0,0,0)" paint-order="fill stroke markers" d=" M 1016.9999999999999 118.5 C 1016.9999999999999 121.53756612406936 1014.5375661240693 124 1011.4999999999999 124 C 1008.4624338759305 124 1005.9999999999999 121.53756612406936 1005.9999999999999 118.5 C 1005.9999999999999 115.46243387593064 1008.4624338759305 113 1011.4999999999999 113 C 1014.5375661240693 113 1016.9999999999999 115.46243387593064 1016.9999999999999 118.5 Z" stroke-opacity="1" stroke-linecap="round" stroke-linejoin="round" stroke-miterlimit="10"/><text fill="none" stroke="rgb(255,255,255)" font-family="geogebra-sans-serif, sans-serif" font-size="12px" font-style="normal" font-weight="normal" text-decoration="normal" x="1000" y="103" text-anchor="start" dominant-baseline="alphabetic" stroke-opacity="1" stroke-linecap="round" stroke-linejoin="bevel" stroke-miterlimit="10" stroke-width="3">Pixels = 300</text><text fill="rgb(0,0,0)" stroke="none" font-family="geogebra-sans-serif, sans-serif" font-size="12px" font-style="normal" font-weight="normal" text-decoration="normal" x="1000" y="103" text-anchor="start" dominant-baseline="alphabetic" fill-opacity="1">Pixels = 300</text><path fill="none" stroke="rgb(0,0,0)" paint-order="fill stroke markers" d=" M 888.5 515.5 L 1088.5 515.5" stroke-opacity="0.39215686274509803" stroke-linecap="round" stroke-linejoin="round" stroke-miterlimit="10" stroke-width="5"/><path fill="rgb(0,0,0)" stroke="none" paint-order="stroke fill markers" d=" M 976.9999999999999 515.5 C 976.9999999999999 520.1944203735618 973.1944203735617 524 968.4999999999999 524 C 963.8055796264381 524 959.9999999999999 520.1944203735618 959.9999999999999 515.5 C 959.9999999999999 510.80557962643826 963.8055796264381 507 968.4999999999999 507 C 973.1944203735617 507 976.9999999999999 510.80557962643826 976.9999999999999 515.5 Z" fill-opacity="0.39215686274509803"/><path fill="none" stroke="rgb(0,0,0)" paint-order="fill stroke markers" d=" M 976.9999999999999 515.5 C 976.9999999999999 520.1944203735618 973.1944203735617 524 968.4999999999999 524 C 963.8055796264381 524 959.9999999999999 520.1944203735618 959.9999999999999 515.5 C 959.9999999999999 510.80557962643826 963.8055796264381 507 968.4999999999999 507 C 973.1944203735617 507 976.9999999999999 510.80557962643826 976.9999999999999 515.5 Z" stroke-opacity="0.39215686274509803" stroke-linecap="round" stroke-linejoin="round" stroke-miterlimit="10"/><path fill="rgb(0,0,0)" stroke="none" paint-order="stroke fill markers" d=" M 973.9999999999999 515.5 C 973.9999999999999 518.5375661240694 971.5375661240693 521 968.4999999999999 521 C 965.4624338759305 521 962.9999999999999 518.5375661240694 962.9999999999999 515.5 C 962.9999999999999 512.4624338759306 965.4624338759305 510 968.4999999999999 510 C 971.5375661240693 510 973.9999999999999 512.4624338759306 973.9999999999999 515.5 Z" fill-opacity="1"/><path fill="none" stroke="rgb(0,0,0)" paint-order="fill stroke markers" d=" M 973.9999999999999 515.5 C 973.9999999999999 518.5375661240694 971.5375661240693 521 968.4999999999999 521 C 965.4624338759305 521 962.9999999999999 518.5375661240694 962.9999999999999 515.5 C 962.9999999999999 512.4624338759306 965.4624338759305 510 968.4999999999999 510 C 971.5375661240693 510 973.9999999999999 512.4624338759306 973.9999999999999 515.5 Z" stroke-opacity="1" stroke-linecap="round" stroke-linejoin="round" stroke-miterlimit="10"/><text fill="none" stroke="rgb(255,255,255)" font-family="geogebra-sans-serif, sans-serif" font-size="12px" font-style="normal" font-weight="normal" text-decoration="normal" x="957" y="500" text-anchor="start" dominant-baseline="alphabetic" stroke-opacity="1" stroke-linecap="round" stroke-linejoin="bevel" stroke-miterlimit="10" stroke-width="3">ArrowScale = 0.04</text><text fill="rgb(0,0,0)" stroke="none" font-family="geogebra-sans-serif, sans-serif" font-size="12px" font-style="normal" font-weight="normal" text-decoration="normal" x="957" y="500" text-anchor="start" dominant-baseline="alphabetic" fill-opacity="1">ArrowScale = 0.04</text><text fill="rgb(0,0,0)" stroke="none" font-family="geogebra-sans-serif, sans-serif" font-size="12px" font-style="normal" font-weight="normal" text-decoration="normal" x="968" y="379" text-anchor="start" dominant-baseline="alphabetic" fill-opacity="1">Radius</text><g transform="scale(15,15)"><g transform="translate(65.03333333333333,29.8722230026491)"><path fill="rgb(0,0,0)" stroke="none" paint-order="stroke fill markers" d=" M 0.419 -0.326 L 0.617 0 L 0.528 0 L 0.34 -0.317 L 0.182 -0.317 L 0.182 0 L 0.096 0 L 0.096 -0.6940000000000001 L 0.337 -0.6940000000000001 Q 0.443 -0.6940000000000001 0.516 -0.6385000000000001 Q 0.589 -0.583 0.589 -0.508 Q 0.589 -0.447 0.5425 -0.398 Q 0.496 -0.34900000000000003 0.419 -0.326 M 0.182 -0.378 L 0.326 -0.378 Q 0.41100000000000003 -0.378 0.4595 -0.41500000000000004 Q 0.508 -0.452 0.508 -0.508 Q 0.508 -0.5630000000000001 0.459 -0.6005 Q 0.41000000000000003 -0.638 0.326 -0.638 L 0.182 -0.638 L 0.182 -0.378 Z"/></g><g transform="translate(65.67916933333333,29.8722230026491)"><path fill="rgb(0,0,0)" stroke="none" paint-order="stroke fill markers" d=" M 0.399 -0.289 L 0.399 0 L 0.324 0 L 0.324 -0.036000000000000004 Q 0.263 0.011 0.158 0.011 Q 0.1 0.011 0.07200000000000001 -0.029500000000000002 Q 0.044 -0.07 0.044 -0.113 Q 0.044 -0.176 0.1225 -0.2095 Q 0.201 -0.243 0.321 -0.245 L 0.321 -0.28800000000000003 Q 0.321 -0.341 0.296 -0.3715 Q 0.271 -0.402 0.234 -0.402 Q 0.153 -0.402 0.083 -0.352 L 0.077 -0.418 Q 0.152 -0.461 0.234 -0.461 Q 0.304 -0.461 0.35150000000000003 -0.41250000000000003 Q 0.399 -0.364 0.399 -0.289 M 0.321 -0.132 L 0.321 -0.194 Q 0.116 -0.184 0.116 -0.115 Q 0.116 -0.085 0.14350000000000002 -0.0675 Q 0.171 -0.05 0.209 -0.05 Q 0.256 -0.05 0.28700000000000003 -0.069 Q 0.321 -0.088 0.321 -0.132 Z"/></g><g transform="translate(66.15972633333334,29.8722230026491)"><path fill="rgb(0,0,0)" stroke="none" paint-order="stroke fill markers" d=" M 0.434 -0.6940000000000001 L 0.434 0 L 0.356 0 L 0.356 -0.052000000000000005 Q 0.291 0.011 0.20800000000000002 0.011 Q 0.136 0.011 0.08600000000000001 -0.0565 Q 0.036000000000000004 -0.124 0.036000000000000004 -0.222 Q 0.036000000000000004 -0.319 0.08750000000000001 -0.387 Q 0.139 -0.455 0.213 -0.455 Q 0.293 -0.455 0.359 -0.4 L 0.359 -0.6940000000000001 L 0.434 -0.6940000000000001 M 0.356 -0.139 L 0.356 -0.339 Q 0.318 -0.394 0.259 -0.394 Q 0.20400000000000001 -0.394 0.159 -0.352 Q 0.114 -0.31 0.114 -0.221 Q 0.114 -0.135 0.1545 -0.0925 Q 0.195 -0.05 0.249 -0.05 Q 0.291 -0.05 0.323 -0.078 Q 0.356 -0.108 0.356 -0.139 Z"/></g><g transform="translate(66.67639433333333,29.8722230026491)"><path fill="rgb(0,0,0)" stroke="none" paint-order="stroke fill markers" d=" M 0.163 -0.68 L 0.163 -0.591 L 0.074 -0.591 L 0.074 -0.68 L 0.163 -0.68 M 0.156 -0.444 L 0.156 0 L 0.081 0 L 0.081 -0.444 L 0.156 -0.444 Z"/></g><g transform="translate(66.91528433333333,29.8722230026491)"><path fill="rgb(0,0,0)" stroke="none" paint-order="stroke fill markers" d=" M 0.435 -0.444 L 0.435 0 L 0.36 0 L 0.36 -0.048 Q 0.293 0.011 0.187 0.011 Q 0.128 0.011 0.1045 -0.0195 Q 0.081 -0.05 0.081 -0.109 L 0.081 -0.444 L 0.159 -0.444 L 0.159 -0.113 Q 0.159 -0.076 0.17350000000000002 -0.06 Q 0.188 -0.044 0.23700000000000002 -0.044 Q 0.28800000000000003 -0.044 0.3225 -0.0725 Q 0.357 -0.101 0.357 -0.154 L 0.357 -0.444 L 0.435 -0.444 Z"/></g><g transform="translate(67.43195233333333,29.8722230026491)"><path fill="rgb(0,0,0)" stroke="none" paint-order="stroke fill markers" d=" M 0.343 -0.429 L 0.331 -0.364 Q 0.267 -0.402 0.189 -0.402 Q 0.10400000000000001 -0.402 0.10400000000000001 -0.34 Q 0.10400000000000001 -0.326 0.11 -0.315 Q 0.116 -0.304 0.1235 -0.2975 Q 0.131 -0.291 0.1465 -0.28550000000000003 Q 0.162 -0.28 0.17300000000000001 -0.277 Q 0.184 -0.274 0.20500000000000002 -0.27 Q 0.248 -0.262 0.271 -0.253 Q 0.294 -0.244 0.321 -0.22 L 0.326 -0.214 Q 0.331 -0.209 0.336 -0.2015 Q 0.341 -0.194 0.34700000000000003 -0.1835 Q 0.353 -0.17300000000000001 0.3565 -0.158 Q 0.36 -0.14300000000000002 0.36 -0.128 Q 0.36 -0.058 0.312 -0.021 Q 0.269 0.011 0.196 0.011 Q 0.116 0.011 0.028 -0.033 L 0.04 -0.101 Q 0.114 -0.052000000000000005 0.195 -0.052000000000000005 Q 0.289 -0.052000000000000005 0.289 -0.121 Q 0.289 -0.136 0.28200000000000003 -0.148 Q 0.275 -0.16 0.2665 -0.167 Q 0.258 -0.17400000000000002 0.243 -0.18 Q 0.228 -0.186 0.219 -0.188 Q 0.21 -0.19 0.195 -0.193 Q 0.161 -0.2 0.148 -0.203 Q 0.135 -0.20600000000000002 0.11850000000000001 -0.2125 Q 0.10200000000000001 -0.219 0.08700000000000001 -0.23 Q 0.033 -0.271 0.033 -0.33 Q 0.033 -0.367 0.0485 -0.3935 Q 0.064 -0.42 0.0835 -0.4325 Q 0.10300000000000001 -0.445 0.1305 -0.452 Q 0.158 -0.459 0.171 -0.46 Q 0.184 -0.461 0.199 -0.461 Q 0.274 -0.461 0.343 -0.429 Z"/></g></g><g transform="scale(51,51) translate(6.647058823529412,8.598529914413804) rotate(0,0,0) translate(-6.647058823529412,-8.598529914413804)"><g transform="translate(7.147058823529412,8.695752414413803)"><path fill="rgb(0,0,0)" stroke="none" paint-order="stroke fill markers" d=" M 0.419 -0.326 L 0.617 0 L 0.528 0 L 0.34 -0.317 L 0.182 -0.317 L 0.182 0 L 0.096 0 L 0.096 -0.6940000000000001 L 0.337 -0.6940000000000001 Q 0.443 -0.6940000000000001 0.516 -0.6385000000000001 Q 0.589 -0.583 0.589 -0.508 Q 0.589 -0.447 0.5425 -0.398 Q 0.496 -0.34900000000000003 0.419 -0.326 M 0.182 -0.378 L 0.326 -0.378 Q 0.41100000000000003 -0.378 0.4595 -0.41500000000000004 Q 0.508 -0.452 0.508 -0.508 Q 0.508 -0.5630000000000001 0.459 -0.6005 Q 0.41000000000000003 -0.638 0.326 -0.638 L 0.182 -0.638 L 0.182 -0.378 Z"/></g><g transform="translate(7.792894823529412,8.695752414413803)"><path fill="rgb(0,0,0)" stroke="none" paint-order="stroke fill markers" d=" M 0.399 -0.289 L 0.399 0 L 0.324 0 L 0.324 -0.036000000000000004 Q 0.263 0.011 0.158 0.011 Q 0.1 0.011 0.07200000000000001 -0.029500000000000002 Q 0.044 -0.07 0.044 -0.113 Q 0.044 -0.176 0.1225 -0.2095 Q 0.201 -0.243 0.321 -0.245 L 0.321 -0.28800000000000003 Q 0.321 -0.341 0.296 -0.3715 Q 0.271 -0.402 0.234 -0.402 Q 0.153 -0.402 0.083 -0.352 L 0.077 -0.418 Q 0.152 -0.461 0.234 -0.461 Q 0.304 -0.461 0.35150000000000003 -0.41250000000000003 Q 0.399 -0.364 0.399 -0.289 M 0.321 -0.132 L 0.321 -0.194 Q 0.116 -0.184 0.116 -0.115 Q 0.116 -0.085 0.14350000000000002 -0.0675 Q 0.171 -0.05 0.209 -0.05 Q 0.256 -0.05 0.28700000000000003 -0.069 Q 0.321 -0.088 0.321 -0.132 Z"/></g><g transform="translate(8.273451823529411,8.695752414413803)"><path fill="rgb(0,0,0)" stroke="none" paint-order="stroke fill markers" d=" M 0.434 -0.6940000000000001 L 0.434 0 L 0.356 0 L 0.356 -0.052000000000000005 Q 0.291 0.011 0.20800000000000002 0.011 Q 0.136 0.011 0.08600000000000001 -0.0565 Q 0.036000000000000004 -0.124 0.036000000000000004 -0.222 Q 0.036000000000000004 -0.319 0.08750000000000001 -0.387 Q 0.139 -0.455 0.213 -0.455 Q 0.293 -0.455 0.359 -0.4 L 0.359 -0.6940000000000001 L 0.434 -0.6940000000000001 M 0.356 -0.139 L 0.356 -0.339 Q 0.318 -0.394 0.259 -0.394 Q 0.20400000000000001 -0.394 0.159 -0.352 Q 0.114 -0.31 0.114 -0.221 Q 0.114 -0.135 0.1545 -0.0925 Q 0.195 -0.05 0.249 -0.05 Q 0.291 -0.05 0.323 -0.078 Q 0.356 -0.108 0.356 -0.139 Z"/></g><g transform="translate(8.79011982352941,8.695752414413803)"><path fill="rgb(0,0,0)" stroke="none" paint-order="stroke fill markers" d=" M 0.163 -0.68 L 0.163 -0.591 L 0.074 -0.591 L 0.074 -0.68 L 0.163 -0.68 M 0.156 -0.444 L 0.156 0 L 0.081 0 L 0.081 -0.444 L 0.156 -0.444 Z"/></g><g transform="translate(9.02900982352941,8.695752414413803)"><path fill="rgb(0,0,0)" stroke="none" paint-order="stroke fill markers" d=" M 0.435 -0.444 L 0.435 0 L 0.36 0 L 0.36 -0.048 Q 0.293 0.011 0.187 0.011 Q 0.128 0.011 0.1045 -0.0195 Q 0.081 -0.05 0.081 -0.109 L 0.081 -0.444 L 0.159 -0.444 L 0.159 -0.113 Q 0.159 -0.076 0.17350000000000002 -0.06 Q 0.188 -0.044 0.23700000000000002 -0.044 Q 0.28800000000000003 -0.044 0.3225 -0.0725 Q 0.357 -0.101 0.357 -0.154 L 0.357 -0.444 L 0.435 -0.444 Z"/></g><g transform="translate(9.54567782352941,8.695752414413803)"><path fill="rgb(0,0,0)" stroke="none" paint-order="stroke fill markers" d=" M 0.343 -0.429 L 0.331 -0.364 Q 0.267 -0.402 0.189 -0.402 Q 0.10400000000000001 -0.402 0.10400000000000001 -0.34 Q 0.10400000000000001 -0.326 0.11 -0.315 Q 0.116 -0.304 0.1235 -0.2975 Q 0.131 -0.291 0.1465 -0.28550000000000003 Q 0.162 -0.28 0.17300000000000001 -0.277 Q 0.184 -0.274 0.20500000000000002 -0.27 Q 0.248 -0.262 0.271 -0.253 Q 0.294 -0.244 0.321 -0.22 L 0.326 -0.214 Q 0.331 -0.209 0.336 -0.2015 Q 0.341 -0.194 0.34700000000000003 -0.1835 Q 0.353 -0.17300000000000001 0.3565 -0.158 Q 0.36 -0.14300000000000002 0.36 -0.128 Q 0.36 -0.058 0.312 -0.021 Q 0.269 0.011 0.196 0.011 Q 0.116 0.011 0.028 -0.033 L 0.04 -0.101 Q 0.114 -0.052000000000000005 0.195 -0.052000000000000005 Q 0.289 -0.052000000000000005 0.289 -0.121 Q 0.289 -0.136 0.28200000000000003 -0.148 Q 0.275 -0.16 0.2665 -0.167 Q 0.258 -0.17400000000000002 0.243 -0.18 Q 0.228 -0.186 0.219 -0.188 Q 0.21 -0.19 0.195 -0.193 Q 0.161 -0.2 0.148 -0.203 Q 0.135 -0.20600000000000002 0.11850000000000001 -0.2125 Q 0.10200000000000001 -0.219 0.08700000000000001 -0.23 Q 0.033 -0.271 0.033 -0.33 Q 0.033 -0.367 0.0485 -0.3935 Q 0.064 -0.42 0.0835 -0.4325 Q 0.10300000000000001 -0.445 0.1305 -0.452 Q 0.158 -0.459 0.171 -0.46 Q 0.184 -0.461 0.199 -0.461 Q 0.274 -0.461 0.343 -0.429 Z"/></g><g transform="translate(6.647058823529412,8.598529914413804) rotate(0,0,0) translate(-6.647058823529412,-8.598529914413804)"/></g><text fill="rgb(0,0,0)" stroke="none" font-family="geogebra-sans-serif, sans-serif" font-size="12px" font-style="normal" font-weight="normal" text-decoration="normal" x="971" y="399" text-anchor="start" dominant-baseline="alphabetic" fill-opacity="1">Latitude</text><g transform="scale(15,15)"><g transform="translate(65.1,31.005556335982433)"><path fill="rgb(0,0,0)" stroke="none" paint-order="stroke fill markers" d=" M 0.183 -0.6940000000000001 L 0.183 -0.064 L 0.232 -0.064 Q 0.321 -0.064 0.499 -0.066 L 0.499 0 L 0.094 0 L 0.094 -0.6940000000000001 L 0.183 -0.6940000000000001 Z"/></g><g transform="translate(65.641669,31.005556335982433)"><path fill="rgb(0,0,0)" stroke="none" paint-order="stroke fill markers" d=" M 0.399 -0.289 L 0.399 0 L 0.324 0 L 0.324 -0.036000000000000004 Q 0.263 0.011 0.158 0.011 Q 0.1 0.011 0.07200000000000001 -0.029500000000000002 Q 0.044 -0.07 0.044 -0.113 Q 0.044 -0.176 0.1225 -0.2095 Q 0.201 -0.243 0.321 -0.245 L 0.321 -0.28800000000000003 Q 0.321 -0.341 0.296 -0.3715 Q 0.271 -0.402 0.234 -0.402 Q 0.153 -0.402 0.083 -0.352 L 0.077 -0.418 Q 0.152 -0.461 0.234 -0.461 Q 0.304 -0.461 0.35150000000000003 -0.41250000000000003 Q 0.399 -0.364 0.399 -0.289 M 0.321 -0.132 L 0.321 -0.194 Q 0.116 -0.184 0.116 -0.115 Q 0.116 -0.085 0.14350000000000002 -0.0675 Q 0.171 -0.05 0.209 -0.05 Q 0.256 -0.05 0.28700000000000003 -0.069 Q 0.321 -0.088 0.321 -0.132 Z"/></g><g transform="translate(66.122226,31.005556335982433)"><path fill="rgb(0,0,0)" stroke="none" paint-order="stroke fill markers" d=" M 0.17500000000000002 -0.386 L 0.17500000000000002 -0.136 Q 0.17500000000000002 -0.053 0.226 -0.053 Q 0.275 -0.053 0.316 -0.08600000000000001 L 0.332 -0.027 Q 0.259 0.011 0.186 0.011 Q 0.10300000000000001 0.011 0.10300000000000001 -0.11900000000000001 L 0.10300000000000001 -0.386 L 0.019 -0.386 L 0.019 -0.444 L 0.106 -0.444 L 0.106 -0.5710000000000001 L 0.17500000000000002 -0.5710000000000001 L 0.17500000000000002 -0.444 L 0.316 -0.444 L 0.316 -0.386 L 0.17500000000000002 -0.386 Z"/></g><g transform="translate(66.483338,31.005556335982433)"><path fill="rgb(0,0,0)" stroke="none" paint-order="stroke fill markers" d=" M 0.163 -0.68 L 0.163 -0.591 L 0.074 -0.591 L 0.074 -0.68 L 0.163 -0.68 M 0.156 -0.444 L 0.156 0 L 0.081 0 L 0.081 -0.444 L 0.156 -0.444 Z"/></g><g transform="translate(66.722228,31.005556335982433)"><path fill="rgb(0,0,0)" stroke="none" paint-order="stroke fill markers" d=" M 0.17500000000000002 -0.386 L 0.17500000000000002 -0.136 Q 0.17500000000000002 -0.053 0.226 -0.053 Q 0.275 -0.053 0.316 -0.08600000000000001 L 0.332 -0.027 Q 0.259 0.011 0.186 0.011 Q 0.10300000000000001 0.011 0.10300000000000001 -0.11900000000000001 L 0.10300000000000001 -0.386 L 0.019 -0.386 L 0.019 -0.444 L 0.106 -0.444 L 0.106 -0.5710000000000001 L 0.17500000000000002 -0.5710000000000001 L 0.17500000000000002 -0.444 L 0.316 -0.444 L 0.316 -0.386 L 0.17500000000000002 -0.386 Z"/></g><g transform="translate(67.08334,31.005556335982433)"><path fill="rgb(0,0,0)" stroke="none" paint-order="stroke fill markers" d=" M 0.435 -0.444 L 0.435 0 L 0.36 0 L 0.36 -0.048 Q 0.293 0.011 0.187 0.011 Q 0.128 0.011 0.1045 -0.0195 Q 0.081 -0.05 0.081 -0.109 L 0.081 -0.444 L 0.159 -0.444 L 0.159 -0.113 Q 0.159 -0.076 0.17350000000000002 -0.06 Q 0.188 -0.044 0.23700000000000002 -0.044 Q 0.28800000000000003 -0.044 0.3225 -0.0725 Q 0.357 -0.101 0.357 -0.154 L 0.357 -0.444 L 0.435 -0.444 Z"/></g><g transform="translate(67.600008,31.005556335982433)"><path fill="rgb(0,0,0)" stroke="none" paint-order="stroke fill markers" d=" M 0.434 -0.6940000000000001 L 0.434 0 L 0.356 0 L 0.356 -0.052000000000000005 Q 0.291 0.011 0.20800000000000002 0.011 Q 0.136 0.011 0.08600000000000001 -0.0565 Q 0.036000000000000004 -0.124 0.036000000000000004 -0.222 Q 0.036000000000000004 -0.319 0.08750000000000001 -0.387 Q 0.139 -0.455 0.213 -0.455 Q 0.293 -0.455 0.359 -0.4 L 0.359 -0.6940000000000001 L 0.434 -0.6940000000000001 M 0.356 -0.139 L 0.356 -0.339 Q 0.318 -0.394 0.259 -0.394 Q 0.20400000000000001 -0.394 0.159 -0.352 Q 0.114 -0.31 0.114 -0.221 Q 0.114 -0.135 0.1545 -0.0925 Q 0.195 -0.05 0.249 -0.05 Q 0.291 -0.05 0.323 -0.078 Q 0.356 -0.108 0.356 -0.139 Z"/></g><g transform="translate(68.116676,31.005556335982433)"><path fill="rgb(0,0,0)" stroke="none" paint-order="stroke fill markers" d=" M 0.41400000000000003 -0.219 L 0.105 -0.219 Q 0.107 -0.146 0.1495 -0.098 Q 0.192 -0.05 0.252 -0.05 Q 0.336 -0.05 0.404 -0.106 L 0.41000000000000003 -0.041 Q 0.338 0.011 0.251 0.011 Q 0.161 0.011 0.098 -0.058 Q 0.035 -0.127 0.035 -0.226 Q 0.035 -0.323 0.094 -0.392 Q 0.153 -0.461 0.23600000000000002 -0.461 Q 0.326 -0.461 0.374 -0.388 Q 0.41400000000000003 -0.326 0.41400000000000003 -0.219 M 0.11 -0.274 L 0.357 -0.274 Q 0.34800000000000003 -0.338 0.314 -0.369 Q 0.28 -0.4 0.23600000000000002 -0.4 Q 0.193 -0.4 0.1575 -0.365 Q 0.122 -0.33 0.11 -0.274 Z"/></g></g><g transform="scale(51,51) translate(9.821905700645043,1.273498306924592) rotate(45,0,0) translate(-9.821905700645043,-1.273498306924592)"><g transform="translate(10.321905700645043,1.370720806924592)"><path fill="rgb(0,0,0)" stroke="none" paint-order="stroke fill markers" d=" M 0.183 -0.6940000000000001 L 0.183 -0.064 L 0.232 -0.064 Q 0.321 -0.064 0.499 -0.066 L 0.499 0 L 0.094 0 L 0.094 -0.6940000000000001 L 0.183 -0.6940000000000001 Z"/></g><g transform="translate(10.863574700645044,1.370720806924592)"><path fill="rgb(0,0,0)" stroke="none" paint-order="stroke fill markers" d=" M 0.399 -0.289 L 0.399 0 L 0.324 0 L 0.324 -0.036000000000000004 Q 0.263 0.011 0.158 0.011 Q 0.1 0.011 0.07200000000000001 -0.029500000000000002 Q 0.044 -0.07 0.044 -0.113 Q 0.044 -0.176 0.1225 -0.2095 Q 0.201 -0.243 0.321 -0.245 L 0.321 -0.28800000000000003 Q 0.321 -0.341 0.296 -0.3715 Q 0.271 -0.402 0.234 -0.402 Q 0.153 -0.402 0.083 -0.352 L 0.077 -0.418 Q 0.152 -0.461 0.234 -0.461 Q 0.304 -0.461 0.35150000000000003 -0.41250000000000003 Q 0.399 -0.364 0.399 -0.289 M 0.321 -0.132 L 0.321 -0.194 Q 0.116 -0.184 0.116 -0.115 Q 0.116 -0.085 0.14350000000000002 -0.0675 Q 0.171 -0.05 0.209 -0.05 Q 0.256 -0.05 0.28700000000000003 -0.069 Q 0.321 -0.088 0.321 -0.132 Z"/></g><g transform="translate(11.344131700645043,1.370720806924592)"><path fill="rgb(0,0,0)" stroke="none" paint-order="stroke fill markers" d=" M 0.17500000000000002 -0.386 L 0.17500000000000002 -0.136 Q 0.17500000000000002 -0.053 0.226 -0.053 Q 0.275 -0.053 0.316 -0.08600000000000001 L 0.332 -0.027 Q 0.259 0.011 0.186 0.011 Q 0.10300000000000001 0.011 0.10300000000000001 -0.11900000000000001 L 0.10300000000000001 -0.386 L 0.019 -0.386 L 0.019 -0.444 L 0.106 -0.444 L 0.106 -0.5710000000000001 L 0.17500000000000002 -0.5710000000000001 L 0.17500000000000002 -0.444 L 0.316 -0.444 L 0.316 -0.386 L 0.17500000000000002 -0.386 Z"/></g><g transform="translate(11.705243700645044,1.370720806924592)"><path fill="rgb(0,0,0)" stroke="none" paint-order="stroke fill markers" d=" M 0.163 -0.68 L 0.163 -0.591 L 0.074 -0.591 L 0.074 -0.68 L 0.163 -0.68 M 0.156 -0.444 L 0.156 0 L 0.081 0 L 0.081 -0.444 L 0.156 -0.444 Z"/></g><g transform="translate(11.944133700645043,1.370720806924592)"><path fill="rgb(0,0,0)" stroke="none" paint-order="stroke fill markers" d=" M 0.17500000000000002 -0.386 L 0.17500000000000002 -0.136 Q 0.17500000000000002 -0.053 0.226 -0.053 Q 0.275 -0.053 0.316 -0.08600000000000001 L 0.332 -0.027 Q 0.259 0.011 0.186 0.011 Q 0.10300000000000001 0.011 0.10300000000000001 -0.11900000000000001 L 0.10300000000000001 -0.386 L 0.019 -0.386 L 0.019 -0.444 L 0.106 -0.444 L 0.106 -0.5710000000000001 L 0.17500000000000002 -0.5710000000000001 L 0.17500000000000002 -0.444 L 0.316 -0.444 L 0.316 -0.386 L 0.17500000000000002 -0.386 Z"/></g><g transform="translate(12.305245700645044,1.370720806924592)"><path fill="rgb(0,0,0)" stroke="none" paint-order="stroke fill markers" d=" M 0.435 -0.444 L 0.435 0 L 0.36 0 L 0.36 -0.048 Q 0.293 0.011 0.187 0.011 Q 0.128 0.011 0.1045 -0.0195 Q 0.081 -0.05 0.081 -0.109 L 0.081 -0.444 L 0.159 -0.444 L 0.159 -0.113 Q 0.159 -0.076 0.17350000000000002 -0.06 Q 0.188 -0.044 0.23700000000000002 -0.044 Q 0.28800000000000003 -0.044 0.3225 -0.0725 Q 0.357 -0.101 0.357 -0.154 L 0.357 -0.444 L 0.435 -0.444 Z"/></g><g transform="translate(12.821913700645043,1.370720806924592)"><path fill="rgb(0,0,0)" stroke="none" paint-order="stroke fill markers" d=" M 0.434 -0.6940000000000001 L 0.434 0 L 0.356 0 L 0.356 -0.052000000000000005 Q 0.291 0.011 0.20800000000000002 0.011 Q 0.136 0.011 0.08600000000000001 -0.0565 Q 0.036000000000000004 -0.124 0.036000000000000004 -0.222 Q 0.036000000000000004 -0.319 0.08750000000000001 -0.387 Q 0.139 -0.455 0.213 -0.455 Q 0.293 -0.455 0.359 -0.4 L 0.359 -0.6940000000000001 L 0.434 -0.6940000000000001 M 0.356 -0.139 L 0.356 -0.339 Q 0.318 -0.394 0.259 -0.394 Q 0.20400000000000001 -0.394 0.159 -0.352 Q 0.114 -0.31 0.114 -0.221 Q 0.114 -0.135 0.1545 -0.0925 Q 0.195 -0.05 0.249 -0.05 Q 0.291 -0.05 0.323 -0.078 Q 0.356 -0.108 0.356 -0.139 Z"/></g><g transform="translate(13.338581700645042,1.370720806924592)"><path fill="rgb(0,0,0)" stroke="none" paint-order="stroke fill markers" d=" M 0.41400000000000003 -0.219 L 0.105 -0.219 Q 0.107 -0.146 0.1495 -0.098 Q 0.192 -0.05 0.252 -0.05 Q 0.336 -0.05 0.404 -0.106 L 0.41000000000000003 -0.041 Q 0.338 0.011 0.251 0.011 Q 0.161 0.011 0.098 -0.058 Q 0.035 -0.127 0.035 -0.226 Q 0.035 -0.323 0.094 -0.392 Q 0.153 -0.461 0.23600000000000002 -0.461 Q 0.326 -0.461 0.374 -0.388 Q 0.41400000000000003 -0.326 0.41400000000000003 -0.219 M 0.11 -0.274 L 0.357 -0.274 Q 0.34800000000000003 -0.338 0.314 -0.369 Q 0.28 -0.4 0.23600000000000002 -0.4 Q 0.193 -0.4 0.1575 -0.365 Q 0.122 -0.33 0.11 -0.274 Z"/></g><g transform="translate(9.821905700645043,1.273498306924592) rotate(-45,0,0) translate(-9.821905700645043,-1.273498306924592)"/></g><path fill="rgb(255,255,255)" stroke="none" paint-order="stroke fill markers" fill-rule="evenodd" d=" M 818 207 L 949 207 C 950.6568542494924 207 953 209.34314575050763 953 211 L 953 237 C 953 238.65685424949237 950.6568542494924 241 949 241 L 818 241 C 816.3431457505076 241 814 238.65685424949237 814 237 L 814 211 C 814 209.34314575050763 816.3431457505076 207 818 207 Z" fill-opacity="1"/><path fill="none" stroke="rgb(0,0,0)" paint-order="fill stroke markers" d=" M 817.5 207 L 949.5 207 C 950.9497474683059 207 953 209.05025253169416 953 210.5 L 953 237.5 C 953 238.94974746830584 950.9497474683059 241 949.5 241 L 817.5 241 C 816.0502525316941 241 814 238.94974746830584 814 237.5 L 814 210.5 C 814 209.05025253169416 816.0502525316941 207 817.5 207 Z" stroke-opacity="1" stroke-linecap="round" stroke-linejoin="round" stroke-miterlimit="10"/><text fill="rgb(0,0,0)" stroke="none" font-family="geogebra-sans-serif, sans-serif" font-size="24px" font-style="normal" font-weight="normal" text-decoration="normal" x="824" y="232" text-anchor="start" dominant-baseline="alphabetic" fill-opacity="1">Reset View</text></g></g></svg>