<?xml version="1.0" encoding="UTF-8" standalone="no"?>
<svg
   xmlns:dc="http://purl.org/dc/elements/1.1/"
   xmlns:cc="http://creativecommons.org/ns#"
   xmlns:rdf="http://www.w3.org/1999/02/22-rdf-syntax-ns#"
   xmlns:svg="http://www.w3.org/2000/svg"
   xmlns="http://www.w3.org/2000/svg"
   xmlns:sodipodi="http://sodipodi.sourceforge.net/DTD/sodipodi-0.dtd"
   xmlns:inkscape="http://www.inkscape.org/namespaces/inkscape"
   version="1.1"
   width="660"
   height="660"
   id="svg163"
   sodipodi:docname="sphere_vertical_cross_section_itten_b.svg"
   inkscape:version="1.0.1 (3bc2e813f5, 2020-09-07)">
  <metadata
     id="metadata167">
    <rdf:RDF>
      <cc:Work
         rdf:about="">
        <dc:format>image/svg+xml</dc:format>
        <dc:type
           rdf:resource="http://purl.org/dc/dcmitype/StillImage" />
      </cc:Work>
    </rdf:RDF>
  </metadata>
  <sodipodi:namedview
     pagecolor="#ffffff"
     bordercolor="#666666"
     borderopacity="1"
     objecttolerance="10"
     gridtolerance="10"
     guidetolerance="10"
     inkscape:pageopacity="0"
     inkscape:pageshadow="2"
     inkscape:window-width="1670"
     inkscape:window-height="1177"
     id="namedview165"
     showgrid="false"
     inkscape:zoom="0.78745982"
     inkscape:cx="599.46392"
     inkscape:cy="299.47564"
     inkscape:window-x="62"
     inkscape:window-y="-8"
     inkscape:window-maximized="1"
     inkscape:current-layer="svg163" />
  <defs
     id="defs5">
    <clipPath
       id="mtvgJTQekfWT">
      <path
         fill="none"
         stroke="none"
         d=" M 0 0 L 660 0 L 660 660 L 0 660 L 0 0 Z"
         id="path2" />
    </clipPath>
  </defs>
  <g
     id="g1292">
    <rect
       fill="#ffffff"
       stroke="none"
       x="0"
       y="0"
       width="660"
       height="660"
       fill-opacity="1"
       id="rect7"
       style="stroke-width:0.735767" />
    <path
       fill="#000000"
       stroke="none"
       paint-order="stroke fill markers"
       fill-rule="evenodd"
       d="M 329.45545,323.02849 V 334.9925 H 581.0396 v 11.96402 l 47.9208,-17.94602 -47.9208,-17.94603 v 11.96402 z"
       fill-opacity="1"
       id="path9" />
    <path
       fill="#000000"
       stroke="none"
       paint-order="stroke fill markers"
       fill-rule="evenodd"
       d="m 323.46535,628.11095 h 11.98019 V 77.766116 h 11.9802 l -17.97029,-47.856072 -17.9703,47.856072 h 11.9802 z"
       fill-opacity="1"
       id="path11" />
    <path
       fill="none"
       stroke="#000000"
       paint-order="fill stroke markers"
       d="m 628.9604,329.0105 c 0,165.18861 -134.09294,299.10045 -299.50495,299.10045 -165.41202,0 -299.504955,-133.91184 -299.504955,-299.10045 0,-165.18862 134.092935,-299.100456 299.504955,-299.100456 165.41201,0 299.50495,133.911836 299.50495,299.100456 z"
       stroke-opacity="0.698039"
       stroke-linecap="round"
       stroke-linejoin="round"
       stroke-miterlimit="10"
       stroke-width="1.5"
       id="path13" />
    <path
       fill="none"
       stroke="#000000"
       paint-order="fill stroke markers"
       d="m 329.45545,29.910044 3.67511,0.09008 3.67289,0.270196 3.66847,0.450146 3.66183,0.629825 3.653,0.809124 3.64195,0.987936 3.62871,1.166153 3.61329,1.343668 3.5957,1.520372 3.57593,1.696162 3.55401,1.870929 3.52995,2.04457 3.50377,2.216979 3.47547,2.388053 3.44509,2.557687 3.41262,2.725783 3.3781,2.892234 3.34154,3.056945 3.30298,3.219814 3.26241,3.380743 3.2199,3.539637 3.17543,3.696397 3.12906,3.850932 3.0808,4.003146 3.03069,4.152951 2.97874,4.300251 2.92501,4.444963 2.86951,4.587 2.81229,4.72627 2.75336,4.86269 2.69279,4.99619 2.63059,5.12667 2.5668,5.25407 2.50147,5.3783 2.43463,5.49929 2.36633,5.61698 2.2966,5.73127 2.22549,5.84212 2.15304,5.94944 2.07928,6.05318 2.00428,6.15328 1.92807,6.24966 1.8507,6.34229 1.77221,6.4311 1.69266,6.51602 1.61208,6.59703 1.53054,6.67407 1.44807,6.74707 1.36474,6.81602 1.28057,6.88086 1.19564,6.94156 1.10999,6.99807 1.02367,7.05037 0.93673,7.09842 0.84922,7.14221 0.76122,7.18167 0.67274,7.21683 0.58387,7.24762 0.49463,7.27407 0.40511,7.29611 0.31534,7.31378 0.22538,7.32703 0.13528,7.33587 0.0451,7.3403 -0.0451,7.34029 -0.13528,7.33587 -0.22538,7.32703 -0.31534,7.31378 -0.40511,7.29611 -0.49463,7.27407 -0.58387,7.24762 -0.67274,7.21683 -0.76122,7.18167 -0.84922,7.14221 -0.93673,7.09842 -1.02367,7.05037 -1.10999,6.99807 -1.19564,6.94156 -1.28057,6.88086 -1.36474,6.81602 -1.44807,6.74707 -1.53054,6.67407 -1.61208,6.59703 -1.69266,6.51602 -1.77221,6.4311 -1.8507,6.34229 -1.92807,6.24966 -2.00428,6.15328 -2.07928,6.05318 -2.15304,5.94945 -2.22549,5.84211 -2.2966,5.73127 -2.36633,5.61698 -2.43463,5.49929 -2.50147,5.3783 -2.5668,5.25407 -2.63059,5.12667 -2.69279,4.99619 -2.75336,4.86269 -2.81229,4.72627 -2.86951,4.587 -2.92501,4.44496 -2.97874,4.30025 -3.03069,4.15295 -3.0808,4.00315 -3.12906,3.85093 -3.17543,3.6964 -3.2199,3.53963 -3.26241,3.38075 -3.30298,3.21981 -3.34154,3.05694 -3.3781,2.89224 -3.41262,2.72578 -3.44509,2.55769 -3.47547,2.38805 -3.50377,2.21698 -3.52995,2.04457 -3.55401,1.87093 -3.57593,1.69616 -3.5957,1.52037 -3.61329,1.34367 -3.62871,1.16615 -3.64195,0.98794 -3.653,0.80912 -3.66183,0.62983 -3.66847,0.45015 -3.67289,0.27019 -3.67511,0.0901 -3.67511,-0.0901 -3.6729,-0.27019 -3.66847,-0.45015 -3.66183,-0.62983 -3.653,-0.80912 -3.64195,-0.98794 -3.62871,-1.16615 -3.61329,-1.34367 -3.5957,-1.52037 -3.57593,-1.69616 -3.55401,-1.87093 -3.52995,-2.04457 -3.50377,-2.21698 -3.47547,-2.38805 -3.44509,-2.55769 -3.41262,-2.72578 -3.37809,-2.89224 -3.34155,-3.05694 -3.30297,-3.21981 -3.26242,-3.38075 -3.2199,-3.53963 -3.17543,-3.6964 -3.12906,-3.85093 -3.0808,-4.00315 -3.03069,-4.15295 -2.97874,-4.30025 -2.92501,-4.44496 -2.86951,-4.587 -2.81228,-4.72627 -2.75337,-4.86269 -2.69279,-4.99619 -2.63059,-5.12667 -2.5668,-5.25407 -2.50147,-5.3783 -2.43463,-5.49929 -2.36633,-5.61698 -2.2966,-5.73127 -2.22549,-5.84211 -2.15303,-5.94945 -2.07929,-6.05318 -2.00428,-6.15328 -1.92807,-6.24966 -1.8507,-6.34229 -1.77221,-6.4311 -1.69265,-6.51602 -1.61209,-6.59703 -1.53054,-6.67407 -1.44807,-6.74707 -1.36474,-6.81602 -1.28057,-6.88086 -1.19564,-6.94156 -1.10999,-6.99807 -1.02367,-7.05037 -0.93673,-7.09842 -0.84922,-7.14221 -0.76122,-7.18167 -0.67274,-7.21683 -0.58387,-7.24762 -0.49463,-7.27407 -0.40511,-7.29611 -0.31534,-7.31378 -0.22538,-7.32703 -0.13528,-7.33587 -0.0451,-7.34029 0.0451,-7.3403 0.13528,-7.33587 0.22538,-7.32703 0.31534,-7.31378 0.40511,-7.29611 0.49463,-7.27407 0.58387,-7.24762 0.67274,-7.21683 0.76122,-7.18167 0.84922,-7.14221 0.93673,-7.09842 1.02367,-7.05037 1.10999,-6.99807 1.19564,-6.94156 1.28057,-6.88086 1.36474,-6.81602 1.44807,-6.74707 1.53054,-6.67407 1.61209,-6.59703 1.69265,-6.51602 1.77221,-6.4311 1.8507,-6.34229 1.92807,-6.24966 2.00428,-6.15328 2.07929,-6.05318 2.15303,-5.94944 2.22549,-5.84212 2.2966,-5.73127 2.36633,-5.61698 2.43463,-5.49929 2.50147,-5.3783 2.5668,-5.25407 2.63059,-5.12667 2.69279,-4.99619 2.75337,-4.86269 2.81228,-4.726271 2.86951,-4.587 2.92501,-4.444963 2.97874,-4.300251 3.03069,-4.15295 3.0808,-4.003146 3.12906,-3.850932 3.17543,-3.696397 3.2199,-3.539637 3.26242,-3.380743 3.30297,-3.219814 3.34155,-3.056945 3.37809,-2.892234 3.41262,-2.725783 3.44509,-2.557687 3.47547,-2.388053 3.50377,-2.216979 3.52995,-2.04457 3.55401,-1.870929 3.57593,-1.696162 3.5957,-1.520372 3.61329,-1.343668 3.62871,-1.166153 3.64195,-0.987936 3.653,-0.809124 3.66183,-0.629825 3.66847,-0.450146 3.6729,-0.270196 3.67511,-0.09008"
       stroke-opacity="0.698039"
       stroke-linecap="round"
       stroke-linejoin="round"
       stroke-miterlimit="10"
       stroke-width="1.5"
       id="path15" />
    <path
       fill="none"
       stroke="#000000"
       paint-order="fill stroke markers"
       d="m 329.45545,29.910044 6.12518,0.09008 6.12149,0.270196 6.11412,0.450146 6.10305,0.629825 6.08832,0.809124 6.06992,0.987936 6.04786,1.166153 6.02215,1.343668 5.99283,1.520372 5.95988,1.696162 5.92335,1.870929 5.88326,2.04457 5.83961,2.216979 5.79246,2.388053 5.7418,2.557687 5.6877,2.725783 5.63017,2.892234 5.56923,3.056945 5.50496,3.219814 5.43737,3.380743 5.36649,3.539637 5.29239,3.696397 5.2151,3.850932 5.13467,4.003146 5.05114,4.152951 4.96457,4.300251 4.87501,4.444963 4.78252,4.587 4.68715,4.72627 4.58894,4.86269 4.48798,4.99619 4.38431,5.12667 4.278,5.25407 4.16912,5.3783 4.05773,5.49929 3.94388,5.61698 3.82767,5.73127 3.70914,5.84212 3.58839,5.94944 3.46547,6.05318 3.34047,6.15328 3.21345,6.24966 3.0845,6.34229 2.95368,6.4311 2.8211,6.51602 2.68681,6.59703 2.5509,6.67407 2.41345,6.74707 2.27456,6.81602 2.13429,6.88086 1.99273,6.94156 1.84998,6.99807 1.70611,7.05037 1.56122,7.09842 1.41538,7.14221 1.26869,7.18167 1.12124,7.21683 0.97311,7.24762 0.82439,7.27407 0.67518,7.29611 0.52557,7.31378 0.37563,7.32703 0.22546,7.33587 0.0752,7.3403 -0.0752,7.34029 -0.22546,7.33587 -0.37563,7.32703 -0.52557,7.31378 -0.67518,7.29611 -0.82439,7.27407 -0.97311,7.24762 -1.12124,7.21683 -1.26869,7.18167 -1.41538,7.14221 -1.56122,7.09842 -1.70611,7.05037 -1.84998,6.99807 -1.99273,6.94156 -2.13429,6.88086 -2.27456,6.81602 -2.41345,6.74707 -2.5509,6.67407 -2.68681,6.59703 -2.8211,6.51602 -2.95368,6.4311 -3.0845,6.34229 -3.21345,6.24966 -3.34047,6.15328 -3.46547,6.05318 -3.58839,5.94945 -3.70914,5.84211 -3.82767,5.73127 -3.94388,5.61698 -4.05773,5.49929 -4.16912,5.3783 -4.278,5.25407 -4.38431,5.12667 -4.48798,4.99619 -4.58894,4.86269 -4.68715,4.72627 -4.78252,4.587 -4.87501,4.44496 -4.96457,4.30025 -5.05114,4.15295 -5.13467,4.00315 -5.2151,3.85093 -5.29239,3.6964 -5.36649,3.53963 -5.43737,3.38075 -5.50496,3.21981 -5.56923,3.05694 -5.63017,2.89224 -5.6877,2.72578 -5.7418,2.55769 -5.79246,2.38805 -5.83961,2.21698 -5.88326,2.04457 -5.92335,1.87093 -5.95988,1.69616 -5.99283,1.52037 -6.02215,1.34367 -6.04786,1.16615 -6.06992,0.98794 -6.08832,0.80912 -6.10305,0.62983 -6.11412,0.45015 -6.12149,0.27019 -6.12518,0.0901 -6.12519,-0.0901 -6.12149,-0.27019 -6.11412,-0.45015 -6.10305,-0.62983 -6.08832,-0.80912 -6.06992,-0.98794 -6.04786,-1.16615 -6.02215,-1.34367 -5.99283,-1.52037 -5.95988,-1.69616 -5.92335,-1.87093 -5.88326,-2.04457 -5.83961,-2.21698 -5.79246,-2.38805 -5.7418,-2.55769 -5.6877,-2.72578 -5.63016,-2.89224 -5.56924,-3.05694 -5.50496,-3.21981 -5.43737,-3.38075 -5.36649,-3.53963 -5.29239,-3.6964 -5.2151,-3.85093 -5.13467,-4.00315 -5.05114,-4.15295 -4.96457,-4.30025 -4.87501,-4.44496 -4.78252,-4.587 -4.68714,-4.72627 -4.58895,-4.86269 -4.48798,-4.99619 -4.38431,-5.12667 -4.278,-5.25407 -4.16912,-5.3783 -4.05773,-5.49929 -3.94388,-5.61698 -3.82767,-5.73127 -3.70914,-5.84211 -3.58839,-5.94945 -3.46547,-6.05318 -3.34047,-6.15328 -3.21345,-6.24966 -3.0845,-6.34229 -2.95368,-6.4311 -2.8211,-6.51602 -2.6868,-6.59703 -2.5509,-6.67407 -2.413459,-6.74707 -2.274557,-6.81602 -2.134289,-6.88086 -1.992735,-6.94156 -1.849981,-6.99807 -1.706113,-7.05037 -1.561216,-7.09842 -1.41538,-7.14221 -1.26869,-7.18167 -1.121237,-7.21683 -0.973109,-7.24762 -0.824393,-7.27407 -0.675182,-7.29611 -0.525564,-7.31378 -0.375629,-7.32703 -0.225468,-7.33587 -0.07517,-7.34029 0.07517,-7.3403 0.225468,-7.33587 0.375629,-7.32703 0.525564,-7.31378 0.675182,-7.29611 0.824393,-7.27407 0.973109,-7.24762 1.121237,-7.21683 1.26869,-7.18167 1.41538,-7.14221 1.561216,-7.09842 1.706113,-7.05037 1.849981,-6.99807 1.992735,-6.94156 2.134289,-6.88086 2.274557,-6.81602 2.413459,-6.74707 2.5509,-6.67407 2.6868,-6.59703 2.8211,-6.51602 2.95368,-6.4311 3.0845,-6.34229 3.21345,-6.24966 3.34047,-6.15328 3.46547,-6.05318 3.58839,-5.94944 3.70914,-5.84212 3.82767,-5.73127 3.94388,-5.61698 4.05773,-5.49929 4.16912,-5.3783 4.278,-5.25407 4.38431,-5.12667 4.48798,-4.99619 4.58895,-4.86269 4.68714,-4.726271 4.78252,-4.587 4.87501,-4.444963 4.96457,-4.300251 5.05114,-4.15295 5.13467,-4.003146 5.2151,-3.850932 5.29239,-3.696397 5.36649,-3.539637 5.43737,-3.380743 5.50496,-3.219814 5.56924,-3.056945 5.63016,-2.892234 5.6877,-2.725783 5.7418,-2.557687 5.79246,-2.388053 5.83961,-2.216979 5.88326,-2.04457 5.92335,-1.870929 5.95988,-1.696162 5.99283,-1.520372 6.02215,-1.343668 6.04786,-1.166153 6.06992,-0.987936 6.08832,-0.809124 6.10305,-0.629825 6.11412,-0.450146 6.12149,-0.270196 6.12519,-0.09008"
       stroke-opacity="0.698039"
       stroke-linecap="round"
       stroke-linejoin="round"
       stroke-miterlimit="10"
       stroke-width="1.5"
       id="path17" />
    <path
       fill="none"
       stroke="#000000"
       paint-order="fill stroke markers"
       d="m 329.45545,29.910044 1.22503,0.09008 1.2243,0.270196 1.22282,0.450146 1.22062,0.629825 1.21766,0.809124 1.21398,0.987936 1.20957,1.166153 1.20444,1.343668 1.19856,1.520372 1.19198,1.696162 1.18467,1.870929 1.17665,2.04457 1.16792,2.216979 1.15849,2.388053 1.14836,2.557687 1.13754,2.725783 1.12604,2.892234 1.11384,3.056945 1.101,3.219814 1.08747,3.380743 1.0733,3.539637 1.05848,3.696397 1.04301,3.850932 1.02694,4.003146 1.01023,4.152951 0.99291,4.300251 0.975,4.444963 0.95651,4.587 0.93743,4.72627 0.91778,4.86269 0.8976,4.99619 0.87686,5.12667 0.8556,5.25407 0.83383,5.3783 0.81154,5.49929 0.78878,5.61698 0.76553,5.73127 0.74183,5.84212 0.71768,5.94944 0.69309,6.05318 0.6681,6.15328 0.64269,6.24966 0.6169,6.34229 0.59073,6.4311 0.56422,6.51602 0.53736,6.59703 0.51018,6.67407 0.48269,6.74707 0.45492,6.81602 0.42685,6.88086 0.39855,6.94156 0.37,6.99807 0.34122,7.05037 0.31224,7.09842 0.28308,7.14221 0.25374,7.18167 0.22424,7.21683 0.19463,7.24762 0.16487,7.27407 0.13504,7.29611 0.10511,7.31378 0.0751,7.32703 0.0451,7.33587 0.015,7.3403 -0.015,7.34029 -0.0451,7.33587 -0.0751,7.32703 -0.10511,7.31378 -0.13504,7.29611 -0.16487,7.27407 -0.19463,7.24762 -0.22424,7.21683 -0.25374,7.18167 -0.28308,7.14221 -0.31224,7.09842 -0.34122,7.05037 -0.37,6.99807 -0.39855,6.94156 -0.42685,6.88086 -0.45492,6.81602 -0.48269,6.74707 -0.51018,6.67407 -0.53736,6.59703 -0.56422,6.51602 -0.59073,6.4311 -0.6169,6.34229 -0.64269,6.24966 -0.6681,6.15328 -0.69309,6.05318 -0.71768,5.94945 -0.74183,5.84211 -0.76553,5.73127 -0.78878,5.61698 -0.81154,5.49929 -0.83383,5.3783 -0.8556,5.25407 -0.87686,5.12667 -0.8976,4.99619 -0.91778,4.86269 -0.93743,4.72627 -0.95651,4.587 -0.975,4.44496 -0.99291,4.30025 -1.01023,4.15295 -1.02694,4.00315 -1.04301,3.85093 -1.05848,3.6964 -1.0733,3.53963 -1.08747,3.38075 -1.101,3.21981 -1.11384,3.05694 -1.12604,2.89224 -1.13754,2.72578 -1.14836,2.55769 -1.15849,2.38805 -1.16792,2.21698 -1.17665,2.04457 -1.18467,1.87093 -1.19198,1.69616 -1.19856,1.52037 -1.20444,1.34367 -1.20957,1.16615 -1.21398,0.98794 -1.21766,0.80912 -1.22062,0.62983 -1.22282,0.45015 -1.2243,0.27019 -1.22503,0.0901 -1.22504,-0.0901 -1.2243,-0.27019 -1.22282,-0.45015 -1.22061,-0.62983 -1.21767,-0.80912 -1.21398,-0.98794 -1.20957,-1.16615 -1.20443,-1.34367 -1.19857,-1.52037 -1.19198,-1.69616 -1.18467,-1.87093 -1.17665,-2.04457 -1.16792,-2.21698 -1.15849,-2.38805 -1.14836,-2.55769 -1.13754,-2.72578 -1.12603,-2.89224 -1.11385,-3.05694 -1.10099,-3.21981 -1.08748,-3.38075 -1.0733,-3.53963 -1.05847,-3.6964 -1.04302,-3.85093 -1.02694,-4.00315 -1.01023,-4.15295 -0.99291,-4.30025 -0.975,-4.44496 -0.95651,-4.587 -0.93742,-4.72627 -0.91779,-4.86269 -0.8976,-4.99619 -0.87686,-5.12667 -0.8556,-5.25407 -0.83383,-5.3783 -0.81154,-5.49929 -0.78878,-5.61698 -0.76553,-5.73127 -0.74183,-5.84211 -0.71768,-5.94945 -0.69309,-6.05318 -0.6681,-6.15328 -0.64269,-6.24966 -0.61689,-6.34229 -0.59074,-6.4311 -0.56422,-6.51602 -0.53736,-6.59703 -0.51018,-6.67407 -0.48269,-6.74707 -0.45491,-6.81602 -0.42686,-6.88086 -0.39855,-6.94156 -0.37,-6.99807 -0.34122,-7.05037 -0.31224,-7.09842 -0.28308,-7.14221 -0.25374,-7.18167 -0.22424,-7.21683 -0.19462,-7.24762 -0.16488,-7.27407 -0.13504,-7.29611 -0.10511,-7.31378 -0.0751,-7.32703 -0.0451,-7.33587 -0.015,-7.34029 0.015,-7.3403 0.0451,-7.33587 0.0751,-7.32703 0.10511,-7.31378 0.13504,-7.29611 0.16488,-7.27407 0.19462,-7.24762 0.22424,-7.21683 0.25374,-7.18167 0.28308,-7.14221 0.31224,-7.09842 0.34122,-7.05037 0.37,-6.99807 0.39855,-6.94156 0.42686,-6.88086 0.45491,-6.81602 0.48269,-6.74707 0.51018,-6.67407 0.53736,-6.59703 0.56422,-6.51602 0.59074,-6.4311 0.61689,-6.34229 0.64269,-6.24966 0.6681,-6.15328 0.69309,-6.05318 0.71768,-5.94944 0.74183,-5.84212 0.76553,-5.73127 0.78878,-5.61698 0.81154,-5.49929 0.83383,-5.3783 0.8556,-5.25407 0.87686,-5.12667 0.8976,-4.99619 0.91779,-4.86269 0.93742,-4.726271 0.95651,-4.587 0.975,-4.444963 0.99291,-4.300251 1.01023,-4.15295 1.02694,-4.003146 1.04302,-3.850932 1.05847,-3.696397 1.0733,-3.539637 1.08748,-3.380743 1.10099,-3.219814 1.11385,-3.056945 1.12603,-2.892234 1.13754,-2.725783 1.14836,-2.557687 1.15849,-2.388053 1.16792,-2.216979 1.17665,-2.04457 1.18467,-1.870929 1.19198,-1.696162 1.19857,-1.520372 1.20443,-1.343668 1.20957,-1.166153 1.21398,-0.987936 1.21767,-0.809124 1.22061,-0.629825 1.22282,-0.450146 1.2243,-0.270196 1.22504,-0.09008"
       stroke-opacity="0.698039"
       stroke-linecap="round"
       stroke-linejoin="round"
       stroke-miterlimit="10"
       stroke-width="1.5"
       id="path19" />
    <path
       fill="none"
       stroke="#000000"
       paint-order="fill stroke markers"
       d="M 163.89785,79.76012 H 495.01304"
       stroke-opacity="0.698039"
       stroke-linecap="round"
       stroke-linejoin="round"
       stroke-miterlimit="10"
       stroke-width="1.5"
       id="path21" />
    <path
       fill="none"
       stroke="#000000"
       paint-order="fill stroke markers"
       d="M 70.07655,179.46027 H 588.83434"
       stroke-opacity="0.698039"
       stroke-linecap="round"
       stroke-linejoin="round"
       stroke-miterlimit="10"
       stroke-width="1.5"
       id="path23" />
    <path
       fill="none"
       stroke="#000000"
       paint-order="fill stroke markers"
       d="M 34.139582,279.16042 H 624.77131"
       stroke-opacity="0.698039"
       stroke-linecap="round"
       stroke-linejoin="round"
       stroke-miterlimit="10"
       stroke-width="1.5"
       id="path25" />
    <path
       fill="none"
       stroke="#000000"
       paint-order="fill stroke markers"
       d="M 34.139582,378.86057 H 624.77131"
       stroke-opacity="0.698039"
       stroke-linecap="round"
       stroke-linejoin="round"
       stroke-miterlimit="10"
       stroke-width="1.5"
       id="path27" />
    <path
       fill="none"
       stroke="#000000"
       paint-order="fill stroke markers"
       d="M 70.07655,478.56072 H 588.83434"
       stroke-opacity="0.698039"
       stroke-linecap="round"
       stroke-linejoin="round"
       stroke-miterlimit="10"
       stroke-width="1.5"
       id="path29" />
    <path
       fill="none"
       stroke="#000000"
       paint-order="fill stroke markers"
       d="M 163.89785,578.26087 H 495.01304"
       stroke-opacity="0.698039"
       stroke-linecap="round"
       stroke-linejoin="round"
       stroke-miterlimit="10"
       stroke-width="1.5"
       id="path31" />
    <g
       transform="matrix(0,-51,51,0,-138.77565,750.63003)"
       id="g99">
      <g
         transform="translate(6.400328,8.7880851)"
         id="g63">
        <path
           fill="#000000"
           stroke="none"
           paint-order="stroke fill markers"
           d="m 0.183,-0.694 v 0.63 h 0.049 q 0.089,0 0.267,-0.002 V 0 H 0.094 v -0.694 z"
           id="path61" />
      </g>
      <g
         transform="translate(6.941997,8.7880851)"
         id="g67">
        <path
           fill="#000000"
           stroke="none"
           paint-order="stroke fill markers"
           d="m 0.163,-0.68 v 0.089 H 0.074 V -0.68 H 0.163 M 0.156,-0.444 V 0 H 0.081 v -0.444 z"
           id="path65" />
      </g>
      <g
         transform="translate(7.180887,8.7880851)"
         id="g71">
        <path
           fill="#000000"
           stroke="none"
           paint-order="stroke fill markers"
           d="M 0.352,-0.391 0.348,-0.392 q 0.033,0.045 0.033,0.1 0,0.067 -0.0465,0.115 -0.0465,0.048 -0.1135,0.048 -0.05,0 -0.091,-0.029 -0.011,0.014 -0.011,0.036 0,0.053 0.058,0.053 h 0.088 q 0.017,0 0.0295,0.001 0.0125,0.001 0.0405,0.004 0.028,0.003 0.0485,0.0125 Q 0.404,-0.042 0.4255,-0.028 0.447,-0.014 0.459,0.0115 0.471,0.037 0.471,0.07 0.471,0.127 0.4065,0.1665 0.342,0.206 0.249,0.206 0.157,0.206 0.0925,0.1665 0.028,0.127 0.028,0.071 q 0,-0.065 0.064,-0.103 -0.026,-0.032 -0.026,-0.076 0,-0.044 0.029,-0.085 -0.033,-0.043 -0.033,-0.099 0,-0.068 0.047,-0.1155 0.047,-0.0475 0.112,-0.0475 0.055,0 0.095,0.032 0.074,-0.032 0.158,-0.032 l 0.011,0.063 -0.011,-0.001 q -0.012,-0.001 -0.026,-0.0015 -0.014,-5e-4 -0.022,-5e-4 -0.012,0 -0.0375,0.002 -0.0255,0.002 -0.0365,0.002 m -0.131,0.205 q 0.037,0 0.0635,-0.026 0.0265,-0.026 0.0265,-0.08 0,-0.054 -0.0265,-0.08 -0.0265,-0.026 -0.0635,-0.026 -0.034,0 -0.0615,0.025 -0.0275,0.025 -0.0275,0.081 0,0.056 0.0275,0.081 0.0275,0.025 0.0615,0.025 M 0.266,0.003 H 0.176 Q 0.154,0.003 0.138,0.01 0.122,0.017 0.1145,0.0255 0.107,0.034 0.103,0.046 0.099,0.058 0.0985,0.0625 0.098,0.067 0.098,0.071 0.098,0.105 0.1425,0.127 0.187,0.149 0.25,0.149 0.312,0.149 0.3565,0.127 0.401,0.105 0.401,0.072 0.401,0.003 0.266,0.003 Z"
           id="path69" />
      </g>
      <g
         transform="translate(7.680889,8.7880851)"
         id="g75">
        <path
           fill="#000000"
           stroke="none"
           paint-order="stroke fill markers"
           d="M 0.435,-0.298 V 0 H 0.357 v -0.291 q 0,-0.014 -5e-4,-0.0235 Q 0.356,-0.324 0.3505,-0.3405 0.345,-0.357 0.3355,-0.3675 0.326,-0.378 0.3065,-0.386 0.287,-0.394 0.26,-0.394 0.208,-0.394 0.1835,-0.349 0.159,-0.304 0.159,-0.245 V 0 H 0.081 v -0.694 h 0.075 v 0.311 q 0.056,-0.072 0.142,-0.072 0.137,0 0.137,0.157 z"
           id="path73" />
      </g>
      <g
         transform="translate(8.197557,8.7880851)"
         id="g79">
        <path
           fill="#000000"
           stroke="none"
           paint-order="stroke fill markers"
           d="m 0.175,-0.386 v 0.25 q 0,0.083 0.051,0.083 0.049,0 0.09,-0.033 l 0.016,0.059 q -0.073,0.038 -0.146,0.038 -0.083,0 -0.083,-0.13 V -0.386 H 0.019 v -0.058 h 0.087 v -0.127 h 0.069 v 0.127 h 0.141 v 0.058 z"
           id="path77" />
      </g>
      <g
         transform="translate(8.558669,8.7880851)"
         id="g83">
        <path
           fill="#000000"
           stroke="none"
           paint-order="stroke fill markers"
           d="M 0.435,-0.298 V 0 H 0.357 v -0.291 q 0,-0.014 -5e-4,-0.0235 Q 0.356,-0.324 0.3505,-0.3405 0.345,-0.357 0.3355,-0.3675 0.326,-0.378 0.3065,-0.386 0.287,-0.394 0.26,-0.394 0.208,-0.394 0.1835,-0.349 0.159,-0.304 0.159,-0.245 V 0 H 0.081 v -0.45 h 0.072 v 0.071 q 0.057,-0.076 0.145,-0.076 0.137,0 0.137,0.157 z"
           id="path81" />
      </g>
      <g
         transform="translate(9.075337,8.7880851)"
         id="g87">
        <path
           fill="#000000"
           stroke="none"
           paint-order="stroke fill markers"
           d="M 0.414,-0.219 H 0.105 q 0.002,0.073 0.0445,0.121 0.0425,0.048 0.1025,0.048 0.084,0 0.152,-0.056 l 0.006,0.065 q -0.072,0.052 -0.159,0.052 -0.09,0 -0.153,-0.069 -0.063,-0.069 -0.063,-0.168 0,-0.097 0.059,-0.166 0.059,-0.069 0.142,-0.069 0.09,0 0.138,0.073 0.04,0.062 0.04,0.169 M 0.11,-0.274 H 0.357 Q 0.348,-0.338 0.314,-0.369 0.28,-0.4 0.236,-0.4 0.193,-0.4 0.1575,-0.365 0.122,-0.33 0.11,-0.274 Z"
           id="path85" />
      </g>
      <g
         transform="translate(9.519783,8.7880851)"
         id="g91">
        <path
           fill="#000000"
           stroke="none"
           paint-order="stroke fill markers"
           d="m 0.343,-0.429 -0.012,0.065 q -0.064,-0.038 -0.142,-0.038 -0.085,0 -0.085,0.062 0,0.014 0.006,0.025 0.006,0.011 0.0135,0.0175 0.0075,0.0065 0.023,0.012 0.0155,0.0055 0.0265,0.0085 0.011,0.003 0.032,0.007 0.043,0.008 0.066,0.017 0.023,0.009 0.05,0.033 l 0.005,0.006 q 0.005,0.005 0.01,0.0125 0.005,0.0075 0.011,0.018 0.006,0.0105 0.0095,0.0255 0.0035,0.015 0.0035,0.03 0,0.07 -0.048,0.107 -0.043,0.032 -0.116,0.032 -0.08,0 -0.168,-0.044 L 0.04,-0.101 q 0.074,0.049 0.155,0.049 0.094,0 0.094,-0.069 0,-0.015 -0.007,-0.027 Q 0.275,-0.16 0.2665,-0.167 0.258,-0.174 0.243,-0.18 0.228,-0.186 0.219,-0.188 0.21,-0.19 0.195,-0.193 0.161,-0.2 0.148,-0.203 0.135,-0.206 0.1185,-0.2125 0.102,-0.219 0.087,-0.23 0.033,-0.271 0.033,-0.33 0.033,-0.367 0.0485,-0.3935 0.064,-0.42 0.0835,-0.4325 0.103,-0.445 0.1305,-0.452 0.158,-0.459 0.171,-0.46 q 0.013,-0.001 0.028,-0.001 0.075,0 0.144,0.032 z"
           id="path89" />
      </g>
      <g
         transform="translate(9.903117,8.7880851)"
         id="g95">
        <path
           fill="#000000"
           stroke="none"
           paint-order="stroke fill markers"
           d="m 0.343,-0.429 -0.012,0.065 q -0.064,-0.038 -0.142,-0.038 -0.085,0 -0.085,0.062 0,0.014 0.006,0.025 0.006,0.011 0.0135,0.0175 0.0075,0.0065 0.023,0.012 0.0155,0.0055 0.0265,0.0085 0.011,0.003 0.032,0.007 0.043,0.008 0.066,0.017 0.023,0.009 0.05,0.033 l 0.005,0.006 q 0.005,0.005 0.01,0.0125 0.005,0.0075 0.011,0.018 0.006,0.0105 0.0095,0.0255 0.0035,0.015 0.0035,0.03 0,0.07 -0.048,0.107 -0.043,0.032 -0.116,0.032 -0.08,0 -0.168,-0.044 L 0.04,-0.101 q 0.074,0.049 0.155,0.049 0.094,0 0.094,-0.069 0,-0.015 -0.007,-0.027 Q 0.275,-0.16 0.2665,-0.167 0.258,-0.174 0.243,-0.18 0.228,-0.186 0.219,-0.188 0.21,-0.19 0.195,-0.193 0.161,-0.2 0.148,-0.203 0.135,-0.206 0.1185,-0.2125 0.102,-0.219 0.087,-0.23 0.033,-0.271 0.033,-0.33 0.033,-0.367 0.0485,-0.3935 0.064,-0.42 0.0835,-0.4325 0.103,-0.445 0.1305,-0.452 0.158,-0.459 0.171,-0.46 q 0.013,-0.001 0.028,-0.001 0.075,0 0.144,0.032 z"
           id="path93" />
      </g>
      <g
         transform="rotate(90,6.066994,8.7880851)"
         id="g97" />
    </g>
    <g
       transform="matrix(51,0,0,51,0,-6.9790105)"
       id="g151">
      <g
         transform="translate(6.8431379,7.4591509)"
         id="g103">
        <path
           fill="#000000"
           stroke="none"
           paint-order="stroke fill markers"
           d="M 0.577,-0.681 0.562,-0.6 q -0.081,-0.052 -0.169,-0.052 -0.102,0 -0.1695,0.09 -0.0675,0.09 -0.0675,0.215 0,0.122 0.066,0.2135 0.066,0.0915 0.174,0.0915 0.055,0 0.0945,-0.012 Q 0.53,-0.066 0.582,-0.103 l 0.006,0.069 Q 0.534,-0.001 0.495,0.0105 0.456,0.022 0.395,0.022 q -0.142,0 -0.235,-0.11 -0.093,-0.11 -0.093,-0.259 0,-0.151 0.093,-0.26 0.093,-0.109 0.234,-0.109 0.091,0 0.183,0.035 z"
           id="path101" />
      </g>
      <g
         transform="translate(7.4820289,7.4591509)"
         id="g107">
        <path
           fill="#000000"
           stroke="none"
           paint-order="stroke fill markers"
           d="m 0.469,-0.22 q 0,0.097 -0.0645,0.164 Q 0.34,0.011 0.249,0.011 0.16,0.011 0.095,-0.0555 0.03,-0.122 0.03,-0.22 q 0,-0.099 0.064,-0.17 0.064,-0.071 0.156,-0.071 0.09,0 0.1545,0.0705 Q 0.469,-0.32 0.469,-0.22 m -0.22,0.167 q 0.059,0 0.1005,-0.0465 Q 0.391,-0.146 0.391,-0.23 0.391,-0.313 0.349,-0.3565 0.307,-0.4 0.249,-0.4 0.193,-0.4 0.1505,-0.357 0.108,-0.314 0.108,-0.23 q 0,0.085 0.042,0.131 0.042,0.046 0.099,0.046 z"
           id="path105" />
      </g>
      <g
         transform="translate(7.9820309,7.4591509)"
         id="g111">
        <path
           fill="#000000"
           stroke="none"
           paint-order="stroke fill markers"
           d="M 0.156,-0.694 V 0 H 0.081 v -0.694 z"
           id="path109" />
      </g>
      <g
         transform="translate(8.2209209,7.4591509)"
         id="g115">
        <path
           fill="#000000"
           stroke="none"
           paint-order="stroke fill markers"
           d="m 0.469,-0.22 q 0,0.097 -0.0645,0.164 Q 0.34,0.011 0.249,0.011 0.16,0.011 0.095,-0.0555 0.03,-0.122 0.03,-0.22 q 0,-0.099 0.064,-0.17 0.064,-0.071 0.156,-0.071 0.09,0 0.1545,0.0705 Q 0.469,-0.32 0.469,-0.22 m -0.22,0.167 q 0.059,0 0.1005,-0.0465 Q 0.391,-0.146 0.391,-0.23 0.391,-0.313 0.349,-0.3565 0.307,-0.4 0.249,-0.4 0.193,-0.4 0.1505,-0.357 0.108,-0.314 0.108,-0.23 q 0,0.085 0.042,0.131 0.042,0.046 0.099,0.046 z"
           id="path113" />
      </g>
      <g
         transform="translate(8.6931439,7.4591509)"
         id="g119">
        <path
           fill="#000000"
           stroke="none"
           paint-order="stroke fill markers"
           d="M 0.157,-0.214 V 0 H 0.082 v -0.45 h 0.07 v 0.091 q 0.064,-0.095 0.175,-0.096 v 0.067 Q 0.253,-0.386 0.205,-0.3375 0.157,-0.289 0.157,-0.214 Z"
           id="path117" />
      </g>
      <g
         transform="translate(9.0348129,7.4591509)"
         id="g123">
        <path
           fill="#000000"
           stroke="none"
           paint-order="stroke fill markers"
           d="M 0.176,-0.386 V 0 H 0.101 V -0.386 H 0.027 v -0.058 h 0.074 v -0.09 q 0,-0.074 0.0475,-0.1225 0.0475,-0.0485 0.1185,-0.0485 0.036,0 0.08,0.011 v 0.067 Q 0.308,-0.644 0.266,-0.644 0.253,-0.644 0.24,-0.6415 0.227,-0.639 0.2105,-0.6315 0.194,-0.624 0.1835,-0.6065 0.173,-0.589 0.173,-0.563 v 0.119 h 0.113 v 0.058 z"
           id="path121" />
      </g>
      <g
         transform="translate(9.3403699,7.4591509)"
         id="g127">
        <path
           fill="#000000"
           stroke="none"
           paint-order="stroke fill markers"
           d="M 0.435,-0.444 V 0 H 0.36 V -0.048 Q 0.293,0.011 0.187,0.011 0.128,0.011 0.1045,-0.0195 0.081,-0.05 0.081,-0.109 v -0.335 h 0.078 v 0.331 q 0,0.037 0.0145,0.053 0.0145,0.016 0.0635,0.016 0.051,0 0.0855,-0.0285 Q 0.357,-0.101 0.357,-0.154 v -0.29 z"
           id="path125" />
      </g>
      <g
         transform="translate(9.8570379,7.4591509)"
         id="g131">
        <path
           fill="#000000"
           stroke="none"
           paint-order="stroke fill markers"
           d="M 0.156,-0.694 V 0 H 0.081 v -0.694 z"
           id="path129" />
      </g>
      <g
         transform="translate(10.095928,7.4591509)"
         id="g135">
        <path
           fill="#000000"
           stroke="none"
           paint-order="stroke fill markers"
           d="M 0.435,-0.298 V 0 H 0.357 v -0.291 q 0,-0.014 -5e-4,-0.0235 Q 0.356,-0.324 0.3505,-0.3405 0.345,-0.357 0.3355,-0.3675 0.326,-0.378 0.3065,-0.386 0.287,-0.394 0.26,-0.394 0.208,-0.394 0.1835,-0.349 0.159,-0.304 0.159,-0.245 V 0 H 0.081 v -0.45 h 0.072 v 0.071 q 0.057,-0.076 0.145,-0.076 0.137,0 0.137,0.157 z"
           id="path133" />
      </g>
      <g
         transform="translate(10.612596,7.4591509)"
         id="g139">
        <path
           fill="#000000"
           stroke="none"
           paint-order="stroke fill markers"
           d="M 0.414,-0.219 H 0.105 q 0.002,0.073 0.0445,0.121 0.0425,0.048 0.1025,0.048 0.084,0 0.152,-0.056 l 0.006,0.065 q -0.072,0.052 -0.159,0.052 -0.09,0 -0.153,-0.069 -0.063,-0.069 -0.063,-0.168 0,-0.097 0.059,-0.166 0.059,-0.069 0.142,-0.069 0.09,0 0.138,0.073 0.04,0.062 0.04,0.169 M 0.11,-0.274 H 0.357 Q 0.348,-0.338 0.314,-0.369 0.28,-0.4 0.236,-0.4 0.193,-0.4 0.1575,-0.365 0.122,-0.33 0.11,-0.274 Z"
           id="path137" />
      </g>
      <g
         transform="translate(11.057042,7.4591509)"
         id="g143">
        <path
           fill="#000000"
           stroke="none"
           paint-order="stroke fill markers"
           d="m 0.343,-0.429 -0.012,0.065 q -0.064,-0.038 -0.142,-0.038 -0.085,0 -0.085,0.062 0,0.014 0.006,0.025 0.006,0.011 0.0135,0.0175 0.0075,0.0065 0.023,0.012 0.0155,0.0055 0.0265,0.0085 0.011,0.003 0.032,0.007 0.043,0.008 0.066,0.017 0.023,0.009 0.05,0.033 l 0.005,0.006 q 0.005,0.005 0.01,0.0125 0.005,0.0075 0.011,0.018 0.006,0.0105 0.0095,0.0255 0.0035,0.015 0.0035,0.03 0,0.07 -0.048,0.107 -0.043,0.032 -0.116,0.032 -0.08,0 -0.168,-0.044 L 0.04,-0.101 q 0.074,0.049 0.155,0.049 0.094,0 0.094,-0.069 0,-0.015 -0.007,-0.027 Q 0.275,-0.16 0.2665,-0.167 0.258,-0.174 0.243,-0.18 0.228,-0.186 0.219,-0.188 0.21,-0.19 0.195,-0.193 0.161,-0.2 0.148,-0.203 0.135,-0.206 0.1185,-0.2125 0.102,-0.219 0.087,-0.23 0.033,-0.271 0.033,-0.33 0.033,-0.367 0.0485,-0.3935 0.064,-0.42 0.0835,-0.4325 0.103,-0.445 0.1305,-0.452 0.158,-0.459 0.171,-0.46 q 0.013,-0.001 0.028,-0.001 0.075,0 0.144,0.032 z"
           id="path141" />
      </g>
      <g
         transform="translate(11.440376,7.4591509)"
         id="g147">
        <path
           fill="#000000"
           stroke="none"
           paint-order="stroke fill markers"
           d="m 0.343,-0.429 -0.012,0.065 q -0.064,-0.038 -0.142,-0.038 -0.085,0 -0.085,0.062 0,0.014 0.006,0.025 0.006,0.011 0.0135,0.0175 0.0075,0.0065 0.023,0.012 0.0155,0.0055 0.0265,0.0085 0.011,0.003 0.032,0.007 0.043,0.008 0.066,0.017 0.023,0.009 0.05,0.033 l 0.005,0.006 q 0.005,0.005 0.01,0.0125 0.005,0.0075 0.011,0.018 0.006,0.0105 0.0095,0.0255 0.0035,0.015 0.0035,0.03 0,0.07 -0.048,0.107 -0.043,0.032 -0.116,0.032 -0.08,0 -0.168,-0.044 L 0.04,-0.101 q 0.074,0.049 0.155,0.049 0.094,0 0.094,-0.069 0,-0.015 -0.007,-0.027 Q 0.275,-0.16 0.2665,-0.167 0.258,-0.174 0.243,-0.18 0.228,-0.186 0.219,-0.188 0.21,-0.19 0.195,-0.193 0.161,-0.2 0.148,-0.203 0.135,-0.206 0.1185,-0.2125 0.102,-0.219 0.087,-0.23 0.033,-0.271 0.033,-0.33 0.033,-0.367 0.0485,-0.3935 0.064,-0.42 0.0835,-0.4325 0.103,-0.445 0.1305,-0.452 0.158,-0.459 0.171,-0.46 q 0.013,-0.001 0.028,-0.001 0.075,0 0.144,0.032 z"
           id="path145" />
      </g>
      <g
         id="g149" />
    </g>
  </g>
</svg>
