<?xml version="1.0" encoding="UTF-8" standalone="no"?>
<svg
   xmlns:dc="http://purl.org/dc/elements/1.1/"
   xmlns:cc="http://creativecommons.org/ns#"
   xmlns:rdf="http://www.w3.org/1999/02/22-rdf-syntax-ns#"
   xmlns:svg="http://www.w3.org/2000/svg"
   xmlns="http://www.w3.org/2000/svg"
   xmlns:sodipodi="http://sodipodi.sourceforge.net/DTD/sodipodi-0.dtd"
   xmlns:inkscape="http://www.inkscape.org/namespaces/inkscape"
   version="1.1"
   width="660"
   height="660"
   id="svg1366"
   sodipodi:docname="sphere_vertical_cross_section_runge_b.svg"
   inkscape:version="1.0.1 (3bc2e813f5, 2020-09-07)">
  <metadata
     id="metadata1370">
    <rdf:RDF>
      <cc:Work
         rdf:about="">
        <dc:format>image/svg+xml</dc:format>
        <dc:type
           rdf:resource="http://purl.org/dc/dcmitype/StillImage" />
      </cc:Work>
    </rdf:RDF>
  </metadata>
  <sodipodi:namedview
     pagecolor="#ffffff"
     bordercolor="#666666"
     borderopacity="1"
     objecttolerance="10"
     gridtolerance="10"
     guidetolerance="10"
     inkscape:pageopacity="0"
     inkscape:pageshadow="2"
     inkscape:window-width="1670"
     inkscape:window-height="1177"
     id="namedview1368"
     showgrid="false"
     inkscape:zoom="0.55681818"
     inkscape:cx="422.50897"
     inkscape:cy="284.60771"
     inkscape:window-x="62"
     inkscape:window-y="-8"
     inkscape:window-maximized="1"
     inkscape:current-layer="svg1366" />
  <defs
     id="defs1192">
    <clipPath
       id="IITdHsOJZEKR">
      <path
         fill="none"
         stroke="none"
         d=" M 0 0 L 660 0 L 660 660 L 0 660 L 0 0 Z"
         id="path1189" />
    </clipPath>
  </defs>
  <g
     id="g1608">
    <rect
       fill="#ffffff"
       stroke="none"
       x="0"
       y="0"
       width="660"
       height="660"
       fill-opacity="1"
       id="rect1194"
       style="stroke-width:0.710072" />
    <path
       fill="#000000"
       stroke="none"
       paint-order="stroke fill markers"
       fill-rule="evenodd"
       d="m 329.45545,323.09498 v 11.96648 H 581.0396 v 11.96648 l 47.9208,-17.94973 -47.9208,-17.94972 v 11.96648 z"
       fill-opacity="1"
       id="path1196" />
    <path
       fill="#000000"
       stroke="none"
       paint-order="stroke fill markers"
       fill-rule="evenodd"
       d="m 323.46535,628.24022 h 11.98019 V 77.782125 h 11.9802 l -17.97029,-47.865923 -17.9703,47.865923 h 11.9802 z"
       fill-opacity="1"
       id="path1198" />
    <path
       fill="none"
       stroke="#000000"
       paint-order="fill stroke markers"
       d="m 640.94059,329.07821 c 0,171.83153 -139.45665,311.12849 -311.48514,311.12849 -172.0285,0 -311.485153,-139.29697 -311.485153,-311.12849 0,-171.83152 139.456653,-311.128489 311.485153,-311.128489 172.02849,0 311.48514,139.296969 311.48514,311.128489 z"
       stroke-opacity="0.698039"
       stroke-linecap="round"
       stroke-linejoin="round"
       stroke-miterlimit="10"
       stroke-width="1.5"
       id="path1200" />
    <path
       fill="none"
       stroke="#000000"
       paint-order="fill stroke markers"
       d="m 389.35644,329.07821 c 0,33.04452 -26.81859,59.8324 -59.90099,59.8324 -33.08241,0 -59.90099,-26.78787 -59.90099,-59.8324 0,-33.04453 26.81858,-59.8324 59.90099,-59.8324 33.0824,0 59.90099,26.78787 59.90099,59.8324 z"
       stroke-opacity="0.698039"
       stroke-linecap="round"
       stroke-linejoin="round"
       stroke-miterlimit="10"
       stroke-width="1.5"
       id="path1202" />
    <path
       fill="none"
       stroke="#000000"
       paint-order="fill stroke markers"
       d="m 449.25743,329.07821 c 0,66.08904 -53.63718,119.66481 -119.80198,119.66481 -66.16481,0 -119.80198,-53.57577 -119.80198,-119.66481 0,-66.08904 53.63717,-119.66481 119.80198,-119.66481 66.1648,0 119.80198,53.57577 119.80198,119.66481 z"
       stroke-opacity="0.698039"
       stroke-linecap="round"
       stroke-linejoin="round"
       stroke-miterlimit="10"
       stroke-width="1.5"
       id="path1204" />
    <path
       fill="none"
       stroke="#000000"
       paint-order="fill stroke markers"
       d="m 509.15842,329.07821 c 0,99.13358 -80.45576,179.49721 -179.70297,179.49721 -99.24721,0 -179.70297,-80.36363 -179.70297,-179.49721 0,-99.13357 80.45576,-179.49721 179.70297,-179.49721 99.24721,0 179.70297,80.36365 179.70297,179.49721 z"
       stroke-opacity="0.698039"
       stroke-linecap="round"
       stroke-linejoin="round"
       stroke-miterlimit="10"
       stroke-width="1.5"
       id="path1206" />
    <path
       fill="none"
       stroke="#000000"
       paint-order="fill stroke markers"
       d="m 569.05941,329.07821 c 0,132.17809 -107.27435,239.32961 -239.60396,239.32961 -132.32962,0 -239.603965,-107.15152 -239.603965,-239.32961 0,-132.1781 107.274345,-239.329605 239.603965,-239.329605 132.32961,0 239.60396,107.151505 239.60396,239.329605 z"
       stroke-opacity="0.698039"
       stroke-linecap="round"
       stroke-linejoin="round"
       stroke-miterlimit="10"
       stroke-width="1.5"
       id="path1208" />
    <path
       fill="#000000"
       stroke="none"
       paint-order="stroke fill markers"
       d="m 335.44554,329.07821 c 0,3.30445 -2.68185,5.98325 -5.99009,5.98325 -3.30824,0 -5.9901,-2.67879 -5.9901,-5.98325 0,-3.30444 2.68186,-5.98324 5.9901,-5.98324 3.30824,0 5.99009,2.67879 5.99009,5.98324 z"
       fill-opacity="1"
       id="path1210" />
    <path
       fill="none"
       stroke="#000000"
       paint-order="fill stroke markers"
       d="m 335.44554,329.07821 c 0,3.30445 -2.68185,5.98325 -5.99009,5.98325 -3.30824,0 -5.9901,-2.67879 -5.9901,-5.98325 0,-3.30444 2.68186,-5.98324 5.9901,-5.98324 3.30824,0 5.99009,2.67879 5.99009,5.98324 z"
       stroke-opacity="0"
       stroke-linecap="round"
       stroke-linejoin="round"
       stroke-miterlimit="10"
       stroke-width="6.5"
       id="path1212" />
    <path
       fill="none"
       stroke="#000000"
       paint-order="fill stroke markers"
       d="m 628.9604,329.07821 c 0,165.22262 -134.09294,299.16201 -299.50495,299.16201 -165.41202,0 -299.504955,-133.93939 -299.504955,-299.16201 0,-165.22262 134.092935,-299.162008 299.504955,-299.162008 165.41201,0 299.50495,133.939388 299.50495,299.162008 z"
       stroke-opacity="0.698039"
       stroke-linecap="round"
       stroke-linejoin="round"
       stroke-miterlimit="10"
       stroke-width="1.5"
       id="path1214" />
    <path
       fill="none"
       stroke="#000000"
       paint-order="fill stroke markers"
       d="M 130.42545,89.748605 H 528.48544"
       stroke-opacity="0.698039"
       stroke-linecap="round"
       stroke-linejoin="round"
       stroke-miterlimit="10"
       stroke-width="1.5"
       id="path1216" />
    <path
       fill="none"
       stroke="#000000"
       paint-order="fill stroke markers"
       d="M 75.034848,149.581 H 583.87604"
       stroke-opacity="0.698039"
       stroke-linecap="round"
       stroke-linejoin="round"
       stroke-miterlimit="10"
       stroke-width="1.5"
       id="path1218" />
    <path
       fill="none"
       stroke="#000000"
       paint-order="fill stroke markers"
       d="M 41.930693,209.4134 H 616.9802"
       stroke-opacity="0.698039"
       stroke-linecap="round"
       stroke-linejoin="round"
       stroke-miterlimit="10"
       stroke-width="1.5"
       id="path1220" />
    <path
       fill="none"
       stroke="#000000"
       paint-order="fill stroke markers"
       d="M 23.784267,269.24581 H 635.12662"
       stroke-opacity="0.698039"
       stroke-linecap="round"
       stroke-linejoin="round"
       stroke-miterlimit="10"
       stroke-width="1.5"
       id="path1222" />
    <path
       fill="none"
       stroke="#000000"
       paint-order="fill stroke markers"
       d="M 23.784267,388.91061 H 635.12662"
       stroke-opacity="0.698039"
       stroke-linecap="round"
       stroke-linejoin="round"
       stroke-miterlimit="10"
       stroke-width="1.5"
       id="path1224" />
    <path
       fill="none"
       stroke="#000000"
       paint-order="fill stroke markers"
       d="M 41.930693,448.74302 H 616.9802"
       stroke-opacity="0.698039"
       stroke-linecap="round"
       stroke-linejoin="round"
       stroke-miterlimit="10"
       stroke-width="1.5"
       id="path1226" />
    <path
       fill="none"
       stroke="#000000"
       paint-order="fill stroke markers"
       d="M 75.034848,508.57542 H 583.87604"
       stroke-opacity="0.698039"
       stroke-linecap="round"
       stroke-linejoin="round"
       stroke-miterlimit="10"
       stroke-width="1.5"
       id="path1228" />
    <path
       fill="none"
       stroke="#000000"
       paint-order="fill stroke markers"
       d="M 130.42545,568.40782 H 528.48544"
       stroke-opacity="0.698039"
       stroke-linecap="round"
       stroke-linejoin="round"
       stroke-miterlimit="10"
       stroke-width="1.5"
       id="path1230" />
    <path
       fill="none"
       stroke="#000000"
       paint-order="fill stroke markers"
       d="M 243.89972,29.916202 H 415.01117"
       stroke-opacity="0.698039"
       stroke-linecap="round"
       stroke-linejoin="round"
       stroke-miterlimit="10"
       stroke-width="1.5"
       id="path1232" />
    <path
       fill="none"
       stroke="#000000"
       paint-order="fill stroke markers"
       d="M 243.89972,628.24022 H 415.01117"
       stroke-opacity="0.698039"
       stroke-linecap="round"
       stroke-linejoin="round"
       stroke-miterlimit="10"
       stroke-width="1.5"
       id="path1234" />
    <g
       transform="matrix(51,0,0,51,0,-55.843575)"
       id="g1314">
      <g
         transform="translate(6.8431379,8.4199352)"
         id="g1266">
        <path
           fill="#000000"
           stroke="none"
           paint-order="stroke fill markers"
           d="M 0.577,-0.681 0.562,-0.6 q -0.081,-0.052 -0.169,-0.052 -0.102,0 -0.1695,0.09 -0.0675,0.09 -0.0675,0.215 0,0.122 0.066,0.2135 0.066,0.0915 0.174,0.0915 0.055,0 0.0945,-0.012 Q 0.53,-0.066 0.582,-0.103 l 0.006,0.069 Q 0.534,-0.001 0.495,0.0105 0.456,0.022 0.395,0.022 q -0.142,0 -0.235,-0.11 -0.093,-0.11 -0.093,-0.259 0,-0.151 0.093,-0.26 0.093,-0.109 0.234,-0.109 0.091,0 0.183,0.035 z"
           id="path1264" />
      </g>
      <g
         transform="translate(7.4820289,8.4199352)"
         id="g1270">
        <path
           fill="#000000"
           stroke="none"
           paint-order="stroke fill markers"
           d="m 0.469,-0.22 q 0,0.097 -0.0645,0.164 Q 0.34,0.011 0.249,0.011 0.16,0.011 0.095,-0.0555 0.03,-0.122 0.03,-0.22 q 0,-0.099 0.064,-0.17 0.064,-0.071 0.156,-0.071 0.09,0 0.1545,0.0705 Q 0.469,-0.32 0.469,-0.22 m -0.22,0.167 q 0.059,0 0.1005,-0.0465 Q 0.391,-0.146 0.391,-0.23 0.391,-0.313 0.349,-0.3565 0.307,-0.4 0.249,-0.4 0.193,-0.4 0.1505,-0.357 0.108,-0.314 0.108,-0.23 q 0,0.085 0.042,0.131 0.042,0.046 0.099,0.046 z"
           id="path1268" />
      </g>
      <g
         transform="translate(7.9820309,8.4199352)"
         id="g1274">
        <path
           fill="#000000"
           stroke="none"
           paint-order="stroke fill markers"
           d="M 0.156,-0.694 V 0 H 0.081 v -0.694 z"
           id="path1272" />
      </g>
      <g
         transform="translate(8.2209209,8.4199352)"
         id="g1278">
        <path
           fill="#000000"
           stroke="none"
           paint-order="stroke fill markers"
           d="m 0.469,-0.22 q 0,0.097 -0.0645,0.164 Q 0.34,0.011 0.249,0.011 0.16,0.011 0.095,-0.0555 0.03,-0.122 0.03,-0.22 q 0,-0.099 0.064,-0.17 0.064,-0.071 0.156,-0.071 0.09,0 0.1545,0.0705 Q 0.469,-0.32 0.469,-0.22 m -0.22,0.167 q 0.059,0 0.1005,-0.0465 Q 0.391,-0.146 0.391,-0.23 0.391,-0.313 0.349,-0.3565 0.307,-0.4 0.249,-0.4 0.193,-0.4 0.1505,-0.357 0.108,-0.314 0.108,-0.23 q 0,0.085 0.042,0.131 0.042,0.046 0.099,0.046 z"
           id="path1276" />
      </g>
      <g
         transform="translate(8.6931439,8.4199352)"
         id="g1282">
        <path
           fill="#000000"
           stroke="none"
           paint-order="stroke fill markers"
           d="M 0.157,-0.214 V 0 H 0.082 v -0.45 h 0.07 v 0.091 q 0.064,-0.095 0.175,-0.096 v 0.067 Q 0.253,-0.386 0.205,-0.3375 0.157,-0.289 0.157,-0.214 Z"
           id="path1280" />
      </g>
      <g
         transform="translate(9.0348129,8.4199352)"
         id="g1286">
        <path
           fill="#000000"
           stroke="none"
           paint-order="stroke fill markers"
           d="M 0.176,-0.386 V 0 H 0.101 V -0.386 H 0.027 v -0.058 h 0.074 v -0.09 q 0,-0.074 0.0475,-0.1225 0.0475,-0.0485 0.1185,-0.0485 0.036,0 0.08,0.011 v 0.067 Q 0.308,-0.644 0.266,-0.644 0.253,-0.644 0.24,-0.6415 0.227,-0.639 0.2105,-0.6315 0.194,-0.624 0.1835,-0.6065 0.173,-0.589 0.173,-0.563 v 0.119 h 0.113 v 0.058 z"
           id="path1284" />
      </g>
      <g
         transform="translate(9.3403699,8.4199352)"
         id="g1290">
        <path
           fill="#000000"
           stroke="none"
           paint-order="stroke fill markers"
           d="M 0.435,-0.444 V 0 H 0.36 V -0.048 Q 0.293,0.011 0.187,0.011 0.128,0.011 0.1045,-0.0195 0.081,-0.05 0.081,-0.109 v -0.335 h 0.078 v 0.331 q 0,0.037 0.0145,0.053 0.0145,0.016 0.0635,0.016 0.051,0 0.0855,-0.0285 Q 0.357,-0.101 0.357,-0.154 v -0.29 z"
           id="path1288" />
      </g>
      <g
         transform="translate(9.8570379,8.4199352)"
         id="g1294">
        <path
           fill="#000000"
           stroke="none"
           paint-order="stroke fill markers"
           d="M 0.156,-0.694 V 0 H 0.081 v -0.694 z"
           id="path1292" />
      </g>
      <g
         transform="translate(10.095928,8.4199352)"
         id="g1298">
        <path
           fill="#000000"
           stroke="none"
           paint-order="stroke fill markers"
           d="M 0.435,-0.298 V 0 H 0.357 v -0.291 q 0,-0.014 -5e-4,-0.0235 Q 0.356,-0.324 0.3505,-0.3405 0.345,-0.357 0.3355,-0.3675 0.326,-0.378 0.3065,-0.386 0.287,-0.394 0.26,-0.394 0.208,-0.394 0.1835,-0.349 0.159,-0.304 0.159,-0.245 V 0 H 0.081 v -0.45 h 0.072 v 0.071 q 0.057,-0.076 0.145,-0.076 0.137,0 0.137,0.157 z"
           id="path1296" />
      </g>
      <g
         transform="translate(10.612596,8.4199352)"
         id="g1302">
        <path
           fill="#000000"
           stroke="none"
           paint-order="stroke fill markers"
           d="M 0.414,-0.219 H 0.105 q 0.002,0.073 0.0445,0.121 0.0425,0.048 0.1025,0.048 0.084,0 0.152,-0.056 l 0.006,0.065 q -0.072,0.052 -0.159,0.052 -0.09,0 -0.153,-0.069 -0.063,-0.069 -0.063,-0.168 0,-0.097 0.059,-0.166 0.059,-0.069 0.142,-0.069 0.09,0 0.138,0.073 0.04,0.062 0.04,0.169 M 0.11,-0.274 H 0.357 Q 0.348,-0.338 0.314,-0.369 0.28,-0.4 0.236,-0.4 0.193,-0.4 0.1575,-0.365 0.122,-0.33 0.11,-0.274 Z"
           id="path1300" />
      </g>
      <g
         transform="translate(11.057042,8.4199352)"
         id="g1306">
        <path
           fill="#000000"
           stroke="none"
           paint-order="stroke fill markers"
           d="m 0.343,-0.429 -0.012,0.065 q -0.064,-0.038 -0.142,-0.038 -0.085,0 -0.085,0.062 0,0.014 0.006,0.025 0.006,0.011 0.0135,0.0175 0.0075,0.0065 0.023,0.012 0.0155,0.0055 0.0265,0.0085 0.011,0.003 0.032,0.007 0.043,0.008 0.066,0.017 0.023,0.009 0.05,0.033 l 0.005,0.006 q 0.005,0.005 0.01,0.0125 0.005,0.0075 0.011,0.018 0.006,0.0105 0.0095,0.0255 0.0035,0.015 0.0035,0.03 0,0.07 -0.048,0.107 -0.043,0.032 -0.116,0.032 -0.08,0 -0.168,-0.044 L 0.04,-0.101 q 0.074,0.049 0.155,0.049 0.094,0 0.094,-0.069 0,-0.015 -0.007,-0.027 Q 0.275,-0.16 0.2665,-0.167 0.258,-0.174 0.243,-0.18 0.228,-0.186 0.219,-0.188 0.21,-0.19 0.195,-0.193 0.161,-0.2 0.148,-0.203 0.135,-0.206 0.1185,-0.2125 0.102,-0.219 0.087,-0.23 0.033,-0.271 0.033,-0.33 0.033,-0.367 0.0485,-0.3935 0.064,-0.42 0.0835,-0.4325 0.103,-0.445 0.1305,-0.452 0.158,-0.459 0.171,-0.46 q 0.013,-0.001 0.028,-0.001 0.075,0 0.144,0.032 z"
           id="path1304" />
      </g>
      <g
         transform="translate(11.440376,8.4199352)"
         id="g1310">
        <path
           fill="#000000"
           stroke="none"
           paint-order="stroke fill markers"
           d="m 0.343,-0.429 -0.012,0.065 q -0.064,-0.038 -0.142,-0.038 -0.085,0 -0.085,0.062 0,0.014 0.006,0.025 0.006,0.011 0.0135,0.0175 0.0075,0.0065 0.023,0.012 0.0155,0.0055 0.0265,0.0085 0.011,0.003 0.032,0.007 0.043,0.008 0.066,0.017 0.023,0.009 0.05,0.033 l 0.005,0.006 q 0.005,0.005 0.01,0.0125 0.005,0.0075 0.011,0.018 0.006,0.0105 0.0095,0.0255 0.0035,0.015 0.0035,0.03 0,0.07 -0.048,0.107 -0.043,0.032 -0.116,0.032 -0.08,0 -0.168,-0.044 L 0.04,-0.101 q 0.074,0.049 0.155,0.049 0.094,0 0.094,-0.069 0,-0.015 -0.007,-0.027 Q 0.275,-0.16 0.2665,-0.167 0.258,-0.174 0.243,-0.18 0.228,-0.186 0.219,-0.188 0.21,-0.19 0.195,-0.193 0.161,-0.2 0.148,-0.203 0.135,-0.206 0.1185,-0.2125 0.102,-0.219 0.087,-0.23 0.033,-0.271 0.033,-0.33 0.033,-0.367 0.0485,-0.3935 0.064,-0.42 0.0835,-0.4325 0.103,-0.445 0.1305,-0.452 0.158,-0.459 0.171,-0.46 q 0.013,-0.001 0.028,-0.001 0.075,0 0.144,0.032 z"
           id="path1308" />
      </g>
      <g
         id="g1312" />
    </g>
    <g
       transform="matrix(0,-51,51,0,-187.77565,750.76547)"
       id="g1354">
      <g
         transform="translate(6.400328,9.7488694)"
         id="g1318">
        <path
           fill="#000000"
           stroke="none"
           paint-order="stroke fill markers"
           d="m 0.183,-0.694 v 0.63 h 0.049 q 0.089,0 0.267,-0.002 V 0 H 0.094 v -0.694 z"
           id="path1316" />
      </g>
      <g
         transform="translate(6.941997,9.7488694)"
         id="g1322">
        <path
           fill="#000000"
           stroke="none"
           paint-order="stroke fill markers"
           d="m 0.163,-0.68 v 0.089 H 0.074 V -0.68 H 0.163 M 0.156,-0.444 V 0 H 0.081 v -0.444 z"
           id="path1320" />
      </g>
      <g
         transform="translate(7.180887,9.7488694)"
         id="g1326">
        <path
           fill="#000000"
           stroke="none"
           paint-order="stroke fill markers"
           d="M 0.352,-0.391 0.348,-0.392 q 0.033,0.045 0.033,0.1 0,0.067 -0.0465,0.115 -0.0465,0.048 -0.1135,0.048 -0.05,0 -0.091,-0.029 -0.011,0.014 -0.011,0.036 0,0.053 0.058,0.053 h 0.088 q 0.017,0 0.0295,0.001 0.0125,0.001 0.0405,0.004 0.028,0.003 0.0485,0.0125 Q 0.404,-0.042 0.4255,-0.028 0.447,-0.014 0.459,0.0115 0.471,0.037 0.471,0.07 0.471,0.127 0.4065,0.1665 0.342,0.206 0.249,0.206 0.157,0.206 0.0925,0.1665 0.028,0.127 0.028,0.071 q 0,-0.065 0.064,-0.103 -0.026,-0.032 -0.026,-0.076 0,-0.044 0.029,-0.085 -0.033,-0.043 -0.033,-0.099 0,-0.068 0.047,-0.1155 0.047,-0.0475 0.112,-0.0475 0.055,0 0.095,0.032 0.074,-0.032 0.158,-0.032 l 0.011,0.063 -0.011,-0.001 q -0.012,-0.001 -0.026,-0.0015 -0.014,-5e-4 -0.022,-5e-4 -0.012,0 -0.0375,0.002 -0.0255,0.002 -0.0365,0.002 m -0.131,0.205 q 0.037,0 0.0635,-0.026 0.0265,-0.026 0.0265,-0.08 0,-0.054 -0.0265,-0.08 -0.0265,-0.026 -0.0635,-0.026 -0.034,0 -0.0615,0.025 -0.0275,0.025 -0.0275,0.081 0,0.056 0.0275,0.081 0.0275,0.025 0.0615,0.025 M 0.266,0.003 H 0.176 Q 0.154,0.003 0.138,0.01 0.122,0.017 0.1145,0.0255 0.107,0.034 0.103,0.046 0.099,0.058 0.0985,0.0625 0.098,0.067 0.098,0.071 0.098,0.105 0.1425,0.127 0.187,0.149 0.25,0.149 0.312,0.149 0.3565,0.127 0.401,0.105 0.401,0.072 0.401,0.003 0.266,0.003 Z"
           id="path1324" />
      </g>
      <g
         transform="translate(7.680889,9.7488694)"
         id="g1330">
        <path
           fill="#000000"
           stroke="none"
           paint-order="stroke fill markers"
           d="M 0.435,-0.298 V 0 H 0.357 v -0.291 q 0,-0.014 -5e-4,-0.0235 Q 0.356,-0.324 0.3505,-0.3405 0.345,-0.357 0.3355,-0.3675 0.326,-0.378 0.3065,-0.386 0.287,-0.394 0.26,-0.394 0.208,-0.394 0.1835,-0.349 0.159,-0.304 0.159,-0.245 V 0 H 0.081 v -0.694 h 0.075 v 0.311 q 0.056,-0.072 0.142,-0.072 0.137,0 0.137,0.157 z"
           id="path1328" />
      </g>
      <g
         transform="translate(8.197557,9.7488694)"
         id="g1334">
        <path
           fill="#000000"
           stroke="none"
           paint-order="stroke fill markers"
           d="m 0.175,-0.386 v 0.25 q 0,0.083 0.051,0.083 0.049,0 0.09,-0.033 l 0.016,0.059 q -0.073,0.038 -0.146,0.038 -0.083,0 -0.083,-0.13 V -0.386 H 0.019 v -0.058 h 0.087 v -0.127 h 0.069 v 0.127 h 0.141 v 0.058 z"
           id="path1332" />
      </g>
      <g
         transform="translate(8.558669,9.7488694)"
         id="g1338">
        <path
           fill="#000000"
           stroke="none"
           paint-order="stroke fill markers"
           d="M 0.435,-0.298 V 0 H 0.357 v -0.291 q 0,-0.014 -5e-4,-0.0235 Q 0.356,-0.324 0.3505,-0.3405 0.345,-0.357 0.3355,-0.3675 0.326,-0.378 0.3065,-0.386 0.287,-0.394 0.26,-0.394 0.208,-0.394 0.1835,-0.349 0.159,-0.304 0.159,-0.245 V 0 H 0.081 v -0.45 h 0.072 v 0.071 q 0.057,-0.076 0.145,-0.076 0.137,0 0.137,0.157 z"
           id="path1336" />
      </g>
      <g
         transform="translate(9.075337,9.7488694)"
         id="g1342">
        <path
           fill="#000000"
           stroke="none"
           paint-order="stroke fill markers"
           d="M 0.414,-0.219 H 0.105 q 0.002,0.073 0.0445,0.121 0.0425,0.048 0.1025,0.048 0.084,0 0.152,-0.056 l 0.006,0.065 q -0.072,0.052 -0.159,0.052 -0.09,0 -0.153,-0.069 -0.063,-0.069 -0.063,-0.168 0,-0.097 0.059,-0.166 0.059,-0.069 0.142,-0.069 0.09,0 0.138,0.073 0.04,0.062 0.04,0.169 M 0.11,-0.274 H 0.357 Q 0.348,-0.338 0.314,-0.369 0.28,-0.4 0.236,-0.4 0.193,-0.4 0.1575,-0.365 0.122,-0.33 0.11,-0.274 Z"
           id="path1340" />
      </g>
      <g
         transform="translate(9.519783,9.7488694)"
         id="g1346">
        <path
           fill="#000000"
           stroke="none"
           paint-order="stroke fill markers"
           d="m 0.343,-0.429 -0.012,0.065 q -0.064,-0.038 -0.142,-0.038 -0.085,0 -0.085,0.062 0,0.014 0.006,0.025 0.006,0.011 0.0135,0.0175 0.0075,0.0065 0.023,0.012 0.0155,0.0055 0.0265,0.0085 0.011,0.003 0.032,0.007 0.043,0.008 0.066,0.017 0.023,0.009 0.05,0.033 l 0.005,0.006 q 0.005,0.005 0.01,0.0125 0.005,0.0075 0.011,0.018 0.006,0.0105 0.0095,0.0255 0.0035,0.015 0.0035,0.03 0,0.07 -0.048,0.107 -0.043,0.032 -0.116,0.032 -0.08,0 -0.168,-0.044 L 0.04,-0.101 q 0.074,0.049 0.155,0.049 0.094,0 0.094,-0.069 0,-0.015 -0.007,-0.027 Q 0.275,-0.16 0.2665,-0.167 0.258,-0.174 0.243,-0.18 0.228,-0.186 0.219,-0.188 0.21,-0.19 0.195,-0.193 0.161,-0.2 0.148,-0.203 0.135,-0.206 0.1185,-0.2125 0.102,-0.219 0.087,-0.23 0.033,-0.271 0.033,-0.33 0.033,-0.367 0.0485,-0.3935 0.064,-0.42 0.0835,-0.4325 0.103,-0.445 0.1305,-0.452 0.158,-0.459 0.171,-0.46 q 0.013,-0.001 0.028,-0.001 0.075,0 0.144,0.032 z"
           id="path1344" />
      </g>
      <g
         transform="translate(9.903117,9.7488694)"
         id="g1350">
        <path
           fill="#000000"
           stroke="none"
           paint-order="stroke fill markers"
           d="m 0.343,-0.429 -0.012,0.065 q -0.064,-0.038 -0.142,-0.038 -0.085,0 -0.085,0.062 0,0.014 0.006,0.025 0.006,0.011 0.0135,0.0175 0.0075,0.0065 0.023,0.012 0.0155,0.0055 0.0265,0.0085 0.011,0.003 0.032,0.007 0.043,0.008 0.066,0.017 0.023,0.009 0.05,0.033 l 0.005,0.006 q 0.005,0.005 0.01,0.0125 0.005,0.0075 0.011,0.018 0.006,0.0105 0.0095,0.0255 0.0035,0.015 0.0035,0.03 0,0.07 -0.048,0.107 -0.043,0.032 -0.116,0.032 -0.08,0 -0.168,-0.044 L 0.04,-0.101 q 0.074,0.049 0.155,0.049 0.094,0 0.094,-0.069 0,-0.015 -0.007,-0.027 Q 0.275,-0.16 0.2665,-0.167 0.258,-0.174 0.243,-0.18 0.228,-0.186 0.219,-0.188 0.21,-0.19 0.195,-0.193 0.161,-0.2 0.148,-0.203 0.135,-0.206 0.1185,-0.2125 0.102,-0.219 0.087,-0.23 0.033,-0.271 0.033,-0.33 0.033,-0.367 0.0485,-0.3935 0.064,-0.42 0.0835,-0.4325 0.103,-0.445 0.1305,-0.452 0.158,-0.459 0.171,-0.46 q 0.013,-0.001 0.028,-0.001 0.075,0 0.144,0.032 z"
           id="path1348" />
      </g>
      <g
         transform="rotate(90,6.066994,9.7488694)"
         id="g1352" />
    </g>
  </g>
</svg>
