<svg version="1.1" xmlns="http://www.w3.org/2000/svg" xmlns:xlink="http://www.w3.org/1999/xlink" width="660" height="660"><defs><clipPath id="IuQXleBdTkng"><path fill="none" stroke="none" d=" M 0 0 L 660 0 L 660 660 L 0 660 L 0 0 Z"/></clipPath></defs><g transform="scale(1,1)" clip-path="url(#IuQXleBdTkng)"><g transform="translate(0,-10.967213114754088)"><rect fill="rgb(255,255,255)" stroke="none" x="0" y="0" width="1210" height="669" fill-opacity="1"/><path fill="rgb(0,0,0)" stroke="none" paint-order="stroke fill markers" fill-rule="evenodd" d=" M 329.45544554455455 334.0014903129657 L 329.45544554455455 345.96572280178833 L 581.0396039603962 345.96572280178833 L 581.0396039603962 357.929955290611 L 628.9603960396041 339.983606557377 L 581.0396039603962 322.037257824143 L 581.0396039603962 334.0014903129657 Z" fill-opacity="1"/><path fill="rgb(0,0,0)" stroke="none" paint-order="stroke fill markers" fill-rule="evenodd" d=" M 414.7247893642217 22.178174858662203 L 456.36166493232065 51.899301500249635 L 458.4715453309187 44.03561426082189 L 466.1578080303829 47.21512565288208 L 491.1881188118814 60.22771621058149 L 514.9875462929574 75.36941801504514 L 537.3749624599927 92.52499357273143 L 558.1799855580646 111.56387859482669 L 577.2442767989805 132.34117567031967 L 594.4227454150632 154.69875702279086 L 609.5846528875013 178.46646795827124 L 622.6146079454195 203.46342184520557 L 633.4134447631252 229.4993767709409 L 641.8989776719196 256.3761833975529 L 653.4709603433034 253.27961216941128 L 644.671148437887 225.40736826033213 L 633.4723547010071 198.40711870771773 L 619.959808715018 172.48435171385987 L 604.2363491139711 147.8363551881765 L 586.4216409195149 124.65071526709528 L 566.6512648178243 103.10388867028774 L 545.0756853087127 83.3598597584853 L 521.8591055799354 65.56889251347724 L 497.1782178217825 49.866386938477945 L 471.2208584928211 36.371848582345194 L 461.59602794182615 32.39042619540675 L 465.6637751671935 17.22961804220796 Z" fill-opacity="1"/><path fill="none" stroke="rgb(0,0,0)" paint-order="fill stroke markers" d=" M 628.9603960396041 339.983606557377 C 628.9603960396041 505.1751852325487 494.86746220179714 639.0894187779434 329.45544554455455 639.0894187779434 C 164.04342888731196 639.0894187779434 29.95049504950498 505.1751852325487 29.95049504950498 339.983606557377 C 29.95049504950498 174.7920278822053 164.04342888731196 40.87779433681072 329.45544554455455 40.87779433681072 C 494.86746220179714 40.87779433681072 628.9603960396041 174.7920278822053 628.9603960396041 339.983606557377 Z" stroke-opacity="0.6980392156862745" stroke-linecap="round" stroke-linejoin="round" stroke-miterlimit="10" stroke-width="1.5"/><path fill="none" stroke="rgb(0,0,0)" paint-order="fill stroke markers" d=" M 379.3729372937295 339.983606557377 C 379.3729372937295 367.51553633657227 357.02411498742833 389.83457526080474 329.45544554455455 389.83457526080474 C 301.88677610168077 389.83457526080474 279.5379537953796 367.51553633657227 279.5379537953796 339.983606557377 C 279.5379537953796 312.4516767781817 301.88677610168077 290.1326378539493 329.45544554455455 290.1326378539493 C 357.02411498742833 290.1326378539493 379.3729372937295 312.4516767781817 379.3729372937295 339.983606557377 Z" stroke-opacity="0.6980392156862745" stroke-linecap="round" stroke-linejoin="round" stroke-miterlimit="10" stroke-width="1.5"/><path fill="none" stroke="rgb(0,0,0)" paint-order="fill stroke markers" d=" M 429.2904290429044 339.983606557377 C 429.2904290429044 395.0474661157676 384.59278443030206 439.68554396423247 329.45544554455455 439.68554396423247 C 274.31810665880704 439.68554396423247 229.6204620462047 395.0474661157676 229.6204620462047 339.983606557377 C 229.6204620462047 284.91974699898645 274.31810665880704 240.2816691505216 329.45544554455455 240.2816691505216 C 384.59278443030206 240.2816691505216 429.2904290429044 284.91974699898645 429.2904290429044 339.983606557377 Z" stroke-opacity="0.6980392156862745" stroke-linecap="round" stroke-linejoin="round" stroke-miterlimit="10" stroke-width="1.5"/><path fill="none" stroke="rgb(0,0,0)" paint-order="fill stroke markers" d=" M 479.20792079207934 339.983606557377 C 479.20792079207934 422.5793958949629 412.16145387317584 489.5365126676602 329.45544554455455 489.5365126676602 C 246.74943721593326 489.5365126676602 179.70297029702976 422.5793958949629 179.70297029702976 339.983606557377 C 179.70297029702976 257.38781721979115 246.74943721593326 190.43070044709387 329.45544554455455 190.43070044709387 C 412.16145387317584 190.43070044709387 479.20792079207934 257.38781721979115 479.20792079207934 339.983606557377 Z" stroke-opacity="0.6980392156862745" stroke-linecap="round" stroke-linejoin="round" stroke-miterlimit="10" stroke-width="1.5"/><path fill="none" stroke="rgb(0,0,0)" paint-order="fill stroke markers" d=" M 529.1254125412543 339.983606557377 C 529.1254125412543 450.11132567415814 439.73012331604957 539.3874813710879 329.45544554455455 539.3874813710879 C 219.18076777305947 539.3874813710879 129.78547854785484 450.11132567415814 129.78547854785484 339.983606557377 C 129.78547854785484 229.8558874405959 219.18076777305947 140.57973174366617 329.45544554455455 140.57973174366617 C 439.73012331604957 140.57973174366617 529.1254125412543 229.8558874405959 529.1254125412543 339.983606557377 Z" stroke-opacity="0.6980392156862745" stroke-linecap="round" stroke-linejoin="round" stroke-miterlimit="10" stroke-width="1.5"/><path fill="none" stroke="rgb(0,0,0)" paint-order="fill stroke markers" d=" M 579.0429042904292 339.983606557377 C 579.0429042904292 477.6432554533534 467.29879275892335 589.2384500745156 329.45544554455455 589.2384500745156 C 191.61209833018572 589.2384500745156 79.86798679867991 477.6432554533534 79.86798679867991 339.983606557377 C 79.86798679867991 202.32395766140058 191.61209833018572 90.72876304023842 329.45544554455455 90.72876304023842 C 467.29879275892335 90.72876304023842 579.0429042904292 202.32395766140058 579.0429042904292 339.983606557377 Z" stroke-opacity="0.6980392156862745" stroke-linecap="round" stroke-linejoin="round" stroke-miterlimit="10" stroke-width="1.5"/><path fill="none" stroke="rgb(0,0,0)" paint-order="fill stroke markers" d=" M 628.9603960396041 339.983606557377 L 29.95049504950498 339.98360655737696" stroke-opacity="0.6980392156862745" stroke-linecap="round" stroke-linejoin="round" stroke-miterlimit="10" stroke-width="1.5"/><path fill="none" stroke="rgb(0,0,0)" paint-order="fill stroke markers" d=" M 40.15587875995732 262.569325853836 L 618.7550123291518 417.39788726091786" stroke-opacity="0.6980392156862745" stroke-linecap="round" stroke-linejoin="round" stroke-miterlimit="10" stroke-width="1.5"/><path fill="none" stroke="rgb(0,0,0)" paint-order="fill stroke markers" d=" M 70.07654985664095 190.43070044709373 L 588.8343412324682 489.53651266766013" stroke-opacity="0.6980392156862745" stroke-linecap="round" stroke-linejoin="round" stroke-miterlimit="10" stroke-width="1.5"/><path fill="none" stroke="rgb(0,0,0)" paint-order="fill stroke markers" d=" M 117.67346405056384 128.48385844390435 L 541.2374270385453 551.4833546708495" stroke-opacity="0.6980392156862745" stroke-linecap="round" stroke-linejoin="round" stroke-miterlimit="10" stroke-width="1.5"/><path fill="none" stroke="rgb(0,0,0)" paint-order="fill stroke markers" d=" M 179.70297029702982 80.95037475478853 L 479.20792079207934 599.0168383599654" stroke-opacity="0.6980392156862745" stroke-linecap="round" stroke-linejoin="round" stroke-miterlimit="10" stroke-width="1.5"/><path fill="none" stroke="rgb(0,0,0)" paint-order="fill stroke markers" d=" M 251.93786025394814 51.06957774036357 L 406.97303083516107 628.8976353743903" stroke-opacity="0.6980392156862745" stroke-linecap="round" stroke-linejoin="round" stroke-miterlimit="10" stroke-width="1.5"/><path fill="none" stroke="rgb(0,0,0)" paint-order="fill stroke markers" d=" M 329.4554455445546 40.87779433681072 L 329.4554455445546 639.0894187779434" stroke-opacity="0.6980392156862745" stroke-linecap="round" stroke-linejoin="round" stroke-miterlimit="10" stroke-width="1.5"/><path fill="none" stroke="rgb(0,0,0)" paint-order="fill stroke markers" d=" M 406.97303083516107 51.06957774036363 L 251.93786025394814 628.8976353743905" stroke-opacity="0.6980392156862745" stroke-linecap="round" stroke-linejoin="round" stroke-miterlimit="10" stroke-width="1.5"/><path fill="none" stroke="rgb(0,0,0)" paint-order="fill stroke markers" d=" M 479.20792079207934 80.95037475478864 L 179.70297029702982 599.0168383599655" stroke-opacity="0.6980392156862745" stroke-linecap="round" stroke-linejoin="round" stroke-miterlimit="10" stroke-width="1.5"/><path fill="none" stroke="rgb(0,0,0)" paint-order="fill stroke markers" d=" M 541.2374270385453 128.4838584439045 L 117.67346405056384 551.4833546708496" stroke-opacity="0.6980392156862745" stroke-linecap="round" stroke-linejoin="round" stroke-miterlimit="10" stroke-width="1.5"/><path fill="none" stroke="rgb(0,0,0)" paint-order="fill stroke markers" d=" M 588.8343412324682 190.4307004470939 L 70.07654985664095 489.5365126676603" stroke-opacity="0.6980392156862745" stroke-linecap="round" stroke-linejoin="round" stroke-miterlimit="10" stroke-width="1.5"/><path fill="none" stroke="rgb(0,0,0)" paint-order="fill stroke markers" d=" M 618.7550123291518 262.5693258538362 L 40.15587875995732 417.397887260918" stroke-opacity="0.6980392156862745" stroke-linecap="round" stroke-linejoin="round" stroke-miterlimit="10" stroke-width="1.5"/><path fill="none" stroke="rgb(0,0,0)" paint-order="fill stroke markers" d=" M 811.5 118.5 L 1011.5 118.5" stroke-opacity="0.39215686274509803" stroke-linecap="round" stroke-linejoin="round" stroke-miterlimit="10" stroke-width="5"/><path fill="rgb(0,0,0)" stroke="none" paint-order="stroke fill markers" d=" M 1019.9999999999999 118.5 C 1019.9999999999999 123.19442037356174 1016.1944203735617 127 1011.4999999999999 127 C 1006.8055796264381 127 1002.9999999999999 123.19442037356174 1002.9999999999999 118.5 C 1002.9999999999999 113.80557962643826 1006.8055796264381 110 1011.4999999999999 110 C 1016.1944203735617 110 1019.9999999999999 113.80557962643826 1019.9999999999999 118.5 Z" fill-opacity="0.39215686274509803"/><path fill="none" stroke="rgb(0,0,0)" paint-order="fill stroke markers" d=" M 1019.9999999999999 118.5 C 1019.9999999999999 123.19442037356174 1016.1944203735617 127 1011.4999999999999 127 C 1006.8055796264381 127 1002.9999999999999 123.19442037356174 1002.9999999999999 118.5 C 1002.9999999999999 113.80557962643826 1006.8055796264381 110 1011.4999999999999 110 C 1016.1944203735617 110 1019.9999999999999 113.80557962643826 1019.9999999999999 118.5 Z" stroke-opacity="0.39215686274509803" stroke-linecap="round" stroke-linejoin="round" stroke-miterlimit="10"/><path fill="rgb(0,0,0)" stroke="none" paint-order="stroke fill markers" d=" M 1016.9999999999999 118.5 C 1016.9999999999999 121.53756612406936 1014.5375661240693 124 1011.4999999999999 124 C 1008.4624338759305 124 1005.9999999999999 121.53756612406936 1005.9999999999999 118.5 C 1005.9999999999999 115.46243387593064 1008.4624338759305 113 1011.4999999999999 113 C 1014.5375661240693 113 1016.9999999999999 115.46243387593064 1016.9999999999999 118.5 Z" fill-opacity="1"/><path fill="none" stroke="rgb(0,0,0)" paint-order="fill stroke markers" d=" M 1016.9999999999999 118.5 C 1016.9999999999999 121.53756612406936 1014.5375661240693 124 1011.4999999999999 124 C 1008.4624338759305 124 1005.9999999999999 121.53756612406936 1005.9999999999999 118.5 C 1005.9999999999999 115.46243387593064 1008.4624338759305 113 1011.4999999999999 113 C 1014.5375661240693 113 1016.9999999999999 115.46243387593064 1016.9999999999999 118.5 Z" stroke-opacity="1" stroke-linecap="round" stroke-linejoin="round" stroke-miterlimit="10"/><text fill="none" stroke="rgb(255,255,255)" font-family="geogebra-sans-serif, sans-serif" font-size="12px" font-style="normal" font-weight="normal" text-decoration="normal" x="1000" y="103" text-anchor="start" dominant-baseline="alphabetic" stroke-opacity="1" stroke-linecap="round" stroke-linejoin="bevel" stroke-miterlimit="10" stroke-width="3">Pixels = 300</text><text fill="rgb(0,0,0)" stroke="none" font-family="geogebra-sans-serif, sans-serif" font-size="12px" font-style="normal" font-weight="normal" text-decoration="normal" x="1000" y="103" text-anchor="start" dominant-baseline="alphabetic" fill-opacity="1">Pixels = 300</text><path fill="none" stroke="rgb(0,0,0)" paint-order="fill stroke markers" d=" M 888.5 515.5 L 1088.5 515.5" stroke-opacity="0.39215686274509803" stroke-linecap="round" stroke-linejoin="round" stroke-miterlimit="10" stroke-width="5"/><path fill="rgb(0,0,0)" stroke="none" paint-order="stroke fill markers" d=" M 976.9999999999999 515.5 C 976.9999999999999 520.1944203735618 973.1944203735617 524 968.4999999999999 524 C 963.8055796264381 524 959.9999999999999 520.1944203735618 959.9999999999999 515.5 C 959.9999999999999 510.80557962643826 963.8055796264381 507 968.4999999999999 507 C 973.1944203735617 507 976.9999999999999 510.80557962643826 976.9999999999999 515.5 Z" fill-opacity="0.39215686274509803"/><path fill="none" stroke="rgb(0,0,0)" paint-order="fill stroke markers" d=" M 976.9999999999999 515.5 C 976.9999999999999 520.1944203735618 973.1944203735617 524 968.4999999999999 524 C 963.8055796264381 524 959.9999999999999 520.1944203735618 959.9999999999999 515.5 C 959.9999999999999 510.80557962643826 963.8055796264381 507 968.4999999999999 507 C 973.1944203735617 507 976.9999999999999 510.80557962643826 976.9999999999999 515.5 Z" stroke-opacity="0.39215686274509803" stroke-linecap="round" stroke-linejoin="round" stroke-miterlimit="10"/><path fill="rgb(0,0,0)" stroke="none" paint-order="stroke fill markers" d=" M 973.9999999999999 515.5 C 973.9999999999999 518.5375661240694 971.5375661240693 521 968.4999999999999 521 C 965.4624338759305 521 962.9999999999999 518.5375661240694 962.9999999999999 515.5 C 962.9999999999999 512.4624338759306 965.4624338759305 510 968.4999999999999 510 C 971.5375661240693 510 973.9999999999999 512.4624338759306 973.9999999999999 515.5 Z" fill-opacity="1"/><path fill="none" stroke="rgb(0,0,0)" paint-order="fill stroke markers" d=" M 973.9999999999999 515.5 C 973.9999999999999 518.5375661240694 971.5375661240693 521 968.4999999999999 521 C 965.4624338759305 521 962.9999999999999 518.5375661240694 962.9999999999999 515.5 C 962.9999999999999 512.4624338759306 965.4624338759305 510 968.4999999999999 510 C 971.5375661240693 510 973.9999999999999 512.4624338759306 973.9999999999999 515.5 Z" stroke-opacity="1" stroke-linecap="round" stroke-linejoin="round" stroke-miterlimit="10"/><text fill="none" stroke="rgb(255,255,255)" font-family="geogebra-sans-serif, sans-serif" font-size="12px" font-style="normal" font-weight="normal" text-decoration="normal" x="957" y="500" text-anchor="start" dominant-baseline="alphabetic" stroke-opacity="1" stroke-linecap="round" stroke-linejoin="bevel" stroke-miterlimit="10" stroke-width="3">ArrowScale = 0.04</text><text fill="rgb(0,0,0)" stroke="none" font-family="geogebra-sans-serif, sans-serif" font-size="12px" font-style="normal" font-weight="normal" text-decoration="normal" x="957" y="500" text-anchor="start" dominant-baseline="alphabetic" fill-opacity="1">ArrowScale = 0.04</text><text fill="rgb(0,0,0)" stroke="none" font-family="geogebra-sans-serif, sans-serif" font-size="12px" font-style="normal" font-weight="normal" text-decoration="normal" x="968" y="379" text-anchor="start" dominant-baseline="alphabetic" fill-opacity="1">Radius</text><g transform="scale(15,15)"><g transform="translate(65.03333333333333,29.8722230026491)"><path fill="rgb(0,0,0)" stroke="none" paint-order="stroke fill markers" d=" M 0.419 -0.326 L 0.617 0 L 0.528 0 L 0.34 -0.317 L 0.182 -0.317 L 0.182 0 L 0.096 0 L 0.096 -0.6940000000000001 L 0.337 -0.6940000000000001 Q 0.443 -0.6940000000000001 0.516 -0.6385000000000001 Q 0.589 -0.583 0.589 -0.508 Q 0.589 -0.447 0.5425 -0.398 Q 0.496 -0.34900000000000003 0.419 -0.326 M 0.182 -0.378 L 0.326 -0.378 Q 0.41100000000000003 -0.378 0.4595 -0.41500000000000004 Q 0.508 -0.452 0.508 -0.508 Q 0.508 -0.5630000000000001 0.459 -0.6005 Q 0.41000000000000003 -0.638 0.326 -0.638 L 0.182 -0.638 L 0.182 -0.378 Z"/></g><g transform="translate(65.67916933333333,29.8722230026491)"><path fill="rgb(0,0,0)" stroke="none" paint-order="stroke fill markers" d=" M 0.399 -0.289 L 0.399 0 L 0.324 0 L 0.324 -0.036000000000000004 Q 0.263 0.011 0.158 0.011 Q 0.1 0.011 0.07200000000000001 -0.029500000000000002 Q 0.044 -0.07 0.044 -0.113 Q 0.044 -0.176 0.1225 -0.2095 Q 0.201 -0.243 0.321 -0.245 L 0.321 -0.28800000000000003 Q 0.321 -0.341 0.296 -0.3715 Q 0.271 -0.402 0.234 -0.402 Q 0.153 -0.402 0.083 -0.352 L 0.077 -0.418 Q 0.152 -0.461 0.234 -0.461 Q 0.304 -0.461 0.35150000000000003 -0.41250000000000003 Q 0.399 -0.364 0.399 -0.289 M 0.321 -0.132 L 0.321 -0.194 Q 0.116 -0.184 0.116 -0.115 Q 0.116 -0.085 0.14350000000000002 -0.0675 Q 0.171 -0.05 0.209 -0.05 Q 0.256 -0.05 0.28700000000000003 -0.069 Q 0.321 -0.088 0.321 -0.132 Z"/></g><g transform="translate(66.15972633333334,29.8722230026491)"><path fill="rgb(0,0,0)" stroke="none" paint-order="stroke fill markers" d=" M 0.434 -0.6940000000000001 L 0.434 0 L 0.356 0 L 0.356 -0.052000000000000005 Q 0.291 0.011 0.20800000000000002 0.011 Q 0.136 0.011 0.08600000000000001 -0.0565 Q 0.036000000000000004 -0.124 0.036000000000000004 -0.222 Q 0.036000000000000004 -0.319 0.08750000000000001 -0.387 Q 0.139 -0.455 0.213 -0.455 Q 0.293 -0.455 0.359 -0.4 L 0.359 -0.6940000000000001 L 0.434 -0.6940000000000001 M 0.356 -0.139 L 0.356 -0.339 Q 0.318 -0.394 0.259 -0.394 Q 0.20400000000000001 -0.394 0.159 -0.352 Q 0.114 -0.31 0.114 -0.221 Q 0.114 -0.135 0.1545 -0.0925 Q 0.195 -0.05 0.249 -0.05 Q 0.291 -0.05 0.323 -0.078 Q 0.356 -0.108 0.356 -0.139 Z"/></g><g transform="translate(66.67639433333333,29.8722230026491)"><path fill="rgb(0,0,0)" stroke="none" paint-order="stroke fill markers" d=" M 0.163 -0.68 L 0.163 -0.591 L 0.074 -0.591 L 0.074 -0.68 L 0.163 -0.68 M 0.156 -0.444 L 0.156 0 L 0.081 0 L 0.081 -0.444 L 0.156 -0.444 Z"/></g><g transform="translate(66.91528433333333,29.8722230026491)"><path fill="rgb(0,0,0)" stroke="none" paint-order="stroke fill markers" d=" M 0.435 -0.444 L 0.435 0 L 0.36 0 L 0.36 -0.048 Q 0.293 0.011 0.187 0.011 Q 0.128 0.011 0.1045 -0.0195 Q 0.081 -0.05 0.081 -0.109 L 0.081 -0.444 L 0.159 -0.444 L 0.159 -0.113 Q 0.159 -0.076 0.17350000000000002 -0.06 Q 0.188 -0.044 0.23700000000000002 -0.044 Q 0.28800000000000003 -0.044 0.3225 -0.0725 Q 0.357 -0.101 0.357 -0.154 L 0.357 -0.444 L 0.435 -0.444 Z"/></g><g transform="translate(67.43195233333333,29.8722230026491)"><path fill="rgb(0,0,0)" stroke="none" paint-order="stroke fill markers" d=" M 0.343 -0.429 L 0.331 -0.364 Q 0.267 -0.402 0.189 -0.402 Q 0.10400000000000001 -0.402 0.10400000000000001 -0.34 Q 0.10400000000000001 -0.326 0.11 -0.315 Q 0.116 -0.304 0.1235 -0.2975 Q 0.131 -0.291 0.1465 -0.28550000000000003 Q 0.162 -0.28 0.17300000000000001 -0.277 Q 0.184 -0.274 0.20500000000000002 -0.27 Q 0.248 -0.262 0.271 -0.253 Q 0.294 -0.244 0.321 -0.22 L 0.326 -0.214 Q 0.331 -0.209 0.336 -0.2015 Q 0.341 -0.194 0.34700000000000003 -0.1835 Q 0.353 -0.17300000000000001 0.3565 -0.158 Q 0.36 -0.14300000000000002 0.36 -0.128 Q 0.36 -0.058 0.312 -0.021 Q 0.269 0.011 0.196 0.011 Q 0.116 0.011 0.028 -0.033 L 0.04 -0.101 Q 0.114 -0.052000000000000005 0.195 -0.052000000000000005 Q 0.289 -0.052000000000000005 0.289 -0.121 Q 0.289 -0.136 0.28200000000000003 -0.148 Q 0.275 -0.16 0.2665 -0.167 Q 0.258 -0.17400000000000002 0.243 -0.18 Q 0.228 -0.186 0.219 -0.188 Q 0.21 -0.19 0.195 -0.193 Q 0.161 -0.2 0.148 -0.203 Q 0.135 -0.20600000000000002 0.11850000000000001 -0.2125 Q 0.10200000000000001 -0.219 0.08700000000000001 -0.23 Q 0.033 -0.271 0.033 -0.33 Q 0.033 -0.367 0.0485 -0.3935 Q 0.064 -0.42 0.0835 -0.4325 Q 0.10300000000000001 -0.445 0.1305 -0.452 Q 0.158 -0.459 0.171 -0.46 Q 0.184 -0.461 0.199 -0.461 Q 0.274 -0.461 0.343 -0.429 Z"/></g></g><g transform="scale(51,51) translate(6.647058823529412,7.637745600688314) rotate(0,0,0) translate(-6.647058823529412,-7.637745600688314)"><g transform="translate(7.147058823529412,7.734968100688314)"><path fill="rgb(0,0,0)" stroke="none" paint-order="stroke fill markers" d=" M 0.419 -0.326 L 0.617 0 L 0.528 0 L 0.34 -0.317 L 0.182 -0.317 L 0.182 0 L 0.096 0 L 0.096 -0.6940000000000001 L 0.337 -0.6940000000000001 Q 0.443 -0.6940000000000001 0.516 -0.6385000000000001 Q 0.589 -0.583 0.589 -0.508 Q 0.589 -0.447 0.5425 -0.398 Q 0.496 -0.34900000000000003 0.419 -0.326 M 0.182 -0.378 L 0.326 -0.378 Q 0.41100000000000003 -0.378 0.4595 -0.41500000000000004 Q 0.508 -0.452 0.508 -0.508 Q 0.508 -0.5630000000000001 0.459 -0.6005 Q 0.41000000000000003 -0.638 0.326 -0.638 L 0.182 -0.638 L 0.182 -0.378 Z"/></g><g transform="translate(7.792894823529412,7.734968100688314)"><path fill="rgb(0,0,0)" stroke="none" paint-order="stroke fill markers" d=" M 0.399 -0.289 L 0.399 0 L 0.324 0 L 0.324 -0.036000000000000004 Q 0.263 0.011 0.158 0.011 Q 0.1 0.011 0.07200000000000001 -0.029500000000000002 Q 0.044 -0.07 0.044 -0.113 Q 0.044 -0.176 0.1225 -0.2095 Q 0.201 -0.243 0.321 -0.245 L 0.321 -0.28800000000000003 Q 0.321 -0.341 0.296 -0.3715 Q 0.271 -0.402 0.234 -0.402 Q 0.153 -0.402 0.083 -0.352 L 0.077 -0.418 Q 0.152 -0.461 0.234 -0.461 Q 0.304 -0.461 0.35150000000000003 -0.41250000000000003 Q 0.399 -0.364 0.399 -0.289 M 0.321 -0.132 L 0.321 -0.194 Q 0.116 -0.184 0.116 -0.115 Q 0.116 -0.085 0.14350000000000002 -0.0675 Q 0.171 -0.05 0.209 -0.05 Q 0.256 -0.05 0.28700000000000003 -0.069 Q 0.321 -0.088 0.321 -0.132 Z"/></g><g transform="translate(8.273451823529411,7.734968100688314)"><path fill="rgb(0,0,0)" stroke="none" paint-order="stroke fill markers" d=" M 0.434 -0.6940000000000001 L 0.434 0 L 0.356 0 L 0.356 -0.052000000000000005 Q 0.291 0.011 0.20800000000000002 0.011 Q 0.136 0.011 0.08600000000000001 -0.0565 Q 0.036000000000000004 -0.124 0.036000000000000004 -0.222 Q 0.036000000000000004 -0.319 0.08750000000000001 -0.387 Q 0.139 -0.455 0.213 -0.455 Q 0.293 -0.455 0.359 -0.4 L 0.359 -0.6940000000000001 L 0.434 -0.6940000000000001 M 0.356 -0.139 L 0.356 -0.339 Q 0.318 -0.394 0.259 -0.394 Q 0.20400000000000001 -0.394 0.159 -0.352 Q 0.114 -0.31 0.114 -0.221 Q 0.114 -0.135 0.1545 -0.0925 Q 0.195 -0.05 0.249 -0.05 Q 0.291 -0.05 0.323 -0.078 Q 0.356 -0.108 0.356 -0.139 Z"/></g><g transform="translate(8.79011982352941,7.734968100688314)"><path fill="rgb(0,0,0)" stroke="none" paint-order="stroke fill markers" d=" M 0.163 -0.68 L 0.163 -0.591 L 0.074 -0.591 L 0.074 -0.68 L 0.163 -0.68 M 0.156 -0.444 L 0.156 0 L 0.081 0 L 0.081 -0.444 L 0.156 -0.444 Z"/></g><g transform="translate(9.02900982352941,7.734968100688314)"><path fill="rgb(0,0,0)" stroke="none" paint-order="stroke fill markers" d=" M 0.435 -0.444 L 0.435 0 L 0.36 0 L 0.36 -0.048 Q 0.293 0.011 0.187 0.011 Q 0.128 0.011 0.1045 -0.0195 Q 0.081 -0.05 0.081 -0.109 L 0.081 -0.444 L 0.159 -0.444 L 0.159 -0.113 Q 0.159 -0.076 0.17350000000000002 -0.06 Q 0.188 -0.044 0.23700000000000002 -0.044 Q 0.28800000000000003 -0.044 0.3225 -0.0725 Q 0.357 -0.101 0.357 -0.154 L 0.357 -0.444 L 0.435 -0.444 Z"/></g><g transform="translate(9.54567782352941,7.734968100688314)"><path fill="rgb(0,0,0)" stroke="none" paint-order="stroke fill markers" d=" M 0.343 -0.429 L 0.331 -0.364 Q 0.267 -0.402 0.189 -0.402 Q 0.10400000000000001 -0.402 0.10400000000000001 -0.34 Q 0.10400000000000001 -0.326 0.11 -0.315 Q 0.116 -0.304 0.1235 -0.2975 Q 0.131 -0.291 0.1465 -0.28550000000000003 Q 0.162 -0.28 0.17300000000000001 -0.277 Q 0.184 -0.274 0.20500000000000002 -0.27 Q 0.248 -0.262 0.271 -0.253 Q 0.294 -0.244 0.321 -0.22 L 0.326 -0.214 Q 0.331 -0.209 0.336 -0.2015 Q 0.341 -0.194 0.34700000000000003 -0.1835 Q 0.353 -0.17300000000000001 0.3565 -0.158 Q 0.36 -0.14300000000000002 0.36 -0.128 Q 0.36 -0.058 0.312 -0.021 Q 0.269 0.011 0.196 0.011 Q 0.116 0.011 0.028 -0.033 L 0.04 -0.101 Q 0.114 -0.052000000000000005 0.195 -0.052000000000000005 Q 0.289 -0.052000000000000005 0.289 -0.121 Q 0.289 -0.136 0.28200000000000003 -0.148 Q 0.275 -0.16 0.2665 -0.167 Q 0.258 -0.17400000000000002 0.243 -0.18 Q 0.228 -0.186 0.219 -0.188 Q 0.21 -0.19 0.195 -0.193 Q 0.161 -0.2 0.148 -0.203 Q 0.135 -0.20600000000000002 0.11850000000000001 -0.2125 Q 0.10200000000000001 -0.219 0.08700000000000001 -0.23 Q 0.033 -0.271 0.033 -0.33 Q 0.033 -0.367 0.0485 -0.3935 Q 0.064 -0.42 0.0835 -0.4325 Q 0.10300000000000001 -0.445 0.1305 -0.452 Q 0.158 -0.459 0.171 -0.46 Q 0.184 -0.461 0.199 -0.461 Q 0.274 -0.461 0.343 -0.429 Z"/></g><g transform="translate(6.647058823529412,7.637745600688314) rotate(0,0,0) translate(-6.647058823529412,-7.637745600688314)"/></g><text fill="rgb(0,0,0)" stroke="none" font-family="geogebra-sans-serif, sans-serif" font-size="12px" font-style="normal" font-weight="normal" text-decoration="normal" x="971" y="399" text-anchor="start" dominant-baseline="alphabetic" fill-opacity="1">Azimuth</text><g transform="scale(15,15)"><g transform="translate(65.1,31.005556335982433)"><path fill="rgb(0,0,0)" stroke="none" paint-order="stroke fill markers" d=" M 0.377 -0.6940000000000001 L 0.638 0 L 0.546 0 L 0.47000000000000003 -0.20400000000000001 L 0.179 -0.20400000000000001 L 0.10200000000000001 0 L 0.028 0 L 0.289 -0.6940000000000001 L 0.377 -0.6940000000000001 M 0.448 -0.26 L 0.357 -0.517 Q 0.328 -0.6 0.325 -0.622 L 0.324 -0.622 Q 0.318 -0.589 0.265 -0.441 L 0.2 -0.26 L 0.448 -0.26 Z"/></g><g transform="translate(65.76666999999999,31.005556335982433)"><path fill="rgb(0,0,0)" stroke="none" paint-order="stroke fill markers" d=" M 0.4 -0.405 L 0.134 -0.061 L 0.219 -0.061 Q 0.225 -0.061 0.23700000000000002 -0.0615 Q 0.249 -0.062 0.255 -0.062 L 0.402 -0.062 L 0.402 0 L 0.028 0 L 0.028 -0.041 L 0.295 -0.386 L 0.217 -0.386 Q 0.211 -0.386 0.199 -0.3855 Q 0.187 -0.385 0.181 -0.385 L 0.042 -0.385 L 0.042 -0.444 L 0.4 -0.444 L 0.4 -0.405 Z"/></g><g transform="translate(66.201393,31.005556335982433)"><path fill="rgb(0,0,0)" stroke="none" paint-order="stroke fill markers" d=" M 0.163 -0.68 L 0.163 -0.591 L 0.074 -0.591 L 0.074 -0.68 L 0.163 -0.68 M 0.156 -0.444 L 0.156 0 L 0.081 0 L 0.081 -0.444 L 0.156 -0.444 Z"/></g><g transform="translate(66.440283,31.005556335982433)"><path fill="rgb(0,0,0)" stroke="none" paint-order="stroke fill markers" d=" M 0.713 -0.298 L 0.713 0 L 0.635 0 L 0.635 -0.291 Q 0.635 -0.31 0.6325000000000001 -0.324 Q 0.63 -0.338 0.6215 -0.356 Q 0.613 -0.374 0.5915 -0.384 Q 0.5700000000000001 -0.394 0.537 -0.394 Q 0.486 -0.394 0.461 -0.34900000000000003 Q 0.436 -0.304 0.436 -0.245 L 0.436 0 L 0.358 0 L 0.358 -0.291 Q 0.358 -0.31 0.3555 -0.324 Q 0.353 -0.338 0.34450000000000003 -0.356 Q 0.336 -0.374 0.3145 -0.384 Q 0.293 -0.394 0.26 -0.394 Q 0.209 -0.394 0.184 -0.34900000000000003 Q 0.159 -0.304 0.159 -0.245 L 0.159 0 L 0.081 0 L 0.081 -0.45 L 0.153 -0.45 L 0.153 -0.378 Q 0.211 -0.455 0.299 -0.455 Q 0.399 -0.455 0.427 -0.373 Q 0.483 -0.455 0.5760000000000001 -0.455 Q 0.713 -0.455 0.713 -0.298 Z"/></g><g transform="translate(67.23473,31.005556335982433)"><path fill="rgb(0,0,0)" stroke="none" paint-order="stroke fill markers" d=" M 0.435 -0.444 L 0.435 0 L 0.36 0 L 0.36 -0.048 Q 0.293 0.011 0.187 0.011 Q 0.128 0.011 0.1045 -0.0195 Q 0.081 -0.05 0.081 -0.109 L 0.081 -0.444 L 0.159 -0.444 L 0.159 -0.113 Q 0.159 -0.076 0.17350000000000002 -0.06 Q 0.188 -0.044 0.23700000000000002 -0.044 Q 0.28800000000000003 -0.044 0.3225 -0.0725 Q 0.357 -0.101 0.357 -0.154 L 0.357 -0.444 L 0.435 -0.444 Z"/></g><g transform="translate(67.751398,31.005556335982433)"><path fill="rgb(0,0,0)" stroke="none" paint-order="stroke fill markers" d=" M 0.17500000000000002 -0.386 L 0.17500000000000002 -0.136 Q 0.17500000000000002 -0.053 0.226 -0.053 Q 0.275 -0.053 0.316 -0.08600000000000001 L 0.332 -0.027 Q 0.259 0.011 0.186 0.011 Q 0.10300000000000001 0.011 0.10300000000000001 -0.11900000000000001 L 0.10300000000000001 -0.386 L 0.019 -0.386 L 0.019 -0.444 L 0.106 -0.444 L 0.106 -0.5710000000000001 L 0.17500000000000002 -0.5710000000000001 L 0.17500000000000002 -0.444 L 0.316 -0.444 L 0.316 -0.386 L 0.17500000000000002 -0.386 Z"/></g><g transform="translate(68.11251,31.005556335982433)"><path fill="rgb(0,0,0)" stroke="none" paint-order="stroke fill markers" d=" M 0.435 -0.298 L 0.435 0 L 0.357 0 L 0.357 -0.291 Q 0.357 -0.305 0.3565 -0.3145 Q 0.356 -0.324 0.35050000000000003 -0.3405 Q 0.34500000000000003 -0.357 0.3355 -0.3675 Q 0.326 -0.378 0.3065 -0.386 Q 0.28700000000000003 -0.394 0.26 -0.394 Q 0.20800000000000002 -0.394 0.1835 -0.34900000000000003 Q 0.159 -0.304 0.159 -0.245 L 0.159 0 L 0.081 0 L 0.081 -0.6940000000000001 L 0.156 -0.6940000000000001 L 0.156 -0.383 Q 0.212 -0.455 0.298 -0.455 Q 0.435 -0.455 0.435 -0.298 Z"/></g></g><g transform="scale(51,51) translate(9.821905700645043,0.3323218363363566) rotate(45,0,0) translate(-9.821905700645043,-0.3323218363363566)"><g transform="translate(10.321905700645043,0.4295443363363566)"><path fill="rgb(0,0,0)" stroke="none" paint-order="stroke fill markers" d=" M 0.377 -0.6940000000000001 L 0.638 0 L 0.546 0 L 0.47000000000000003 -0.20400000000000001 L 0.179 -0.20400000000000001 L 0.10200000000000001 0 L 0.028 0 L 0.289 -0.6940000000000001 L 0.377 -0.6940000000000001 M 0.448 -0.26 L 0.357 -0.517 Q 0.328 -0.6 0.325 -0.622 L 0.324 -0.622 Q 0.318 -0.589 0.265 -0.441 L 0.2 -0.26 L 0.448 -0.26 Z"/></g><g transform="translate(10.988575700645043,0.4295443363363566)"><path fill="rgb(0,0,0)" stroke="none" paint-order="stroke fill markers" d=" M 0.4 -0.405 L 0.134 -0.061 L 0.219 -0.061 Q 0.225 -0.061 0.23700000000000002 -0.0615 Q 0.249 -0.062 0.255 -0.062 L 0.402 -0.062 L 0.402 0 L 0.028 0 L 0.028 -0.041 L 0.295 -0.386 L 0.217 -0.386 Q 0.211 -0.386 0.199 -0.3855 Q 0.187 -0.385 0.181 -0.385 L 0.042 -0.385 L 0.042 -0.444 L 0.4 -0.444 L 0.4 -0.405 Z"/></g><g transform="translate(11.423298700645043,0.4295443363363566)"><path fill="rgb(0,0,0)" stroke="none" paint-order="stroke fill markers" d=" M 0.163 -0.68 L 0.163 -0.591 L 0.074 -0.591 L 0.074 -0.68 L 0.163 -0.68 M 0.156 -0.444 L 0.156 0 L 0.081 0 L 0.081 -0.444 L 0.156 -0.444 Z"/></g><g transform="translate(11.662188700645043,0.4295443363363566)"><path fill="rgb(0,0,0)" stroke="none" paint-order="stroke fill markers" d=" M 0.713 -0.298 L 0.713 0 L 0.635 0 L 0.635 -0.291 Q 0.635 -0.31 0.6325000000000001 -0.324 Q 0.63 -0.338 0.6215 -0.356 Q 0.613 -0.374 0.5915 -0.384 Q 0.5700000000000001 -0.394 0.537 -0.394 Q 0.486 -0.394 0.461 -0.34900000000000003 Q 0.436 -0.304 0.436 -0.245 L 0.436 0 L 0.358 0 L 0.358 -0.291 Q 0.358 -0.31 0.3555 -0.324 Q 0.353 -0.338 0.34450000000000003 -0.356 Q 0.336 -0.374 0.3145 -0.384 Q 0.293 -0.394 0.26 -0.394 Q 0.209 -0.394 0.184 -0.34900000000000003 Q 0.159 -0.304 0.159 -0.245 L 0.159 0 L 0.081 0 L 0.081 -0.45 L 0.153 -0.45 L 0.153 -0.378 Q 0.211 -0.455 0.299 -0.455 Q 0.399 -0.455 0.427 -0.373 Q 0.483 -0.455 0.5760000000000001 -0.455 Q 0.713 -0.455 0.713 -0.298 Z"/></g><g transform="translate(12.456635700645043,0.4295443363363566)"><path fill="rgb(0,0,0)" stroke="none" paint-order="stroke fill markers" d=" M 0.435 -0.444 L 0.435 0 L 0.36 0 L 0.36 -0.048 Q 0.293 0.011 0.187 0.011 Q 0.128 0.011 0.1045 -0.0195 Q 0.081 -0.05 0.081 -0.109 L 0.081 -0.444 L 0.159 -0.444 L 0.159 -0.113 Q 0.159 -0.076 0.17350000000000002 -0.06 Q 0.188 -0.044 0.23700000000000002 -0.044 Q 0.28800000000000003 -0.044 0.3225 -0.0725 Q 0.357 -0.101 0.357 -0.154 L 0.357 -0.444 L 0.435 -0.444 Z"/></g><g transform="translate(12.973303700645042,0.4295443363363566)"><path fill="rgb(0,0,0)" stroke="none" paint-order="stroke fill markers" d=" M 0.17500000000000002 -0.386 L 0.17500000000000002 -0.136 Q 0.17500000000000002 -0.053 0.226 -0.053 Q 0.275 -0.053 0.316 -0.08600000000000001 L 0.332 -0.027 Q 0.259 0.011 0.186 0.011 Q 0.10300000000000001 0.011 0.10300000000000001 -0.11900000000000001 L 0.10300000000000001 -0.386 L 0.019 -0.386 L 0.019 -0.444 L 0.106 -0.444 L 0.106 -0.5710000000000001 L 0.17500000000000002 -0.5710000000000001 L 0.17500000000000002 -0.444 L 0.316 -0.444 L 0.316 -0.386 L 0.17500000000000002 -0.386 Z"/></g><g transform="translate(13.334415700645042,0.4295443363363566)"><path fill="rgb(0,0,0)" stroke="none" paint-order="stroke fill markers" d=" M 0.435 -0.298 L 0.435 0 L 0.357 0 L 0.357 -0.291 Q 0.357 -0.305 0.3565 -0.3145 Q 0.356 -0.324 0.35050000000000003 -0.3405 Q 0.34500000000000003 -0.357 0.3355 -0.3675 Q 0.326 -0.378 0.3065 -0.386 Q 0.28700000000000003 -0.394 0.26 -0.394 Q 0.20800000000000002 -0.394 0.1835 -0.34900000000000003 Q 0.159 -0.304 0.159 -0.245 L 0.159 0 L 0.081 0 L 0.081 -0.6940000000000001 L 0.156 -0.6940000000000001 L 0.156 -0.383 Q 0.212 -0.455 0.298 -0.455 Q 0.435 -0.455 0.435 -0.298 Z"/></g><g transform="translate(9.821905700645043,0.3323218363363566) rotate(-45,0,0) translate(-9.821905700645043,-0.3323218363363566)"/></g><path fill="rgb(255,255,255)" stroke="none" paint-order="stroke fill markers" fill-rule="evenodd" d=" M 818 207 L 949 207 C 950.6568542494924 207 953 209.34314575050763 953 211 L 953 237 C 953 238.65685424949237 950.6568542494924 241 949 241 L 818 241 C 816.3431457505076 241 814 238.65685424949237 814 237 L 814 211 C 814 209.34314575050763 816.3431457505076 207 818 207 Z" fill-opacity="1"/><path fill="none" stroke="rgb(0,0,0)" paint-order="fill stroke markers" d=" M 817.5 207 L 949.5 207 C 950.9497474683059 207 953 209.05025253169416 953 210.5 L 953 237.5 C 953 238.94974746830584 950.9497474683059 241 949.5 241 L 817.5 241 C 816.0502525316941 241 814 238.94974746830584 814 237.5 L 814 210.5 C 814 209.05025253169416 816.0502525316941 207 817.5 207 Z" stroke-opacity="1" stroke-linecap="round" stroke-linejoin="round" stroke-miterlimit="10"/><text fill="rgb(0,0,0)" stroke="none" font-family="geogebra-sans-serif, sans-serif" font-size="24px" font-style="normal" font-weight="normal" text-decoration="normal" x="824" y="232" text-anchor="start" dominant-baseline="alphabetic" fill-opacity="1">Reset View</text></g></g></svg>