<svg version="1.1" xmlns="http://www.w3.org/2000/svg" xmlns:xlink="http://www.w3.org/1999/xlink" width="800" height="600"><defs><clipPath id="eZDthvgVZnAV"><path fill="none" stroke="none" d=" M 0 0 L 800 0 L 800 600 L 0 600 L 0 0 Z"/></clipPath></defs><g transform="scale(1,1)" clip-path="url(#eZDthvgVZnAV)"><g transform="translate(-2.842170943040401e-14,-115.67597765363121)"><rect fill="rgb(255,255,255)" stroke="none" x="0" y="0" width="1212" height="714" fill-opacity="1"/><path fill="none" stroke="rgb(192,192,192)" paint-order="fill stroke markers" d=" M 0.5 0.5 L 0.5 714.5 M 0.5 0.5 L 0.5 714.5 M 49.5 0.5 L 49.5 714.5 M 99.5 0.5 L 99.5 714.5 M 149.5 0.5 L 149.5 714.5 M 199.5 0.5 L 199.5 714.5 M 249.5 0.5 L 249.5 714.5 M 299.5 0.5 L 299.5 714.5 M 349.5 0.5 L 349.5 714.5 M 399.5 0.5 L 399.5 714.5 M 449.5 0.5 L 449.5 714.5 M 499.5 0.5 L 499.5 714.5 M 549.5 0.5 L 549.5 714.5 M 599.5 0.5 L 599.5 714.5 M 648.5 0.5 L 648.5 714.5 M 698.5 0.5 L 698.5 714.5 M 748.5 0.5 L 748.5 714.5 M 798.5 0.5 L 798.5 714.5 M 848.5 0.5 L 848.5 714.5 M 898.5 0.5 L 898.5 714.5 M 948.5 0.5 L 948.5 714.5 M 998.5 0.5 L 998.5 714.5 M 1048.5 0.5 L 1048.5 714.5 M 1098.5 0.5 L 1098.5 714.5 M 1148.5 0.5 L 1148.5 714.5 M 1198.5 0.5 L 1198.5 714.5" stroke-opacity="1" stroke-linecap="round" stroke-linejoin="round" stroke-miterlimit="10"/><path fill="none" stroke="rgb(192,192,192)" paint-order="fill stroke markers" d=" M 9.5 0.5 L 9.5 714.5 M 19.5 0.5 L 19.5 714.5 M 29.5 0.5 L 29.5 714.5 M 39.5 0.5 L 39.5 714.5 M 59.5 0.5 L 59.5 714.5 M 69.5 0.5 L 69.5 714.5 M 79.5 0.5 L 79.5 714.5 M 89.5 0.5 L 89.5 714.5 M 109.5 0.5 L 109.5 714.5 M 119.5 0.5 L 119.5 714.5 M 129.5 0.5 L 129.5 714.5 M 139.5 0.5 L 139.5 714.5 M 159.5 0.5 L 159.5 714.5 M 169.5 0.5 L 169.5 714.5 M 179.5 0.5 L 179.5 714.5 M 189.5 0.5 L 189.5 714.5 M 209.5 0.5 L 209.5 714.5 M 219.5 0.5 L 219.5 714.5 M 229.5 0.5 L 229.5 714.5 M 239.5 0.5 L 239.5 714.5 M 259.5 0.5 L 259.5 714.5 M 269.5 0.5 L 269.5 714.5 M 279.5 0.5 L 279.5 714.5 M 289.5 0.5 L 289.5 714.5 M 309.5 0.5 L 309.5 714.5 M 319.5 0.5 L 319.5 714.5 M 329.5 0.5 L 329.5 714.5 M 339.5 0.5 L 339.5 714.5 M 359.5 0.5 L 359.5 714.5 M 369.5 0.5 L 369.5 714.5 M 379.5 0.5 L 379.5 714.5 M 389.5 0.5 L 389.5 714.5 M 409.5 0.5 L 409.5 714.5 M 419.5 0.5 L 419.5 714.5 M 429.5 0.5 L 429.5 714.5 M 439.5 0.5 L 439.5 714.5 M 459.5 0.5 L 459.5 714.5 M 469.5 0.5 L 469.5 714.5 M 479.5 0.5 L 479.5 714.5 M 489.5 0.5 L 489.5 714.5 M 509.5 0.5 L 509.5 714.5 M 519.5 0.5 L 519.5 714.5 M 529.5 0.5 L 529.5 714.5 M 539.5 0.5 L 539.5 714.5 M 559.5 0.5 L 559.5 714.5 M 569.5 0.5 L 569.5 714.5 M 579.5 0.5 L 579.5 714.5 M 589.5 0.5 L 589.5 714.5 M 608.5 0.5 L 608.5 714.5 M 618.5 0.5 L 618.5 714.5 M 628.5 0.5 L 628.5 714.5 M 638.5 0.5 L 638.5 714.5 M 658.5 0.5 L 658.5 714.5 M 668.5 0.5 L 668.5 714.5 M 678.5 0.5 L 678.5 714.5 M 688.5 0.5 L 688.5 714.5 M 708.5 0.5 L 708.5 714.5 M 718.5 0.5 L 718.5 714.5 M 728.5 0.5 L 728.5 714.5 M 738.5 0.5 L 738.5 714.5 M 758.5 0.5 L 758.5 714.5 M 768.5 0.5 L 768.5 714.5 M 778.5 0.5 L 778.5 714.5 M 788.5 0.5 L 788.5 714.5 M 808.5 0.5 L 808.5 714.5 M 818.5 0.5 L 818.5 714.5 M 828.5 0.5 L 828.5 714.5 M 838.5 0.5 L 838.5 714.5 M 858.5 0.5 L 858.5 714.5 M 868.5 0.5 L 868.5 714.5 M 878.5 0.5 L 878.5 714.5 M 888.5 0.5 L 888.5 714.5 M 908.5 0.5 L 908.5 714.5 M 918.5 0.5 L 918.5 714.5 M 928.5 0.5 L 928.5 714.5 M 938.5 0.5 L 938.5 714.5 M 958.5 0.5 L 958.5 714.5 M 968.5 0.5 L 968.5 714.5 M 978.5 0.5 L 978.5 714.5 M 988.5 0.5 L 988.5 714.5 M 1008.5 0.5 L 1008.5 714.5 M 1018.5 0.5 L 1018.5 714.5 M 1028.5 0.5 L 1028.5 714.5 M 1038.5 0.5 L 1038.5 714.5 M 1058.5 0.5 L 1058.5 714.5 M 1068.5 0.5 L 1068.5 714.5 M 1078.5 0.5 L 1078.5 714.5 M 1088.5 0.5 L 1088.5 714.5 M 1108.5 0.5 L 1108.5 714.5 M 1118.5 0.5 L 1118.5 714.5 M 1128.5 0.5 L 1128.5 714.5 M 1138.5 0.5 L 1138.5 714.5 M 1158.5 0.5 L 1158.5 714.5 M 1168.5 0.5 L 1168.5 714.5 M 1178.5 0.5 L 1178.5 714.5 M 1188.5 0.5 L 1188.5 714.5 M 1208.5 0.5 L 1208.5 714.5" stroke-opacity="0.23529411764705882" stroke-linecap="round" stroke-linejoin="round" stroke-miterlimit="10"/><path fill="none" stroke="rgb(192,192,192)" paint-order="fill stroke markers" d=" M 0.5 15.5 L 1212.5 15.5 M 0.5 15.5 L 1212.5 15.5 M 0.5 65.5 L 1212.5 65.5 M 0.5 115.5 L 1212.5 115.5 M 0.5 165.5 L 1212.5 165.5 M 0.5 215.5 L 1212.5 215.5 M 0.5 265.5 L 1212.5 265.5 M 0.5 315.5 L 1212.5 315.5 M 0.5 364.5 L 1212.5 364.5 M 0.5 414.5 L 1212.5 414.5 M 0.5 464.5 L 1212.5 464.5 M 0.5 514.5 L 1212.5 514.5 M 0.5 564.5 L 1212.5 564.5 M 0.5 614.5 L 1212.5 614.5 M 0.5 664.5 L 1212.5 664.5 M 0.5 713.5 L 1212.5 713.5" stroke-opacity="1" stroke-linecap="round" stroke-linejoin="round" stroke-miterlimit="10"/><path fill="none" stroke="rgb(192,192,192)" paint-order="fill stroke markers" d=" M 0.5 5.5 L 1212.5 5.5 M 0.5 5.5 L 1212.5 5.5 M 0.5 25.5 L 1212.5 25.5 M 0.5 35.5 L 1212.5 35.5 M 0.5 45.5 L 1212.5 45.5 M 0.5 55.5 L 1212.5 55.5 M 0.5 75.5 L 1212.5 75.5 M 0.5 85.5 L 1212.5 85.5 M 0.5 95.5 L 1212.5 95.5 M 0.5 105.5 L 1212.5 105.5 M 0.5 125.5 L 1212.5 125.5 M 0.5 135.5 L 1212.5 135.5 M 0.5 145.5 L 1212.5 145.5 M 0.5 155.5 L 1212.5 155.5 M 0.5 175.5 L 1212.5 175.5 M 0.5 185.5 L 1212.5 185.5 M 0.5 195.5 L 1212.5 195.5 M 0.5 205.5 L 1212.5 205.5 M 0.5 225.5 L 1212.5 225.5 M 0.5 235.5 L 1212.5 235.5 M 0.5 245.5 L 1212.5 245.5 M 0.5 255.5 L 1212.5 255.5 M 0.5 275.5 L 1212.5 275.5 M 0.5 285.5 L 1212.5 285.5 M 0.5 295.5 L 1212.5 295.5 M 0.5 305.5 L 1212.5 305.5 M 0.5 325.5 L 1212.5 325.5 M 0.5 335.5 L 1212.5 335.5 M 0.5 345.5 L 1212.5 345.5 M 0.5 355.5 L 1212.5 355.5 M 0.5 374.5 L 1212.5 374.5 M 0.5 384.5 L 1212.5 384.5 M 0.5 394.5 L 1212.5 394.5 M 0.5 404.5 L 1212.5 404.5 M 0.5 424.5 L 1212.5 424.5 M 0.5 434.5 L 1212.5 434.5 M 0.5 444.5 L 1212.5 444.5 M 0.5 454.5 L 1212.5 454.5 M 0.5 474.5 L 1212.5 474.5 M 0.5 484.5 L 1212.5 484.5 M 0.5 494.5 L 1212.5 494.5 M 0.5 504.5 L 1212.5 504.5 M 0.5 524.5 L 1212.5 524.5 M 0.5 534.5 L 1212.5 534.5 M 0.5 544.5 L 1212.5 544.5 M 0.5 554.5 L 1212.5 554.5 M 0.5 574.5 L 1212.5 574.5 M 0.5 584.5 L 1212.5 584.5 M 0.5 594.5 L 1212.5 594.5 M 0.5 604.5 L 1212.5 604.5 M 0.5 624.5 L 1212.5 624.5 M 0.5 634.5 L 1212.5 634.5 M 0.5 644.5 L 1212.5 644.5 M 0.5 654.5 L 1212.5 654.5 M 0.5 674.5 L 1212.5 674.5 M 0.5 684.5 L 1212.5 684.5 M 0.5 694.5 L 1212.5 694.5 M 0.5 704.5 L 1212.5 704.5" stroke-opacity="0.23529411764705882" stroke-linecap="round" stroke-linejoin="round" stroke-miterlimit="10"/><path fill="rgb(128,128,128)" stroke="none" paint-order="stroke fill markers" fill-rule="evenodd" d=" M 2.842170943040401e-14 115.67597765363121 L 798.6820428336079 115.67597765363121 L 798.6820428336079 714 L 2.842170943040401e-14 714 Z" fill-opacity="0.4980392156862745"/><path fill="none" stroke="rgb(0,0,0)" paint-order="fill stroke markers" d=" M 959.5 258.5 L 1159.5 258.5" stroke-opacity="0.39215686274509803" stroke-linecap="round" stroke-linejoin="round" stroke-miterlimit="10" stroke-width="5"/><path fill="rgb(0,0,0)" stroke="none" paint-order="stroke fill markers" d=" M 1123.5555555555557 258.49999999999994 C 1123.5555555555557 263.1944203735617 1119.7499759291175 266.99999999999994 1115.0555555555557 266.99999999999994 C 1110.3611351819939 266.99999999999994 1106.5555555555557 263.1944203735617 1106.5555555555557 258.49999999999994 C 1106.5555555555557 253.8055796264382 1110.3611351819939 249.99999999999994 1115.0555555555557 249.99999999999994 C 1119.7499759291175 249.99999999999994 1123.5555555555557 253.8055796264382 1123.5555555555557 258.49999999999994 Z" fill-opacity="0.39215686274509803"/><path fill="none" stroke="rgb(0,0,0)" paint-order="fill stroke markers" d=" M 1123.5555555555557 258.49999999999994 C 1123.5555555555557 263.1944203735617 1119.7499759291175 266.99999999999994 1115.0555555555557 266.99999999999994 C 1110.3611351819939 266.99999999999994 1106.5555555555557 263.1944203735617 1106.5555555555557 258.49999999999994 C 1106.5555555555557 253.8055796264382 1110.3611351819939 249.99999999999994 1115.0555555555557 249.99999999999994 C 1119.7499759291175 249.99999999999994 1123.5555555555557 253.8055796264382 1123.5555555555557 258.49999999999994 Z" stroke-opacity="0.39215686274509803" stroke-linecap="round" stroke-linejoin="round" stroke-miterlimit="10"/><path fill="rgb(0,0,0)" stroke="none" paint-order="stroke fill markers" d=" M 1120.5555555555557 258.49999999999994 C 1120.5555555555557 261.5375661240693 1118.093121679625 263.99999999999994 1115.0555555555557 263.99999999999994 C 1112.0179894314863 263.99999999999994 1109.5555555555557 261.5375661240693 1109.5555555555557 258.49999999999994 C 1109.5555555555557 255.46243387593057 1112.0179894314863 252.99999999999994 1115.0555555555557 252.99999999999994 C 1118.093121679625 252.99999999999994 1120.5555555555557 255.46243387593057 1120.5555555555557 258.49999999999994 Z" fill-opacity="1"/><path fill="none" stroke="rgb(0,0,0)" paint-order="fill stroke markers" d=" M 1120.5555555555557 258.49999999999994 C 1120.5555555555557 261.5375661240693 1118.093121679625 263.99999999999994 1115.0555555555557 263.99999999999994 C 1112.0179894314863 263.99999999999994 1109.5555555555557 261.5375661240693 1109.5555555555557 258.49999999999994 C 1109.5555555555557 255.46243387593057 1112.0179894314863 252.99999999999994 1115.0555555555557 252.99999999999994 C 1118.093121679625 252.99999999999994 1120.5555555555557 255.46243387593057 1120.5555555555557 258.49999999999994 Z" stroke-opacity="1" stroke-linecap="round" stroke-linejoin="round" stroke-miterlimit="10"/><text fill="none" stroke="rgb(255,255,255)" font-family="geogebra-sans-serif, sans-serif" font-size="16px" font-style="normal" font-weight="normal" text-decoration="normal" x="1095" y="243" text-anchor="start" dominant-baseline="alphabetic" stroke-opacity="1" stroke-linecap="round" stroke-linejoin="bevel" stroke-miterlimit="10" stroke-width="3">BoxSize = 0.8</text><text fill="rgb(0,0,0)" stroke="none" font-family="geogebra-sans-serif, sans-serif" font-size="16px" font-style="normal" font-weight="normal" text-decoration="normal" x="1095" y="243" text-anchor="start" dominant-baseline="alphabetic" fill-opacity="1">BoxSize = 0.8</text><path fill="none" stroke="rgb(0,0,0)" paint-order="fill stroke markers" d=" M 996.5 198.5 L 1196.5 198.5" stroke-opacity="0.39215686274509803" stroke-linecap="round" stroke-linejoin="round" stroke-miterlimit="10" stroke-width="5"/><path fill="rgb(0,0,0)" stroke="none" paint-order="stroke fill markers" d=" M 1032.5862068965519 198.5 C 1032.5862068965519 203.19442037356174 1028.7806272701137 207 1024.0862068965519 207 C 1019.3917865229901 207 1015.5862068965519 203.19442037356174 1015.5862068965519 198.5 C 1015.5862068965519 193.80557962643826 1019.3917865229901 190 1024.0862068965519 190 C 1028.7806272701137 190 1032.5862068965519 193.80557962643826 1032.5862068965519 198.5 Z" fill-opacity="0.39215686274509803"/><path fill="none" stroke="rgb(0,0,0)" paint-order="fill stroke markers" d=" M 1032.5862068965519 198.5 C 1032.5862068965519 203.19442037356174 1028.7806272701137 207 1024.0862068965519 207 C 1019.3917865229901 207 1015.5862068965519 203.19442037356174 1015.5862068965519 198.5 C 1015.5862068965519 193.80557962643826 1019.3917865229901 190 1024.0862068965519 190 C 1028.7806272701137 190 1032.5862068965519 193.80557962643826 1032.5862068965519 198.5 Z" stroke-opacity="0.39215686274509803" stroke-linecap="round" stroke-linejoin="round" stroke-miterlimit="10"/><path fill="rgb(0,0,0)" stroke="none" paint-order="stroke fill markers" d=" M 1029.5862068965519 198.5 C 1029.5862068965519 201.53756612406937 1027.1237730206212 204 1024.0862068965519 204 C 1021.0486407724825 204 1018.5862068965519 201.53756612406937 1018.5862068965519 198.5 C 1018.5862068965519 195.46243387593063 1021.0486407724825 193 1024.0862068965519 193 C 1027.1237730206212 193 1029.5862068965519 195.46243387593063 1029.5862068965519 198.5 Z" fill-opacity="1"/><path fill="none" stroke="rgb(0,0,0)" paint-order="fill stroke markers" d=" M 1029.5862068965519 198.5 C 1029.5862068965519 201.53756612406937 1027.1237730206212 204 1024.0862068965519 204 C 1021.0486407724825 204 1018.5862068965519 201.53756612406937 1018.5862068965519 198.5 C 1018.5862068965519 195.46243387593063 1021.0486407724825 193 1024.0862068965519 193 C 1027.1237730206212 193 1029.5862068965519 195.46243387593063 1029.5862068965519 198.5 Z" stroke-opacity="1" stroke-linecap="round" stroke-linejoin="round" stroke-miterlimit="10"/><text fill="none" stroke="rgb(255,255,255)" font-family="geogebra-sans-serif, sans-serif" font-size="16px" font-style="normal" font-weight="normal" text-decoration="normal" x="1013" y="183" text-anchor="start" dominant-baseline="alphabetic" stroke-opacity="1" stroke-linecap="round" stroke-linejoin="bevel" stroke-miterlimit="10" stroke-width="3">Pixels = 50</text><text fill="rgb(0,0,0)" stroke="none" font-family="geogebra-sans-serif, sans-serif" font-size="16px" font-style="normal" font-weight="normal" text-decoration="normal" x="1013" y="183" text-anchor="start" dominant-baseline="alphabetic" fill-opacity="1">Pixels = 50</text><path fill="rgb(255,255,255)" stroke="none" paint-order="stroke fill markers" fill-rule="evenodd" d=" M 815 194 L 946 194 C 947.6568542494924 194 950 196.34314575050763 950 198 L 950 224 C 950 225.65685424949237 947.6568542494924 228 946 228 L 815 228 C 813.3431457505076 228 811 225.65685424949237 811 224 L 811 198 C 811 196.34314575050763 813.3431457505076 194 815 194 Z" fill-opacity="1"/><path fill="none" stroke="rgb(0,0,0)" paint-order="fill stroke markers" d=" M 814.5 194 L 946.5 194 C 947.9497474683059 194 950 196.05025253169416 950 197.5 L 950 224.5 C 950 225.94974746830584 947.9497474683059 228 946.5 228 L 814.5 228 C 813.0502525316941 228 811 225.94974746830584 811 224.5 L 811 197.5 C 811 196.05025253169416 813.0502525316941 194 814.5 194 Z" stroke-opacity="1" stroke-linecap="round" stroke-linejoin="round" stroke-miterlimit="10"/><text fill="rgb(0,0,0)" stroke="none" font-family="geogebra-sans-serif, sans-serif" font-size="24px" font-style="normal" font-weight="normal" text-decoration="normal" x="821" y="219" text-anchor="start" dominant-baseline="alphabetic" fill-opacity="1">Reset View</text><path fill="rgb(26,27,43)" stroke="none" paint-order="stroke fill markers" fill-rule="evenodd" d=" M 169.71993410214168 594.3351955307262 L 129.7858319604613 594.3351955307262 L 129.7858319604613 634.2234636871508 L 169.71993410214168 634.2234636871508 Z" fill-opacity="1"/><path fill="rgb(24,25,53)" stroke="none" paint-order="stroke fill markers" fill-rule="evenodd" d=" M 219.63756177924216 594.3351955307262 L 179.70345963756182 594.3351955307262 L 179.70345963756182 634.2234636871508 L 219.63756177924216 634.2234636871508 Z" fill-opacity="1"/><path fill="rgb(22,23,65)" stroke="none" paint-order="stroke fill markers" fill-rule="evenodd" d=" M 269.55518945634265 594.3351955307262 L 229.6210873146623 594.3351955307262 L 229.6210873146623 634.2234636871508 L 269.55518945634265 634.2234636871508 Z" fill-opacity="1"/><path fill="rgb(22,19,75)" stroke="none" paint-order="stroke fill markers" fill-rule="evenodd" d=" M 319.4728171334432 594.3351955307262 L 279.5387149917628 594.3351955307262 L 279.5387149917628 634.2234636871508 L 319.4728171334432 634.2234636871508 Z" fill-opacity="1"/><path fill="rgb(24,13,84)" stroke="none" paint-order="stroke fill markers" fill-rule="evenodd" d=" M 369.39044481054367 594.3351955307262 L 329.4563426688633 594.3351955307262 L 329.4563426688633 634.2234636871508 L 369.39044481054367 634.2234636871508 Z" fill-opacity="1"/><path fill="rgb(27,4,92)" stroke="none" paint-order="stroke fill markers" fill-rule="evenodd" d=" M 419.3080724876442 594.3351955307262 L 379.37397034596376 594.3351955307262 L 379.37397034596376 634.2234636871508 L 419.3080724876442 634.2234636871508 Z" fill-opacity="1"/><path fill="rgb(47,48,63)" stroke="none" paint-order="stroke fill markers" fill-rule="evenodd" d=" M 169.71993410214168 544.4748603351954 L 129.7858319604613 544.4748603351954 L 129.7858319604613 584.36312849162 L 169.71993410214168 584.36312849162 Z" fill-opacity="1"/><path fill="rgb(44,47,76)" stroke="none" paint-order="stroke fill markers" fill-rule="evenodd" d=" M 219.63756177924216 544.4748603351954 L 179.70345963756182 544.4748603351954 L 179.70345963756182 584.36312849162 L 219.63756177924216 584.36312849162 Z" fill-opacity="1"/><path fill="rgb(41,45,88)" stroke="none" paint-order="stroke fill markers" fill-rule="evenodd" d=" M 269.55518945634265 544.4748603351954 L 229.6210873146623 544.4748603351954 L 229.6210873146623 584.36312849162 L 269.55518945634265 584.36312849162 Z" fill-opacity="1"/><path fill="rgb(37,43,100)" stroke="none" paint-order="stroke fill markers" fill-rule="evenodd" d=" M 319.4728171334432 544.4748603351954 L 279.5387149917628 544.4748603351954 L 279.5387149917628 584.36312849162 L 319.4728171334432 584.36312849162 Z" fill-opacity="1"/><path fill="rgb(36,39,112)" stroke="none" paint-order="stroke fill markers" fill-rule="evenodd" d=" M 369.39044481054367 544.4748603351954 L 329.4563426688633 544.4748603351954 L 329.4563426688633 584.36312849162 L 369.39044481054367 584.36312849162 Z" fill-opacity="1"/><path fill="rgb(36,35,121)" stroke="none" paint-order="stroke fill markers" fill-rule="evenodd" d=" M 419.3080724876442 544.4748603351954 L 379.37397034596376 544.4748603351954 L 379.37397034596376 584.36312849162 L 419.3080724876442 584.36312849162 Z" fill-opacity="1"/><path fill="rgb(38,30,131)" stroke="none" paint-order="stroke fill markers" fill-rule="evenodd" d=" M 469.2257001647447 544.4748603351954 L 429.29159802306424 544.4748603351954 L 429.29159802306424 584.36312849162 L 469.2257001647447 584.36312849162 Z" fill-opacity="1"/><path fill="rgb(41,21,141)" stroke="none" paint-order="stroke fill markers" fill-rule="evenodd" d=" M 519.1433278418451 544.4748603351954 L 479.2092257001647 544.4748603351954 L 479.2092257001647 584.36312849162 L 519.1433278418451 584.36312849162 Z" fill-opacity="1"/><path fill="rgb(44,8,150)" stroke="none" paint-order="stroke fill markers" fill-rule="evenodd" d=" M 569.0609555189457 544.4748603351954 L 529.1268533772652 544.4748603351954 L 529.1268533772652 584.36312849162 L 569.0609555189457 584.36312849162 Z" fill-opacity="1"/><path fill="rgb(69,71,88)" stroke="none" paint-order="stroke fill markers" fill-rule="evenodd" d=" M 169.71993410214168 494.6145251396648 L 129.7858319604613 494.6145251396648 L 129.7858319604613 534.5027932960893 L 169.71993410214168 534.5027932960893 Z" fill-opacity="1"/><path fill="rgb(65,70,101)" stroke="none" paint-order="stroke fill markers" fill-rule="evenodd" d=" M 219.63756177924216 494.6145251396648 L 179.70345963756182 494.6145251396648 L 179.70345963756182 534.5027932960893 L 219.63756177924216 534.5027932960893 Z" fill-opacity="1"/><path fill="rgb(62,68,114)" stroke="none" paint-order="stroke fill markers" fill-rule="evenodd" d=" M 269.55518945634265 494.6145251396648 L 229.6210873146623 494.6145251396648 L 229.6210873146623 534.5027932960893 L 269.55518945634265 534.5027932960893 Z" fill-opacity="1"/><path fill="rgb(58,67,126)" stroke="none" paint-order="stroke fill markers" fill-rule="evenodd" d=" M 319.4728171334432 494.6145251396648 L 279.5387149917628 494.6145251396648 L 279.5387149917628 534.5027932960893 L 319.4728171334432 534.5027932960893 Z" fill-opacity="1"/><path fill="rgb(54,64,139)" stroke="none" paint-order="stroke fill markers" fill-rule="evenodd" d=" M 369.39044481054367 494.6145251396648 L 329.4563426688633 494.6145251396648 L 329.4563426688633 534.5027932960893 L 369.39044481054367 534.5027932960893 Z" fill-opacity="1"/><path fill="rgb(51,62,151)" stroke="none" paint-order="stroke fill markers" fill-rule="evenodd" d=" M 419.3080724876442 494.6145251396648 L 379.37397034596376 494.6145251396648 L 379.37397034596376 534.5027932960893 L 419.3080724876442 534.5027932960893 Z" fill-opacity="1"/><path fill="rgb(49,58,163)" stroke="none" paint-order="stroke fill markers" fill-rule="evenodd" d=" M 469.2257001647447 494.6145251396648 L 429.29159802306424 494.6145251396648 L 429.29159802306424 534.5027932960893 L 469.2257001647447 534.5027932960893 Z" fill-opacity="1"/><path fill="rgb(49,52,175)" stroke="none" paint-order="stroke fill markers" fill-rule="evenodd" d=" M 519.1433278418451 494.6145251396648 L 479.2092257001647 494.6145251396648 L 479.2092257001647 534.5027932960893 L 519.1433278418451 534.5027932960893 Z" fill-opacity="1"/><path fill="rgb(51,47,185)" stroke="none" paint-order="stroke fill markers" fill-rule="evenodd" d=" M 569.0609555189457 494.6145251396648 L 529.1268533772652 494.6145251396648 L 529.1268533772652 534.5027932960893 L 569.0609555189457 534.5027932960893 Z" fill-opacity="1"/><path fill="rgb(53,41,194)" stroke="none" paint-order="stroke fill markers" fill-rule="evenodd" d=" M 618.9785831960461 494.6145251396648 L 579.0444810543656 494.6145251396648 L 579.0444810543656 534.5027932960893 L 618.9785831960461 534.5027932960893 Z" fill-opacity="1"/><path fill="rgb(56,30,204)" stroke="none" paint-order="stroke fill markers" fill-rule="evenodd" d=" M 668.8962108731466 494.6145251396648 L 628.9621087314662 494.6145251396648 L 628.9621087314662 534.5027932960893 L 668.8962108731466 534.5027932960893 Z" fill-opacity="1"/><path fill="rgb(59,13,215)" stroke="none" paint-order="stroke fill markers" fill-rule="evenodd" d=" M 718.813838550247 494.6145251396648 L 678.8797364085666 494.6145251396648 L 678.8797364085666 534.5027932960893 L 718.813838550247 534.5027932960893 Z" fill-opacity="1"/><path fill="rgb(94,96,111)" stroke="none" paint-order="stroke fill markers" fill-rule="evenodd" d=" M 169.71993410214168 444.75418994413405 L 129.7858319604613 444.75418994413405 L 129.7858319604613 484.64245810055866 L 169.71993410214168 484.64245810055866 Z" fill-opacity="1"/><path fill="rgb(91,95,124)" stroke="none" paint-order="stroke fill markers" fill-rule="evenodd" d=" M 219.63756177924216 444.75418994413405 L 179.70345963756182 444.75418994413405 L 179.70345963756182 484.64245810055866 L 219.63756177924216 484.64245810055866 Z" fill-opacity="1"/><path fill="rgb(86,94,137)" stroke="none" paint-order="stroke fill markers" fill-rule="evenodd" d=" M 269.55518945634265 444.75418994413405 L 229.6210873146623 444.75418994413405 L 229.6210873146623 484.64245810055866 L 269.55518945634265 484.64245810055866 Z" fill-opacity="1"/><path fill="rgb(82,92,151)" stroke="none" paint-order="stroke fill markers" fill-rule="evenodd" d=" M 319.4728171334432 444.75418994413405 L 279.5387149917628 444.75418994413405 L 279.5387149917628 484.64245810055866 L 319.4728171334432 484.64245810055866 Z" fill-opacity="1"/><path fill="rgb(77,91,164)" stroke="none" paint-order="stroke fill markers" fill-rule="evenodd" d=" M 369.39044481054367 444.75418994413405 L 329.4563426688633 444.75418994413405 L 329.4563426688633 484.64245810055866 L 369.39044481054367 484.64245810055866 Z" fill-opacity="1"/><path fill="rgb(72,89,176)" stroke="none" paint-order="stroke fill markers" fill-rule="evenodd" d=" M 419.3080724876442 444.75418994413405 L 379.37397034596376 444.75418994413405 L 379.37397034596376 484.64245810055866 L 419.3080724876442 484.64245810055866 Z" fill-opacity="1"/><path fill="rgb(67,87,189)" stroke="none" paint-order="stroke fill markers" fill-rule="evenodd" d=" M 469.2257001647447 444.75418994413405 L 429.29159802306424 444.75418994413405 L 429.29159802306424 484.64245810055866 L 469.2257001647447 484.64245810055866 Z" fill-opacity="1"/><path fill="rgb(64,84,202)" stroke="none" paint-order="stroke fill markers" fill-rule="evenodd" d=" M 519.1433278418451 444.75418994413405 L 479.2092257001647 444.75418994413405 L 479.2092257001647 484.64245810055866 L 519.1433278418451 484.64245810055866 Z" fill-opacity="1"/><path fill="rgb(62,79,214)" stroke="none" paint-order="stroke fill markers" fill-rule="evenodd" d=" M 569.0609555189457 444.75418994413405 L 529.1268533772652 444.75418994413405 L 529.1268533772652 484.64245810055866 L 569.0609555189457 484.64245810055866 Z" fill-opacity="1"/><path fill="rgb(60,74,228)" stroke="none" paint-order="stroke fill markers" fill-rule="evenodd" d=" M 618.9785831960461 444.75418994413405 L 579.0444810543656 444.75418994413405 L 579.0444810543656 484.64245810055866 L 618.9785831960461 484.64245810055866 Z" fill-opacity="1"/><path fill="rgb(61,69,238)" stroke="none" paint-order="stroke fill markers" fill-rule="evenodd" d=" M 668.8962108731466 444.75418994413405 L 628.9621087314662 444.75418994413405 L 628.9621087314662 484.64245810055866 L 668.8962108731466 484.64245810055866 Z" fill-opacity="1"/><path fill="rgb(62,62,249)" stroke="none" paint-order="stroke fill markers" fill-rule="evenodd" d=" M 718.813838550247 444.75418994413405 L 678.8797364085666 444.75418994413405 L 678.8797364085666 484.64245810055866 L 718.813838550247 484.64245810055866 Z" fill-opacity="1"/><path fill="rgb(64,54,255)" stroke="none" paint-order="stroke fill markers" fill-rule="evenodd" d=" M 768.7314662273476 444.75418994413405 L 728.7973640856671 444.75418994413405 L 728.7973640856671 484.64245810055866 L 768.7314662273476 484.64245810055866 Z" fill-opacity="1"/><path fill="rgb(119,122,136)" stroke="none" paint-order="stroke fill markers" fill-rule="evenodd" d=" M 169.71993410214168 394.8938547486033 L 129.7858319604613 394.8938547486033 L 129.7858319604613 434.7821229050279 L 169.71993410214168 434.7821229050279 Z" fill-opacity="1"/><path fill="rgb(116,121,149)" stroke="none" paint-order="stroke fill markers" fill-rule="evenodd" d=" M 219.63756177924216 394.8938547486033 L 179.70345963756182 394.8938547486033 L 179.70345963756182 434.7821229050279 L 219.63756177924216 434.7821229050279 Z" fill-opacity="1"/><path fill="rgb(111,120,163)" stroke="none" paint-order="stroke fill markers" fill-rule="evenodd" d=" M 269.55518945634265 394.8938547486033 L 229.6210873146623 394.8938547486033 L 229.6210873146623 434.7821229050279 L 269.55518945634265 434.7821229050279 Z" fill-opacity="1"/><path fill="rgb(107,119,177)" stroke="none" paint-order="stroke fill markers" fill-rule="evenodd" d=" M 319.4728171334432 394.8938547486033 L 279.5387149917628 394.8938547486033 L 279.5387149917628 434.7821229050279 L 319.4728171334432 434.7821229050279 Z" fill-opacity="1"/><path fill="rgb(102,118,189)" stroke="none" paint-order="stroke fill markers" fill-rule="evenodd" d=" M 369.39044481054367 394.8938547486033 L 329.4563426688633 394.8938547486033 L 329.4563426688633 434.7821229050279 L 369.39044481054367 434.7821229050279 Z" fill-opacity="1"/><path fill="rgb(97,116,204)" stroke="none" paint-order="stroke fill markers" fill-rule="evenodd" d=" M 419.3080724876442 394.8938547486033 L 379.37397034596376 394.8938547486033 L 379.37397034596376 434.7821229050279 L 419.3080724876442 434.7821229050279 Z" fill-opacity="1"/><path fill="rgb(90,114,218)" stroke="none" paint-order="stroke fill markers" fill-rule="evenodd" d=" M 469.2257001647447 394.8938547486033 L 429.29159802306424 394.8938547486033 L 429.29159802306424 434.7821229050279 L 469.2257001647447 434.7821229050279 Z" fill-opacity="1"/><path fill="rgb(83,112,232)" stroke="none" paint-order="stroke fill markers" fill-rule="evenodd" d=" M 519.1433278418451 394.8938547486033 L 479.2092257001647 394.8938547486033 L 479.2092257001647 434.7821229050279 L 519.1433278418451 434.7821229050279 Z" fill-opacity="1"/><path fill="rgb(77,109,246)" stroke="none" paint-order="stroke fill markers" fill-rule="evenodd" d=" M 569.0609555189457 394.8938547486033 L 529.1268533772652 394.8938547486033 L 529.1268533772652 434.7821229050279 L 569.0609555189457 434.7821229050279 Z" fill-opacity="1"/><path fill="rgb(71,105,255)" stroke="none" paint-order="stroke fill markers" fill-rule="evenodd" d=" M 618.9785831960461 394.8938547486033 L 579.0444810543656 394.8938547486033 L 579.0444810543656 434.7821229050279 L 618.9785831960461 434.7821229050279 Z" fill-opacity="1"/><path fill="rgb(146,148,161)" stroke="none" paint-order="stroke fill markers" fill-rule="evenodd" d=" M 169.71993410214168 345.03351955307255 L 129.7858319604613 345.03351955307255 L 129.7858319604613 384.92178770949715 L 169.71993410214168 384.92178770949715 Z" fill-opacity="1"/><path fill="rgb(142,147,174)" stroke="none" paint-order="stroke fill markers" fill-rule="evenodd" d=" M 219.63756177924216 345.03351955307255 L 179.70345963756182 345.03351955307255 L 179.70345963756182 384.92178770949715 L 219.63756177924216 384.92178770949715 Z" fill-opacity="1"/><path fill="rgb(137,146,189)" stroke="none" paint-order="stroke fill markers" fill-rule="evenodd" d=" M 269.55518945634265 345.03351955307255 L 229.6210873146623 345.03351955307255 L 229.6210873146623 384.92178770949715 L 269.55518945634265 384.92178770949715 Z" fill-opacity="1"/><path fill="rgb(133,146,203)" stroke="none" paint-order="stroke fill markers" fill-rule="evenodd" d=" M 319.4728171334432 345.03351955307255 L 279.5387149917628 345.03351955307255 L 279.5387149917628 384.92178770949715 L 319.4728171334432 384.92178770949715 Z" fill-opacity="1"/><path fill="rgb(128,144,216)" stroke="none" paint-order="stroke fill markers" fill-rule="evenodd" d=" M 369.39044481054367 345.03351955307255 L 329.4563426688633 345.03351955307255 L 329.4563426688633 384.92178770949715 L 369.39044481054367 384.92178770949715 Z" fill-opacity="1"/><path fill="rgb(121,143,232)" stroke="none" paint-order="stroke fill markers" fill-rule="evenodd" d=" M 419.3080724876442 345.03351955307255 L 379.37397034596376 345.03351955307255 L 379.37397034596376 384.92178770949715 L 419.3080724876442 384.92178770949715 Z" fill-opacity="1"/><path fill="rgb(113,141,249)" stroke="none" paint-order="stroke fill markers" fill-rule="evenodd" d=" M 469.2257001647447 345.03351955307255 L 429.29159802306424 345.03351955307255 L 429.29159802306424 384.92178770949715 L 469.2257001647447 384.92178770949715 Z" fill-opacity="1"/><path fill="rgb(172,174,186)" stroke="none" paint-order="stroke fill markers" fill-rule="evenodd" d=" M 169.71993410214168 295.1731843575418 L 129.7858319604613 295.1731843575418 L 129.7858319604613 335.06145251396646 L 169.71993410214168 335.06145251396646 Z" fill-opacity="1"/><path fill="rgb(167,174,201)" stroke="none" paint-order="stroke fill markers" fill-rule="evenodd" d=" M 219.63756177924216 295.1731843575418 L 179.70345963756182 295.1731843575418 L 179.70345963756182 335.06145251396646 L 219.63756177924216 335.06145251396646 Z" fill-opacity="1"/><path fill="rgb(163,173,216)" stroke="none" paint-order="stroke fill markers" fill-rule="evenodd" d=" M 269.55518945634265 295.1731843575418 L 229.6210873146623 295.1731843575418 L 229.6210873146623 335.06145251396646 L 269.55518945634265 335.06145251396646 Z" fill-opacity="1"/><path fill="rgb(157,172,232)" stroke="none" paint-order="stroke fill markers" fill-rule="evenodd" d=" M 319.4728171334432 295.1731843575418 L 279.5387149917628 295.1731843575418 L 279.5387149917628 335.06145251396646 L 319.4728171334432 335.06145251396646 Z" fill-opacity="1"/><path fill="rgb(151,171,249)" stroke="none" paint-order="stroke fill markers" fill-rule="evenodd" d=" M 369.39044481054367 295.1731843575418 L 329.4563426688633 295.1731843575418 L 329.4563426688633 335.06145251396646 L 369.39044481054367 335.06145251396646 Z" fill-opacity="1"/><path fill="rgb(199,201,212)" stroke="none" paint-order="stroke fill markers" fill-rule="evenodd" d=" M 169.71993410214168 245.3128491620111 L 129.7858319604613 245.3128491620111 L 129.7858319604613 285.2011173184357 L 169.71993410214168 285.2011173184357 Z" fill-opacity="1"/><path fill="rgb(193,201,228)" stroke="none" paint-order="stroke fill markers" fill-rule="evenodd" d=" M 219.63756177924216 245.3128491620111 L 179.70345963756182 245.3128491620111 L 179.70345963756182 285.2011173184357 L 219.63756177924216 285.2011173184357 Z" fill-opacity="1"/><path fill="rgb(187,200,246)" stroke="none" paint-order="stroke fill markers" fill-rule="evenodd" d=" M 269.55518945634265 245.3128491620111 L 229.6210873146623 245.3128491620111 L 229.6210873146623 285.2011173184357 L 269.55518945634265 285.2011173184357 Z" fill-opacity="1"/><path fill="rgb(226,229,239)" stroke="none" paint-order="stroke fill markers" fill-rule="evenodd" d=" M 169.71993410214168 195.45251396648035 L 129.7858319604613 195.45251396648035 L 129.7858319604613 235.340782122905 L 169.71993410214168 235.340782122905 Z" fill-opacity="1"/><path fill="rgb(0,0,0)" stroke="none" paint-order="stroke fill markers" fill-rule="evenodd" d=" M 119.80230642504121 644.195530726257 L 79.86820428336081 644.195530726257 L 79.86820428336081 684.0837988826815 L 119.80230642504121 684.0837988826815 Z" fill-opacity="1"/><path fill="rgb(28,28,28)" stroke="none" paint-order="stroke fill markers" fill-rule="evenodd" d=" M 119.80230642504121 594.3351955307262 L 79.86820428336081 594.3351955307262 L 79.86820428336081 634.2234636871508 L 119.80230642504121 634.2234636871508 Z" fill-opacity="1"/><path fill="rgb(47,47,47)" stroke="none" paint-order="stroke fill markers" fill-rule="evenodd" d=" M 119.80230642504121 544.4748603351954 L 79.86820428336081 544.4748603351954 L 79.86820428336081 584.36312849162 L 119.80230642504121 584.36312849162 Z" fill-opacity="1"/><path fill="rgb(70,70,70)" stroke="none" paint-order="stroke fill markers" fill-rule="evenodd" d=" M 119.80230642504121 494.6145251396648 L 79.86820428336081 494.6145251396648 L 79.86820428336081 534.5027932960893 L 119.80230642504121 534.5027932960893 Z" fill-opacity="1"/><path fill="rgb(97,97,97)" stroke="none" paint-order="stroke fill markers" fill-rule="evenodd" d=" M 119.80230642504121 444.75418994413405 L 79.86820428336081 444.75418994413405 L 79.86820428336081 484.64245810055866 L 119.80230642504121 484.64245810055866 Z" fill-opacity="1"/><path fill="rgb(124,124,124)" stroke="none" paint-order="stroke fill markers" fill-rule="evenodd" d=" M 119.80230642504121 394.8938547486033 L 79.86820428336081 394.8938547486033 L 79.86820428336081 434.7821229050279 L 119.80230642504121 434.7821229050279 Z" fill-opacity="1"/><path fill="rgb(149,149,149)" stroke="none" paint-order="stroke fill markers" fill-rule="evenodd" d=" M 119.80230642504121 345.03351955307255 L 79.86820428336081 345.03351955307255 L 79.86820428336081 384.92178770949715 L 119.80230642504121 384.92178770949715 Z" fill-opacity="1"/><path fill="rgb(178,178,178)" stroke="none" paint-order="stroke fill markers" fill-rule="evenodd" d=" M 119.80230642504121 295.1731843575418 L 79.86820428336081 295.1731843575418 L 79.86820428336081 335.06145251396646 L 119.80230642504121 335.06145251396646 Z" fill-opacity="1"/><path fill="rgb(202,202,202)" stroke="none" paint-order="stroke fill markers" fill-rule="evenodd" d=" M 119.80230642504121 245.3128491620111 L 79.86820428336081 245.3128491620111 L 79.86820428336081 285.2011173184357 L 119.80230642504121 285.2011173184357 Z" fill-opacity="1"/><path fill="rgb(232,232,232)" stroke="none" paint-order="stroke fill markers" fill-rule="evenodd" d=" M 119.80230642504121 195.45251396648035 L 79.86820428336081 195.45251396648035 L 79.86820428336081 235.340782122905 L 119.80230642504121 235.340782122905 Z" fill-opacity="1"/><path fill="rgb(255,255,255)" stroke="none" paint-order="stroke fill markers" fill-rule="evenodd" d=" M 119.80230642504121 145.59217877094966 L 79.86820428336081 145.59217877094966 L 79.86820428336081 185.48044692737426 L 119.80230642504121 185.48044692737426 Z" fill-opacity="1"/><path fill="none" stroke="rgb(255,0,0)" paint-order="fill stroke markers" d=" M 99.83525535420101 719 L 99.83525535420101 -5" stroke-opacity="0.6980392156862745" stroke-linecap="round" stroke-linejoin="round" stroke-miterlimit="10" stroke-width="3.5"/><path fill="none" stroke="rgb(255,0,0)" paint-order="fill stroke markers" d=" M -5 690.3183977266442 L 1217 385.1690324409535" stroke-opacity="0.6980392156862745" stroke-linecap="round" stroke-linejoin="round" stroke-miterlimit="10" stroke-width="3.5"/><path fill="none" stroke="rgb(255,0,0)" paint-order="fill stroke markers" d=" M 44.91188238062937 719 L 769.7438013096506 -5" stroke-opacity="0.6980392156862745" stroke-linecap="round" stroke-linejoin="round" stroke-miterlimit="10" stroke-width="3.5"/><path fill="none" stroke="rgb(255,0,0)" paint-order="fill stroke markers" d=" M -5 716.497130648819 L 1217 106.19840007743778" stroke-opacity="0.6980392156862745" stroke-linecap="round" stroke-linejoin="round" stroke-miterlimit="10" stroke-width="3.5"/><path fill="none" stroke="rgb(255,0,0)" paint-order="fill stroke markers" d=" M 72.3735688674152 719 L 434.7895283319258 -5" stroke-opacity="0.6980392156862745" stroke-linecap="round" stroke-linejoin="round" stroke-miterlimit="10" stroke-width="3.5"/><path fill="none" stroke="rgb(0,0,0)" paint-order="fill stroke markers" d=" M 399.341021416804 664.1396648044692 L 510.0939044481054 664.1396648044692" stroke-opacity="1" stroke-linecap="round" stroke-linejoin="round" stroke-miterlimit="10" stroke-width="6.5"/><path fill="rgb(0,0,0)" stroke="none" paint-order="stroke fill markers" fill-rule="evenodd" d=" M 549.0939044481054 664.1396648044692 L 510.0939044481054 673.8896648044692 L 510.0939044481054 654.3896648044692 Z" fill-opacity="1"/><path fill="none" stroke="rgb(0,0,0)" paint-order="fill stroke markers" d=" M 49.91762767710052 315.11731843575416 L 49.91762767710052 204.53631284916196" stroke-opacity="1" stroke-linecap="round" stroke-linejoin="round" stroke-miterlimit="10" stroke-width="6.5"/><path fill="rgb(0,0,0)" stroke="none" paint-order="stroke fill markers" fill-rule="evenodd" d=" M 49.91762767710052 165.53631284916196 L 59.66762767710052 204.53631284916196 L 40.16762767710052 204.53631284916196 Z" fill-opacity="1"/><text fill="rgb(0,0,0)" stroke="none" font-family="geogebra-sans-serif, sans-serif" font-size="32px" font-style="normal" font-weight="bold" text-decoration="normal" x="981" y="97" text-anchor="start" dominant-baseline="alphabetic" fill-opacity="1">Value (Lightness)</text><text fill="rgb(0,0,0)" stroke="none" font-family="geogebra-sans-serif, sans-serif" font-size="32px" font-style="normal" font-weight="normal" text-decoration="normal" x="980" y="151" text-anchor="start" dominant-baseline="alphabetic" fill-opacity="1">Chroma</text><g transform="scale(35,35) translate(1.6642857142857141,17.183357) rotate(-90,0,0) translate(-1.6642857142857141,-17.183357)"><g transform="translate(1.9976197142857142,17.183357)"><path fill="rgb(0,0,0)" stroke="none" paint-order="stroke fill markers" d=" M 0.652 -0.6940000000000001 L 0.379 0 L 0.28700000000000003 0 L 0.014 -0.6940000000000001 L 0.107 -0.6940000000000001 L 0.28 -0.246 Q 0.334 -0.10200000000000001 0.34 -0.07200000000000001 L 0.341 -0.07200000000000001 Q 0.35000000000000003 -0.12 0.441 -0.352 L 0.5740000000000001 -0.6940000000000001 L 0.652 -0.6940000000000001 Z"/></g><g transform="translate(2.636510714285714,17.183357)"><path fill="rgb(0,0,0)" stroke="none" paint-order="stroke fill markers" d=" M 0.399 -0.289 L 0.399 0 L 0.324 0 L 0.324 -0.036000000000000004 Q 0.263 0.011 0.158 0.011 Q 0.1 0.011 0.07200000000000001 -0.029500000000000002 Q 0.044 -0.07 0.044 -0.113 Q 0.044 -0.176 0.1225 -0.2095 Q 0.201 -0.243 0.321 -0.245 L 0.321 -0.28800000000000003 Q 0.321 -0.341 0.296 -0.3715 Q 0.271 -0.402 0.234 -0.402 Q 0.153 -0.402 0.083 -0.352 L 0.077 -0.418 Q 0.152 -0.461 0.234 -0.461 Q 0.304 -0.461 0.35150000000000003 -0.41250000000000003 Q 0.399 -0.364 0.399 -0.289 M 0.321 -0.132 L 0.321 -0.194 Q 0.116 -0.184 0.116 -0.115 Q 0.116 -0.085 0.14350000000000002 -0.0675 Q 0.171 -0.05 0.209 -0.05 Q 0.256 -0.05 0.28700000000000003 -0.069 Q 0.321 -0.088 0.321 -0.132 Z"/></g><g transform="translate(3.117067714285714,17.183357)"><path fill="rgb(0,0,0)" stroke="none" paint-order="stroke fill markers" d=" M 0.156 -0.6940000000000001 L 0.156 0 L 0.081 0 L 0.081 -0.6940000000000001 L 0.156 -0.6940000000000001 Z"/></g><g transform="translate(3.355957714285714,17.183357)"><path fill="rgb(0,0,0)" stroke="none" paint-order="stroke fill markers" d=" M 0.435 -0.444 L 0.435 0 L 0.36 0 L 0.36 -0.048 Q 0.293 0.011 0.187 0.011 Q 0.128 0.011 0.1045 -0.0195 Q 0.081 -0.05 0.081 -0.109 L 0.081 -0.444 L 0.159 -0.444 L 0.159 -0.113 Q 0.159 -0.076 0.17350000000000002 -0.06 Q 0.188 -0.044 0.23700000000000002 -0.044 Q 0.28800000000000003 -0.044 0.3225 -0.0725 Q 0.357 -0.101 0.357 -0.154 L 0.357 -0.444 L 0.435 -0.444 Z"/></g><g transform="translate(3.8726257142857143,17.183357)"><path fill="rgb(0,0,0)" stroke="none" paint-order="stroke fill markers" d=" M 0.41400000000000003 -0.219 L 0.105 -0.219 Q 0.107 -0.146 0.1495 -0.098 Q 0.192 -0.05 0.252 -0.05 Q 0.336 -0.05 0.404 -0.106 L 0.41000000000000003 -0.041 Q 0.338 0.011 0.251 0.011 Q 0.161 0.011 0.098 -0.058 Q 0.035 -0.127 0.035 -0.226 Q 0.035 -0.323 0.094 -0.392 Q 0.153 -0.461 0.23600000000000002 -0.461 Q 0.326 -0.461 0.374 -0.388 Q 0.41400000000000003 -0.326 0.41400000000000003 -0.219 M 0.11 -0.274 L 0.357 -0.274 Q 0.34800000000000003 -0.338 0.314 -0.369 Q 0.28 -0.4 0.23600000000000002 -0.4 Q 0.193 -0.4 0.1575 -0.365 Q 0.122 -0.33 0.11 -0.274 Z"/></g><g transform="translate(4.650405714285714,17.183357)"><path fill="rgb(0,0,0)" stroke="none" paint-order="stroke fill markers" d=" M 0.271 -0.75 L 0.332 -0.75 Q 0.244 -0.662 0.201 -0.541 Q 0.157 -0.41400000000000003 0.157 -0.25 Q 0.157 -0.158 0.1715 -0.078 Q 0.186 0.002 0.20400000000000001 0.051500000000000004 Q 0.222 0.101 0.2505 0.1465 Q 0.279 0.192 0.2945 0.21 Q 0.31 0.228 0.332 0.25 L 0.271 0.25 Q 0.079 0.074 0.079 -0.25 Q 0.079 -0.41000000000000003 0.126 -0.536 Q 0.14200000000000002 -0.579 0.162 -0.6155 Q 0.182 -0.652 0.20500000000000002 -0.6795 Q 0.228 -0.707 0.24 -0.7195 Q 0.252 -0.732 0.271 -0.75 Z"/></g><g transform="translate(5.039295714285714,17.183357)"><path fill="rgb(0,0,0)" stroke="none" paint-order="stroke fill markers" d=" M 0.183 -0.6940000000000001 L 0.183 -0.064 L 0.232 -0.064 Q 0.321 -0.064 0.499 -0.066 L 0.499 0 L 0.094 0 L 0.094 -0.6940000000000001 L 0.183 -0.6940000000000001 Z"/></g><g transform="translate(5.580964714285714,17.183357)"><path fill="rgb(0,0,0)" stroke="none" paint-order="stroke fill markers" d=" M 0.163 -0.68 L 0.163 -0.591 L 0.074 -0.591 L 0.074 -0.68 L 0.163 -0.68 M 0.156 -0.444 L 0.156 0 L 0.081 0 L 0.081 -0.444 L 0.156 -0.444 Z"/></g><g transform="translate(5.8198547142857135,17.183357)"><path fill="rgb(0,0,0)" stroke="none" paint-order="stroke fill markers" d=" M 0.352 -0.391 L 0.34800000000000003 -0.392 Q 0.381 -0.34700000000000003 0.381 -0.292 Q 0.381 -0.225 0.3345 -0.177 Q 0.28800000000000003 -0.129 0.221 -0.129 Q 0.171 -0.129 0.13 -0.158 Q 0.11900000000000001 -0.14400000000000002 0.11900000000000001 -0.122 Q 0.11900000000000001 -0.069 0.177 -0.069 L 0.265 -0.069 Q 0.28200000000000003 -0.069 0.2945 -0.068 Q 0.307 -0.067 0.335 -0.064 Q 0.363 -0.061 0.3835 -0.051500000000000004 Q 0.404 -0.042 0.4255 -0.028 Q 0.447 -0.014 0.459 0.0115 Q 0.47100000000000003 0.037 0.47100000000000003 0.07 Q 0.47100000000000003 0.127 0.40650000000000003 0.1665 Q 0.342 0.20600000000000002 0.249 0.20600000000000002 Q 0.157 0.20600000000000002 0.0925 0.1665 Q 0.028 0.127 0.028 0.07100000000000001 Q 0.028 0.006 0.092 -0.032 Q 0.066 -0.064 0.066 -0.108 Q 0.066 -0.152 0.095 -0.193 Q 0.062 -0.23600000000000002 0.062 -0.292 Q 0.062 -0.36 0.109 -0.40750000000000003 Q 0.156 -0.455 0.221 -0.455 Q 0.276 -0.455 0.316 -0.423 Q 0.39 -0.455 0.47400000000000003 -0.455 L 0.485 -0.392 L 0.47400000000000003 -0.393 Q 0.462 -0.394 0.448 -0.3945 Q 0.434 -0.395 0.426 -0.395 Q 0.41400000000000003 -0.395 0.3885 -0.393 Q 0.363 -0.391 0.352 -0.391 M 0.221 -0.186 Q 0.258 -0.186 0.28450000000000003 -0.212 Q 0.311 -0.23800000000000002 0.311 -0.292 Q 0.311 -0.34600000000000003 0.28450000000000003 -0.372 Q 0.258 -0.398 0.221 -0.398 Q 0.187 -0.398 0.1595 -0.373 Q 0.132 -0.34800000000000003 0.132 -0.292 Q 0.132 -0.23600000000000002 0.1595 -0.211 Q 0.187 -0.186 0.221 -0.186 M 0.266 0.003 L 0.176 0.003 Q 0.154 0.003 0.138 0.01 Q 0.122 0.017 0.1145 0.025500000000000002 Q 0.107 0.034 0.10300000000000001 0.046 Q 0.099 0.058 0.0985 0.0625 Q 0.098 0.067 0.098 0.07100000000000001 Q 0.098 0.105 0.14250000000000002 0.127 Q 0.187 0.149 0.25 0.149 Q 0.312 0.149 0.3565 0.127 Q 0.401 0.105 0.401 0.07200000000000001 Q 0.401 0.003 0.266 0.003 Z"/></g><g transform="translate(6.319856714285714,17.183357)"><path fill="rgb(0,0,0)" stroke="none" paint-order="stroke fill markers" d=" M 0.435 -0.298 L 0.435 0 L 0.357 0 L 0.357 -0.291 Q 0.357 -0.305 0.3565 -0.3145 Q 0.356 -0.324 0.35050000000000003 -0.3405 Q 0.34500000000000003 -0.357 0.3355 -0.3675 Q 0.326 -0.378 0.3065 -0.386 Q 0.28700000000000003 -0.394 0.26 -0.394 Q 0.20800000000000002 -0.394 0.1835 -0.34900000000000003 Q 0.159 -0.304 0.159 -0.245 L 0.159 0 L 0.081 0 L 0.081 -0.6940000000000001 L 0.156 -0.6940000000000001 L 0.156 -0.383 Q 0.212 -0.455 0.298 -0.455 Q 0.435 -0.455 0.435 -0.298 Z"/></g><g transform="translate(6.836524714285714,17.183357)"><path fill="rgb(0,0,0)" stroke="none" paint-order="stroke fill markers" d=" M 0.17500000000000002 -0.386 L 0.17500000000000002 -0.136 Q 0.17500000000000002 -0.053 0.226 -0.053 Q 0.275 -0.053 0.316 -0.08600000000000001 L 0.332 -0.027 Q 0.259 0.011 0.186 0.011 Q 0.10300000000000001 0.011 0.10300000000000001 -0.11900000000000001 L 0.10300000000000001 -0.386 L 0.019 -0.386 L 0.019 -0.444 L 0.106 -0.444 L 0.106 -0.5710000000000001 L 0.17500000000000002 -0.5710000000000001 L 0.17500000000000002 -0.444 L 0.316 -0.444 L 0.316 -0.386 L 0.17500000000000002 -0.386 Z"/></g><g transform="translate(7.197636714285714,17.183357)"><path fill="rgb(0,0,0)" stroke="none" paint-order="stroke fill markers" d=" M 0.435 -0.298 L 0.435 0 L 0.357 0 L 0.357 -0.291 Q 0.357 -0.305 0.3565 -0.3145 Q 0.356 -0.324 0.35050000000000003 -0.3405 Q 0.34500000000000003 -0.357 0.3355 -0.3675 Q 0.326 -0.378 0.3065 -0.386 Q 0.28700000000000003 -0.394 0.26 -0.394 Q 0.20800000000000002 -0.394 0.1835 -0.34900000000000003 Q 0.159 -0.304 0.159 -0.245 L 0.159 0 L 0.081 0 L 0.081 -0.45 L 0.153 -0.45 L 0.153 -0.379 Q 0.21 -0.455 0.298 -0.455 Q 0.435 -0.455 0.435 -0.298 Z"/></g><g transform="translate(7.714304714285714,17.183357)"><path fill="rgb(0,0,0)" stroke="none" paint-order="stroke fill markers" d=" M 0.41400000000000003 -0.219 L 0.105 -0.219 Q 0.107 -0.146 0.1495 -0.098 Q 0.192 -0.05 0.252 -0.05 Q 0.336 -0.05 0.404 -0.106 L 0.41000000000000003 -0.041 Q 0.338 0.011 0.251 0.011 Q 0.161 0.011 0.098 -0.058 Q 0.035 -0.127 0.035 -0.226 Q 0.035 -0.323 0.094 -0.392 Q 0.153 -0.461 0.23600000000000002 -0.461 Q 0.326 -0.461 0.374 -0.388 Q 0.41400000000000003 -0.326 0.41400000000000003 -0.219 M 0.11 -0.274 L 0.357 -0.274 Q 0.34800000000000003 -0.338 0.314 -0.369 Q 0.28 -0.4 0.23600000000000002 -0.4 Q 0.193 -0.4 0.1575 -0.365 Q 0.122 -0.33 0.11 -0.274 Z"/></g><g transform="translate(8.158750714285715,17.183357)"><path fill="rgb(0,0,0)" stroke="none" paint-order="stroke fill markers" d=" M 0.343 -0.429 L 0.331 -0.364 Q 0.267 -0.402 0.189 -0.402 Q 0.10400000000000001 -0.402 0.10400000000000001 -0.34 Q 0.10400000000000001 -0.326 0.11 -0.315 Q 0.116 -0.304 0.1235 -0.2975 Q 0.131 -0.291 0.1465 -0.28550000000000003 Q 0.162 -0.28 0.17300000000000001 -0.277 Q 0.184 -0.274 0.20500000000000002 -0.27 Q 0.248 -0.262 0.271 -0.253 Q 0.294 -0.244 0.321 -0.22 L 0.326 -0.214 Q 0.331 -0.209 0.336 -0.2015 Q 0.341 -0.194 0.34700000000000003 -0.1835 Q 0.353 -0.17300000000000001 0.3565 -0.158 Q 0.36 -0.14300000000000002 0.36 -0.128 Q 0.36 -0.058 0.312 -0.021 Q 0.269 0.011 0.196 0.011 Q 0.116 0.011 0.028 -0.033 L 0.04 -0.101 Q 0.114 -0.052000000000000005 0.195 -0.052000000000000005 Q 0.289 -0.052000000000000005 0.289 -0.121 Q 0.289 -0.136 0.28200000000000003 -0.148 Q 0.275 -0.16 0.2665 -0.167 Q 0.258 -0.17400000000000002 0.243 -0.18 Q 0.228 -0.186 0.219 -0.188 Q 0.21 -0.19 0.195 -0.193 Q 0.161 -0.2 0.148 -0.203 Q 0.135 -0.20600000000000002 0.11850000000000001 -0.2125 Q 0.10200000000000001 -0.219 0.08700000000000001 -0.23 Q 0.033 -0.271 0.033 -0.33 Q 0.033 -0.367 0.0485 -0.3935 Q 0.064 -0.42 0.0835 -0.4325 Q 0.10300000000000001 -0.445 0.1305 -0.452 Q 0.158 -0.459 0.171 -0.46 Q 0.184 -0.461 0.199 -0.461 Q 0.274 -0.461 0.343 -0.429 Z"/></g><g transform="translate(8.542084714285714,17.183357)"><path fill="rgb(0,0,0)" stroke="none" paint-order="stroke fill markers" d=" M 0.343 -0.429 L 0.331 -0.364 Q 0.267 -0.402 0.189 -0.402 Q 0.10400000000000001 -0.402 0.10400000000000001 -0.34 Q 0.10400000000000001 -0.326 0.11 -0.315 Q 0.116 -0.304 0.1235 -0.2975 Q 0.131 -0.291 0.1465 -0.28550000000000003 Q 0.162 -0.28 0.17300000000000001 -0.277 Q 0.184 -0.274 0.20500000000000002 -0.27 Q 0.248 -0.262 0.271 -0.253 Q 0.294 -0.244 0.321 -0.22 L 0.326 -0.214 Q 0.331 -0.209 0.336 -0.2015 Q 0.341 -0.194 0.34700000000000003 -0.1835 Q 0.353 -0.17300000000000001 0.3565 -0.158 Q 0.36 -0.14300000000000002 0.36 -0.128 Q 0.36 -0.058 0.312 -0.021 Q 0.269 0.011 0.196 0.011 Q 0.116 0.011 0.028 -0.033 L 0.04 -0.101 Q 0.114 -0.052000000000000005 0.195 -0.052000000000000005 Q 0.289 -0.052000000000000005 0.289 -0.121 Q 0.289 -0.136 0.28200000000000003 -0.148 Q 0.275 -0.16 0.2665 -0.167 Q 0.258 -0.17400000000000002 0.243 -0.18 Q 0.228 -0.186 0.219 -0.188 Q 0.21 -0.19 0.195 -0.193 Q 0.161 -0.2 0.148 -0.203 Q 0.135 -0.20600000000000002 0.11850000000000001 -0.2125 Q 0.10200000000000001 -0.219 0.08700000000000001 -0.23 Q 0.033 -0.271 0.033 -0.33 Q 0.033 -0.367 0.0485 -0.3935 Q 0.064 -0.42 0.0835 -0.4325 Q 0.10300000000000001 -0.445 0.1305 -0.452 Q 0.158 -0.459 0.171 -0.46 Q 0.184 -0.461 0.199 -0.461 Q 0.274 -0.461 0.343 -0.429 Z"/></g><g transform="translate(8.925418714285714,17.183357)"><path fill="rgb(0,0,0)" stroke="none" paint-order="stroke fill markers" d=" M 0.117 0.25 L 0.056 0.25 Q 0.14400000000000002 0.162 0.187 0.041 Q 0.231 -0.08600000000000001 0.231 -0.25 Q 0.231 -0.342 0.2165 -0.422 Q 0.202 -0.502 0.184 -0.5515 Q 0.166 -0.601 0.1375 -0.6465 Q 0.109 -0.6920000000000001 0.0935 -0.71 Q 0.078 -0.728 0.056 -0.75 L 0.117 -0.75 Q 0.309 -0.5740000000000001 0.309 -0.25 Q 0.309 -0.09 0.262 0.036000000000000004 Q 0.246 0.079 0.226 0.1155 Q 0.20600000000000002 0.152 0.183 0.1795 Q 0.16 0.20700000000000002 0.148 0.2195 Q 0.136 0.232 0.117 0.25 Z"/></g><g transform="translate(1.6642857142857141,17.183357) rotate(90,0,0) translate(-1.6642857142857141,-17.183357)"/></g><g transform="scale(35,35) translate(7.3428571428571425,19.26587357142857) rotate(0,0,0) translate(-7.3428571428571425,-19.26587357142857)"><g transform="translate(7.676191142857142,19.26587357142857)"><path fill="rgb(0,0,0)" stroke="none" paint-order="stroke fill markers" d=" M 0.577 -0.681 L 0.562 -0.6 Q 0.481 -0.652 0.393 -0.652 Q 0.291 -0.652 0.2235 -0.562 Q 0.156 -0.47200000000000003 0.156 -0.34700000000000003 Q 0.156 -0.225 0.222 -0.1335 Q 0.28800000000000003 -0.042 0.396 -0.042 Q 0.451 -0.042 0.4905 -0.054 Q 0.53 -0.066 0.582 -0.10300000000000001 L 0.588 -0.034 Q 0.534 -0.001 0.495 0.0105 Q 0.456 0.022 0.395 0.022 Q 0.253 0.022 0.16 -0.088 Q 0.067 -0.198 0.067 -0.34700000000000003 Q 0.067 -0.498 0.16 -0.607 Q 0.253 -0.716 0.394 -0.716 Q 0.485 -0.716 0.577 -0.681 Z"/></g><g transform="translate(8.315082142857142,19.26587357142857)"><path fill="rgb(0,0,0)" stroke="none" paint-order="stroke fill markers" d=" M 0.435 -0.298 L 0.435 0 L 0.357 0 L 0.357 -0.291 Q 0.357 -0.305 0.3565 -0.3145 Q 0.356 -0.324 0.35050000000000003 -0.3405 Q 0.34500000000000003 -0.357 0.3355 -0.3675 Q 0.326 -0.378 0.3065 -0.386 Q 0.28700000000000003 -0.394 0.26 -0.394 Q 0.20800000000000002 -0.394 0.1835 -0.34900000000000003 Q 0.159 -0.304 0.159 -0.245 L 0.159 0 L 0.081 0 L 0.081 -0.6940000000000001 L 0.156 -0.6940000000000001 L 0.156 -0.383 Q 0.212 -0.455 0.298 -0.455 Q 0.435 -0.455 0.435 -0.298 Z"/></g><g transform="translate(8.83175014285714,19.26587357142857)"><path fill="rgb(0,0,0)" stroke="none" paint-order="stroke fill markers" d=" M 0.157 -0.214 L 0.157 0 L 0.082 0 L 0.082 -0.45 L 0.152 -0.45 L 0.152 -0.359 Q 0.216 -0.454 0.327 -0.455 L 0.327 -0.388 Q 0.253 -0.386 0.20500000000000002 -0.3375 Q 0.157 -0.289 0.157 -0.214 Z"/></g><g transform="translate(9.17341914285714,19.26587357142857)"><path fill="rgb(0,0,0)" stroke="none" paint-order="stroke fill markers" d=" M 0.46900000000000003 -0.22 Q 0.46900000000000003 -0.123 0.4045 -0.056 Q 0.34 0.011 0.249 0.011 Q 0.16 0.011 0.095 -0.0555 Q 0.03 -0.122 0.03 -0.22 Q 0.03 -0.319 0.094 -0.39 Q 0.158 -0.461 0.25 -0.461 Q 0.34 -0.461 0.4045 -0.3905 Q 0.46900000000000003 -0.32 0.46900000000000003 -0.22 M 0.249 -0.053 Q 0.308 -0.053 0.34950000000000003 -0.0995 Q 0.391 -0.146 0.391 -0.23 Q 0.391 -0.313 0.34900000000000003 -0.3565 Q 0.307 -0.4 0.249 -0.4 Q 0.193 -0.4 0.1505 -0.357 Q 0.108 -0.314 0.108 -0.23 Q 0.108 -0.145 0.15 -0.099 Q 0.192 -0.053 0.249 -0.053 Z"/></g><g transform="translate(9.67342114285714,19.26587357142857)"><path fill="rgb(0,0,0)" stroke="none" paint-order="stroke fill markers" d=" M 0.713 -0.298 L 0.713 0 L 0.635 0 L 0.635 -0.291 Q 0.635 -0.31 0.6325000000000001 -0.324 Q 0.63 -0.338 0.6215 -0.356 Q 0.613 -0.374 0.5915 -0.384 Q 0.5700000000000001 -0.394 0.537 -0.394 Q 0.486 -0.394 0.461 -0.34900000000000003 Q 0.436 -0.304 0.436 -0.245 L 0.436 0 L 0.358 0 L 0.358 -0.291 Q 0.358 -0.31 0.3555 -0.324 Q 0.353 -0.338 0.34450000000000003 -0.356 Q 0.336 -0.374 0.3145 -0.384 Q 0.293 -0.394 0.26 -0.394 Q 0.209 -0.394 0.184 -0.34900000000000003 Q 0.159 -0.304 0.159 -0.245 L 0.159 0 L 0.081 0 L 0.081 -0.45 L 0.153 -0.45 L 0.153 -0.378 Q 0.211 -0.455 0.299 -0.455 Q 0.399 -0.455 0.427 -0.373 Q 0.483 -0.455 0.5760000000000001 -0.455 Q 0.713 -0.455 0.713 -0.298 Z"/></g><g transform="translate(10.46786814285714,19.26587357142857)"><path fill="rgb(0,0,0)" stroke="none" paint-order="stroke fill markers" d=" M 0.399 -0.289 L 0.399 0 L 0.324 0 L 0.324 -0.036000000000000004 Q 0.263 0.011 0.158 0.011 Q 0.1 0.011 0.07200000000000001 -0.029500000000000002 Q 0.044 -0.07 0.044 -0.113 Q 0.044 -0.176 0.1225 -0.2095 Q 0.201 -0.243 0.321 -0.245 L 0.321 -0.28800000000000003 Q 0.321 -0.341 0.296 -0.3715 Q 0.271 -0.402 0.234 -0.402 Q 0.153 -0.402 0.083 -0.352 L 0.077 -0.418 Q 0.152 -0.461 0.234 -0.461 Q 0.304 -0.461 0.35150000000000003 -0.41250000000000003 Q 0.399 -0.364 0.399 -0.289 M 0.321 -0.132 L 0.321 -0.194 Q 0.116 -0.184 0.116 -0.115 Q 0.116 -0.085 0.14350000000000002 -0.0675 Q 0.171 -0.05 0.209 -0.05 Q 0.256 -0.05 0.28700000000000003 -0.069 Q 0.321 -0.088 0.321 -0.132 Z"/></g><g transform="translate(7.3428571428571425,19.26587357142857) rotate(0,0,0) translate(-7.3428571428571425,-19.26587357142857)"/></g><text fill="rgb(0,0,0)" stroke="none" font-family="geogebra-sans-serif, sans-serif" font-size="32px" font-style="normal" font-weight="normal" text-decoration="normal" x="652" y="599" text-anchor="start" dominant-baseline="alphabetic" fill-opacity="1">7.5PB</text><text fill="rgb(0,0,0)" stroke="none" font-family="geogebra-sans-serif, sans-serif" font-size="22px" font-style="normal" font-weight="normal" text-decoration="normal" x="552" y="240" text-anchor="start" dominant-baseline="alphabetic" fill-opacity="1">2</text><text fill="rgb(0,0,0)" stroke="none" font-family="geogebra-sans-serif, sans-serif" font-size="22px" font-style="normal" font-weight="normal" text-decoration="normal" x="352" y="191" text-anchor="start" dominant-baseline="alphabetic" fill-opacity="1">1</text><text fill="rgb(0,0,0)" stroke="none" font-family="geogebra-sans-serif, sans-serif" font-size="22px" font-style="normal" font-weight="normal" text-decoration="normal" x="153" y="141" text-anchor="start" dominant-baseline="alphabetic" fill-opacity="1">0</text><text fill="rgb(0,0,0)" stroke="none" font-family="geogebra-sans-serif, sans-serif" font-size="22px" font-style="normal" font-weight="normal" text-decoration="normal" x="752" y="390" text-anchor="start" dominant-baseline="alphabetic" fill-opacity="1">4</text><text fill="rgb(0,0,0)" stroke="none" font-family="geogebra-sans-serif, sans-serif" font-size="22px" font-style="normal" font-weight="normal" text-decoration="normal" x="752" y="540" text-anchor="start" dominant-baseline="alphabetic" fill-opacity="1">8</text></g></g></svg>