<?xml version="1.0" encoding="UTF-8" standalone="no"?>
<!-- Created with Inkscape (http://www.inkscape.org/) -->
<svg
   xmlns:dc="http://purl.org/dc/elements/1.1/"
   xmlns:cc="http://creativecommons.org/ns#"
   xmlns:rdf="http://www.w3.org/1999/02/22-rdf-syntax-ns#"
   xmlns:svg="http://www.w3.org/2000/svg"
   xmlns="http://www.w3.org/2000/svg"
   xmlns:sodipodi="http://sodipodi.sourceforge.net/DTD/sodipodi-0.dtd"
   xmlns:inkscape="http://www.inkscape.org/namespaces/inkscape"
   width="893.05939"
   height="456.07669"
   id="svg2"
   sodipodi:version="0.32"
   inkscape:version="0.46"
   version="1.0"
   sodipodi:docname="RGBCube_c.svg"
   inkscape:output_extension="org.inkscape.output.svg.inkscape">
  <defs
     id="defs4">
    <inkscape:perspective
       sodipodi:type="inkscape:persp3d"
       inkscape:vp_x="0 : 526.18109 : 1"
       inkscape:vp_y="0 : 1000 : 0"
       inkscape:vp_z="744.09448 : 526.18109 : 1"
       inkscape:persp3d-origin="372.04724 : 350.78739 : 1"
       id="perspective10" />
    <inkscape:perspective
       id="perspective3024"
       inkscape:persp3d-origin="1184.5 : 789.66667 : 1"
       inkscape:vp_z="2369 : 1184.5 : 1"
       inkscape:vp_y="0 : 1000 : 0"
       inkscape:vp_x="0 : 1184.5 : 1"
       sodipodi:type="inkscape:persp3d" />
    <inkscape:perspective
       id="perspective3632"
       inkscape:persp3d-origin="200 : 122.33333 : 1"
       inkscape:vp_z="400 : 183.5 : 1"
       inkscape:vp_y="0 : 1000 : 0"
       inkscape:vp_x="0 : 183.5 : 1"
       sodipodi:type="inkscape:persp3d" />
  </defs>
  <sodipodi:namedview
     id="base"
     pagecolor="#ffffff"
     bordercolor="#666666"
     borderopacity="1.0"
     gridtolerance="10000"
     guidetolerance="10"
     objecttolerance="10"
     inkscape:pageopacity="0.0"
     inkscape:pageshadow="2"
     inkscape:zoom="0.35"
     inkscape:cx="783.00657"
     inkscape:cy="626.42305"
     inkscape:document-units="px"
     inkscape:current-layer="layer1"
     showgrid="false"
     inkscape:window-width="1024"
     inkscape:window-height="686"
     inkscape:window-x="-4"
     inkscape:window-y="-4" />
  <metadata
     id="metadata7">
    <rdf:RDF>
      <cc:Work
         rdf:about="">
        <dc:format>image/svg+xml</dc:format>
        <dc:type
           rdf:resource="http://purl.org/dc/dcmitype/StillImage" />
      </cc:Work>
    </rdf:RDF>
  </metadata>
  <g
     inkscape:label="Layer 1"
     inkscape:groupmode="layer"
     id="layer1"
     transform="translate(-156.15543,-298.14273)">
    <g
       style="stroke-width:1;stroke-linecap:square;stroke-linejoin:miter;stroke-miterlimit:10;stroke-dasharray:none;stroke-dashoffset:0"
       id="misc"
       transform="translate(-249.00823,286.18647)" />
    <g
       id="g3311"
       transform="translate(314.88503,-20.835869)">
      <g
         transform="translate(-249.00823,286.18647)"
         id="layer0"
         style="stroke-width:1;stroke-linecap:square;stroke-linejoin:miter;stroke-miterlimit:10;stroke-dasharray:none;stroke-dashoffset:0">
        <g
           id="g2749"
           transform="matrix(1.2528026,0,0,1.2528026,-46.353697,-116.51064)">
          <g
             id="g2751"
             style="fill:#00ff00;fill-opacity:1;fill-rule:nonzero;stroke:none">
            <path
               id="path2753"
               d="M 275.95312,224.625 L 275.95312,223.625 L 279.57812,223.60938 L 279.57812,226.79688 C 279.02604,227.24479 278.45312,227.58073 277.85938,227.80469 C 277.26562,228.02865 276.65625,228.14062 276.03125,228.14062 C 275.1875,228.14062 274.41927,227.96094 273.72656,227.60156 C 273.03385,227.24219 272.51302,226.72135 272.16406,226.03906 C 271.8151,225.35677 271.64062,224.59375 271.64062,223.75 C 271.64062,222.90625 271.8151,222.1224 272.16406,221.39844 C 272.51302,220.67448 273.01562,220.13802 273.67188,219.78906 C 274.32812,219.4401 275.08333,219.26562 275.9375,219.26562 C 276.5625,219.26562 277.125,219.36458 277.625,219.5625 C 278.125,219.76042 278.51823,220.03906 278.80469,220.39844 C 279.09115,220.75781 279.30729,221.22917 279.45312,221.8125 L 278.4375,222.09375 C 278.30208,221.65625 278.13802,221.3125 277.94531,221.0625 C 277.7526,220.8125 277.47917,220.61198 277.125,220.46094 C 276.77083,220.3099 276.38021,220.23438 275.95312,220.23438 C 275.43229,220.23438 274.98177,220.3125 274.60156,220.46875 C 274.22135,220.625 273.91406,220.83333 273.67969,221.09375 C 273.44531,221.35417 273.26562,221.64062 273.14062,221.95312 C 272.92188,222.48438 272.8125,223.05729 272.8125,223.67188 C 272.8125,224.44271 272.94531,225.08594 273.21094,225.60156 C 273.47656,226.11719 273.85938,226.5 274.35938,226.75 C 274.85938,227 275.39583,227.125 275.96875,227.125 C 276.45833,227.125 276.9375,227.02865 277.40625,226.83594 C 277.875,226.64323 278.22917,226.44271 278.46875,226.23438 L 278.46875,224.625 L 275.95312,224.625 z M 281.11523,228 L 281.11523,221.78125 L 282.06836,221.78125 L 282.06836,222.71875 C 282.30794,222.28125 282.5293,221.99219 282.73242,221.85156 C 282.93555,221.71094 283.16211,221.64062 283.41211,221.64062 C 283.76628,221.64062 284.12565,221.75 284.49023,221.96875 L 284.13086,222.95312 C 283.87044,222.79688 283.61523,222.71875 283.36523,222.71875 C 283.12565,222.71875 282.91471,222.78906 282.73242,222.92969 C 282.55013,223.07031 282.42253,223.26562 282.34961,223.51562 C 282.22461,223.89062 282.16211,224.29688 282.16211,224.73438 L 282.16211,228 L 281.11523,228 z M 289.37695,226 L 290.4707,226.125 C 290.30404,226.76042 289.98633,227.25521 289.51758,227.60938 C 289.04883,227.96354 288.45508,228.14062 287.73633,228.14062 C 286.83008,228.14062 286.10872,227.85938 285.57227,227.29688 C 285.03581,226.73438 284.76758,225.94792 284.76758,224.9375 C 284.76758,223.89583 285.03841,223.08594 285.58008,222.50781 C 286.12174,221.92969 286.81966,221.64062 287.67383,221.64062 C 288.50716,221.64062 289.18685,221.92188 289.71289,222.48438 C 290.23893,223.04688 290.50195,223.84375 290.50195,224.875 C 290.50195,224.9375 290.50195,225.03125 290.50195,225.15625 L 285.86133,225.15625 C 285.90299,225.84375 286.0957,226.36719 286.43945,226.72656 C 286.7832,227.08594 287.21549,227.26562 287.73633,227.26562 C 288.12174,227.26562 288.45247,227.16406 288.72852,226.96094 C 289.00456,226.75781 289.2207,226.4375 289.37695,226 z M 285.92383,224.29688 L 289.39258,224.29688 C 289.35091,223.76562 289.2207,223.36979 289.00195,223.10938 C 288.6582,222.70312 288.2207,222.5 287.68945,222.5 C 287.19987,222.5 286.79102,222.66146 286.46289,222.98438 C 286.13477,223.30729 285.95508,223.74479 285.92383,224.29688 z M 296.05078,226 L 297.14453,226.125 C 296.97786,226.76042 296.66016,227.25521 296.19141,227.60938 C 295.72266,227.96354 295.12891,228.14062 294.41016,228.14062 C 293.50391,228.14062 292.78255,227.85938 292.24609,227.29688 C 291.70964,226.73438 291.44141,225.94792 291.44141,224.9375 C 291.44141,223.89583 291.71224,223.08594 292.25391,222.50781 C 292.79557,221.92969 293.49349,221.64062 294.34766,221.64062 C 295.18099,221.64062 295.86068,221.92188 296.38672,222.48438 C 296.91276,223.04688 297.17578,223.84375 297.17578,224.875 C 297.17578,224.9375 297.17578,225.03125 297.17578,225.15625 L 292.53516,225.15625 C 292.57682,225.84375 292.76953,226.36719 293.11328,226.72656 C 293.45703,227.08594 293.88932,227.26562 294.41016,227.26562 C 294.79557,227.26562 295.1263,227.16406 295.40234,226.96094 C 295.67839,226.75781 295.89453,226.4375 296.05078,226 z M 292.59766,224.29688 L 296.06641,224.29688 C 296.02474,223.76562 295.89453,223.36979 295.67578,223.10938 C 295.33203,222.70312 294.89453,222.5 294.36328,222.5 C 293.8737,222.5 293.46484,222.66146 293.13672,222.98438 C 292.80859,223.30729 292.62891,223.74479 292.59766,224.29688 z M 298.47461,228 L 298.47461,221.78125 L 299.41211,221.78125 L 299.41211,222.65625 C 299.87044,221.97917 300.5319,221.64062 301.39648,221.64062 C 301.77148,221.64062 302.11784,221.70833 302.43555,221.84375 C 302.75326,221.97917 302.99023,222.15625 303.14648,222.375 C 303.30273,222.59375 303.41211,222.84896 303.47461,223.14062 C 303.50586,223.33854 303.52148,223.68229 303.52148,224.17188 L 303.52148,228 L 302.47461,228 L 302.47461,224.21875 C 302.47461,223.78125 302.43294,223.45833 302.34961,223.25 C 302.26628,223.04167 302.12044,222.8724 301.91211,222.74219 C 301.70378,222.61198 301.45898,222.54688 301.17773,222.54688 C 300.72982,222.54688 300.3418,222.6901 300.01367,222.97656 C 299.68555,223.26302 299.52148,223.80208 299.52148,224.59375 L 299.52148,228 L 298.47461,228 z M 314.0293,222.95312 L 308.35742,222.95312 L 308.35742,221.96875 L 314.0293,221.96875 L 314.0293,222.95312 z M 314.0293,225.5625 L 308.35742,225.5625 L 308.35742,224.57812 L 314.0293,224.57812 L 314.0293,225.5625 z M 318.52734,223.76562 C 318.52734,222.74479 318.63151,221.92448 318.83984,221.30469 C 319.04818,220.6849 319.35807,220.20833 319.76953,219.875 C 320.18099,219.54167 320.69922,219.375 321.32422,219.375 C 321.78255,219.375 322.1862,219.46875 322.53516,219.65625 C 322.88411,219.84375 323.17318,220.11198 323.40234,220.46094 C 323.63151,220.8099 323.80859,221.23438 323.93359,221.73438 C 324.05859,222.23438 324.12109,222.91146 324.12109,223.76562 C 324.12109,224.77604 324.01953,225.58854 323.81641,226.20312 C 323.61328,226.81771 323.30599,227.29427 322.89453,227.63281 C 322.48307,227.97135 321.95964,228.14062 321.32422,228.14062 C 320.5013,228.14062 319.85026,227.84375 319.37109,227.25 C 318.80859,226.54167 318.52734,225.38021 318.52734,223.76562 z M 319.60547,223.76562 C 319.60547,225.17188 319.77214,226.10938 320.10547,226.57812 C 320.4388,227.04688 320.84505,227.28125 321.32422,227.28125 C 321.8138,227.28125 322.22266,227.04688 322.55078,226.57812 C 322.87891,226.10938 323.04297,225.17188 323.04297,223.76562 C 323.04297,222.34896 322.87891,221.40885 322.55078,220.94531 C 322.22266,220.48177 321.80859,220.25 321.30859,220.25 C 320.82943,220.25 320.44401,220.45312 320.15234,220.85938 C 319.78776,221.38021 319.60547,222.34896 319.60547,223.76562 z M 325.79492,228 L 325.79492,226.79688 L 326.99805,226.79688 L 326.99805,228 L 325.79492,228 z M 331.91016,228 L 331.91016,225.9375 L 328.19141,225.9375 L 328.19141,224.96875 L 332.11328,219.40625 L 332.97266,219.40625 L 332.97266,224.96875 L 334.12891,224.96875 L 334.12891,225.9375 L 332.97266,225.9375 L 332.97266,228 L 331.91016,228 z M 331.91016,224.96875 L 331.91016,221.10938 L 329.22266,224.96875 L 331.91016,224.96875 z" />
          </g>
<!-- drawing style -->        </g>
<!-- transform -->        <g
           id="g2755"
           transform="matrix(1.2528026,0,0,1.2528026,-46.353697,-116.51064)">
          <g
             id="g2757"
             style="fill:#ff0000;fill-opacity:1;fill-rule:nonzero;stroke:none">
            <path
               id="path2759"
               d="M 411.9375,365 L 411.9375,356.40625 L 415.75,356.40625 C 416.52083,356.40625 417.10417,356.48438 417.5,356.64062 C 417.89583,356.79688 418.21354,357.07031 418.45312,357.46094 C 418.69271,357.85156 418.8125,358.28125 418.8125,358.75 C 418.8125,359.36458 418.61458,359.88021 418.21875,360.29688 C 417.82292,360.71354 417.21354,360.97917 416.39062,361.09375 C 416.69271,361.23958 416.92188,361.38021 417.07812,361.51562 C 417.41146,361.81771 417.72396,362.19792 418.01562,362.65625 L 419.51562,365 L 418.07812,365 L 416.95312,363.21875 C 416.61979,362.69792 416.34635,362.30208 416.13281,362.03125 C 415.91927,361.76042 415.72656,361.57031 415.55469,361.46094 C 415.38281,361.35156 415.20833,361.27083 415.03125,361.21875 C 414.90625,361.19792 414.69792,361.1875 414.40625,361.1875 L 413.07812,361.1875 L 413.07812,365 L 411.9375,365 z M 413.07812,360.20312 L 415.53125,360.20312 C 416.04167,360.20312 416.44531,360.14844 416.74219,360.03906 C 417.03906,359.92969 417.26302,359.75781 417.41406,359.52344 C 417.5651,359.28906 417.64062,359.03125 417.64062,358.75 C 417.64062,358.34375 417.49219,358.01042 417.19531,357.75 C 416.89844,357.48958 416.43229,357.35938 415.79688,357.35938 L 413.07812,357.35938 L 413.07812,360.20312 z M 424.71289,363 L 425.80664,363.125 C 425.63997,363.76042 425.32227,364.25521 424.85352,364.60938 C 424.38477,364.96354 423.79102,365.14062 423.07227,365.14062 C 422.16602,365.14062 421.44466,364.85938 420.9082,364.29688 C 420.37174,363.73438 420.10352,362.94792 420.10352,361.9375 C 420.10352,360.89583 420.37435,360.08594 420.91602,359.50781 C 421.45768,358.92969 422.1556,358.64062 423.00977,358.64062 C 423.8431,358.64062 424.52279,358.92188 425.04883,359.48438 C 425.57487,360.04688 425.83789,360.84375 425.83789,361.875 C 425.83789,361.9375 425.83789,362.03125 425.83789,362.15625 L 421.19727,362.15625 C 421.23893,362.84375 421.43164,363.36719 421.77539,363.72656 C 422.11914,364.08594 422.55143,364.26562 423.07227,364.26562 C 423.45768,364.26562 423.78841,364.16406 424.06445,363.96094 C 424.34049,363.75781 424.55664,363.4375 424.71289,363 z M 421.25977,361.29688 L 424.72852,361.29688 C 424.68685,360.76562 424.55664,360.36979 424.33789,360.10938 C 423.99414,359.70312 423.55664,359.5 423.02539,359.5 C 422.53581,359.5 422.12695,359.66146 421.79883,359.98438 C 421.4707,360.30729 421.29102,360.74479 421.25977,361.29688 z M 431.16797,365 L 431.16797,364.21875 C 430.77214,364.83333 430.19401,365.14062 429.43359,365.14062 C 428.93359,365.14062 428.47526,365.0026 428.05859,364.72656 C 427.64193,364.45052 427.31901,364.06771 427.08984,363.57812 C 426.86068,363.08854 426.74609,362.52604 426.74609,361.89062 C 426.74609,361.27604 426.85026,360.71354 427.05859,360.20312 C 427.26693,359.69271 427.57943,359.30469 427.99609,359.03906 C 428.41276,358.77344 428.8763,358.64062 429.38672,358.64062 C 429.76172,358.64062 430.09505,358.71875 430.38672,358.875 C 430.67839,359.03125 430.91797,359.23438 431.10547,359.48438 L 431.10547,356.40625 L 432.15234,356.40625 L 432.15234,365 L 431.16797,365 z M 427.83984,361.89062 C 427.83984,362.69271 428.00651,363.28906 428.33984,363.67969 C 428.67318,364.07031 429.06901,364.26562 429.52734,364.26562 C 429.98568,364.26562 430.3763,364.07812 430.69922,363.70312 C 431.02214,363.32812 431.18359,362.75521 431.18359,361.98438 C 431.18359,361.13021 431.01953,360.50521 430.69141,360.10938 C 430.36328,359.71354 429.95964,359.51562 429.48047,359.51562 C 429.01172,359.51562 428.62109,359.70573 428.30859,360.08594 C 427.99609,360.46615 427.83984,361.06771 427.83984,361.89062 z M 442.69141,359.95312 L 437.01953,359.95312 L 437.01953,358.96875 L 442.69141,358.96875 L 442.69141,359.95312 z M 442.69141,362.5625 L 437.01953,362.5625 L 437.01953,361.57812 L 442.69141,361.57812 L 442.69141,362.5625 z M 447.18945,360.76562 C 447.18945,359.74479 447.29362,358.92448 447.50195,358.30469 C 447.71029,357.6849 448.02018,357.20833 448.43164,356.875 C 448.8431,356.54167 449.36133,356.375 449.98633,356.375 C 450.44466,356.375 450.84831,356.46875 451.19727,356.65625 C 451.54622,356.84375 451.83529,357.11198 452.06445,357.46094 C 452.29362,357.8099 452.4707,358.23438 452.5957,358.73438 C 452.7207,359.23438 452.7832,359.91146 452.7832,360.76562 C 452.7832,361.77604 452.68164,362.58854 452.47852,363.20312 C 452.27539,363.81771 451.9681,364.29427 451.55664,364.63281 C 451.14518,364.97135 450.62174,365.14062 449.98633,365.14062 C 449.16341,365.14062 448.51237,364.84375 448.0332,364.25 C 447.4707,363.54167 447.18945,362.38021 447.18945,360.76562 z M 448.26758,360.76562 C 448.26758,362.17188 448.43424,363.10938 448.76758,363.57812 C 449.10091,364.04688 449.50716,364.28125 449.98633,364.28125 C 450.47591,364.28125 450.88477,364.04688 451.21289,363.57812 C 451.54102,363.10938 451.70508,362.17188 451.70508,360.76562 C 451.70508,359.34896 451.54102,358.40885 451.21289,357.94531 C 450.88477,357.48177 450.4707,357.25 449.9707,357.25 C 449.49154,357.25 449.10612,357.45312 448.81445,357.85938 C 448.44987,358.38021 448.26758,359.34896 448.26758,360.76562 z M 454.45703,365 L 454.45703,363.79688 L 455.66016,363.79688 L 455.66016,365 L 454.45703,365 z M 458.82227,360.34375 C 458.38477,360.17708 458.05924,359.94531 457.8457,359.64844 C 457.63216,359.35156 457.52539,359 457.52539,358.59375 C 457.52539,357.96875 457.75195,357.44271 458.20508,357.01562 C 458.6582,356.58854 459.25456,356.375 459.99414,356.375 C 460.74414,356.375 461.34831,356.59375 461.80664,357.03125 C 462.26497,357.46875 462.49414,358 462.49414,358.625 C 462.49414,359.02083 462.38997,359.36458 462.18164,359.65625 C 461.97331,359.94792 461.6556,360.17708 461.22852,360.34375 C 461.75977,360.51042 462.16081,360.78646 462.43164,361.17188 C 462.70247,361.55729 462.83789,362.01562 462.83789,362.54688 C 462.83789,363.27604 462.58008,363.89062 462.06445,364.39062 C 461.54883,364.89062 460.86393,365.14062 460.00977,365.14062 C 459.16602,365.14062 458.48372,364.89062 457.96289,364.39062 C 457.44206,363.89062 457.18164,363.26562 457.18164,362.51562 C 457.18164,361.95312 457.32487,361.48438 457.61133,361.10938 C 457.89779,360.73438 458.30143,360.47917 458.82227,360.34375 z M 458.60352,358.54688 C 458.60352,358.95312 458.73633,359.28646 459.00195,359.54688 C 459.26758,359.80729 459.60872,359.9375 460.02539,359.9375 C 460.43164,359.9375 460.76497,359.8099 461.02539,359.55469 C 461.28581,359.29948 461.41602,358.98438 461.41602,358.60938 C 461.41602,358.22396 461.2806,357.89844 461.00977,357.63281 C 460.73893,357.36719 460.4056,357.23438 460.00977,357.23438 C 459.60352,357.23438 459.26758,357.36458 459.00195,357.625 C 458.73633,357.88542 458.60352,358.19271 458.60352,358.54688 z M 458.27539,362.51562 C 458.27539,362.81771 458.3457,363.10938 458.48633,363.39062 C 458.62695,363.67188 458.83789,363.89062 459.11914,364.04688 C 459.40039,364.20312 459.70247,364.28125 460.02539,364.28125 C 460.52539,364.28125 460.93945,364.11979 461.26758,363.79688 C 461.5957,363.47396 461.75977,363.0625 461.75977,362.5625 C 461.75977,362.05208 461.5931,361.63021 461.25977,361.29688 C 460.92643,360.96354 460.50456,360.79688 459.99414,360.79688 C 459.49414,360.79688 459.08268,360.96094 458.75977,361.28906 C 458.43685,361.61719 458.27539,362.02604 458.27539,362.51562 z" />
          </g>
<!-- drawing style -->        </g>
<!-- transform -->        <g
           id="g2761"
           transform="matrix(1.2528026,0,0,1.2528026,-46.353697,-116.51064)">
          <g
             id="g2763"
             style="fill:#0000ff;fill-opacity:1;fill-rule:nonzero;stroke:none">
            <path
               id="path2765"
               d="M 185.875,357 L 185.875,348.40625 L 189.10938,348.40625 C 189.76562,348.40625 190.29167,348.49479 190.6875,348.67188 C 191.08333,348.84896 191.39323,349.11719 191.61719,349.47656 C 191.84115,349.83594 191.95312,350.21354 191.95312,350.60938 C 191.95312,350.97396 191.85417,351.31771 191.65625,351.64062 C 191.45833,351.96354 191.15625,352.22396 190.75,352.42188 C 191.27083,352.57812 191.66927,352.84115 191.94531,353.21094 C 192.22135,353.58073 192.35938,354.01562 192.35938,354.51562 C 192.35938,354.91146 192.27604,355.28385 192.10938,355.63281 C 191.94271,355.98177 191.73438,356.25 191.48438,356.4375 C 191.23438,356.625 190.91927,356.76562 190.53906,356.85938 C 190.15885,356.95312 189.69792,357 189.15625,357 L 185.875,357 z M 187.01562,352.01562 L 188.875,352.01562 C 189.375,352.01562 189.73438,351.98438 189.95312,351.92188 C 190.24479,351.83854 190.46354,351.69531 190.60938,351.49219 C 190.75521,351.28906 190.82812,351.03646 190.82812,350.73438 C 190.82812,350.45312 190.76042,350.20312 190.625,349.98438 C 190.48958,349.76562 190.29427,349.61719 190.03906,349.53906 C 189.78385,349.46094 189.34896,349.42188 188.73438,349.42188 L 187.01562,349.42188 L 187.01562,352.01562 z M 187.01562,355.98438 L 189.15625,355.98438 C 189.52083,355.98438 189.77604,355.96875 189.92188,355.9375 C 190.19271,355.89583 190.41406,355.82031 190.58594,355.71094 C 190.75781,355.60156 190.90104,355.44271 191.01562,355.23438 C 191.13021,355.02604 191.1875,354.78646 191.1875,354.51562 C 191.1875,354.19271 191.10677,353.91146 190.94531,353.67188 C 190.78385,353.43229 190.55729,353.26562 190.26562,353.17188 C 189.97396,353.07812 189.55208,353.03125 189,353.03125 L 187.01562,353.03125 L 187.01562,355.98438 z M 193.76953,357 L 193.76953,348.40625 L 194.83203,348.40625 L 194.83203,357 L 193.76953,357 z M 200.54492,357 L 200.54492,356.07812 C 200.05534,356.78646 199.39388,357.14062 198.56055,357.14062 C 198.19596,357.14062 197.85482,357.07031 197.53711,356.92969 C 197.2194,356.78906 196.98242,356.61198 196.82617,356.39844 C 196.66992,356.1849 196.56055,355.92188 196.49805,355.60938 C 196.45638,355.41146 196.43555,355.08333 196.43555,354.625 L 196.43555,350.78125 L 197.49805,350.78125 L 197.49805,354.23438 C 197.49805,354.77604 197.51888,355.14583 197.56055,355.34375 C 197.62305,355.61458 197.76107,355.83073 197.97461,355.99219 C 198.18815,356.15365 198.45638,356.23438 198.7793,356.23438 C 199.0918,356.23438 199.38607,356.15365 199.66211,355.99219 C 199.93815,355.83073 200.13607,355.60938 200.25586,355.32812 C 200.37565,355.04688 200.43555,354.64062 200.43555,354.10938 L 200.43555,350.78125 L 201.48242,350.78125 L 201.48242,357 L 200.54492,357 z M 207.39062,355 L 208.48438,355.125 C 208.31771,355.76042 208,356.25521 207.53125,356.60938 C 207.0625,356.96354 206.46875,357.14062 205.75,357.14062 C 204.84375,357.14062 204.1224,356.85938 203.58594,356.29688 C 203.04948,355.73438 202.78125,354.94792 202.78125,353.9375 C 202.78125,352.89583 203.05208,352.08594 203.59375,351.50781 C 204.13542,350.92969 204.83333,350.64062 205.6875,350.64062 C 206.52083,350.64062 207.20052,350.92188 207.72656,351.48438 C 208.2526,352.04688 208.51562,352.84375 208.51562,353.875 C 208.51562,353.9375 208.51562,354.03125 208.51562,354.15625 L 203.875,354.15625 C 203.91667,354.84375 204.10938,355.36719 204.45312,355.72656 C 204.79688,356.08594 205.22917,356.26562 205.75,356.26562 C 206.13542,356.26562 206.46615,356.16406 206.74219,355.96094 C 207.01823,355.75781 207.23438,355.4375 207.39062,355 z M 203.9375,353.29688 L 207.40625,353.29688 C 207.36458,352.76562 207.23438,352.36979 207.01562,352.10938 C 206.67188,351.70312 206.23438,351.5 205.70312,351.5 C 205.21354,351.5 204.80469,351.66146 204.47656,351.98438 C 204.14844,352.30729 203.96875,352.74479 203.9375,353.29688 z M 218.69531,351.95312 L 213.02344,351.95312 L 213.02344,350.96875 L 218.69531,350.96875 L 218.69531,351.95312 z M 218.69531,354.5625 L 213.02344,354.5625 L 213.02344,353.57812 L 218.69531,353.57812 L 218.69531,354.5625 z M 223.19336,352.76562 C 223.19336,351.74479 223.29753,350.92448 223.50586,350.30469 C 223.71419,349.6849 224.02409,349.20833 224.43555,348.875 C 224.84701,348.54167 225.36523,348.375 225.99023,348.375 C 226.44857,348.375 226.85221,348.46875 227.20117,348.65625 C 227.55013,348.84375 227.83919,349.11198 228.06836,349.46094 C 228.29753,349.8099 228.47461,350.23438 228.59961,350.73438 C 228.72461,351.23438 228.78711,351.91146 228.78711,352.76562 C 228.78711,353.77604 228.68555,354.58854 228.48242,355.20312 C 228.2793,355.81771 227.97201,356.29427 227.56055,356.63281 C 227.14909,356.97135 226.62565,357.14062 225.99023,357.14062 C 225.16732,357.14062 224.51628,356.84375 224.03711,356.25 C 223.47461,355.54167 223.19336,354.38021 223.19336,352.76562 z M 224.27148,352.76562 C 224.27148,354.17188 224.43815,355.10938 224.77148,355.57812 C 225.10482,356.04688 225.51107,356.28125 225.99023,356.28125 C 226.47982,356.28125 226.88867,356.04688 227.2168,355.57812 C 227.54492,355.10938 227.70898,354.17188 227.70898,352.76562 C 227.70898,351.34896 227.54492,350.40885 227.2168,349.94531 C 226.88867,349.48177 226.47461,349.25 225.97461,349.25 C 225.49544,349.25 225.11003,349.45312 224.81836,349.85938 C 224.45378,350.38021 224.27148,351.34896 224.27148,352.76562 z M 230.46094,357 L 230.46094,355.79688 L 231.66406,355.79688 L 231.66406,357 L 230.46094,357 z M 238.66992,350.51562 L 237.62305,350.59375 C 237.5293,350.17708 237.39909,349.875 237.23242,349.6875 C 236.94076,349.38542 236.58659,349.23438 236.16992,349.23438 C 235.83659,349.23438 235.53971,349.32812 235.2793,349.51562 C 234.95638,349.76562 234.69857,350.1224 234.50586,350.58594 C 234.31315,351.04948 234.21159,351.70833 234.20117,352.5625 C 234.45117,352.17708 234.76107,351.89062 235.13086,351.70312 C 235.50065,351.51562 235.88867,351.42188 236.29492,351.42188 C 236.99284,351.42188 237.58919,351.68229 238.08398,352.20312 C 238.57878,352.72396 238.82617,353.39062 238.82617,354.20312 C 238.82617,354.74479 238.70898,355.2474 238.47461,355.71094 C 238.24023,356.17448 237.91992,356.52865 237.51367,356.77344 C 237.10742,357.01823 236.64909,357.14062 236.13867,357.14062 C 235.25326,357.14062 234.53451,356.81771 233.98242,356.17188 C 233.43034,355.52604 233.1543,354.46354 233.1543,352.98438 C 233.1543,351.31771 233.46159,350.10938 234.07617,349.35938 C 234.60742,348.70312 235.32617,348.375 236.23242,348.375 C 236.90951,348.375 237.46419,348.5651 237.89648,348.94531 C 238.32878,349.32552 238.58659,349.84896 238.66992,350.51562 z M 234.37305,354.21875 C 234.37305,354.58333 234.44857,354.92969 234.59961,355.25781 C 234.75065,355.58594 234.96419,355.83854 235.24023,356.01562 C 235.51628,356.19271 235.81055,356.28125 236.12305,356.28125 C 236.56055,356.28125 236.94076,356.10156 237.26367,355.74219 C 237.58659,355.38281 237.74805,354.89583 237.74805,354.28125 C 237.74805,353.6875 237.58919,353.21875 237.27148,352.875 C 236.95378,352.53125 236.55534,352.35938 236.07617,352.35938 C 235.59701,352.35938 235.19336,352.53125 234.86523,352.875 C 234.53711,353.21875 234.37305,353.66667 234.37305,354.21875 z" />
          </g>
<!-- drawing style -->        </g>
<!-- transform -->        <g
           id="g2767"
           transform="matrix(1.2528026,0,0,1.2528026,-46.353697,-116.51064)">
          <g
             id="g2769"
             style="fill:#cc6699;fill-opacity:0.49803922;fill-rule:nonzero;stroke:none">
            <path
               id="path2771"
               d="M 176.85971,293.09912 L 264.12366,241.10056 L 402.7865,299.27652 L 315.52255,351.27509 L 176.85971,293.09912 z" />
          </g>
<!-- drawing style -->        </g>
<!-- transform -->        <g
           id="g2773"
           transform="matrix(1.2528026,0,0,1.2528026,-46.353697,-116.51064)">
          <g
             id="g2775"
             style="fill:#cc6699;fill-opacity:0.49803922;fill-rule:nonzero;stroke:none">
            <path
               id="path2777"
               d="M 176.85971,293.09912 L 176.85971,371.47937 L 315.52255,429.65533 L 315.52255,351.27509 L 176.85971,293.09912 z" />
          </g>
<!-- drawing style -->        </g>
<!-- transform -->        <g
           id="g2779"
           transform="matrix(1.2528026,0,0,1.2528026,-46.353697,-116.51064)">
          <g
             id="g2781"
             style="fill:#cc6699;fill-opacity:0.49803922;fill-rule:nonzero;stroke:none">
            <path
               id="path2783"
               d="M 315.52255,429.65533 L 402.7865,377.6568 L 402.7865,299.27652 L 315.52255,351.27509 L 315.52255,429.65533 z" />
          </g>
<!-- drawing style -->        </g>
<!-- transform --><!-- transform -->        <g
           id="g2791"
           transform="matrix(1.2528026,0,0,1.2528026,-46.353697,-116.51064)">
<!-- drawing style -->        </g>
<!-- transform --><!-- transform --><!-- transform --><!-- transform --><!-- transform --><!-- transform --><!-- transform --><!-- transform --><!-- transform --><!-- transform --><!-- transform -->        <g
           id="g2857"
           transform="matrix(1.2528026,0,0,1.2528026,-46.353697,-116.51064)">
          <g
             id="g2859"
             style="fill:none;stroke:#cc6699;stroke-linecap:round;stroke-linejoin:round;stroke-opacity:1">
            <path
               id="path2861"
               d="M 176.85971,293.09912 L 264.12366,241.10056" />
          </g>
<!-- drawing style -->        </g>
<!-- transform -->        <g
           id="g2863"
           transform="matrix(1.2528026,0,0,1.2528026,-46.353697,-116.51064)">
          <g
             id="g2865"
             style="fill:none;stroke:#cc6699;stroke-linecap:round;stroke-linejoin:round;stroke-opacity:1">
            <path
               id="path2867"
               d="M 264.12366,241.10056 L 402.7865,299.27652" />
          </g>
<!-- drawing style -->        </g>
<!-- transform -->        <g
           id="g2869"
           transform="matrix(1.2528026,0,0,1.2528026,-46.353697,-116.51064)">
          <g
             id="g2871"
             style="fill:none;stroke:#cc6699;stroke-linecap:round;stroke-linejoin:round;stroke-opacity:1">
            <path
               id="path2873"
               d="M 176.85971,293.09912 L 315.52255,351.27509" />
          </g>
<!-- drawing style -->        </g>
<!-- transform -->        <g
           id="g2875"
           transform="matrix(1.2528026,0,0,1.2528026,-46.353697,-116.51064)">
          <g
             id="g2877"
             style="fill:none;stroke:#cc6699;stroke-linecap:round;stroke-linejoin:round;stroke-opacity:1">
            <path
               id="path2879"
               d="M 176.85971,293.09912 L 176.85971,371.47937" />
          </g>
<!-- drawing style -->        </g>
<!-- transform -->        <g
           id="g2881"
           transform="matrix(1.2528026,0,0,1.2528026,-46.353697,-116.51064)">
          <g
             id="g2883"
             style="fill:none;stroke:#cc6699;stroke-linecap:round;stroke-linejoin:round;stroke-opacity:1">
            <path
               id="path2885"
               d="M 176.85971,371.47937 L 315.52255,429.65533" />
          </g>
<!-- drawing style -->        </g>
<!-- transform -->        <g
           id="g2887"
           transform="matrix(1.2528026,0,0,1.2528026,-46.353697,-116.51064)">
          <g
             id="g2889"
             style="fill:none;stroke:#cc6699;stroke-linecap:round;stroke-linejoin:round;stroke-opacity:1">
            <path
               id="path2891"
               d="M 315.52255,429.65533 L 402.7865,377.6568" />
          </g>
<!-- drawing style -->        </g>
<!-- transform -->        <g
           id="g2893"
           transform="matrix(1.2528026,0,0,1.2528026,-46.353697,-116.51064)">
          <g
             id="g2895"
             style="fill:none;stroke:#cc6699;stroke-linecap:round;stroke-linejoin:round;stroke-opacity:1">
            <path
               id="path2897"
               d="M 315.52255,429.65533 L 315.52255,351.27509" />
          </g>
<!-- drawing style -->        </g>
<!-- transform -->        <g
           id="g2899"
           transform="matrix(1.2528026,0,0,1.2528026,-46.353697,-116.51064)">
          <g
             id="g2901"
             style="fill:none;stroke:#cc6699;stroke-linecap:round;stroke-linejoin:round;stroke-opacity:1">
            <path
               id="path2903"
               d="M 315.52255,351.27509 L 402.7865,299.27652" />
          </g>
<!-- drawing style -->        </g>
<!-- transform -->        <g
           id="g2905"
           transform="matrix(1.2528026,0,0,1.2528026,-46.353697,-116.51064)">
          <g
             id="g2907"
             style="fill:none;stroke:#cc6699;stroke-linecap:round;stroke-linejoin:round;stroke-opacity:1">
            <path
               id="path2909"
               d="M 402.7865,299.27652 L 402.7865,377.6568" />
          </g>
<!-- drawing style -->        </g>
<!-- transform -->        <g
           id="g2911"
           transform="matrix(1.2528026,0,0,1.2528026,-46.353697,-116.51064)">
          <g
             id="g2913"
             style="fill:none;stroke:#999999;stroke-linecap:butt;stroke-linejoin:round;stroke-dasharray:5, 4;stroke-opacity:1">
            <path
               id="path2915"
               d="M 118.68374,210.19441 L 292.0123,282.91437" />
          </g>
<!-- drawing style -->        </g>
<!-- transform -->        <g
           id="g2917"
           transform="matrix(1.2528026,0,0,1.2528026,-46.353697,-116.51064)">
          <g
             id="g2919"
             style="fill:none;stroke:#999999;stroke-linecap:butt;stroke-linejoin:round;stroke-dasharray:5, 4;stroke-opacity:1">
            <path
               id="path2921"
               d="M 118.68374,210.19441 L 264.12366,123.53014" />
          </g>
<!-- drawing style -->        </g>
<!-- transform -->        <g
           id="g2923"
           transform="matrix(1.2528026,0,0,1.2528026,-46.353697,-116.51064)">
          <g
             id="g2925"
             style="fill:none;stroke:#999999;stroke-linecap:butt;stroke-linejoin:round;stroke-dasharray:5, 4;stroke-opacity:1">
            <path
               id="path2927"
               d="M 264.12366,123.53014 L 437.45221,196.25011" />
          </g>
<!-- drawing style -->        </g>
<!-- transform -->        <g
           id="g2929"
           transform="matrix(1.2528026,0,0,1.2528026,-46.353697,-116.51064)">
          <g
             id="g2931"
             style="fill:none;stroke:#999999;stroke-linecap:butt;stroke-linejoin:round;stroke-dasharray:5, 4;stroke-opacity:1">
            <path
               id="path2933"
               d="M 292.0123,282.91437 L 437.45221,196.25011" />
          </g>
<!-- drawing style -->        </g>
<!-- transform -->        <g
           id="g2935"
           transform="matrix(1.2528026,0,0,1.2528026,-46.353697,-116.51064)">
          <g
             id="g2937"
             style="fill:none;stroke:#999999;stroke-linecap:butt;stroke-linejoin:round;stroke-dasharray:5, 4;stroke-opacity:1">
            <path
               id="path2939"
               d="M 437.45221,196.25011 L 437.45221,392.20078" />
          </g>
<!-- drawing style -->        </g>
<!-- transform -->        <g
           id="g2941"
           transform="matrix(1.2528026,0,0,1.2528026,-46.353697,-116.51064)">
          <g
             id="g2943"
             style="fill:none;stroke:#999999;stroke-linecap:butt;stroke-linejoin:round;stroke-dasharray:5, 4;stroke-opacity:1">
            <path
               id="path2945"
               d="M 292.0123,282.91437 L 292.0123,478.86505" />
          </g>
<!-- drawing style -->        </g>
<!-- transform -->        <g
           id="g2947"
           transform="matrix(1.2528026,0,0,1.2528026,-46.353697,-116.51064)">
          <g
             id="g2949"
             style="fill:none;stroke:#999999;stroke-linecap:butt;stroke-linejoin:round;stroke-dasharray:5, 4;stroke-opacity:1">
            <path
               id="path2951"
               d="M 292.0123,478.86505 L 118.68374,406.14508" />
          </g>
<!-- drawing style -->        </g>
<!-- transform -->        <g
           id="g2953"
           transform="matrix(1.2528026,0,0,1.2528026,-46.353697,-116.51064)">
          <g
             id="g2955"
             style="fill:none;stroke:#999999;stroke-linecap:butt;stroke-linejoin:round;stroke-dasharray:5, 4;stroke-opacity:1">
            <path
               id="path2957"
               d="M 118.68374,406.14508 L 118.68374,210.19441" />
          </g>
<!-- drawing style -->        </g>
<!-- transform -->        <g
           id="g2959"
           transform="matrix(1.2528026,0,0,1.2528026,-46.353697,-116.51064)">
          <g
             id="g2961"
             style="fill:none;stroke:#999999;stroke-linecap:butt;stroke-linejoin:round;stroke-dasharray:5, 4;stroke-opacity:1">
            <path
               id="path2963"
               d="M 292.0123,478.86505 L 437.45221,392.20078" />
          </g>
<!-- drawing style -->        </g>
<!-- transform -->        <g
           id="g2965"
           transform="matrix(1.2528026,0,0,1.2528026,-46.353697,-116.51064)">
          <g
             id="g2967"
             style="fill:none;stroke:#999999;stroke-linecap:butt;stroke-linejoin:round;stroke-dasharray:5, 4;stroke-opacity:1">
            <path
               id="path2969"
               d="M 437.45221,392.20078 L 264.12366,319.4808" />
          </g>
<!-- drawing style -->        </g>
<!-- transform -->        <g
           id="g2971"
           transform="matrix(1.2528026,0,0,1.2528026,-46.353697,-116.51064)">
          <g
             id="g2973"
             style="fill:none;stroke:#999999;stroke-linecap:butt;stroke-linejoin:round;stroke-dasharray:5, 4;stroke-opacity:1">
            <path
               id="path2975"
               d="M 118.68374,406.14508 L 264.12366,319.4808" />
          </g>
<!-- drawing style -->        </g>
<!-- transform -->        <g
           id="g2977"
           transform="matrix(1.2528026,0,0,1.2528026,-46.353697,-116.51064)">
          <g
             id="g2979"
             style="fill:none;stroke:#999999;stroke-linecap:butt;stroke-linejoin:round;stroke-dasharray:5, 4;stroke-opacity:1">
            <path
               id="path2981"
               d="M 264.12366,123.53014 L 264.12366,319.4808" />
          </g>
<!-- drawing style -->        </g>
<!-- transform -->        <g
           id="g2983"
           transform="matrix(1.2528026,0,0,1.2528026,-46.353697,-116.51064)">
          <g
             id="g2985"
             style="fill:none;stroke:#0000ff;stroke-linecap:round;stroke-linejoin:round;stroke-opacity:1">
            <path
               id="path2987"
               d="M 264.12366,319.4808 L 188.88643,364.31293" />
          </g>
<!-- drawing style -->        </g>
<!-- transform -->        <g
           id="g2989"
           transform="matrix(1.2528026,0,0,1.2528026,-46.353697,-116.51064)">
          <g
             id="g2991"
             style="fill:#0000ff;fill-opacity:1;fill-rule:nonzero;stroke:none">
            <path
               id="path2993"
               d="M 176.85971,371.47937 L 187.09482,361.30624 L 190.67804,367.31961 L 176.85971,371.47937 z" />
          </g>
<!-- drawing style -->        </g>
<!-- transform -->        <g
           id="g2995"
           transform="matrix(1.2528026,0,0,1.2528026,-46.353697,-116.51064)">
          <g
             id="g2997"
             style="fill:none;stroke:#ff0000;stroke-linecap:round;stroke-linejoin:round;stroke-opacity:1">
            <path
               id="path2999"
               d="M 264.12366,319.4808 L 389.87668,372.24048" />
          </g>
<!-- drawing style -->        </g>
<!-- transform -->        <g
           id="g3001"
           transform="matrix(1.2528026,0,0,1.2528026,-46.353697,-116.51064)">
          <g
             id="g3003"
             style="fill:#ff0000;fill-opacity:1;fill-rule:nonzero;stroke:none">
            <path
               id="path3005"
               d="M 402.7865,377.6568 L 388.52258,375.46793 L 391.23074,369.013 L 402.7865,377.6568 z" />
          </g>
<!-- drawing style -->        </g>
<!-- transform -->        <g
           id="g3007"
           transform="matrix(1.2528026,0,0,1.2528026,-46.353697,-116.51064)">
          <g
             id="g3009"
             style="fill:none;stroke:#00ff00;stroke-linecap:round;stroke-linejoin:round;stroke-opacity:1">
            <path
               id="path3011"
               d="M 264.12366,319.4808 L 264.12366,255.10056" />
          </g>
<!-- drawing style -->        </g>
<!-- transform -->        <g
           id="g3013"
           transform="matrix(1.2528026,0,0,1.2528026,-46.353697,-116.51064)">
          <g
             id="g3015"
             style="fill:#00ff00;fill-opacity:1;fill-rule:nonzero;stroke:none">
            <path
               id="path3017"
               d="M 264.12366,241.10056 L 267.62366,255.10056 L 260.62366,255.10056 L 264.12366,241.10056 z" />
          </g>
<!-- drawing style -->        </g>
<!-- transform -->      </g>
    </g>
    <g
       id="g3635"
       transform="matrix(2,0,0,2,800.61868,496.03823)">
      <g
         id="g3541"
         transform="matrix(-50,-86.60254,86.60254,-50,11.691343,28.592801)">
        <path
           id="path10"
           style="fill:#ff0000;stroke:#000000;stroke-width:0.005"
           d="M -0.866,0.5 L -0.866,0.3 L -0.693,0.4 L -0.693,0.6 L -0.866,0.5 z" />
        <path
           id="path12"
           style="fill:#ff4000;stroke:#000000;stroke-width:0.005"
           d="M -0.693,0.6 L -0.693,0.4 L -0.52,0.5 L -0.52,0.7 L -0.693,0.6 z" />
        <path
           id="path14"
           style="fill:#ff8000;stroke:#000000;stroke-width:0.005"
           d="M -0.52,0.7 L -0.52,0.5 L -0.346,0.6 L -0.346,0.8 L -0.52,0.7 z" />
        <path
           id="path16"
           style="fill:#ffc000;stroke:#000000;stroke-width:0.005"
           d="M -0.346,0.8 L -0.346,0.6 L -0.173,0.7 L -0.173,0.9 L -0.346,0.8 z" />
        <path
           id="path18"
           style="fill:#ffff00;stroke:#000000;stroke-width:0.005"
           d="M -0.173,0.9 L -0.173,0.7 L 0,0.8 L 0,1 L -0.173,0.9 z" />
        <path
           id="path20"
           style="fill:#ffff00;stroke:#000000;stroke-width:0.005"
           d="M 0,1 L 0,0.8 L 0.173,0.7 L 0.173,0.9 L 0,1 z" />
        <path
           id="path22"
           style="fill:#c0ff00;stroke:#000000;stroke-width:0.005"
           d="M 0.173,0.9 L 0.173,0.7 L 0.346,0.6 L 0.346,0.8 L 0.173,0.9 z" />
        <path
           id="path24"
           style="fill:#80ff00;stroke:#000000;stroke-width:0.005"
           d="M 0.346,0.8 L 0.346,0.6 L 0.52,0.5 L 0.52,0.7 L 0.346,0.8 z" />
        <path
           id="path26"
           style="fill:#40ff00;stroke:#000000;stroke-width:0.005"
           d="M 0.52,0.7 L 0.52,0.5 L 0.693,0.4 L 0.693,0.6 L 0.52,0.7 z" />
        <path
           id="path28"
           style="fill:#00ff00;stroke:#000000;stroke-width:0.005"
           d="M 0.693,0.6 L 0.693,0.4 L 0.866,0.3 L 0.866,0.5 L 0.693,0.6 z" />
        <path
           id="path30"
           style="fill:#00ff40;stroke:#000000;stroke-width:0.005"
           d="M 0.693,0.4 L 0.693,0.2 L 0.866,0.1 L 0.866,0.3 L 0.693,0.4 z" />
        <path
           id="path32"
           style="fill:#00ff80;stroke:#000000;stroke-width:0.005"
           d="M 0.693,0.2 L 0.693,0 L 0.866,-0.1 L 0.866,0.1 L 0.693,0.2 z" />
        <path
           id="path34"
           style="fill:#00ffc0;stroke:#000000;stroke-width:0.005"
           d="M 0.693,0 L 0.693,-0.2 L 0.866,-0.3 L 0.866,-0.1 L 0.693,0 z" />
        <path
           id="path36"
           style="fill:#00ffff;stroke:#000000;stroke-width:0.005"
           d="M 0.693,-0.2 L 0.693,-0.4 L 0.866,-0.5 L 0.866,-0.3 L 0.693,-0.2 z" />
        <path
           id="path38"
           style="fill:#00ffff;stroke:#000000;stroke-width:0.005"
           d="M 0.693,-0.4 L 0.52,-0.5 L 0.693,-0.6 L 0.866,-0.5 L 0.693,-0.4 z" />
        <path
           id="path40"
           style="fill:#00c0ff;stroke:#000000;stroke-width:0.005"
           d="M 0.52,-0.5 L 0.346,-0.6 L 0.52,-0.7 L 0.693,-0.6 L 0.52,-0.5 z" />
        <path
           id="path42"
           style="fill:#0080ff;stroke:#000000;stroke-width:0.005"
           d="M 0.346,-0.6 L 0.173,-0.7 L 0.346,-0.8 L 0.52,-0.7 L 0.346,-0.6 z" />
        <path
           id="path44"
           style="fill:#0040ff;stroke:#000000;stroke-width:0.005"
           d="M 0.173,-0.7 L 0,-0.8 L 0.173,-0.9 L 0.346,-0.8 L 0.173,-0.7 z" />
        <path
           id="path46"
           style="fill:#0000ff;stroke:#000000;stroke-width:0.005"
           d="M 0,-0.8 L -0.173,-0.9 L 0,-1 L 0.173,-0.9 L 0,-0.8 z" />
        <path
           id="path48"
           style="fill:#4000ff;stroke:#000000;stroke-width:0.005"
           d="M -0.173,-0.7 L -0.346,-0.8 L -0.173,-0.9 L 0,-0.8 L -0.173,-0.7 z" />
        <path
           id="path50"
           style="fill:#8000ff;stroke:#000000;stroke-width:0.005"
           d="M -0.346,-0.6 L -0.52,-0.7 L -0.346,-0.8 L -0.173,-0.7 L -0.346,-0.6 z" />
        <path
           id="path52"
           style="fill:#c000ff;stroke:#000000;stroke-width:0.005"
           d="M -0.52,-0.5 L -0.693,-0.6 L -0.52,-0.7 L -0.346,-0.6 L -0.52,-0.5 z" />
        <path
           id="path54"
           style="fill:#ff00ff;stroke:#000000;stroke-width:0.005"
           d="M -0.693,-0.4 L -0.866,-0.5 L -0.693,-0.6 L -0.52,-0.5 L -0.693,-0.4 z" />
        <path
           id="path56"
           style="fill:#ff00ff;stroke:#000000;stroke-width:0.005"
           d="M -0.693,-0.2 L -0.866,-0.3 L -0.866,-0.5 L -0.693,-0.4 L -0.693,-0.2 z" />
        <path
           id="path58"
           style="fill:#ff00c0;stroke:#000000;stroke-width:0.005"
           d="M -0.693,0 L -0.866,-0.1 L -0.866,-0.3 L -0.693,-0.2 L -0.693,0 z" />
        <path
           id="path60"
           style="fill:#ff0080;stroke:#000000;stroke-width:0.005"
           d="M -0.693,0.2 L -0.866,0.1 L -0.866,-0.1 L -0.693,0 L -0.693,0.2 z" />
        <path
           id="path62"
           style="fill:#ff0040;stroke:#000000;stroke-width:0.005"
           d="M -0.693,0.4 L -0.866,0.3 L -0.866,0.1 L -0.693,0.2 L -0.693,0.4 z" />
        <path
           id="path64"
           style="fill:#ff4040;stroke:#000000;stroke-width:0.005"
           d="M -0.693,0.4 L -0.693,0.2 L -0.52,0.3 L -0.52,0.5 L -0.693,0.4 z" />
        <path
           id="path66"
           style="fill:#ff8040;stroke:#000000;stroke-width:0.005"
           d="M -0.52,0.5 L -0.52,0.3 L -0.346,0.4 L -0.346,0.6 L -0.52,0.5 z" />
        <path
           id="path68"
           style="fill:#ffc040;stroke:#000000;stroke-width:0.005"
           d="M -0.346,0.6 L -0.346,0.4 L -0.173,0.5 L -0.173,0.7 L -0.346,0.6 z" />
        <path
           id="path70"
           style="fill:#ffff40;stroke:#000000;stroke-width:0.005"
           d="M -0.173,0.7 L -0.173,0.5 L 0,0.6 L 0,0.8 L -0.173,0.7 z" />
        <path
           id="path72"
           style="fill:#ffff40;stroke:#000000;stroke-width:0.005"
           d="M 0,0.8 L 0,0.6 L 0.173,0.5 L 0.173,0.7 L 0,0.8 z" />
        <path
           id="path74"
           style="fill:#c0ff40;stroke:#000000;stroke-width:0.005"
           d="M 0.173,0.7 L 0.173,0.5 L 0.346,0.4 L 0.346,0.6 L 0.173,0.7 z" />
        <path
           id="path76"
           style="fill:#80ff40;stroke:#000000;stroke-width:0.005"
           d="M 0.346,0.6 L 0.346,0.4 L 0.52,0.3 L 0.52,0.5 L 0.346,0.6 z" />
        <path
           id="path78"
           style="fill:#40ff40;stroke:#000000;stroke-width:0.005"
           d="M 0.52,0.5 L 0.52,0.3 L 0.693,0.2 L 0.693,0.4 L 0.52,0.5 z" />
        <path
           id="path80"
           style="fill:#40ff80;stroke:#000000;stroke-width:0.005"
           d="M 0.52,0.3 L 0.52,0.1 L 0.693,0 L 0.693,0.2 L 0.52,0.3 z" />
        <path
           id="path82"
           style="fill:#40ffc0;stroke:#000000;stroke-width:0.005"
           d="M 0.52,0.1 L 0.52,-0.1 L 0.693,-0.2 L 0.693,0 L 0.52,0.1 z" />
        <path
           id="path84"
           style="fill:#40ffff;stroke:#000000;stroke-width:0.005"
           d="M 0.52,-0.1 L 0.52,-0.3 L 0.693,-0.4 L 0.693,-0.2 L 0.52,-0.1 z" />
        <path
           id="path86"
           style="fill:#40ffff;stroke:#000000;stroke-width:0.005"
           d="M 0.52,-0.3 L 0.346,-0.4 L 0.52,-0.5 L 0.693,-0.4 L 0.52,-0.3 z" />
        <path
           id="path88"
           style="fill:#40c0ff;stroke:#000000;stroke-width:0.005"
           d="M 0.346,-0.4 L 0.173,-0.5 L 0.346,-0.6 L 0.52,-0.5 L 0.346,-0.4 z" />
        <path
           id="path90"
           style="fill:#4080ff;stroke:#000000;stroke-width:0.005"
           d="M 0.173,-0.5 L 0,-0.6 L 0.173,-0.7 L 0.346,-0.6 L 0.173,-0.5 z" />
        <path
           id="path92"
           style="fill:#4040ff;stroke:#000000;stroke-width:0.005"
           d="M 0,-0.6 L -0.173,-0.7 L 0,-0.8 L 0.173,-0.7 L 0,-0.6 z" />
        <path
           id="path94"
           style="fill:#8040ff;stroke:#000000;stroke-width:0.005"
           d="M -0.173,-0.5 L -0.346,-0.6 L -0.173,-0.7 L 0,-0.6 L -0.173,-0.5 z" />
        <path
           id="path96"
           style="fill:#c040ff;stroke:#000000;stroke-width:0.005"
           d="M -0.346,-0.4 L -0.52,-0.5 L -0.346,-0.6 L -0.173,-0.5 L -0.346,-0.4 z" />
        <path
           id="path98"
           style="fill:#ff40ff;stroke:#000000;stroke-width:0.005"
           d="M -0.52,-0.3 L -0.693,-0.4 L -0.52,-0.5 L -0.346,-0.4 L -0.52,-0.3 z" />
        <path
           id="path100"
           style="fill:#ff40ff;stroke:#000000;stroke-width:0.005"
           d="M -0.52,-0.1 L -0.693,-0.2 L -0.693,-0.4 L -0.52,-0.3 L -0.52,-0.1 z" />
        <path
           id="path102"
           style="fill:#ff40c0;stroke:#000000;stroke-width:0.005"
           d="M -0.52,0.1 L -0.693,0 L -0.693,-0.2 L -0.52,-0.1 L -0.52,0.1 z" />
        <path
           id="path104"
           style="fill:#ff4080;stroke:#000000;stroke-width:0.005"
           d="M -0.52,0.3 L -0.693,0.2 L -0.693,0 L -0.52,0.1 L -0.52,0.3 z" />
        <path
           id="path106"
           style="fill:#ff8080;stroke:#000000;stroke-width:0.005"
           d="M -0.52,0.3 L -0.52,0.1 L -0.433,0.15 L -0.26,0.05 L -0.26,0.15 L -0.173,0.2 L -0.346,0.3 L -0.346,0.4 L -0.52,0.3 z" />
        <path
           id="path108"
           style="fill:#ffc080;stroke:#000000;stroke-width:0.005"
           d="M -0.346,0.4 L -0.346,0.3 L -0.173,0.2 L 0,0.3 L -0.173,0.4 L -0.173,0.5 L -0.346,0.4 z" />
        <path
           id="path110"
           style="fill:#ffff80;stroke:#000000;stroke-width:0.005"
           d="M -0.173,0.5 L -0.173,0.4 L 0,0.3 L 0.173,0.4 L 0.173,0.5 L 0,0.6 L -0.173,0.5 z" />
        <path
           id="path112"
           style="fill:#c0ff80;stroke:#000000;stroke-width:0.005"
           d="M 0.173,0.5 L 0.173,0.4 L 0,0.3 L 0.173,0.2 L 0.346,0.3 L 0.346,0.4 L 0.173,0.5 z" />
        <path
           id="path114"
           style="fill:#80ff80;stroke:#000000;stroke-width:0.005"
           d="M 0.346,0.4 L 0.346,0.3 L 0.173,0.2 L 0.26,0.15 L 0.26,0.05 L 0.433,0.15 L 0.52,0.1 L 0.52,0.3 L 0.346,0.4 z" />
        <path
           id="path116"
           style="fill:#80ffc0;stroke:#000000;stroke-width:0.005"
           d="M 0.52,0.1 L 0.433,0.15 L 0.26,0.05 L 0.26,-0.15 L 0.433,-0.05 L 0.52,-0.1 L 0.52,0.1 z" />
        <path
           id="path118"
           style="fill:#80ffff;stroke:#000000;stroke-width:0.005"
           d="M 0.52,-0.1 L 0.433,-0.05 L 0.26,-0.15 L 0.26,-0.35 L 0.346,-0.4 L 0.52,-0.3 L 0.52,-0.1 z" />
        <path
           id="path120"
           style="fill:#80c0ff;stroke:#000000;stroke-width:0.005"
           d="M 0.346,-0.4 L 0.26,-0.35 L 0.26,-0.15 L 0.087,-0.25 L 0.087,-0.45 L 0.173,-0.5 L 0.346,-0.4 z" />
        <path
           id="path122"
           style="fill:#8080ff;stroke:#000000;stroke-width:0.005"
           d="M 0.173,-0.5 L 0.087,-0.45 L 0.087,-0.25 L 0,-0.3 L -0.087,-0.25 L -0.087,-0.45 L -0.173,-0.5 L 0,-0.6 L 0.173,-0.5 z" />
        <path
           id="path124"
           style="fill:#c080ff;stroke:#000000;stroke-width:0.005"
           d="M -0.173,-0.5 L -0.087,-0.45 L -0.087,-0.25 L -0.26,-0.15 L -0.26,-0.35 L -0.346,-0.4 L -0.173,-0.5 z" />
        <path
           id="path126"
           style="fill:#ff80ff;stroke:#000000;stroke-width:0.005"
           d="M -0.346,-0.4 L -0.26,-0.35 L -0.26,-0.15 L -0.433,-0.05 L -0.52,-0.1 L -0.52,-0.3 L -0.346,-0.4 z" />
        <path
           id="path128"
           style="fill:#ff80c0;stroke:#000000;stroke-width:0.005"
           d="M -0.52,-0.1 L -0.433,-0.05 L -0.26,-0.15 L -0.26,0.05 L -0.433,0.15 L -0.52,0.1 L -0.52,-0.1 z" />
        <path
           id="path130"
           style="fill:#c08080;stroke:#000000;stroke-width:0.005"
           d="M -0.26,0.05 L -0.087,-0.05 L -0.087,0.05 L 0,0.1 L -0.173,0.2 L -0.26,0.15 L -0.26,0.05 z" />
        <path
           id="path132"
           style="fill:#c0c080;stroke:#000000;stroke-width:0.005"
           d="M -0.173,0.2 L 0,0.1 L 0.173,0.2 L 0,0.3 L -0.173,0.2 z" />
        <path
           id="path134"
           style="fill:#80c080;stroke:#000000;stroke-width:0.005"
           d="M 0.173,0.2 L 0,0.1 L 0.087,0.05 L 0.087,-0.05 L 0.26,0.05 L 0.26,0.15 L 0.173,0.2 z" />
        <path
           id="path136"
           style="fill:#80c0c0;stroke:#000000;stroke-width:0.005"
           d="M 0.26,0.05 L 0.087,-0.05 L 0.087,-0.25 L 0.26,-0.15 L 0.26,0.05 z" />
        <path
           id="path138"
           style="fill:#8080c0;stroke:#000000;stroke-width:0.005"
           d="M 0.087,-0.25 L 0.087,-0.05 L 0,-0.1 L -0.087,-0.05 L -0.087,-0.25 L 0,-0.3 L 0.087,-0.25 z" />
        <path
           id="path140"
           style="fill:#c080c0;stroke:#000000;stroke-width:0.005"
           d="M -0.087,-0.25 L -0.087,-0.05 L -0.26,0.05 L -0.26,-0.15 L -0.087,-0.25 z" />
        <path
           id="path142"
           style="fill:#808080;stroke:#000000;stroke-width:0.005"
           d="M 0,0.1 L 0.087,0.05 L 0.087,-0.05 L 0,-0.1 L -0.087,-0.05 L -0.087,0.05 L 0,0.1 z" />
        <polyline
           style="fill:none;stroke:#000000;stroke-width:0.01"
           id="polyline144"
           class="line"
           points="-0.866,+0.5 +0.000,+1.0 +0.866,+0.5 +0.866,-0.5 +0.000,-1.0 -0.866,-0.5 -0.866,+0.5" />
        <polyline
           style="fill:none;stroke:#000000;stroke-width:0.01"
           id="polyline146"
           class="line"
           points="+0.000,+1.0 +0.000,+0.5" />
        <polyline
           style="fill:none;stroke:#000000;stroke-width:0.01"
           id="polyline148"
           class="line"
           points="+0.866,-0.5 +0.433,-0.250" />
        <polyline
           style="fill:none;stroke:#000000;stroke-width:0.01"
           id="polyline150"
           class="line"
           points="-0.866,-0.5 -0.433,-0.250" />
        <polyline
           style="fill:none;stroke:#000000;stroke-width:0.01;stroke-dasharray:0.05, 0.025"
           id="polyline152"
           class="dash"
           points="+0.000,+0.5 +0.433,+0.250" />
        <polyline
           style="fill:none;stroke:#000000;stroke-width:0.01;stroke-dasharray:0.05, 0.025"
           id="polyline154"
           class="dash"
           points="+0.433,+0.250 +0.433,-0.250" />
        <polyline
           style="fill:none;stroke:#000000;stroke-width:0.01;stroke-dasharray:0.05, 0.025"
           id="polyline156"
           class="dash"
           points="+0.433,-0.250 +0.000,-0.5" />
        <polyline
           style="fill:none;stroke:#000000;stroke-width:0.01;stroke-dasharray:0.05, 0.025"
           id="polyline158"
           class="dash"
           points="+0.000,-0.5 -0.433,-0.250" />
        <polyline
           style="fill:none;stroke:#000000;stroke-width:0.01;stroke-dasharray:0.05, 0.025"
           id="polyline160"
           class="dash"
           points="-0.433,-0.250 -0.433,+0.250" />
        <polyline
           style="fill:none;stroke:#000000;stroke-width:0.01;stroke-dasharray:0.05, 0.025"
           id="polyline162"
           class="dash"
           points="-0.433,+0.250 +0.000,+0.5" />
        <polyline
           style="fill:none;stroke:#000000;stroke-width:0.01;stroke-dasharray:0.05, 0.025"
           id="polyline164"
           class="dash"
           points="-0.433,+0.250 +0.000,+0.0" />
        <polyline
           style="fill:none;stroke:#000000;stroke-width:0.01;stroke-dasharray:0.05, 0.025"
           id="polyline166"
           class="dash"
           points="+0.433,+0.250 +0.000,+0.0" />
        <polyline
           style="fill:none;stroke:#000000;stroke-width:0.01;stroke-dasharray:0.05, 0.025"
           id="polyline168"
           class="dash"
           points="+0.000,-0.5 +0.000,+0.0" />
        <path
           id="path170"
           style="fill:#000000;stroke:none"
           d="M -0.779,0.55 L -0.953,0.65 L -0.909,0.675 L -1.083,0.675 L -1.083,0.575 L -1.039,0.6 L -0.866,0.5 L -0.779,0.55 z" />
        <path
           id="path172"
           style="fill:#000000;stroke:none"
           d="M 0,-1 L 0,-1.2 L -0.043,-1.225 L 0.043,-1.275 L 0.13,-1.125 L 0.087,-1.15 L 0.087,-0.95 L 0,-1 z" />
        <path
           id="path174"
           style="fill:#000000;stroke:none"
           d="M 0.866,0.5 L 1.039,0.6 L 1.083,0.575 L 1.083,0.675 L 0.909,0.675 L 0.953,0.65 L 0.779,0.55 L 0.866,0.5 z" />
      </g>
    </g>
  </g>
</svg>
