<?xml version="1.0" encoding="utf-8" ?>
<!DOCTYPE svg PUBLIC "-//W3C//DTD SVG 1.0//EN" "http://www.w3.org/TR/2001/REC-SVG-20010904/DTD/svg10.dtd">

<svg xmlns="http://www.w3.org/2000/svg" xmlns:xlink="http://www.w3.org/1999/xlink" viewBox="-2.5 -2.5 5 5" width="8in" height="8in">

	<title>Sri Yantra</title>
	<desc>The Sri Yantra mandala.</desc>
	<style type="text/css">
	<![CDATA[
		.mag
		{stroke:none;fill:#ff00ff;}
		.yel
		{stroke:none;fill:#ffff00;}
		.cyn
		{stroke:none;fill:#00ffff;}
		.org
		{stroke:none;fill:#ff8000;}
		.red
		{stroke:none;fill:#ff0000;}
		.rad1
		{fill:url(#radial1);}
		.rad2
		{fill:url(#radial2);}
		.rad3
		{fill:url(#radial3);}
		.rad4
		{fill:url(#radial4);}
		.rad5
		{fill:url(#radial5);}
	]]>
	</style>

	<defs>
		<radialGradient id="radial1">
			<stop offset="0%" stop-color="#00ffff"/>
			<stop offset="100%" stop-color="#ff00ff"/>
		</radialGradient>
		<radialGradient id="radial2">
			<stop offset="0%" stop-color="#ff0000"/>
			<stop offset="100%" stop-color="#ffff00"/>
		</radialGradient>
		<radialGradient id="radial3">
			<stop offset="0%" stop-color="#ff0000"/>
			<stop offset="100%" stop-color="#ffff00"/>
		</radialGradient>
		<radialGradient id="radial4">
			<stop offset="0%" stop-color="#ffff00"/>
			<stop offset="100%" stop-color="#ff8000"/>
		</radialGradient>
		<radialGradient id="radial5">
			<stop offset="0%" stop-color="#00ffff"/>
			<stop offset="100%" stop-color="#ffff00"/>
		</radialGradient>
		<path id="smallpetal" d="
			M -0.263 -1.324
			Q -0.303 -1.523 -0.151 -1.538
			Q -0.000 -1.552 -0.000 -1.620
			Q +0.000 -1.552 +0.151 -1.538
			Q +0.303 -1.523 +0.263 -1.324
			A 1.350 1.350 0 0,0 -0.263 -1.324
		" />
		<path id="largepetal" d="
			M -0.383 -0.924
			Q -0.483 -1.166 -0.242 -1.214
			Q -0.000 -1.263 -0.000 -1.350
			Q +0.000 -1.263 +0.242 -1.214
			Q +0.483 -1.166 +0.383 -0.924
			A 1.000 1.000 0 0,0 -0.383 -0.924
		" />
		<clipPath id="outer">
			<use xlink:href="#smallpetal" transform="rotate(00)" />
			<use xlink:href="#smallpetal" transform="rotate(22.5)" />
			<use xlink:href="#smallpetal" transform="rotate(45.0)" />
			<use xlink:href="#smallpetal" transform="rotate(67.5)" />
			<use xlink:href="#smallpetal" transform="rotate(90.0)" />
			<use xlink:href="#smallpetal" transform="rotate(112.5)" />
			<use xlink:href="#smallpetal" transform="rotate(135.0)" />
			<use xlink:href="#smallpetal" transform="rotate(157.5)" />
			<use xlink:href="#smallpetal" transform="rotate(180.0)" />
			<use xlink:href="#smallpetal" transform="rotate(202.5)" />
			<use xlink:href="#smallpetal" transform="rotate(225.0)" />
			<use xlink:href="#smallpetal" transform="rotate(247.5)" />
			<use xlink:href="#smallpetal" transform="rotate(270.0)" />
			<use xlink:href="#smallpetal" transform="rotate(292.5)" />
			<use xlink:href="#smallpetal" transform="rotate(315.0)" />
			<use xlink:href="#smallpetal" transform="rotate(337.5)" />

			<use xlink:href="#largepetal" transform="rotate(00)" />
			<use xlink:href="#largepetal" transform="rotate(45)" />
			<use xlink:href="#largepetal" transform="rotate(90)" />
			<use xlink:href="#largepetal" transform="rotate(135)" />
			<use xlink:href="#largepetal" transform="rotate(180)" />
			<use xlink:href="#largepetal" transform="rotate(225)" />
			<use xlink:href="#largepetal" transform="rotate(270)" />
			<use xlink:href="#largepetal" transform="rotate(315)" />
		</clipPath>
		<clipPath id="inner">
			<path d="
				M +0.000 -1.000 L -0.232 -0.700 L +0.232 -0.700

				M +0.232 -0.700 L +0.591 -0.700 L +0.418 -0.459
				M -0.232 -0.700 L -0.591 -0.700 L -0.418 -0.459
				M -0.000 -0.700 L +0.145 -0.459 L -0.145 -0.459

				M +0.418 -0.459 L +0.677 -0.459 L +0.568 -0.263
				M -0.418 -0.459 L -0.677 -0.459 L -0.568 -0.263
				M +0.145 -0.459 L +0.418 -0.459 L +0.269 -0.251
				M -0.145 -0.459 L -0.418 -0.459 L -0.269 -0.251
				M +0.000 -0.459 L +0.117 -0.263 L -0.117 -0.263

				M +0.568 -0.263 L +0.965 -0.263 L +0.768 -0.006
				M -0.568 -0.263 L -0.965 -0.263 L -0.768 -0.006
				M +0.568 -0.263 L +0.262 -0.263 L +0.420 -0.000
				M -0.568 -0.263 L -0.262 -0.263 L -0.420 -0.000
				M +0.278 -0.263 L +0.117 -0.263 L +0.190 -0.140
				M -0.278 -0.263 L -0.117 -0.263 L -0.190 -0.140
				M +0.000 -0.263 L +0.071 -0.132 L -0.071 -0.132

				M +0.341,-0.132 L +0.196,-0.132 L +0.271,-0.006
				M -0.341,-0.132 L -0.196,-0.132 L -0.271,-0.006
				M +0.190,-0.140 L +0.196,-0.132 L +0.184,-0.132
				M -0.190,-0.140 L -0.196,-0.132 L -0.184,-0.132
				M +0.071,-0.132 L +0.120,-0.042 L +0.184,-0.132
				M -0.071,-0.132 L -0.120,-0.042 L -0.184,-0.132
		
				M +0.233,-0.069 L +0.105,-0.069 L +0.160,+0.032
				M -0.233,-0.069 L -0.105,-0.069 L -0.160,+0.032
				M +0.139,-0.069 L +0.000,+0.126 L -0.139,-0.069
				M +0.211,+0.126 L +0.091,+0.126 L +0.160,+0.032
				M -0.211,+0.126 L -0.091,+0.126 L -0.160,+0.032

				M +0.271,-0.006 L +0.196,+0.126 L +0.349,+0.126
				M -0.271,-0.006 L -0.196,+0.126 L -0.349,+0.126

				M +0.204,+0.113 L +0.279,+0.252 L +0.126,+0.252
				M -0.204,+0.113 L -0.279,+0.252 L -0.126,+0.252
				M +0.091,+0.126 L +0.000,+0.252 L -0.091,+0.126

				M +0.768,-0.006 L +0.968,+0.252 L +0.571,+0.252
				M -0.768,-0.006 L -0.968,+0.252 L -0.571,+0.252
				M +0.420,-0.000 L +0.279,+0.252 L +0.571,+0.252
				M -0.420,-0.000 L -0.279,+0.252 L -0.571,+0.252

				M +0.571,+0.252 L +0.706,+0.476 L +0.400,+0.476
				M -0.571,+0.252 L -0.706,+0.476 L -0.400,+0.476
				M +0.279,+0.252 L +0.153,+0.476 L +0.400,+0.476
				M -0.279,+0.252 L -0.153,+0.476 L -0.400,+0.476
				M +0.126,+0.252 L -0.126,+0.252 L +0.000,+0.476

				M +0.191,+0.750 L +0.548,+0.750 L +0.400,+0.476
				M -0.191,+0.750 L -0.548,+0.750 L -0.400,+0.476
				M +0.000,+0.750 L -0.153,+0.476 L +0.153,+0.476

				M +0.191,+0.750 L -0.191,+0.750 L +0.000,+1.000
			" />
		</clipPath>
		<clipPath id="outermagentaframe">
			<path class="rad3" d="
				M -1.890,-1.890 L -0.383,-1.890 L -0.383,-2.160 L +0.383,-2.160 L +0.383,-1.890
				L +1.890,-1.890 L +1.890,-0.383 L +2.160,-0.383 L +2.160,+0.383 L +1.890,+0.383
				L +1.890,+1.890 L +0.383,+1.890 L +0.383,+2.160 L -0.383,+2.160 L -0.383,+1.890
				L -1.890,+1.890 L -1.890,+0.383 L -2.160,+0.383 L -2.160,-0.383 L -1.890,-0.383
			" />
			<path d="
				M +1.958,-1.958 L +2.025,-2.025 L +2.025,-0.518 L +1.958,-0.450
				M +1.958,+1.958 L +2.025,+2.025 L +2.025,+0.518 L +1.958,+0.450
				M -1.958,+1.958 L -2.025,+2.025 L -2.025,+0.518 L -1.958,+0.450
				M -1.958,-1.958 L -2.025,-2.025 L -2.025,-0.518 L -1.958,-0.450

				M +1.958,-1.958 L +2.025,-2.025 L +0.518,-2.025 L +0.450,-1.958
				M +1.958,+1.958 L +2.025,+2.025 L +0.518,+2.025 L +0.450,+1.958
				M -1.958,-1.958 L -2.025,-2.025 L -0.518,-2.025 L -0.450,-1.958
				M -1.958,+1.958 L -2.025,+2.025 L -0.518,+2.025 L -0.450,+1.958

				M +1.958,-0.450 L +2.025,-0.518 L +2.295,-0.518 L +2.228,-0.450
				M +1.958,+0.450 L +2.025,+0.518 L +2.295,+0.518 L +2.228,+0.450
				M -1.958,-0.450 L -2.025,-0.518 L -2.295,-0.518 L -2.228,-0.450
				M -1.958,+0.450 L -2.025,+0.518 L -2.295,+0.518 L -2.228,+0.450

				M +0.450,-1.958 L +0.518,-2.025 L +0.518,-2.295 L +0.450,-2.228
				M +0.450,+1.958 L +0.518,+2.025 L +0.518,+2.295 L +0.450,+2.228
				M -0.450,-1.958 L -0.518,-2.025 L -0.518,-2.295 L -0.450,-2.228
				M -0.450,+1.958 L -0.518,+2.025 L -0.518,+2.295 L -0.450,+2.228

				M +2.228,-0.450 L +2.295,-0.518 L +2.295,+0.518 L +2.228,+0.450
				M -2.228,-0.450 L -2.295,-0.518 L -2.295,+0.518 L -2.228,+0.450

				M +0.450,-2.228 L +0.518,-2.295 L -0.518,-2.295 L -0.450,-2.228
				M +0.450,+2.228 L +0.518,+2.295 L -0.518,+2.295 L -0.450,+2.228
			" />
		</clipPath>
		<clipPath id="outeryellowframe">
			<path d="
				M +1.890,-1.890 L +1.957,-1.957 L +1.957,-0.450 L +1.890,-0.383
				M -1.890,-1.890 L -1.957,-1.957 L -1.957,-0.450 L -1.890,-0.383
				M +1.890,+1.890 L +1.957,+1.957 L +1.957,+0.450 L +1.890,+0.383
				M -1.890,+1.890 L -1.957,+1.957 L -1.957,+0.450 L -1.890,+0.383

				M +1.890,-1.890 L +1.957,-1.957 L +0.450,-1.957 L +0.383,-1.890
				M -1.890,-1.890 L -1.957,-1.957 L -0.450,-1.957 L -0.383,-1.890
				M +1.890,+1.890 L +1.957,+1.957 L +0.450,+1.957 L +0.383,+1.890
				M -1.890,+1.890 L -1.957,+1.957 L -0.450,+1.957 L -0.383,+1.890

				M +0.383,-2.160 L +0.450,-2.227 L +0.450,-1.957 L +0.383,-1.890
				M +0.383,+2.160 L +0.450,+2.227 L +0.450,+1.957 L +0.383,+1.890
				M -0.383,-2.160 L -0.450,-2.227 L -0.450,-1.957 L -0.383,-1.890
				M -0.383,+2.160 L -0.450,+2.227 L -0.450,+1.957 L -0.383,+1.890

				M -0.450,-2.227 L -0.383,-2.160 L +0.383,-2.160 L +0.450,-2.227
				M -0.450,+2.227 L -0.383,+2.160 L +0.383,+2.160 L +0.450,+2.227

				M +1.890,-0.383 L +1.958,-0.450 L +2.228,-0.450 L +2.160,-0.383
				M +1.890,+0.383 L +1.958,+0.450 L +2.228,+0.450 L +2.160,+0.383
				M -1.890,-0.383 L -1.958,-0.450 L -2.228,-0.450 L -2.160,-0.383
				M -1.890,+0.383 L -1.958,+0.450 L -2.228,+0.450 L -2.160,+0.383

				M +2.160,+0.383 L +2.228,+0.450 L +2.228,-0.450 L +2.160,-0.383
				M -2.160,+0.383 L -2.228,+0.450 L -2.228,-0.450 L -2.160,-0.383
			" />
			<path d="
				M +2.025,-2.025 L +2.093,-2.093 L +2.093,-0.585 L +2.025,-0.518
				M +2.025,+2.025 L +2.093,+2.093 L +2.093,+0.585 L +2.025,+0.518
				M -2.025,-2.025 L -2.093,-2.093 L -2.093,-0.585 L -2.025,-0.518
				M -2.025,+2.025 L -2.093,+2.093 L -2.093,+0.585 L -2.025,+0.518

				M +2.025,-2.025 L +2.093,-2.093 L +0.585,-2.093 L +0.518,-2.025
				M +2.025,+2.025 L +2.093,+2.093 L +0.585,+2.093 L +0.518,+2.025
				M -2.025,-2.025 L -2.093,-2.093 L -0.585,-2.093 L -0.518,-2.025
				M -2.025,+2.025 L -2.093,+2.093 L -0.585,+2.093 L -0.518,+2.025

				M +0.518,-2.295 L +0.585,-2.363 L +0.585,-2.093 L +0.518,-2.025
				M +0.518,+2.295 L +0.585,+2.363 L +0.585,+2.093 L +0.518,+2.025
				M -0.518,-2.295 L -0.585,-2.363 L -0.585,-2.093 L -0.518,-2.025
				M -0.518,+2.295 L -0.585,+2.363 L -0.585,+2.093 L -0.518,+2.025

				M +2.295,-0.518 L +2.363,-0.585 L +2.093,-0.585 L +2.025,-0.518
				M +2.295,+0.518 L +2.363,+0.585 L +2.093,+0.585 L +2.025,+0.518
				M -2.295,-0.518 L -2.363,-0.585 L -2.093,-0.585 L -2.025,-0.518
				M -2.295,+0.518 L -2.363,+0.585 L -2.093,+0.585 L -2.025,+0.518

				M +2.295,-0.518 L +2.363,-0.585 L +2.363,+0.585 L +2.295,+0.518
				M -2.295,-0.518 L -2.363,-0.585 L -2.363,+0.585 L -2.295,+0.518

				M +0.518,-2.295 L +0.585,-2.363 L -0.585,-2.363 L -0.518,-2.295
				M +0.518,+2.295 L +0.585,+2.363 L -0.585,+2.363 L -0.518,+2.295
			" />
		</clipPath>
		<clipPath id="c1">
			<circle cx="0" cy="0" r="1.822" />
		</clipPath>
		<clipPath id="c2">
			<circle cx="0" cy="0" r="1.755" />
		</clipPath>
		<clipPath id="c3">
			<circle cx="0" cy="0" r="1.688" />
		</clipPath>
		<clipPath id="c4">
			<circle cx="0" cy="0" r="1.620" />
		</clipPath>
		<clipPath id="c5">
			<circle cx="0" cy="0" r="0.0120" />
		</clipPath>
	</defs>

<!--	<rect class="rad1" x="-2.500" y="-2.500" width="5.000" height="5.000" />-->
	<rect class="rad4" x="-2.363" y="-2.363" width="4.726" height="4.726" clip-path="url(#outeryellowframe)" />
	<rect class="rad3" x="-2.363" y="-2.363" width="4.726" height="4.726" clip-path="url(#outermagentaframe)" />

	<circle class="rad4" cx="0" cy="0" r="2.363" clip-path="url(#c1)" />
	<circle class="rad1" cx="0" cy="0" r="2.363" clip-path="url(#c2)" />
	<circle class="rad4" cx="0" cy="0" r="2.363" clip-path="url(#c3)" />
	<circle class="rad1" cx="0" cy="0" r="2.363" clip-path="url(#c4)" />

	<circle class="rad4" cx="0" cy="0" r="2.363" clip-path="url(#outer)" />
	<circle class="rad2" cx="0" cy="0" r="1.000" clip-path="url(#inner)" />

	<circle class="rad1" cx="0" cy="0" r="2.363" clip-path="url(#c5)" />
</svg>
