<svg version="1.1" xmlns="http://www.w3.org/2000/svg" xmlns:xlink="http://www.w3.org/1999/xlink" width="600" height="450"><defs><clipPath id="bAZIEUtNScrT"><path fill="none" stroke="none" d=" M 0 0 L 600 0 L 600 450 L 0 450 L 0 0 Z"/></clipPath></defs><g transform="scale(1,1)" clip-path="url(#bAZIEUtNScrT)"><g transform="translate(0,-276.2379642365887)"><rect fill="rgb(255,255,255)" stroke="none" x="0" y="0" width="1100" height="725" fill-opacity="1"/><path fill="rgb(0,0,0)" stroke="none" paint-order="stroke fill markers" fill-rule="evenodd" d=" M 331.949696634172 462.7722805645332 L 313.85591133597586 457.99111287541587 L 318.67284687763026 449.593259880506 Z" fill-opacity="1"/><path fill="rgb(0,0,0)" stroke="none" paint-order="stroke fill markers" fill-rule="evenodd" d=" M 341.21698275511375 517.4525355516328 L 349.3647912885662 500.61898211829435 L 350.7332599284574 519.267350576235 Z" fill-opacity="1"/><path fill="rgb(0,0,0)" stroke="none" paint-order="stroke fill markers" fill-rule="evenodd" d=" M 395.0269486690969 430.59378187913546 L 413.28138854086353 434.72064556801644 L 408.7703884757825 443.2864106288634 Z" fill-opacity="1"/><path fill="rgb(0,0,0)" stroke="none" paint-order="stroke fill markers" fill-rule="evenodd" d=" M 446.13384099416044 482.0944180928142 L 443.58756435967484 500.61898211829435 L 436.5217277961484 483.3042947758824 Z" fill-opacity="1"/><path fill="none" stroke="rgb(0,0,0)" paint-order="fill stroke markers" d=" M 349.3647912885662 500.61898211829435 C 349.3647912885662 486.06916651684196 343.00369560133714 472.24515379643276 331.949696634172 462.7722805645332" stroke-opacity="1" stroke-linecap="round" stroke-linejoin="round" stroke-miterlimit="10"/><path fill="none" stroke="rgb(0,0,0)" paint-order="fill stroke markers" d=" M 443.58756435967484 500.61898211829435 C 443.58756435967484 469.4482072969048 424.2378254661664 441.54556806294073 395.0269486690969 430.5937818791355" stroke-opacity="1" stroke-linecap="round" stroke-linejoin="round" stroke-miterlimit="10"/><path fill="none" stroke="rgb(0,0,0)" paint-order="fill stroke markers" d=" M 422.5989045151991 357.19105041677926 L 442.45965965815003 364.6372748244057 L 449.91287407554836 344.79514612431655 L 430.05211893259553 337.3489217166909 L 422.5989045151991 357.19105041677926" stroke-opacity="0.6980392156862745" stroke-linecap="round" stroke-linejoin="round" stroke-miterlimit="10" stroke-width="2.5"/><path fill="none" stroke="rgb(0,0,0)" paint-order="fill stroke markers" d=" M 549.0018148820326 500.61898211829435 L 548.9266562082179 496.57202192518633 L 548.7012254595484 492.52749946957306 L 548.3256584270778 488.48785102054734 L 547.8001813383431 484.4555099112827 L 547.1251107210936 480.4329050732844 L 546.3008532126269 476.42245957329203 L 545.3279053148447 472.4265891537145 L 544.2068530951799 468.44770077747734 L 542.9383718335711 464.48819117815816 L 541.5232256156983 460.55044541628405 L 539.9622668727277 456.6368354426602 L 538.2564358678379 452.74971866959527 L 536.4067601298412 448.8914365508848 L 534.4143538342383 445.0643131714067 L 532.2804171320809 441.2706538471793 L 530.0062354270452 437.51274373672544 L 527.5931786011532 433.7928464645785 L 525.042700189607 430.11320275775904 L 522.3563365052329 426.4760290960456 L 519.535705713065 422.8835163768491 L 516.5825068556221 419.337828595499 L 513.4985188294689 415.841101541733 L 510.2855993136746 412.39544151317705 L 506.9456836508166 409.00292404659103 L 503.48078368120275 405.6655926676424 L 499.8929865310139 402.3854576599628 L 496.1844533550968 399.1644948542289 L 492.3574180351657 396.00464443799524 L 488.4141858341953 392.9078097869982 L 484.35713200781646 389.87585631863334 L 480.18870037355117 386.91061036829797 L 475.91140183874825 384.01385808927495 L 471.5278128881065 381.1873443768206 L 467.0405740316969 378.43277181710505 L 462.45238821441797 375.75179966163836 L 457.7660191878425 373.14604282779885 L 452.9842898454377 370.61707092606764 L 448.1100805221589 368.1664073145542 L 443.1463272594441 365.79552818138166 L 438.0960200366521 363.50586165548714 L 432.9622009700106 361.29878694636955 L 427.74796248015963 359.17563351330585 L 422.45644542939255 357.1376802645344 L 417.0908372297181 355.1861547868882 L 411.6543699228827 353.32223260634277 L 406.15031823350955 351.5470364799231 L 400.58199759652643 349.8616357193969 L 394.95276216007227 348.26704554716116 L 389.2660027650833 346.76422648471 L 383.5251449027772 345.3540837740526 L 377.733646651266 344.03746683242935 L 371.8949965925382 342.81516874065426 L 366.01271171106805 341.6879257653933 L 360.0903352753154 340.6564169156643 L 354.13143470339304 339.7212635338278 L 348.13959941418807 338.88302892131344 L 342.1184386652294 338.14221799930806 L 336.07157937860654 337.49927700461046 L 330.0026639562472 336.9545932208347 L 323.9153480858704 336.50849474512506 L 317.8132985389369 336.1612502905226 L 311.70019096192374 335.9130690241026 L 305.5797076622512 335.76410044097975 L 299.4555353901996 335.7144342742582 L 293.33136311814803 335.76410044097975 L 287.2108798184755 335.9130690241026 L 281.0977722414623 336.1612502905226 L 274.99572269452887 336.508494745125 L 268.908406824152 336.9545932208347 L 262.83949140179266 337.49927700461046 L 256.7926321151698 338.14221799930806 L 250.77147136621116 338.88302892131344 L 244.77963607700616 339.7212635338278 L 238.82073550508386 340.6564169156643 L 232.89835906933115 341.6879257653933 L 227.01607418786102 342.81516874065426 L 221.17742412913324 344.03746683242935 L 215.38592587762201 345.3540837740526 L 209.64506801531599 346.76422648471 L 203.95830862032693 348.26704554716116 L 198.32907318387277 349.8616357193969 L 192.7607525468897 351.54703647992307 L 187.25670085751645 353.32223260634277 L 181.8202335506811 355.1861547868882 L 176.45462535100668 357.1376802645344 L 171.1631083002396 359.17563351330585 L 165.94886981038863 361.29878694636955 L 160.8150507437472 363.5058616554871 L 155.76474352095508 365.79552818138166 L 150.8009902582403 368.16640731455414 L 145.92678093496156 370.61707092606764 L 141.1450515925567 373.1460428277988 L 136.45868256598132 375.75179966163836 L 131.87049674870227 378.4327718171051 L 127.3832578922927 381.1873443768206 L 122.99966894165101 384.01385808927495 L 118.72237040684809 386.91061036829797 L 114.55393877258282 389.8758563186333 L 110.49688494620389 392.9078097869982 L 106.55365274523348 396.00464443799524 L 102.72661742530241 399.1644948542289 L 99.01808424938534 402.3854576599628 L 95.43028709919645 405.66559266764233 L 91.96538712958258 409.00292404659103 L 88.6254714667246 412.39544151317705 L 85.4125519509303 415.84110154173294 L 82.32856392477709 419.337828595499 L 79.37536506733426 422.8835163768491 L 76.55473427516631 426.4760290960455 L 73.86837059079224 430.11320275775904 L 71.31789217924594 433.7928464645784 L 68.904835353354 437.51274373672544 L 66.63065364831832 441.27065384717923 L 64.49671694616086 445.06431317140664 L 62.50431065055798 448.89143655088486 L 60.654634912561306 452.74971866959527 L 58.94880390767153 456.63683544266013 L 57.38784516470088 460.55044541628405 L 55.97269894682816 464.4881911781581 L 54.70421768521925 468.4477007774773 L 53.58316546555457 472.4265891537145 L 52.610217567772395 476.42245957329203 L 51.78596005930555 480.4329050732844 L 51.110889442056134 484.45550991128266 L 50.585412353321374 488.4878510205473 L 50.209845320850775 492.52749946957306 L 49.98441457218132 496.57202192518633 L 49.90925589836658 500.61898211829435 L 49.98441457218132 504.6659423114023 L 50.209845320850775 508.7104647670156 L 50.585412353321374 512.7501132160413 L 51.110889442056106 516.7824543253059 L 51.78596005930555 520.8050591633042 L 52.610217567772395 524.8155046632967 L 53.58316546555454 528.8113750828742 L 54.70421768521925 532.7902634591114 L 55.97269894682813 536.7497730584305 L 57.38784516470088 540.6875188203046 L 58.948803907671504 544.6011287939285 L 60.65463491256128 548.4882455669934 L 62.504310650557954 552.3465276857038 L 64.49671694616083 556.1736510651821 L 66.63065364831829 559.9673103894095 L 68.90483535335397 563.7252204998632 L 71.31789217924594 567.4451177720102 L 73.86837059079221 571.1247614788297 L 76.55473427516628 574.7619351405432 L 79.37536506733423 578.3544478597396 L 82.32856392477706 581.9001356410897 L 85.41255195093026 585.3968626948557 L 88.62547146672458 588.8425227234115 L 91.96538712958255 592.2350401899976 L 95.43028709919642 595.5723715689463 L 99.01808424938531 598.8525065766258 L 102.72661742530238 602.0734693823598 L 106.55365274523345 605.2333197985934 L 110.49688494620386 608.3301544495905 L 114.55393877258277 611.3621079179554 L 118.72237040684803 614.3273538682907 L 122.99966894165095 617.2241061473137 L 127.38325789229268 620.0506198597682 L 131.8704967487022 622.8051924194835 L 136.45868256598118 625.4861645749503 L 141.14505159255657 628.0919214087899 L 145.9267809349614 630.620893310521 L 150.80099025824035 633.0715569220346 L 155.7647435209551 635.442436055207 L 160.81505074374715 637.7321025811016 L 165.94886981038857 639.9391772902192 L 171.16310830023954 642.0623307232828 L 176.45462535100663 644.1002839720543 L 181.82023355068105 646.0518094497005 L 187.2567008575164 647.915731630246 L 192.76075254688953 649.6909277566656 L 198.3290731838726 651.3763285171917 L 203.9583086203268 652.9709186894275 L 209.64506801531604 654.4737377518787 L 215.38592587762201 655.8838804625361 L 221.17742412913321 657.2004974041594 L 227.01607418786097 658.4227954959345 L 232.8983590693311 659.5500384711954 L 238.82073550508377 660.5815473209244 L 244.77963607700607 661.5167007027608 L 250.77147136621105 662.3549353152753 L 256.7926321151697 663.0957462372807 L 262.8394914017925 663.7386872319782 L 268.90840682415205 664.283371015754 L 274.99572269452887 664.7294694914638 L 281.0977722414623 665.0767139460661 L 287.2108798184755 665.3248952124861 L 293.331363118148 665.473863795609 L 299.45553539019954 665.5235299623305 L 305.57970766225117 665.473863795609 L 311.7001909619236 665.3248952124861 L 317.8132985389368 665.0767139460661 L 323.9153480858702 664.7294694914638 L 330.00266395624703 664.283371015754 L 336.0715793786066 663.7386872319782 L 342.1184386652294 663.0957462372807 L 348.13959941418807 662.3549353152753 L 354.13143470339304 661.5167007027609 L 360.09033527531534 660.5815473209244 L 366.01271171106805 659.5500384711954 L 371.8949965925381 658.4227954959345 L 377.7336466512659 657.2004974041594 L 383.5251449027771 655.8838804625361 L 389.26600276508304 654.4737377518787 L 394.9527621600723 652.9709186894275 L 400.5819975965265 651.3763285171917 L 406.15031823350955 649.6909277566656 L 411.6543699228827 647.915731630246 L 417.09083722971803 646.0518094497005 L 422.4564454293925 644.1002839720543 L 427.7479624801596 642.0623307232829 L 432.96220097001054 639.9391772902192 L 438.09602003665196 637.7321025811017 L 443.146327259444 635.442436055207 L 448.1100805221588 633.0715569220346 L 452.98428984543773 630.6208933105211 L 457.7660191878425 628.0919214087899 L 462.45238821441797 625.4861645749504 L 467.0405740316969 622.8051924194837 L 471.5278128881065 620.0506198597682 L 475.91140183874813 617.2241061473138 L 480.1887003735511 614.3273538682907 L 484.3571320078164 611.3621079179554 L 488.4141858341952 608.3301544495906 L 492.3574180351656 605.2333197985935 L 496.1844533550967 602.0734693823599 L 499.8929865310139 598.8525065766258 L 503.48078368120275 595.5723715689463 L 506.9456836508166 592.2350401899977 L 510.28559931367454 588.8425227234117 L 513.4985188294689 585.3968626948558 L 516.5825068556221 581.9001356410897 L 519.5357057130649 578.3544478597396 L 522.3563365052329 574.7619351405432 L 525.0427001896069 571.1247614788297 L 527.5931786011532 567.4451177720103 L 530.0062354270451 563.7252204998633 L 532.2804171320809 559.9673103894094 L 534.4143538342383 556.173651065182 L 536.4067601298412 552.3465276857039 L 538.2564358678379 548.4882455669934 L 539.9622668727277 544.6011287939286 L 541.5232256156983 540.6875188203047 L 542.9383718335711 536.7497730584306 L 544.2068530951799 532.7902634591114 L 545.3279053148447 528.8113750828743 L 546.3008532126267 524.8155046632968 L 547.1251107210936 520.8050591633042 L 547.8001813383431 516.7824543253059 L 548.3256584270778 512.7501132160413 L 548.7012254595484 508.71046476701565 L 548.9266562082179 504.6659423114024 L 549.0018148820326 500.6189821182944" stroke-opacity="0.6980392156862745" stroke-linecap="round" stroke-linejoin="round" stroke-miterlimit="10" stroke-width="4.5"/><path fill="none" stroke="rgb(0,0,0)" paint-order="fill stroke markers" d=" M 299.4555353901996 500.61898211829435 L 422.5989045151991 357.19105041677926" stroke-opacity="0.6980392156862745" stroke-linecap="round" stroke-linejoin="round" stroke-miterlimit="10" stroke-width="2.5"/><path fill="none" stroke="rgb(0,0,0)" paint-order="fill stroke markers" d=" M 368.723680512125 500.61898211829435 L 459.3849496479023 259.25834634930004" stroke-opacity="0.6980392156862745" stroke-linecap="round" stroke-linejoin="round" stroke-miterlimit="10" stroke-width="2.5"/><path fill="none" stroke="rgb(0,0,0)" paint-order="fill stroke markers" d=" M 324.5742678761564 320.4395051388335 L 520.6235411542418 393.9425956947251" stroke-opacity="0.6980392156862745" stroke-linecap="round" stroke-linejoin="round" stroke-miterlimit="10" stroke-width="2.5"/><path fill="none" stroke="rgb(0,0,0)" paint-order="fill stroke markers" d=" M 368.0807622504537 500.61898211829435 L 330.64882032667873 500.61898211829435" stroke-opacity="1" stroke-linecap="round" stroke-linejoin="round" stroke-miterlimit="10"/><path fill="none" stroke="rgb(0,0,0)" paint-order="fill stroke markers" d=" M 344.1350071006617 448.57976748187275 L 319.7643861676824 476.96479364719363" stroke-opacity="1" stroke-linecap="round" stroke-linejoin="round" stroke-miterlimit="10"/><path fill="none" stroke="rgb(0,0,0)" paint-order="fill stroke markers" d=" M 299.4555353901996 725 L 299.4555353901996 276.2379642365887" stroke-opacity="0.6980392156862745" stroke-linecap="round" stroke-linejoin="round" stroke-miterlimit="10" stroke-width="2.5"/><path fill="none" stroke="rgb(0,0,0)" paint-order="fill stroke markers" d=" M 0 500.61898211829435 L 598.9110707803992 500.61898211829435" stroke-opacity="0.6980392156862745" stroke-linecap="round" stroke-linejoin="round" stroke-miterlimit="10" stroke-width="2.5"/><path fill="none" stroke="rgb(0,0,0)" paint-order="fill stroke markers" d=" M 462.3035353215623 500.61898211829435 L 424.8715933977874 500.61898211829435" stroke-opacity="1" stroke-linecap="round" stroke-linejoin="round" stroke-miterlimit="10"/><path fill="none" stroke="rgb(0,0,0)" paint-order="fill stroke markers" d=" M 401.60276570833986 413.0874818193458 L 388.4511316298539 448.1000819389252" stroke-opacity="1" stroke-linecap="round" stroke-linejoin="round" stroke-miterlimit="10"/><path fill="none" stroke="rgb(0,100,0)" paint-order="fill stroke markers" d=" M 994.5 332.5 L 1174.5 332.5" stroke-opacity="0.2" stroke-linecap="round" stroke-linejoin="round" stroke-miterlimit="10" stroke-width="5"/><path fill="rgb(0,100,0)" stroke="none" paint-order="stroke fill markers" d=" M 1063 332.5 C 1063 337.19442037356174 1059.1944203735618 341 1054.5 341 C 1049.8055796264382 341 1046 337.19442037356174 1046 332.5 C 1046 327.80557962643826 1049.8055796264382 324 1054.5 324 C 1059.1944203735618 324 1063 327.80557962643826 1063 332.5 Z" fill-opacity="0.2"/><path fill="none" stroke="rgb(0,100,0)" paint-order="fill stroke markers" d=" M 1063 332.5 C 1063 337.19442037356174 1059.1944203735618 341 1054.5 341 C 1049.8055796264382 341 1046 337.19442037356174 1046 332.5 C 1046 327.80557962643826 1049.8055796264382 324 1054.5 324 C 1059.1944203735618 324 1063 327.80557962643826 1063 332.5 Z" stroke-opacity="0.2" stroke-linecap="round" stroke-linejoin="round" stroke-miterlimit="10"/><path fill="rgb(0,100,0)" stroke="none" paint-order="stroke fill markers" d=" M 1060 332.5 C 1060 335.5375661240694 1057.5375661240694 338 1054.5 338 C 1051.4624338759306 338 1049 335.5375661240694 1049 332.5 C 1049 329.4624338759306 1051.4624338759306 327 1054.5 327 C 1057.5375661240694 327 1060 329.4624338759306 1060 332.5 Z" fill-opacity="1"/><path fill="none" stroke="rgb(0,0,0)" paint-order="fill stroke markers" d=" M 1060 332.5 C 1060 335.5375661240694 1057.5375661240694 338 1054.5 338 C 1051.4624338759306 338 1049 335.5375661240694 1049 332.5 C 1049 329.4624338759306 1051.4624338759306 327 1054.5 327 C 1057.5375661240694 327 1060 329.4624338759306 1060 332.5 Z" stroke-opacity="1" stroke-linecap="round" stroke-linejoin="round" stroke-miterlimit="10"/><text fill="none" stroke="rgb(255,255,255)" font-family="geogebra-sans-serif, sans-serif" font-size="12px" font-style="normal" font-weight="normal" text-decoration="normal" x="1025" y="317" text-anchor="start" dominant-baseline="alphabetic" stroke-opacity="1" stroke-linecap="round" stroke-linejoin="bevel" stroke-miterlimit="10" stroke-width="3">pitch = 30°</text><text fill="rgb(0,100,0)" stroke="none" font-family="geogebra-sans-serif, sans-serif" font-size="12px" font-style="normal" font-weight="normal" text-decoration="normal" x="1025" y="317" text-anchor="start" dominant-baseline="alphabetic" fill-opacity="1">pitch = 30°</text><path fill="none" stroke="rgb(0,100,0)" paint-order="fill stroke markers" d=" M 1004.5 124.5 L 1184.5 124.5" stroke-opacity="0.2" stroke-linecap="round" stroke-linejoin="round" stroke-miterlimit="10" stroke-width="5"/><path fill="rgb(0,100,0)" stroke="none" paint-order="stroke fill markers" d=" M 1132.9999999999998 124.5 C 1132.9999999999998 129.19442037356174 1129.1944203735616 133 1124.4999999999998 133 C 1119.805579626438 133 1115.9999999999998 129.19442037356174 1115.9999999999998 124.5 C 1115.9999999999998 119.80557962643826 1119.805579626438 116 1124.4999999999998 116 C 1129.1944203735616 116 1132.9999999999998 119.80557962643826 1132.9999999999998 124.5 Z" fill-opacity="0.2"/><path fill="none" stroke="rgb(0,100,0)" paint-order="fill stroke markers" d=" M 1132.9999999999998 124.5 C 1132.9999999999998 129.19442037356174 1129.1944203735616 133 1124.4999999999998 133 C 1119.805579626438 133 1115.9999999999998 129.19442037356174 1115.9999999999998 124.5 C 1115.9999999999998 119.80557962643826 1119.805579626438 116 1124.4999999999998 116 C 1129.1944203735616 116 1132.9999999999998 119.80557962643826 1132.9999999999998 124.5 Z" stroke-opacity="0.2" stroke-linecap="round" stroke-linejoin="round" stroke-miterlimit="10"/><path fill="rgb(0,100,0)" stroke="none" paint-order="stroke fill markers" d=" M 1129.9999999999998 124.5 C 1129.9999999999998 127.53756612406936 1127.5375661240691 130 1124.4999999999998 130 C 1121.4624338759304 130 1118.9999999999998 127.53756612406936 1118.9999999999998 124.5 C 1118.9999999999998 121.46243387593064 1121.4624338759304 119 1124.4999999999998 119 C 1127.5375661240691 119 1129.9999999999998 121.46243387593064 1129.9999999999998 124.5 Z" fill-opacity="1"/><path fill="none" stroke="rgb(0,0,0)" paint-order="fill stroke markers" d=" M 1129.9999999999998 124.5 C 1129.9999999999998 127.53756612406936 1127.5375661240691 130 1124.4999999999998 130 C 1121.4624338759304 130 1118.9999999999998 127.53756612406936 1118.9999999999998 124.5 C 1118.9999999999998 121.46243387593064 1121.4624338759304 119 1124.4999999999998 119 C 1127.5375661240691 119 1129.9999999999998 121.46243387593064 1129.9999999999998 124.5 Z" stroke-opacity="1" stroke-linecap="round" stroke-linejoin="round" stroke-miterlimit="10"/><path fill="none" stroke="rgb(0,0,0)" paint-order="fill stroke markers" d=" M 988.5 247.5 L 1188.5 247.5" stroke-opacity="0.39215686274509803" stroke-linecap="round" stroke-linejoin="round" stroke-miterlimit="10" stroke-width="5"/><path fill="rgb(0,0,0)" stroke="none" paint-order="stroke fill markers" d=" M 1097 247.5 C 1097 252.19442037356174 1093.1944203735618 256 1088.5 256 C 1083.8055796264382 256 1080 252.19442037356174 1080 247.5 C 1080 242.80557962643826 1083.8055796264382 239 1088.5 239 C 1093.1944203735618 239 1097 242.80557962643826 1097 247.5 Z" fill-opacity="0.39215686274509803"/><path fill="none" stroke="rgb(0,0,0)" paint-order="fill stroke markers" d=" M 1097 247.5 C 1097 252.19442037356174 1093.1944203735618 256 1088.5 256 C 1083.8055796264382 256 1080 252.19442037356174 1080 247.5 C 1080 242.80557962643826 1083.8055796264382 239 1088.5 239 C 1093.1944203735618 239 1097 242.80557962643826 1097 247.5 Z" stroke-opacity="0.39215686274509803" stroke-linecap="round" stroke-linejoin="round" stroke-miterlimit="10"/><path fill="rgb(0,0,0)" stroke="none" paint-order="stroke fill markers" d=" M 1094 247.5 C 1094 250.53756612406937 1091.5375661240694 253 1088.5 253 C 1085.4624338759306 253 1083 250.53756612406937 1083 247.5 C 1083 244.46243387593063 1085.4624338759306 242 1088.5 242 C 1091.5375661240694 242 1094 244.46243387593063 1094 247.5 Z" fill-opacity="1"/><path fill="none" stroke="rgb(0,0,0)" paint-order="fill stroke markers" d=" M 1094 247.5 C 1094 250.53756612406937 1091.5375661240694 253 1088.5 253 C 1085.4624338759306 253 1083 250.53756612406937 1083 247.5 C 1083 244.46243387593063 1085.4624338759306 242 1088.5 242 C 1091.5375661240694 242 1094 244.46243387593063 1094 247.5 Z" stroke-opacity="1" stroke-linecap="round" stroke-linejoin="round" stroke-miterlimit="10"/><text fill="none" stroke="rgb(255,255,255)" font-family="geogebra-sans-serif, sans-serif" font-size="12px" font-style="normal" font-weight="normal" text-decoration="normal" x="1017" y="232" text-anchor="start" dominant-baseline="alphabetic" stroke-opacity="1" stroke-linecap="round" stroke-linejoin="bevel" stroke-miterlimit="10" stroke-width="3">Pixels = 250</text><text fill="rgb(0,0,0)" stroke="none" font-family="geogebra-sans-serif, sans-serif" font-size="12px" font-style="normal" font-weight="normal" text-decoration="normal" x="1017" y="232" text-anchor="start" dominant-baseline="alphabetic" fill-opacity="1">Pixels = 250</text><path fill="none" stroke="rgb(0,0,0)" paint-order="fill stroke markers" d=" M 995.5 292.5 L 1195.5 292.5" stroke-opacity="0.39215686274509803" stroke-linecap="round" stroke-linejoin="round" stroke-miterlimit="10" stroke-width="5"/><path fill="rgb(0,0,0)" stroke="none" paint-order="stroke fill markers" d=" M 1064 292.5 C 1064 297.19442037356174 1060.1944203735618 301 1055.5 301 C 1050.8055796264382 301 1047 297.19442037356174 1047 292.5 C 1047 287.80557962643826 1050.8055796264382 284 1055.5 284 C 1060.1944203735618 284 1064 287.80557962643826 1064 292.5 Z" fill-opacity="0.39215686274509803"/><path fill="none" stroke="rgb(0,0,0)" paint-order="fill stroke markers" d=" M 1064 292.5 C 1064 297.19442037356174 1060.1944203735618 301 1055.5 301 C 1050.8055796264382 301 1047 297.19442037356174 1047 292.5 C 1047 287.80557962643826 1050.8055796264382 284 1055.5 284 C 1060.1944203735618 284 1064 287.80557962643826 1064 292.5 Z" stroke-opacity="0.39215686274509803" stroke-linecap="round" stroke-linejoin="round" stroke-miterlimit="10"/><path fill="rgb(0,0,0)" stroke="none" paint-order="stroke fill markers" d=" M 1061 292.5 C 1061 295.5375661240694 1058.5375661240694 298 1055.5 298 C 1052.4624338759306 298 1050 295.5375661240694 1050 292.5 C 1050 289.4624338759306 1052.4624338759306 287 1055.5 287 C 1058.5375661240694 287 1061 289.4624338759306 1061 292.5 Z" fill-opacity="1"/><path fill="none" stroke="rgb(0,0,0)" paint-order="fill stroke markers" d=" M 1061 292.5 C 1061 295.5375661240694 1058.5375661240694 298 1055.5 298 C 1052.4624338759306 298 1050 295.5375661240694 1050 292.5 C 1050 289.4624338759306 1052.4624338759306 287 1055.5 287 C 1058.5375661240694 287 1061 289.4624338759306 1061 292.5 Z" stroke-opacity="1" stroke-linecap="round" stroke-linejoin="round" stroke-miterlimit="10"/><text fill="none" stroke="rgb(255,255,255)" font-family="geogebra-sans-serif, sans-serif" font-size="12px" font-style="normal" font-weight="normal" text-decoration="normal" x="984" y="277" text-anchor="start" dominant-baseline="alphabetic" stroke-opacity="1" stroke-linecap="round" stroke-linejoin="bevel" stroke-miterlimit="10" stroke-width="3">ArrowScale = 0.15</text><text fill="rgb(0,0,0)" stroke="none" font-family="geogebra-sans-serif, sans-serif" font-size="12px" font-style="normal" font-weight="normal" text-decoration="normal" x="984" y="277" text-anchor="start" dominant-baseline="alphabetic" fill-opacity="1">ArrowScale = 0.15</text><text fill="rgb(0,0,0)" stroke="none" font-family="geogebra-sans-serif, sans-serif" font-size="24px" font-style="normal" font-weight="normal" text-decoration="normal" x="320" y="492" text-anchor="start" dominant-baseline="alphabetic" fill-opacity="1">ψ</text><text fill="rgb(0,0,0)" stroke="none" font-family="geogebra-sans-serif, sans-serif" font-size="24px" font-style="normal" font-weight="normal" text-decoration="normal" x="392" y="492" text-anchor="start" dominant-baseline="alphabetic" fill-opacity="1">ϕ</text><text fill="rgb(0,0,0)" stroke="none" font-family="geogebra-sans-serif, sans-serif" font-size="24px" font-style="normal" font-weight="normal" text-decoration="normal" x="149" y="316" text-anchor="start" dominant-baseline="alphabetic" fill-opacity="1">North Pole</text><text fill="rgb(0,0,0)" stroke="none" font-family="geogebra-sans-serif, sans-serif" font-size="24px" font-style="normal" font-weight="normal" text-decoration="normal" x="459" y="304" text-anchor="start" dominant-baseline="alphabetic" fill-opacity="1">Normal</text><text fill="rgb(0,0,0)" stroke="none" font-family="geogebra-sans-serif, sans-serif" font-size="24px" font-style="normal" font-weight="normal" text-decoration="normal" x="489" y="375" text-anchor="start" dominant-baseline="alphabetic" fill-opacity="1">Tangent</text><path fill="rgb(255,255,255)" stroke="none" paint-order="stroke fill markers" d=" M 171 532 L 425 532 L 425 610 L 171 610 L 171 532 Z" fill-opacity="1"/><text fill="rgb(0,0,0)" stroke="none" font-family="geogebra-sans-serif, sans-serif" font-size="24px" font-style="normal" font-weight="normal" text-decoration="normal" x="174" y="559" text-anchor="start" dominant-baseline="alphabetic" fill-opacity="1">ψ = Geocentric latitude</text><text fill="rgb(0,0,0)" stroke="none" font-family="geogebra-sans-serif, sans-serif" font-size="24px" font-style="normal" font-weight="normal" text-decoration="normal" x="174" y="595" text-anchor="start" dominant-baseline="alphabetic" fill-opacity="1">ϕ = Geographic latitude</text><path fill="rgb(255,255,255)" stroke="none" paint-order="stroke fill markers" fill-rule="evenodd" d=" M 1016 172 L 1139 172 C 1140.6568542494924 172 1143 174.34314575050763 1143 176 L 1143 202 C 1143 203.65685424949237 1140.6568542494924 206 1139 206 L 1016 206 C 1014.3431457505076 206 1012 203.65685424949237 1012 202 L 1012 176 C 1012 174.34314575050763 1014.3431457505076 172 1016 172 Z" fill-opacity="1"/><path fill="none" stroke="rgb(0,0,0)" paint-order="fill stroke markers" d=" M 1015.5 172 L 1139.5 172 C 1140.9497474683058 172 1143 174.05025253169416 1143 175.5 L 1143 202.5 C 1143 203.94974746830584 1140.9497474683058 206 1139.5 206 L 1015.5 206 C 1014.0502525316941 206 1012 203.94974746830584 1012 202.5 L 1012 175.5 C 1012 174.05025253169416 1014.0502525316941 172 1015.5 172 Z" stroke-opacity="1" stroke-linecap="round" stroke-linejoin="round" stroke-miterlimit="10"/><text fill="rgb(0,0,0)" stroke="none" font-family="geogebra-sans-serif, sans-serif" font-size="24px" font-style="normal" font-weight="normal" text-decoration="normal" x="1022" y="197" text-anchor="start" dominant-baseline="alphabetic" fill-opacity="1">Reset size</text></g></g></svg>