<?xml version="1.0" encoding="iso-8859-1"?>
<!DOCTYPE svg PUBLIC "-//W3C//DTD SVG 1.1//EN" "http://www.w3.org/Graphics/SVG/1.1/DTD/svg11.dtd" [
	<!ENTITY ns_svg "http://www.w3.org/2000/svg">
	<!ENTITY ns_xlink "http://www.w3.org/1999/xlink">
]>
<svg  version="1.1" id="Layer_1" xmlns="&ns_svg;" xmlns:xlink="&ns_xlink;" width="480.076" height="403.014"
	 viewBox="0 0 480.076 403.014" overflow="visible" enable-background="new 0 0 480.076 403.014" xml:space="preserve">
<g>
	<path fill="none" stroke="#ED1C24" stroke-width="0.25" stroke-miterlimit="3.8637" d="M337.728,343.573
		c8.581,8.563,13.888,20.41,13.888,33.498"/>
		<line fill="none" stroke="#ED1C24" stroke-width="0.25" stroke-miterlimit="3.8637" x1="278.381" y1="402.796" x2="304.106" y2="377.071"/>
		<line fill="none" stroke="#ED1C24" stroke-width="0.25" stroke-miterlimit="3.8637" x1="322.79" y1="358.415" x2="383.815" y2="297.39"/>
		<line fill="none" stroke="#ED1C24" stroke-width="0.25" stroke-miterlimit="3.8637" x1="0.222" y1="377.071" x2="25.947" y2="377.071"/>
		<line fill="none" stroke="#ED1C24" stroke-width="0.25" stroke-miterlimit="3.8637" x1="402.44" y1="278.692" x2="480.076" y2="278.692"/>
		<line fill="none" stroke="#ED1C24" stroke-width="0.25" stroke-miterlimit="3.8637" x1="304.101" y1="377.071" x2="460.26" y2="377.071"/>
	<line fill="none" stroke="#000000" stroke-miterlimit="3.8637" x1="304.106" y1="98.879" x2="402.44" y2="0.5"/>
		<line fill="none" stroke="#ED1C24" stroke-width="0.25" stroke-miterlimit="3.8637" x1="177.11" y1="225.936" x2="198.649" y2="204.364"/>
		<line fill="none" stroke="#ED1C24" stroke-width="0.25" stroke-miterlimit="3.8637" x1="97.366" y1="305.601" x2="105.672" y2="297.344"/>
		<line fill="none" stroke="#ED1C24" stroke-width="0.25" stroke-miterlimit="3.8637" x1="0.088" y1="402.925" x2="25.962" y2="377.052"/>
	<polyline fill="none" stroke="#000000" stroke-miterlimit="3.8637" points="25.947,98.879 304.106,98.879 304.106,377.071 	"/>
	<polyline fill="none" stroke="#000000" stroke-miterlimit="3.8637" points="177.116,152.411 177.083,278.697 158.427,297.354 
		105.665,297.354 105.633,182.587 	"/>
	<path fill="none" stroke="#000000" stroke-miterlimit="3.8637" d="M158.427,297.354V158.258c0-2.139,0.078-4.26,0.231-6.358"/>
	<path fill="none" stroke="#000000" stroke-miterlimit="3.8637" d="M330.989,152.953v144.396h52.768l18.684-18.656L402.504,0.5
		h-0.064H124.215h0.033L25.915,98.879l0.031,278.192H78.71l18.655-18.656l0.031-139.096h-0.031c0-19.079,6.182-36.711,16.651-51.001
		"/>
		<line fill="none" stroke="#ED1C24" stroke-width="0.25" stroke-miterlimit="3.8637" x1="177.083" y1="278.692" x2="251.34" y2="278.692"/>
		<line fill="none" stroke="#ED1C24" stroke-width="0.25" stroke-miterlimit="3.8637" x1="0.222" y1="278.692" x2="25.947" y2="278.692"/>
		<line fill="none" stroke="#ED1C24" stroke-width="0.25" stroke-miterlimit="3.8637" x1="97.365" y1="278.692" x2="105.665" y2="278.692"/>
		<line fill="none" stroke="#ED1C24" stroke-width="0.25" stroke-miterlimit="3.8637" x1="322.79" y1="278.692" x2="330.989" y2="278.692"/>
		<line fill="none" stroke="#ED1C24" stroke-width="0.25" stroke-miterlimit="3.8637" x1="78.71" y1="377.071" x2="251.34" y2="377.071"/>
	<path fill="none" stroke="#000000" stroke-miterlimit="3.8637" d="M78.71,377.071V237.975c0-47.693,38.628-86.354,86.32-86.354
		s86.354,38.66,86.354,86.354h-0.045v139.096h52.766l18.685-18.656l0.032-139.096c0-47.692,14.28-100.781,30.45-116.869
		c14.875-14.797,30.483,8.11,30.483,55.802v0.001v139.096"/>
		<line fill="none" stroke="#ED1C24" stroke-width="0.25" stroke-miterlimit="3.8637" x1="402.44" y1="278.692" x2="475.598" y2="205.533"/>
	<g>
		<path fill="#F2795D" d="M357.071,361.117v-2.844h-5.153v-1.341l5.412-7.659h1.196v7.659h1.601v1.341h-1.601v2.844H357.071z
			 M357.071,356.932v-5.353l-3.722,5.353H357.071z"/>
		<path fill="#F2795D" d="M361.619,357.999l1.535-0.112c0.112,0.739,0.373,1.298,0.781,1.67s0.905,0.56,1.491,0.56
			c0.705,0,1.298-0.264,1.775-0.792c0.48-0.528,0.72-1.228,0.72-2.101c0-0.829-0.23-1.483-0.691-1.964
			c-0.459-0.479-1.069-0.719-1.829-0.719c-0.473,0-0.896,0.108-1.269,0.324c-0.374,0.215-0.667,0.495-0.882,0.839l-1.373-0.194
			l1.146-6.092h5.882v1.391h-4.723l-0.634,3.188c0.711-0.499,1.457-0.749,2.237-0.749c1.034,0,1.907,0.358,2.619,1.076
			c0.711,0.717,1.067,1.639,1.067,2.766c0,1.072-0.313,2-0.938,2.782c-0.759,0.959-1.796,1.439-3.109,1.439
			c-1.078,0-1.957-0.303-2.639-0.907C362.107,359.798,361.717,358.998,361.619,357.999z"/>
		<path fill="#F2795D" d="M373.15,349.079c0.78,0,1.417,0.271,1.911,0.81c0.493,0.539,0.739,1.282,0.739,2.232
			c0,0.944-0.248,1.687-0.744,2.226c-0.496,0.54-1.128,0.809-1.898,0.809c-0.78,0-1.419-0.264-1.915-0.793
			c-0.496-0.528-0.743-1.264-0.743-2.208c0-0.971,0.247-1.726,0.739-2.265C371.732,349.349,372.368,349.079,373.15,349.079z
			 M373.15,350.146c-0.437,0-0.788,0.153-1.055,0.462c-0.268,0.308-0.4,0.811-0.4,1.509c0,0.682,0.136,1.181,0.408,1.497
			c0.271,0.316,0.621,0.475,1.046,0.475c0.431,0,0.78-0.158,1.05-0.475c0.271-0.316,0.404-0.829,0.404-1.537
			c0-0.66-0.136-1.146-0.408-1.46C373.924,350.302,373.574,350.146,373.15,350.146z"/>
	</g>
</g>
</svg>