<?xml version="1.0" encoding="utf-8" ?>
<!DOCTYPE svg PUBLIC "-//W3C//DTD SVG 1.0//EN" "http://www.w3.org/TR/2001/REC-SVG-20010904/DTD/svg10.dtd">
<!--This file is licensed under the terms of the CC-LGPL-->
<svg xmlns="http://www.w3.org/2000/svg" xmlns:xlink="http://www.w3.org/1999/xlink" viewBox="-4 -4 8 8" width="512" height="512" preserveAspectRatio="none">
	<title>HSL Sphere</title>
	<desc></desc>
	<defs>
		<path id="arrow" d="M 0 0.15 L 0.3 0 L 0 -0.15 z" style="stroke:#000000;stroke-width:0.01;fill:#000000;" />
		  <path
		     id="hue_path_2"
		     d="M -0.84 -3.14 A 3.25 3.25 0 0,0 -3.14 -0.84"
		     style="stroke:#000000;stroke-width:0.1;fill:none;" transform="scale(1.15)" />
	</defs>
<!--
  <circle
     cx="0"
     cy="0"
     r="3"
     style="stroke:#000000;stroke-width:0.05px;"
     id="circle3514" />
-->
  <path
     id="hue_path"
     d="M -0.84 -3.14 A 3.25 3.25 0 0,0 -3.14 -0.84"
     style="stroke:#000000;stroke-width:0.1;fill:none;" />
  <use
     xlink:href="#arrow"
     transform="translate(-3.14 -0.84) rotate(105)"
     id="use3660" />
<!--
  <path
     transform="scale(1.05)"
     style="font-size:0.375px"
     d="M -3.3926094,-0.95820645 L -3.3815158,-0.9934909 L -3.2746144,-0.95988054 L -3.2343039,-1.0880924 L -3.3412053,-1.1217027 L -3.3301117,-1.1569872 L -3.0693212,-1.0749933 L -3.0804148,-1.0397088 L -3.2046091,-1.0787561 L -3.2449195,-0.95054433 L -3.1207252,-0.911497 L -3.1318189,-0.87621255 L -3.3926094,-0.95820645 z M -3.120502,-1.1697709 L -3.2355769,-1.2163526 L -3.2229353,-1.2475824 L -3.1090484,-1.2014816 C -3.0910573,-1.1941988 -3.0761441,-1.1922445 -3.0643088,-1.1956186 C -3.0524735,-1.1989926 -3.043716,-1.207695 -3.0380364,-1.2217258 C -3.0312118,-1.2385853 -3.0311932,-1.2540845 -3.0379806,-1.2682235 C -3.044768,-1.2823622 -3.0574401,-1.2931875 -3.0759969,-1.3006994 L -3.1837737,-1.3443268 L -3.171132,-1.3755566 L -2.9810377,-1.2986074 L -2.9936793,-1.2673777 L -3.0228724,-1.2791949 C -3.0143998,-1.2669416 -3.0093897,-1.2546745 -3.0078423,-1.2423935 C -3.0062949,-1.2301123 -3.0082007,-1.2173524 -3.0135596,-1.2041137 C -3.0223996,-1.1822755 -3.0358988,-1.168447 -3.0540573,-1.1626283 C -3.0722157,-1.1568094 -3.0943639,-1.1591903 -3.120502,-1.1697709 L -3.120502,-1.1697709 z M -2.9745887,-1.568626 L -2.9597992,-1.5613565 L -3.0281327,-1.4223357 C -3.0066717,-1.413419 -2.9877313,-1.4118963 -2.9713115,-1.4177675 C -2.9548917,-1.4236386 -2.9417547,-1.4365981 -2.9319004,-1.4566461 C -2.9261925,-1.4682584 -2.9220838,-1.4802149 -2.9195742,-1.4925154 C -2.9170647,-1.5048157 -2.9160197,-1.517734 -2.9164392,-1.5312703 L -2.8878462,-1.5172159 C -2.8885761,-1.5041085 -2.8905361,-1.4912659 -2.8937261,-1.4786881 C -2.8969162,-1.4661099 -2.9013922,-1.4539599 -2.9071539,-1.442238 C -2.9215852,-1.4128781 -2.9415595,-1.393826 -2.9670768,-1.3850816 C -2.992594,-1.3763371 -3.019923,-1.3791266 -3.0490637,-1.3934503 C -3.0791903,-1.4082585 -3.0991017,-1.4281451 -3.1087979,-1.4531101 C -3.1184938,-1.4780748 -3.116557,-1.5043607 -3.1029874,-1.5319679 C -3.0908176,-1.5567263 -3.0732223,-1.5723911 -3.0502017,-1.5789625 C -3.0271808,-1.5855333 -3.0019765,-1.5820878 -2.9745887,-1.568626 L -2.9745887,-1.568626 z M -2.9983245,-1.5427515 C -3.0149744,-1.5506633 -3.0304504,-1.5525234 -3.0447526,-1.548332 C -3.0590546,-1.5441401 -3.0698673,-1.5345948 -3.0771908,-1.519696 C -3.0854833,-1.5028249 -3.0873546,-1.4869803 -3.0828047,-1.4721622 C -3.0782546,-1.4573437 -3.067702,-1.4449137 -3.0511468,-1.4348721 L -2.9983245,-1.5427515 z "
     id="text3668" />
-->
<!--
	<text fill="black" font-size="0.525" transform="scale(0.9523809524)">
	    <textPath xlink:href="#hue_path">Hue</textPath>
	</text>
-->
	<text fill="black" font-size="0.5" transform="scale(1)" text-anchor="middle" font-family="sans-serif">
	    <textPath xlink:href="#hue_path_2" startOffset="50%">Hue</textPath>
	</text>
</svg>