<?xml version="1.0" encoding="utf-8" ?>
<!DOCTYPE svg PUBLIC "-//W3C//DTD SVG 1.0//EN" "http://www.w3.org/TR/2001/REC-SVG-20010904/DTD/svg10.dtd">
<!--This file is licensed under the terms of the CC-LGPL-->
<svg xmlns="http://www.w3.org/2000/svg" xmlns:xlink="http://www.w3.org/1999/xlink" viewBox="-4 -4 8 8" width="512" height="512" preserveAspectRatio="none">
	<title>HSL Sphere</title>
	<desc></desc>
	<defs>
		<path id="arrow" d="M 0 0.15 L 0.3 0 L 0 -0.15 z" fill="black" stroke="none"/>
	</defs>
<!--53,35,18-->
  <path
     id="sat_path"
     d="M +0.18 +0.18 L +1.94 +1.94"
     style="stroke:#000000;stroke-width:0.1;fill:none;" />
  <use
     xlink:href="#arrow"
     transform="translate(+1.94 +1.94) rotate(45)"
     id="use3662" />
<!--
  <path
     transform="translate(+0.1 -0.1)"
     style="font-size:0.375px"
     d="M 0.85886677,0.48494264 L 0.83336017,0.51044924 C 0.82818087,0.49577542 0.8223545,0.48287108 0.81588103,0.47173617 C 0.809407,0.46060138 0.80207008,0.45093392 0.79387027,0.44273375 C 0.77962775,0.42849159 0.76588182,0.42026992 0.75263244,0.41806874 C 0.73938261,0.41586777 0.72766512,0.41985992 0.71747995,0.43004518 C 0.70893441,0.43859063 0.70505016,0.44761072 0.70582718,0.45710548 C 0.70660386,0.46660039 0.71281866,0.47985 0.7244716,0.49685435 L 0.73703069,0.51588719 C 0.75282643,0.53910638 0.76068124,0.56003817 0.76059516,0.57868262 C 0.76050861,0.59732697 0.75261063,0.61450399 0.73690121,0.63021372 C 0.71817029,0.64894433 0.69769166,0.65686389 0.67546526,0.6539724 C 0.65323858,0.65108067 0.62999782,0.63750737 0.60574291,0.61325247 C 0.59659327,0.60410282 0.58789687,0.59333482 0.57965368,0.58094843 C 0.57141039,0.56856194 0.56379294,0.55481601 0.55680132,0.53971061 L 0.58373215,0.51277978 C 0.58839319,0.5293526 0.59430588,0.54424222 0.60147024,0.5574487 C 0.60863445,0.57065512 0.61713664,0.58217839 0.62697683,0.59201856 C 0.64190952,0.60695128 0.65636756,0.61553978 0.670351,0.6177841 C 0.68433416,0.62002825 0.69676376,0.61571242 0.70763983,0.60483659 C 0.71713449,0.59534169 0.72164453,0.58500527 0.72116998,0.5738273 C 0.72069505,0.56264925 0.71514921,0.54907596 0.70453243,0.53310738 L 0.69171439,0.51407454 C 0.67609092,0.49068274 0.66806347,0.47048464 0.66763202,0.45348018 C 0.6672003,0.43647587 0.67436459,0.42059361 0.68912489,0.40583334 C 0.70621543,0.38874276 0.72570142,0.38129795 0.74758291,0.38349888 C 0.76946397,0.3857001 0.79097839,0.39737443 0.81212626,0.4185219 C 0.82118922,0.42758526 0.8296051,0.43764115 0.8373739,0.4486896 C 0.8451421,0.45973822 0.85230638,0.47182255 0.85886677,0.48494264 L 0.85886677,0.48494264 z M 0.86210367,0.71631469 C 0.84285489,0.69706606 0.82731789,0.68593121 0.81549263,0.68291011 C 0.80366713,0.67988904 0.79244596,0.68368698 0.7818291,0.69430392 C 0.77336998,0.70276296 0.76944257,0.71225779 0.77004686,0.72278845 C 0.77065101,0.73331905 0.77574369,0.74337494 0.78532493,0.75295615 C 0.79853129,0.76616254 0.81380934,0.77207523 0.83115912,0.77069424 C 0.84850863,0.7693131 0.86495196,0.76085407 0.88048914,0.74531712 L 0.88579762,0.74000864 L 0.86210367,0.71631469 z M 0.91946115,0.75399195 L 0.83672655,0.83672655 L 0.81290312,0.81290313 L 0.8349139,0.79089236 C 0.82067151,0.79425862 0.80740032,0.79397809 0.7951003,0.79005077 C 0.78280008,0.78612327 0.77078048,0.77829003 0.75904148,0.76655104 C 0.74419495,0.7517045 0.73655593,0.73573592 0.73612438,0.71864524 C 0.73569276,0.70155452 0.74246862,0.68601752 0.75645198,0.6720342 C 0.77276577,0.65572038 0.79052542,0.64887978 0.80973099,0.65151239 C 0.82893633,0.6541451 0.8493718,0.66629417 0.87103746,0.68795964 L 0.90444204,0.72136422 L 0.90677259,0.71903367 C 0.9177346,0.70807143 0.92261149,0.6959871 0.92140328,0.68278064 C 0.92019462,0.6695742 0.9130735,0.65645407 0.90003988,0.6434202 C 0.89175328,0.63513386 0.88269003,0.62805589 0.87285011,0.62218628 C 0.86300983,0.61631682 0.8524792,0.61174204 0.84125818,0.60846192 L 0.86326895,0.58645115 C 0.87535312,0.59180289 0.88633691,0.59773716 0.89622037,0.60425398 C 0.90610343,0.61077098 0.91492931,0.61791368 0.92269803,0.62568211 C 0.94367275,0.64665713 0.95390128,0.66776156 0.95338363,0.68899544 C 0.95286548,0.71022935 0.94155799,0.73189483 0.91946115,0.75399195 L 0.91946115,0.75399195 z M 1.0956768,0.72330638 L 1.0545037,0.76447947 L 1.1035748,0.81355054 L 1.0850599,0.83206548 L 1.0359888,0.78299441 L 0.95726792,0.86171528 C 0.94544244,0.87354066 0.93946501,0.88275497 0.93933561,0.88935822 C 0.93920606,0.89596142 0.94410453,0.90422624 0.95403104,0.91415271 L 0.97850184,0.9386235 L 0.95856267,0.95856267 L 0.93409187,0.93409187 C 0.91570635,0.91570635 0.90644889,0.89958672 0.90631946,0.88573292 C 0.90618994,0.87187907 0.91518845,0.85588891 0.93331502,0.83776239 L 1.0120359,0.75904151 L 0.99455675,0.74156237 L 1.0130717,0.72304743 L 1.0305508,0.74052657 L 1.0717239,0.69935349 L 1.0956768,0.72330638 z M 1.0447931,0.93033706 L 1.1325772,0.84255293 L 1.1564006,0.86637636 L 1.0695228,0.95325416 C 1.0557984,0.96697852 1.0481809,0.9799476 1.0466705,0.99216143 C 1.0451598,1.0043752 1.0497562,1.0158337 1.0604596,1.0265371 C 1.0733206,1.0393982 1.0875845,1.0454619 1.1032511,1.0447283 C 1.1189174,1.0439946 1.1338286,1.0365497 1.1479847,1.0223939 L 1.2302014,0.94017718 L 1.2540249,0.9640006 L 1.1090127,1.1090127 L 1.0851893,1.0851893 L 1.107459,1.0629196 C 1.0928714,1.0659406 1.0796218,1.0657679 1.0677102,1.0624017 C 1.0557984,1.0590352 1.044793,1.0523025 1.034694,1.0422036 C 1.0180348,1.0255444 1.0105684,1.00772 1.0122948,0.98873034 C 1.0140211,0.96974065 1.0248538,0.95027624 1.0447931,0.93033706 L 1.0447931,0.93033706 z M 1.3651145,1.1196297 C 1.3639922,1.1154002 1.3622227,1.1113433 1.3598061,1.107459 C 1.357389,1.1035748 1.3542816,1.0997337 1.3504838,1.0959358 C 1.3370182,1.0824704 1.3223012,1.0765146 1.3063328,1.0780682 C 1.2903641,1.079622 1.2741797,1.0885989 1.2577797,1.104999 L 1.1813893,1.1813893 L 1.1574364,1.1574364 L 1.3024486,1.0124243 L 1.3264015,1.0363772 L 1.3038728,1.0589059 C 1.3176833,1.055108 1.3307387,1.0550864 1.343039,1.0588411 C 1.3553389,1.062596 1.3672291,1.0702134 1.3787094,1.0816935 C 1.3803492,1.0833336 1.3820539,1.0852541 1.3838237,1.0874551 C 1.3855929,1.0896563 1.3874703,1.092181 1.3894559,1.0950294 L 1.3651145,1.1196297 z M 1.4064171,1.2606281 C 1.3871683,1.2413795 1.3716313,1.2302446 1.3598061,1.2272235 C 1.3479806,1.2242025 1.3367594,1.2280004 1.3261425,1.2386174 C 1.3176834,1.2470764 1.313756,1.2565712 1.3143603,1.2671019 C 1.3149644,1.2776325 1.3200571,1.2876884 1.3296384,1.2972696 C 1.3428447,1.310476 1.3581228,1.3163887 1.3754725,1.3150077 C 1.3928221,1.3136265 1.4092654,1.3051675 1.4248026,1.2896305 L 1.430111,1.2843221 L 1.4064171,1.2606281 z M 1.4637746,1.2983054 L 1.38104,1.38104 L 1.3572166,1.3572166 L 1.3792273,1.3352058 C 1.3649849,1.338572 1.3517138,1.3382915 1.3394137,1.3343642 C 1.3271135,1.3304367 1.3150939,1.3226035 1.3033549,1.3108645 C 1.2885084,1.2960179 1.2808694,1.2800494 1.2804378,1.2629587 C 1.2800062,1.245868 1.286782,1.230331 1.3007654,1.2163476 C 1.3170792,1.2000338 1.3348389,1.1931932 1.3540444,1.1958258 C 1.3732498,1.1984585 1.3936852,1.2106076 1.4153509,1.2322731 L 1.4487555,1.2656777 L 1.451086,1.2633471 C 1.462048,1.2523849 1.4669249,1.2403005 1.4657167,1.2270941 C 1.4645081,1.2138876 1.4573869,1.2007675 1.4443533,1.1877336 C 1.4360667,1.1794473 1.4270035,1.1723693 1.4171635,1.1664997 C 1.4073233,1.1606303 1.3967926,1.1560555 1.3855716,1.1527753 L 1.4075824,1.1307646 C 1.4196665,1.1361163 1.4306503,1.1420506 1.4405338,1.1485674 C 1.4504169,1.1550844 1.4592427,1.1622271 1.4670115,1.1699955 C 1.4879862,1.1909706 1.4982147,1.212075 1.4976971,1.2333089 C 1.4971789,1.2545428 1.4858714,1.2762083 1.4637746,1.2983054 L 1.4637746,1.2983054 z M 1.6399903,1.2676198 L 1.5988172,1.3087929 L 1.6478882,1.357864 L 1.6293733,1.3763789 L 1.5803022,1.3273078 L 1.5015813,1.4060287 C 1.4897559,1.4178541 1.4837784,1.4270684 1.483649,1.4336717 C 1.4835195,1.4402748 1.488418,1.4485397 1.4983445,1.4584661 L 1.5228153,1.4829369 L 1.5028761,1.5028761 L 1.4784053,1.4784053 C 1.4600198,1.4600198 1.4507623,1.4439001 1.4506329,1.4300463 C 1.4505034,1.4161925 1.4595019,1.4002023 1.4776285,1.3820758 L 1.5563493,1.3033549 L 1.5388702,1.2858758 L 1.5573851,1.2673609 L 1.5748643,1.28484 L 1.6160374,1.2436669 L 1.6399903,1.2676198 z M 1.6793507,1.3893264 L 1.7031741,1.4131498 L 1.5581619,1.5581619 L 1.5343385,1.5343385 L 1.6793507,1.3893264 z M 1.7358018,1.3328752 L 1.7596252,1.3566987 L 1.7294575,1.3868664 L 1.7056341,1.3630429 L 1.7358018,1.3328752 z M 1.7923824,1.5357628 C 1.7796074,1.5229879 1.7645235,1.5178737 1.7471309,1.52042 C 1.7297379,1.5229664 1.7123667,1.5329144 1.6950172,1.550264 C 1.6776674,1.5676137 1.6676978,1.5849633 1.6651084,1.602313 C 1.6625188,1.6196626 1.6676547,1.634768 1.6805159,1.6476293 C 1.6932044,1.6603177 1.7082666,1.6653673 1.7257028,1.6627779 C 1.7431386,1.6601883 1.7604882,1.6502619 1.7777518,1.6329986 C 1.7949286,1.6158215 1.8048334,1.5984934 1.8074663,1.5810143 C 1.8100987,1.5635352 1.8050708,1.5484514 1.7923824,1.5357628 L 1.7923824,1.5357628 z M 1.8125806,1.5155646 C 1.8332963,1.5362807 1.8428343,1.5592841 1.8411946,1.5845749 C 1.8395543,1.6098657 1.8268226,1.6344228 1.8029994,1.6582462 C 1.7792621,1.6819832 1.7547266,1.6946934 1.7293928,1.6963766 C 1.7040587,1.6980597 1.6810337,1.6885433 1.6603178,1.6678274 C 1.6395154,1.647025 1.6299774,1.6239784 1.6317038,1.5986877 C 1.6334301,1.5733969 1.6461618,1.5488829 1.669899,1.5251458 C 1.6937223,1.5013225 1.7182578,1.4885692 1.7435056,1.4868859 C 1.7687531,1.4852028 1.791778,1.4947624 1.8125806,1.5155646 L 1.8125806,1.5155646 z M 1.9780497,1.8029994 L 1.8905246,1.8905246 L 1.8667011,1.8667011 L 1.9534495,1.7799528 C 1.9671736,1.7662284 1.9747695,1.7532809 1.9762371,1.7411103 C 1.9777042,1.7289396 1.9730863,1.7175027 1.9623832,1.7067994 C 1.9495218,1.6939382 1.9352796,1.6878961 1.9196565,1.6886728 C 1.904033,1.6894498 1.8891433,1.6969161 1.8749875,1.711072 L 1.7930298,1.7930298 L 1.7690769,1.7690769 L 1.914089,1.6240648 L 1.9380419,1.6480177 L 1.9155133,1.6705463 C 1.929928,1.6675253 1.943156,1.6677195 1.9551974,1.671129 C 1.9672383,1.6745386 1.9783085,1.6812928 1.9884077,1.6913918 C 2.0050666,1.708051 2.0125114,1.7258106 2.0107422,1.7446708 C 2.0089724,1.763531 1.998075,1.7829739 1.9780497,1.8029994 L 1.9780497,1.8029994 z "
     id="text3664" />
-->
	<text fill="black" font-size="0.5" transform="translate(0.1149, -0.1149)">
	    <textPath xlink:href="#sat_path">Chroma</textPath>
	</text>
</svg>